<?xml version="1.0" encoding="UTF-8"?><svg id="Layer_2" xmlns="http://www.w3.org/2000/svg" viewBox="0 0 499.61 496.81"><defs><style>.cls-1{fill:#a3405e;stroke-width:0px;}</style></defs><g id="Layer_1-2"><polygon class="cls-1" points="343.77 433.28 354.17 455.52 354.26 455.34 343.91 433.21 343.77 433.28"/><path class="cls-1" d="m344.7,458.07s.06.02.09.03l-9.71-20.75-.06.03,9.68,20.7Z"/><path class="cls-1" d="m434.98,157.06l20.75-9.72s-.08-.03-.12-.05l-20.67,9.69.04.09Z"/><path class="cls-1" d="m156.34,60.47l-7.6-16.86c-.04.07-.07.15-.11.22l7.54,16.72.17-.08Z"/><polygon class="cls-1" points="157.21 38.98 157.16 38.97 165.08 56.53 165.11 56.52 157.21 38.98"/><polygon class="cls-1" points="38.38 341.93 38.34 342.07 58.71 332.53 58.66 332.42 38.38 341.93"/><polygon class="cls-1" points="461.47 155.37 461.52 155.21 439.05 165.74 439.1 165.86 461.47 155.37"/><path class="cls-1" d="m62.78,341.21l-19.01,8.91s.09.04.13.06l18.93-8.87-.05-.1Z"/><path class="cls-1" d="m173.74,75.66l16.7,37.05-8.95,4.03-16.7-37.05,8.95-4.03Z"/><path class="cls-1" d="m439.29,241.21c13.21-21.52,33.06-59.84,37.91-75.72,3.19-10.44,7.15-20.09,11.81-28.73-11.83-1.23-23.95-4.52-36.09-9.79-22.92-9.93-45.69-14.76-69.63-14.76-3.19,0-6.53.13-10.07.37-.23-4.15-.61-9.19-.98-13.84-.82-10.21-2.49-20.34-5.25-30.21-4.28-15.26-9.28-27.95-15.62-39.86-5.13-9.63-9.15-19.26-11.97-28.67-9.23,7.49-20.13,13.74-32.44,18.61-25.03,9.89-46.19,24.27-64.15,43.56-20.57-13.14-59.24-33.48-75.85-38.91-10.38-3.4-19.95-7.56-28.5-12.38-1.46,11.79-4.98,23.85-10.49,35.9-11.49,25.14-16.7,50.84-15.9,78.1-17.48,1.68-32.91,5.55-33.08,5.59-20.25,5.13-35.81,10.99-50.45,18.99-9.58,5.23-19.16,9.35-28.54,12.28,7.59,9.14,13.96,19.97,18.96,32.23,9.79,24.01,23.77,44.35,42.2,61.68-12.47,20.38-33.47,59.7-38.58,76.44-3.2,10.46-7.17,20.11-11.82,28.73,11.83,1.24,23.95,4.52,36.09,9.79,22.92,9.93,45.7,14.76,69.64,14.76,2.81,0,5.76-.11,8.83-.3,1.25,11.81,3.39,26.4,3.39,26.48,5.28,23.16,11.47,40.62,20.07,56.63,5.16,9.6,9.22,19.22,12.09,28.63,9.2-7.53,20.07-13.82,32.36-18.74,24.96-9.99,46.05-24.43,63.93-43.77,22.16,13.62,63.94,34.91,79.56,40.01,10.38,3.4,19.95,7.56,28.5,12.38,1.47-11.8,4.99-23.86,10.49-35.89,11.78-25.76,16.96-52.15,15.82-80.2,15.8-1.88,29.08-5.27,29.24-5.31,19.95-5.14,35.95-11.24,50.37-19.19,9.55-5.27,19.12-9.43,28.49-12.39-7.63-9.11-14.04-19.91-19.09-32.15-9.67-23.44-23.34-43.34-41.23-60.35Zm26.68,87.24c-16.82,10.21-34.29,17.72-51.89,22.32-.65.19-16.06,4.64-34.24,5.28-1.38.05-2.82.07-4.3.07-8.15,0-17.58-.68-24.05-1.26-9.54-.85-18.35-2.84-26.18-5.93-4.7-1.85-9.28-4-13.61-6.38-3.81-2.1-7.6-4.5-11.26-7.15-6.59-4.73-12.57-10.17-17.84-16.21,1.25,7.91,1.59,15.98,1,24.08-.33,4.53-.92,8.98-1.75,13.23-2.7,13.79-7.9,27.16-15.47,39.75-18.63,30.98-51.03,55.88-91.22,70.11l-5.62,1.98-3.02-5.12c-10.03-16.94-17.35-34.5-21.77-52.19l.36.63c-1.42-3.45-3.96-27.07-4.03-41.01-.04-8.17.84-16.09,1.59-21.3.8-5.53,1.27-8.24,1.73-9.61h0c2.51-10,6.17-19.5,10.91-28.24,2.07-3.81,4.44-7.61,7.07-11.31,4.69-6.62,10.08-12.63,16.09-17.95-5.61.93-11.32,1.4-17.04,1.4-2.28,0-4.65-.08-7.03-.23-4.53-.3-8.98-.86-13.24-1.66-13.81-2.61-27.22-7.72-39.85-15.2-31.11-18.41-56.23-50.64-70.73-90.73l-2.02-5.6,5.1-3.06c16.86-10.14,34.37-17.58,51.98-22.1.65-.19,16.08-4.58,34.26-5.15,1.2-.04,2.44-.06,3.72-.06,8.27,0,17.93.74,24.59,1.35,9.56.88,18.37,2.92,26.2,6.03,4.69,1.87,9.26,4.04,13.59,6.44,3.81,2.12,7.59,4.54,11.23,7.18,6.57,4.76,12.52,10.22,17.78,16.29-1.22-7.92-1.53-15.99-.9-24.09.35-4.52.96-8.97,1.81-13.22,2.75-13.78,8.01-27.13,15.63-39.69,18.76-30.91,51.25-55.68,91.5-69.75l5.63-1.96,3,5.13c3.65,6.22,6.97,12.6,9.88,18.96,7.49,16.39,12.01,34.26,13.41,53.14.5,6.72.75,11.53.72,14.29-.03,4.98-.96,15.3-1.73,23.08-1.5,15.18-5.55,29.06-12.06,41.27l-.14.27c-2.05,3.81-4.41,7.62-7.02,11.34-4.66,6.64-10.03,12.67-16.02,18.01,5.61-.95,11.31-1.44,17.04-1.46h.39c2.21,0,4.42.07,6.64.21,4.54.28,9,.82,13.25,1.61,13.82,2.55,27.25,7.61,39.92,15.04,31.19,18.3,56.43,50.42,71.09,90.45l2.04,5.59-5.09,3.08Zm-94.68-175.44c.02-.18,1.16-13.62,1.78-24.21.91-.03,1.82-.06,2.73-.09.5-.02,1-.05,1.49-.05,25.5,0,52.53,6.46,78.32,18.62.04.02.08.03.12.05l-20.75,9.72-4.3,2.01,4.07,8.68,4.3-2.01,22.47-10.53-.04.16-.27,1.04c-4.66,17.84-22.53,54-32.52,71.74-.49.88-.99,1.75-1.44,2.53-4.38-3.49-8.89-6.89-13.7-10.11-15.42-10.31-32.12-17.39-49.64-21.04l-3.78-.79-2.9-6.2,1.7-3.36c5.75-11.34,9.92-23.58,12.37-36.17ZM148.73,43.61l7.6,16.86,1.98,4.4,8.74-3.94-1.98-4.4-7.92-17.57h.05s.35.11.35.11c17.15,4.83,54.32,23.05,72.49,33.73.84.49,1.69.99,2.44,1.45-2.56,3.27-5.08,6.61-7.5,10.12-10.32,14.96-17.53,31.18-21.5,48.23l-11.82,5.37c-9.56-4.91-19.78-8.74-30.45-11.34-3.05-.74-6.39-1.26-10.2-1.59-5.15-.44-13.11-.98-21.81-.98-.42,0-.81.01-1.22.02,0-.97.08-1.96.09-2.93.47-24.96,7.3-50.87,20.55-77.33.04-.07.07-.15.11-.22Zm-21.15,299.45c-.03.2-2.24,16.3-2.93,25.79-.72.01-1.46.07-2.17.07-.18,0-.37-.02-.55-.02-25.43-.09-52.36-6.57-78.04-18.72-.04-.02-.09-.04-.13-.06l19.01-8.91,4.35-2.04-4.07-8.68-4.35,2.04-20.37,9.54.04-.15.2-.75c4.46-17.12,22.86-54.1,33.25-72.53.49-.86.97-1.73,1.42-2.51,3.96,3.13,8.05,6.17,12.37,9.08,15.38,10.38,32.05,17.52,49.56,21.24l.82.17,4.45,9.55-.33.65c-5.8,11.32-10.02,23.55-12.52,36.22Zm226.58,112.46l-10.41-22.24-2.02-4.32-8.69,4.06,2.02,4.32,9.71,20.75s-.06-.02-.09-.03c-17.51-5.33-55.77-23.96-74.74-34.57-.84-.47-1.7-.95-2.47-1.39,2.55-3.27,5.04-6.62,7.44-10.13,10.48-15.32,17.74-31.95,21.57-49.41l.37-1.68,8.47-4.01,1.57.82c9.88,5.14,20.51,9.1,31.62,11.76,3.04.73,6.38,1.24,10.21,1.55,4.93.41,12.56.89,20.96.89,1.97,0,3.9-.03,5.78-.09,0,.98-.07,1.97-.09,2.95-.42,26.26-7.43,53.55-20.86,80.05l-.27.53-.09.18Z"/><rect class="cls-1" x="379.29" y="174.03" width="40.63" height="9.81" transform="translate(-38.17 186.49) rotate(-25.11)"/><rect class="cls-1" x="172.7" y="75.88" width="9.81" height="40.64" transform="translate(-23.84 81.49) rotate(-24.26)"/><rect class="cls-1" x="77.84" y="314.43" width="40.63" height="9.81" transform="translate(-126.24 71.83) rotate(-25.11)"/><rect class="cls-1" x="317.06" y="377.55" width="9.81" height="40.64" transform="translate(-138.26 173.91) rotate(-25.07)"/><path class="cls-1" d="m249.81,232.33c-8.86,0-16.07,7.21-16.07,16.08s7.21,16.07,16.07,16.07,16.07-7.21,16.07-16.07-7.21-16.08-16.07-16.08Z"/></g></svg>