<?xml version="1.0" encoding="UTF-8"?><svg id="Layer_2" xmlns="http://www.w3.org/2000/svg" viewBox="0 0 499.61 497.18"><defs><style>.cls-1{fill:#51bfab;stroke-width:0px;}</style></defs><g id="Layer_1-2"><path class="cls-1" d="m383.16,112.18h-.01c-6.72,0-14,.52-22.77,1.62.36,5.82.06,10.54-.63,15.89,5.92-.71,11.76-1.06,17.41-1.06,26.06,0,53.73,6.7,80.02,19.38l5.36,2.59-1.52,5.75c-4.8,18.41-11.77,35.41-20.75,50.57,4.11,3.27,8.16,6.77,12.06,10.43,11.93-19.09,19.58-35.19,24.69-51.92,3.18-10.43,7.15-20.07,11.81-28.72-11.83-1.23-23.95-4.53-36.08-9.79-22.9-9.93-45.66-14.75-69.61-14.75h0Z"/><path class="cls-1" d="m128.86,140.26c-3.18-31.44,3.8-65.08,20.23-97.51l2.69-5.3,5.72,1.61c18.29,5.16,35.15,12.47,50.15,21.75,3.34-4.04,6.91-8.02,10.66-11.85-18.88-12.31-34.82-20.27-51.41-25.7-10.39-3.41-19.96-7.56-28.5-12.38-1.46,11.79-4.98,23.85-10.49,35.88-13.57,29.68-18.45,60.13-14.92,93.04,6.32.08,11.88.23,15.86.45Z"/><path class="cls-1" d="m139.87,367.73h0c-5.91.71-11.76,1.06-17.43,1.06-26.06,0-53.73-6.71-80.02-19.39l-5.36-2.59,1.5-5.75c4.81-18.4,11.78-35.4,20.77-50.56-4.13-3.28-8.18-6.78-12.07-10.43-11.93,19.09-19.58,35.19-24.69,51.92-3.19,10.45-7.16,20.1-11.81,28.72,11.82,1.24,23.95,4.52,36.08,9.79,22.9,9.93,45.68,14.75,69.62,14.75,6.81,0,14.19-.53,23.09-1.66-.17-3.49-.24-8.96.32-15.85Z"/><path class="cls-1" d="m370.67,356.45c3.36,31.65-3.59,65.55-20.16,98.21l-2.68,5.31-5.73-1.62c-18.27-5.14-35.13-12.45-50.14-21.74-3.34,4.04-6.92,8.02-10.67,11.85,18.88,12.31,34.83,20.28,51.42,25.7,10.37,3.39,19.93,7.55,28.49,12.38,1.46-11.8,4.98-23.86,10.49-35.88,13.81-30.19,18.62-61.24,14.71-94.83-4.48.22-9.84.43-15.73.63Z"/><path class="cls-1" d="m201.08,142.88l-8.36-4.4c-10.46-5.5-21.73-9.65-33.54-12.35.23,5.68.87,11.26,1.89,16.61,9.5,2.6,18.53,6.25,26.83,10.86,3.82,2.13,7.6,4.55,11.22,7.19,6.57,4.76,12.52,10.21,17.78,16.28-1.22-7.91-1.52-15.98-.9-24.08.35-4.52.95-8.97,1.8-13.21,2.76-13.78,8.01-27.13,15.63-39.68,18.75-30.9,51.24-55.65,91.47-69.72l5.62-1.96,3,5.13c9.61,16.4,16.71,33.35,21.09,50.43,5.24-.6,10.57-.99,15.9-1.16-5.06-21.92-11.04-38.71-19.26-54.16-5.13-9.63-9.14-19.25-11.96-28.67h0c-9.23,7.49-20.13,13.74-32.43,18.6-33.83,13.38-60.63,34.89-81.94,65.75-10.54,15.27-17.86,31.86-21.77,49.31l-2.07,9.22Z"/><path class="cls-1" d="m414.02,222.29c-15.38-10.38-32.05-17.52-49.53-21.24l-9.24-1.96,4.3-8.41c5.38-10.5,9.41-21.82,11.98-33.67h0c-5.71.3-11.27.99-16.59,2.07-2.5,9.52-6.05,18.58-10.57,26.94-2.09,3.84-4.46,7.65-7.06,11.3-4.7,6.63-10.08,12.63-16.08,17.95,5.61-.93,11.31-1.4,17.03-1.4,2.27,0,4.63.09,7.04.24,4.52.3,8.98.86,13.23,1.66,13.81,2.61,27.22,7.72,39.84,15.2,31.11,18.41,56.21,50.63,70.71,90.71l2.02,5.59-5.09,3.07c-16.29,9.78-33.17,17.06-50.2,21.63.66,5.2,1.1,10.52,1.33,15.89,21.88-5.31,38.61-11.47,53.95-19.86,9.58-5.23,19.16-9.35,28.53-12.27-7.59-9.15-13.96-19.97-18.95-32.22-13.74-33.69-35.53-60.26-66.64-81.23Z"/><path class="cls-1" d="m298.53,354.53l8.36,4.41c10.45,5.5,21.72,9.65,33.54,12.36-.23-5.71-.87-11.28-1.89-16.63-9.5-2.59-18.51-6.24-26.85-10.86-3.8-2.13-7.58-4.54-11.22-7.18-6.58-4.77-12.52-10.22-17.77-16.27,1.22,7.9,1.51,15.97.89,24.07-.34,4.49-.95,8.93-1.79,13.21-2.75,13.78-8.02,27.13-15.63,39.69-18.75,30.9-51.24,55.66-91.47,69.72l-5.61,1.96-3.01-5.13c-9.62-16.4-16.7-33.36-21.08-50.43-5.24.61-10.58,1-15.91,1.16,5.07,21.93,11.04,38.72,19.27,54.16,5.08,9.54,9.07,19.09,11.89,28.43h.37c9.17-7.38,19.96-13.55,32.13-18.36,33.83-13.37,60.63-34.88,81.95-65.75,10.54-15.27,17.86-31.86,21.76-49.31l2.07-9.23Z"/><path class="cls-1" d="m85.59,275.13c15.38,10.37,32.05,17.52,49.54,21.23l9.24,1.96-4.31,8.42c-5.39,10.52-9.42,21.84-11.99,33.67,5.72-.29,11.28-.99,16.59-2.06,2.49-9.53,6.05-18.59,10.57-26.95,2.07-3.8,4.45-7.61,7.07-11.3,4.68-6.62,10.07-12.63,16.08-17.95h0c-5.61.93-11.31,1.39-17.03,1.39-2.28,0-4.64-.08-7.03-.24-4.54-.3-8.99-.85-13.23-1.66-13.81-2.6-27.21-7.71-39.85-15.19-31.11-18.42-56.22-50.62-70.71-90.71l-2.02-5.59,5.1-3.07c16.27-9.78,33.14-17.06,50.19-21.64-.66-5.22-1.1-10.55-1.33-15.89-21.88,5.31-38.6,11.47-53.94,19.86-9.58,5.23-19.16,9.35-28.53,12.27,7.58,9.14,13.95,19.96,18.95,32.22,13.74,33.68,35.54,60.26,66.64,81.23Z"/><polygon class="cls-1" points="178.39 282.15 178.39 282.15 178.39 282.14 178.39 282.14 178.39 282.14 178.39 282.15"/><polygon class="cls-1" points="173.64 216.36 173.64 216.36 173.64 216.36 173.64 216.36"/><polygon class="cls-1" points="173.64 216.36 173.64 216.36 95.54 188.86 92.29 198.07 170.39 225.57 173.64 216.36"/><polygon class="cls-1" points="332.15 282.17 410.24 309.66 413.48 300.46 335.38 272.97 332.15 282.17"/><rect class="cls-1" x="165.88" y="365.81" width="82.8" height="9.75" transform="translate(-211.18 443.22) rotate(-70.62)"/><polygon class="cls-1" points="271.03 178.35 280.12 181.88 310.16 104.73 301.08 101.2 271.03 178.35"/><path class="cls-1" d="m248.58,230.91c-8.88,0-16.11,7.23-16.11,16.12s7.23,16.12,16.11,16.12,16.11-7.23,16.11-16.12-7.23-16.12-16.11-16.12Z"/></g></svg>