<?xml version="1.0" encoding="UTF-8"?><svg id="Layer_2" xmlns="http://www.w3.org/2000/svg" xmlns:xlink="http://www.w3.org/1999/xlink" viewBox="0 0 515.5 513.23"><defs><style>.cls-1{fill:none;}.cls-1,.cls-2,.cls-3,.cls-4,.cls-5,.cls-6,.cls-7,.cls-8,.cls-9{stroke-width:0px;}.cls-2{fill:url(#linear-gradient);}.cls-3{fill:url(#linear-gradient-4);}.cls-4{fill:url(#linear-gradient-2);}.cls-5{fill:url(#linear-gradient-3);}.cls-6{fill:url(#linear-gradient-8);}.cls-7{fill:url(#linear-gradient-7);}.cls-8{fill:url(#linear-gradient-5);}.cls-9{fill:url(#linear-gradient-6);}</style><linearGradient id="linear-gradient" x1="-407.54" y1="334.33" x2="-403.49" y2="334.33" gradientTransform="translate(-35179.54 43205.7) rotate(90) scale(106.04 -106.04)" gradientUnits="userSpaceOnUse"><stop offset="0" stop-color="#5bb947"/><stop offset=".51" stop-color="#279e87"/><stop offset="1" stop-color="#a3405e"/></linearGradient><linearGradient id="linear-gradient-2" x1="-407.54" y1="335.11" x2="-403.49" y2="335.11" gradientTransform="translate(-35149.58 43205.7) rotate(90) scale(106.04 -106.04)" xlink:href="#linear-gradient"/><linearGradient id="linear-gradient-3" x1="-407.54" y1="335.39" x2="-403.49" y2="335.39" gradientTransform="translate(-35146.8 43205.7) rotate(90) scale(106.04 -106.04)" xlink:href="#linear-gradient"/><linearGradient id="linear-gradient-4" x1="-407.54" y1="334.99" x2="-403.49" y2="334.99" gradientTransform="translate(-35171.01 43205.7) rotate(90) scale(106.04 -106.04)" xlink:href="#linear-gradient"/><linearGradient id="linear-gradient-5" x1="-407.54" y1="334.11" x2="-403.49" y2="334.11" gradientTransform="translate(-35187.21 43205.7) rotate(90) scale(106.04 -106.04)" xlink:href="#linear-gradient"/><linearGradient id="linear-gradient-6" x1="-407.54" y1="333.29" x2="-403.49" y2="333.29" gradientTransform="translate(-35212.97 43205.7) rotate(90) scale(106.04 -106.04)" xlink:href="#linear-gradient"/><linearGradient id="linear-gradient-7" x1="-407.54" y1="333.1" x2="-403.49" y2="333.1" gradientTransform="translate(-35226.46 43205.7) rotate(90) scale(106.04 -106.04)" xlink:href="#linear-gradient"/><linearGradient id="linear-gradient-8" x1="-407.54" y1="333.65" x2="-403.49" y2="333.65" gradientTransform="translate(-35217.63 43205.7) rotate(90) scale(106.04 -106.04)" xlink:href="#linear-gradient"/></defs><g id="Layer_1-2"><polygon class="cls-1" points="280.96 100.43 280.96 100.43 280.96 100.43 280.96 100.43"/><path class="cls-1" d="m448.53,214.67c9.49-15.65,16.83-33.3,21.84-52.47l1.08-4.12-3.84-1.86c-26.43-12.75-54.24-19.49-80.4-19.49-11.74,0-23.17,1.34-33.99,3.98-14.25,3.48-27.39,9.2-39.07,16.98-3.58,2.38-7.14,5.09-10.59,8.04-8.42,7.22-15.57,15.61-21.26,24.95,1.72-10.81,1.72-21.84-.02-32.78-.71-4.47-1.67-8.84-2.84-12.99-2.72-9.54-6.74-18.88-11.93-27.77,3.84-5.8,8.36-11.41,13.46-16.72h0s0,0,0,0h0c7.37,11.27,13.08,23.33,16.97,35.86l2.01,6.46,5.72-3.62c15.58-9.88,33.02-16.65,51.86-20.1,12.22-2.23,24.26-3.36,35.79-3.36,24.64,0,48.06,4.96,71.62,15.18,13.27,5.76,26.49,9.14,39.32,10.07-5.37,9.38-9.88,20.04-13.45,31.7-5.44,17.82-13.71,34.99-26.74,55.54-4.98-4.81-10.2-9.33-15.53-13.48Zm-133.76,155.92l-6-3.16-1.48,6.61c-4.03,18.01-11.59,35.12-22.45,50.87-21.92,31.74-49.49,53.86-84.28,67.61-13.46,5.33-25.2,12.29-34.93,20.71-2.84-10.44-7.17-21.16-12.9-31.92-8.75-16.44-15.05-34.42-20.37-58.17,6.91-.13,13.8-.62,20.5-1.46,4.36,17.78,11.64,35.45,21.68,52.54l2.15,3.68,4.03-1.41c40.42-14.12,73.04-38.96,91.83-69.94,7.61-12.54,12.86-25.88,15.62-39.64.85-4.26,1.45-8.69,1.8-13.17.84-11.05-.03-22.03-2.62-32.66,6.42,8.86,14.23,16.64,23.2,23.15,3.63,2.63,7.39,5.04,11.19,7.16,8.67,4.81,18.11,8.58,28.09,11.19,1.39,6.8,2.17,13.97,2.31,21.34h0c-13.2-2.75-25.75-7.24-37.36-13.34Zm-290.07-29.96c5.44-17.82,13.71-34.99,26.75-55.54,4.98,4.81,10.2,9.34,15.52,13.48-9.5,15.65-16.85,33.3-21.84,52.47l-1.08,4.12,3.84,1.86c26.44,12.75,54.24,19.5,80.41,19.5,11.74,0,23.18-1.35,33.99-3.99,14.24-3.48,27.4-9.2,39.07-16.98,3.58-2.39,7.14-5.1,10.58-8.05,8.43-7.23,15.58-15.61,21.25-24.95-1.72,10.81-1.71,21.83.03,32.78.7,4.46,1.66,8.83,2.85,12.99,2.72,9.54,6.74,18.88,11.93,27.77h0c-3.84,5.81-8.36,11.42-13.47,16.72-7.37-11.27-13.08-23.33-16.96-35.85l-2.01-6.46-5.73,3.62c-15.57,9.88-33.03,16.64-51.85,20.09-12.23,2.23-24.26,3.37-35.79,3.37h0c-24.64,0-48.06-4.96-71.62-15.18-13.27-5.77-26.49-9.14-39.32-10.07,5.37-9.38,9.88-20.04,13.45-31.7ZM362.78,31.93c8.75,16.44,15.05,34.42,20.36,58.17-6.91.13-13.79.62-20.5,1.46-4.36-17.78-11.64-35.46-21.67-52.54l-2.15-3.68-4.04,1.41c-40.42,14.12-73.03,38.97-91.84,69.95-7.61,12.54-12.86,25.88-15.61,39.63-.84,4.22-1.45,8.66-1.8,13.18-.85,11.05.03,22.05,2.62,32.67-6.43-8.85-14.23-16.65-23.21-23.15-3.64-2.64-7.4-5.05-11.19-7.17-8.66-4.81-18.12-8.57-28.08-11.19-1.39-6.8-2.17-13.97-2.31-21.35,13.19,2.76,25.75,7.25,37.36,13.35l5.98,3.15,1.48-6.61c4.03-18,11.58-35.13,22.45-50.88,21.92-31.74,49.48-53.86,84.28-67.62,13.45-5.32,25.19-12.28,34.92-20.7,2.85,10.43,7.18,21.17,12.92,31.93Zm-188.63-6.53c17.69,5.78,34.7,14.38,55,27.82-4.92,4.9-9.55,10.03-13.78,15.26-15.47-9.81-32.97-17.5-52.03-22.87l-4.1-1.16-1.92,3.8c-19.36,38.19-25.66,78.7-17.75,114.07,3.2,14.32,8.66,27.57,16.2,39.4,2.32,3.62,4.95,7.24,7.84,10.73,7.05,8.57,15.3,15.88,24.52,21.75-6-1.09-12.14-1.63-18.27-1.63-4.81,0-9.69.33-14.5,1-4.49.63-8.87,1.51-13.03,2.6-9.58,2.53-19.01,6.37-28.01,11.39-5.72-3.95-11.25-8.58-16.45-13.79,11.42-7.16,23.59-12.62,36.18-16.26l6.51-1.88-3.52-5.8c-9.57-15.77-15.99-33.34-19.06-52.24-6.2-38.08-1.65-73.13,13.92-107.16,6.02-13.16,9.66-26.31,10.83-39.12,9.27,5.55,19.84,10.28,31.43,14.07ZM31.78,153.78c16.34-8.92,34.25-15.42,57.94-21,.21,6.93.77,13.81,1.69,20.49-17.74,4.56-35.35,12.04-52.3,22.24l-3.65,2.19,1.44,4.02c14.56,40.27,39.76,72.61,70.94,91.07,12.62,7.48,26.02,12.58,39.79,15.17,4.25.81,8.68,1.37,13.2,1.66,2.34.15,4.67.23,7,.23,8.68,0,17.3-1.08,25.63-3.21-8.78,6.53-16.49,14.4-22.89,23.46-2.62,3.68-4.99,7.48-7.04,11.26-4.73,8.72-8.38,18.22-10.89,28.2-6.79,1.46-13.95,2.31-21.32,2.54,2.61-13.22,6.97-25.85,12.94-37.5l3.09-6.03-6.63-1.41c-18.05-3.83-35.24-11.19-51.11-21.9-31.99-21.58-54.4-48.9-68.54-83.55-5.46-13.4-12.54-25.06-21.08-34.69,10.4-2.96,21.08-7.42,31.78-13.26Zm309.57,334.07c-17.7-5.79-34.7-14.38-55-27.82,4.91-4.9,9.53-10.02,13.78-15.26,15.49,9.8,32.99,17.5,52.03,22.86l4.1,1.16,1.93-3.81c19.36-38.19,25.66-78.7,17.74-114.07-3.2-14.32-8.65-27.57-16.2-39.39-2.33-3.64-4.96-7.25-7.83-10.75-7.05-8.56-15.3-15.87-24.53-21.73,6,1.07,12.15,1.63,18.27,1.63,4.81,0,9.69-.34,14.49-1.01,4.49-.62,8.88-1.49,13.04-2.59,9.59-2.54,19.01-6.36,28-11.39,5.73,3.95,11.26,8.58,16.46,13.79-11.42,7.15-23.59,12.62-36.18,16.26l-6.51,1.88,3.52,5.79c9.57,15.77,15.98,33.34,19.06,52.24,6.2,38.08,1.65,73.12-13.91,107.15-6.02,13.15-9.66,26.3-10.84,39.12-9.27-5.54-19.83-10.27-31.42-14.07Zm174.14-141.64c-10.4,2.94-21.08,7.39-31.78,13.24-16.35,8.94-34.26,15.43-57.95,21.01-.2-6.93-.76-13.8-1.68-20.48,17.74-4.56,35.34-12.04,52.31-22.24l3.65-2.2-1.45-4.01c-14.57-40.27-39.76-72.61-70.94-91.07-12.63-7.48-26.01-12.58-39.8-15.18-4.24-.8-8.68-1.35-13.19-1.65-2.34-.17-4.67-.24-7-.24-8.68,0-17.3,1.08-25.64,3.21,8.78-6.52,16.48-14.4,22.9-23.45,2.6-3.67,4.97-7.46,7.04-11.27,4.72-8.73,8.39-18.21,10.89-28.2,6.78-1.47,13.95-2.32,21.31-2.54-2.62,13.22-6.97,25.83-12.94,37.5l-3.08,6.02,6.63,1.41c18.05,3.84,35.25,11.21,51.12,21.91,31.98,21.56,54.4,48.89,68.53,83.54,5.47,13.39,12.55,25.05,21.08,34.7h0Z"/><path class="cls-2" d="m230.66,88.32c-10.87,15.75-18.42,32.88-22.45,50.88l-1.48,6.61-5.98-3.15c-11.61-6.1-24.18-10.6-37.36-13.35.14,7.37.92,14.55,2.31,21.35,9.97,2.62,19.42,6.38,28.08,11.19,3.79,2.11,7.55,4.52,11.19,7.17,8.98,6.5,16.77,14.3,23.21,23.15-2.59-10.62-3.48-21.61-2.62-32.67.35-4.52.95-8.96,1.8-13.18,2.75-13.75,8-27.09,15.61-39.63,18.8-30.98,51.42-55.83,91.84-69.95l4.04-1.41,2.15,3.68c10.03,17.08,17.31,34.77,21.67,52.54,6.71-.84,13.6-1.33,20.5-1.46-5.31-23.75-11.61-41.73-20.36-58.17-5.73-10.76-10.07-21.49-12.92-31.93-9.72,8.42-21.47,15.39-34.92,20.7-34.8,13.76-62.37,35.88-84.28,67.62Z"/><path class="cls-4" d="m504.25,140.91c-12.83-.93-26.05-4.31-39.32-10.07-23.56-10.21-46.99-15.18-71.62-15.18-11.53,0-23.57,1.13-35.79,3.36-18.84,3.45-36.28,10.21-51.86,20.1l-5.72,3.62-2.01-6.46c-3.89-12.52-9.59-24.59-16.97-35.86h0c-5.1,5.3-9.63,10.92-13.46,16.72,5.19,8.89,9.21,18.24,11.93,27.77,1.17,4.15,2.13,8.52,2.84,12.99,1.74,10.94,1.75,21.97.02,32.78,5.69-9.34,12.84-17.74,21.26-24.95,3.45-2.95,7.01-5.66,10.59-8.04,11.68-7.79,24.81-13.5,39.07-16.98,10.82-2.64,22.25-3.98,33.99-3.98,26.16,0,53.97,6.74,80.4,19.49l3.84,1.86-1.08,4.12c-5.01,19.17-12.35,36.81-21.84,52.47,5.33,4.15,10.54,8.67,15.53,13.48,13.03-20.55,21.3-37.72,26.74-55.54,3.57-11.66,8.08-22.32,13.45-31.7Z"/><path class="cls-5" d="m425.89,227.96c-15.87-10.7-33.07-18.07-51.12-21.91l-6.63-1.41,3.08-6.02c5.97-11.66,10.33-24.27,12.94-37.5-7.37.22-14.53,1.07-21.31,2.54-2.5,9.99-6.17,19.47-10.89,28.2-2.07,3.81-4.44,7.6-7.04,11.27-6.42,9.04-14.12,16.93-22.9,23.45,8.34-2.13,16.96-3.21,25.64-3.21,2.33,0,4.66.07,7,.24,4.51.29,8.95.85,13.19,1.65,13.79,2.6,27.17,7.71,39.8,15.18,31.19,18.46,56.37,50.8,70.94,91.07l1.45,4.01-3.65,2.2c-16.97,10.2-34.57,17.68-52.31,22.24.92,6.69,1.48,13.56,1.68,20.48,23.69-5.58,41.6-12.06,57.95-21.01,10.7-5.85,21.38-10.3,31.78-13.24h0c-8.53-9.65-15.62-21.31-21.08-34.7-14.13-34.65-36.55-61.98-68.53-83.54Z"/><path class="cls-3" d="m397.53,355.64c-3.08-18.9-9.48-36.47-19.06-52.24l-3.52-5.79,6.51-1.88c12.59-3.64,24.76-9.11,36.18-16.26-5.2-5.21-10.73-9.84-16.46-13.79-9,5.03-18.41,8.85-28,11.39-4.16,1.1-8.55,1.97-13.04,2.59-4.8.67-9.68,1.01-14.49,1.01-6.12,0-12.27-.56-18.27-1.63,9.23,5.87,17.48,13.18,24.53,21.73,2.87,3.49,5.5,7.1,7.83,10.75,7.55,11.83,13,25.08,16.2,39.39,7.92,35.37,1.61,75.88-17.74,114.07l-1.93,3.81-4.1-1.16c-19.05-5.36-36.55-13.06-52.03-22.86-4.24,5.24-8.87,10.36-13.78,15.26,20.3,13.44,37.31,22.04,55,27.82,11.59,3.8,22.16,8.53,31.42,14.07,1.18-12.82,4.82-25.97,10.84-39.12,15.56-34.03,20.11-69.07,13.91-107.15Z"/><path class="cls-8" d="m352.12,383.93c-.14-7.37-.92-14.54-2.31-21.34-9.98-2.62-19.41-6.38-28.09-11.19-3.8-2.12-7.56-4.53-11.19-7.16-8.97-6.5-16.77-14.29-23.2-23.15,2.59,10.63,3.46,21.62,2.62,32.66-.34,4.48-.95,8.91-1.8,13.17-2.75,13.76-8,27.09-15.62,39.64-18.79,30.98-51.42,55.82-91.83,69.94l-4.03,1.41-2.15-3.68c-10.03-17.09-17.32-34.77-21.68-52.54-6.7.84-13.59,1.33-20.5,1.46,5.32,23.75,11.62,41.73,20.37,58.17,5.73,10.76,10.06,21.48,12.9,31.92,9.73-8.42,21.47-15.38,34.93-20.71,34.8-13.75,62.36-35.87,84.28-67.61,10.87-15.75,18.43-32.87,22.45-50.87l1.48-6.61,6,3.16c11.6,6.1,24.16,10.59,37.36,13.35h0Z"/><path class="cls-9" d="m122.19,397.57h0c11.53,0,23.56-1.14,35.79-3.37,18.82-3.45,36.28-10.21,51.85-20.09l5.73-3.62,2.01,6.46c3.89,12.52,9.59,24.58,16.96,35.85,5.11-5.3,9.63-10.91,13.47-16.71h0c-5.2-8.89-9.21-18.23-11.93-27.77-1.19-4.16-2.15-8.53-2.85-12.99-1.73-10.95-1.75-21.97-.03-32.78-5.67,9.34-12.82,17.72-21.25,24.95-3.44,2.95-7,5.65-10.58,8.05-11.68,7.78-24.83,13.49-39.07,16.98-10.81,2.64-22.25,3.99-33.99,3.99-26.17,0-53.97-6.75-80.41-19.5l-3.84-1.86,1.08-4.12c5-19.17,12.35-36.82,21.84-52.47-5.33-4.14-10.54-8.66-15.52-13.48-13.04,20.55-21.31,37.72-26.75,55.54-3.56,11.66-8.08,22.31-13.45,31.7,12.83.93,26.05,4.31,39.32,10.07,23.55,10.21,46.98,15.18,71.62,15.18Z"/><path class="cls-7" d="m89.62,285.28c15.86,10.7,33.06,18.07,51.11,21.9l6.63,1.41-3.09,6.03c-5.97,11.65-10.33,24.27-12.94,37.5,7.37-.23,14.53-1.08,21.32-2.54,2.5-9.99,6.16-19.48,10.89-28.2,2.05-3.78,4.43-7.58,7.04-11.26,6.4-9.06,14.11-16.93,22.89-23.46-8.33,2.13-16.95,3.21-25.63,3.21-2.33,0-4.66-.08-7-.23-4.51-.3-8.95-.85-13.2-1.66-13.78-2.59-27.17-7.7-39.79-15.17-31.18-18.46-56.38-50.8-70.94-91.07l-1.44-4.02,3.65-2.19c16.96-10.2,34.56-17.68,52.3-22.24-.91-6.68-1.48-13.57-1.69-20.49-23.69,5.58-41.6,12.08-57.94,21-10.71,5.84-21.38,10.3-31.78,13.26,8.53,9.63,15.62,21.29,21.08,34.69,14.14,34.65,36.55,61.97,68.54,83.55Z"/><path class="cls-6" d="m117.96,157.6c3.08,18.89,9.49,36.47,19.06,52.24l3.52,5.8-6.51,1.88c-12.59,3.64-24.76,9.1-36.18,16.26,5.2,5.2,10.73,9.84,16.45,13.79,9-5.02,18.43-8.85,28.01-11.39,4.16-1.09,8.54-1.97,13.03-2.6,4.81-.67,9.69-1,14.5-1,6.12,0,12.27.54,18.27,1.63-9.22-5.87-17.46-13.18-24.52-21.75-2.88-3.5-5.51-7.11-7.84-10.73-7.55-11.83-13-25.08-16.2-39.4-7.92-35.37-1.61-75.88,17.75-114.07l1.92-3.8,4.1,1.16c19.06,5.37,36.56,13.06,52.03,22.87,4.23-5.24,8.86-10.36,13.78-15.26-20.3-13.44-37.31-22.04-55-27.82-11.59-3.8-22.16-8.53-31.43-14.07-1.17,12.81-4.81,25.96-10.83,39.12-15.56,34.03-20.12,69.08-13.92,107.16Z"/></g></svg>