<?xml version="1.0" encoding="utf-8"?>
<!-- Generator: Adobe Illustrator 28.0.0, SVG Export Plug-In . SVG Version: 6.00 Build 0)  -->
<svg version="1.1" id="Layer_1" xmlns="http://www.w3.org/2000/svg" xmlns:xlink="http://www.w3.org/1999/xlink" x="0px" y="0px"
	 viewBox="0 0 582.6 532.8" style="enable-background:new 0 0 582.6 532.8;" xml:space="preserve">
<style type="text/css">
	.st0{fill:#58595B;}
	.st1{fill:#51C0AC;}
</style>
<g>
	<g>
		<path class="st0" d="M250.7,357.3v-66.8h-14.1v0.6c0,0.2,0,1.6,1,1.8c2.7,0.9,9.4,6.8,9.4,25.5v38.8c0,26.7-17.9,40.7-35.5,40.7
			c-23.5,0-34.2-21.1-34.2-40.7v-66.8h-16.1v66.8c0,33.3,21.6,48.2,43,48.2c11.8,0,23.4-4.5,31.9-12.4
			C245.6,384.2,250.7,371.9,250.7,357.3z"/>
		<path class="st0" d="M488.4,290.6l-58.2,114.8h16.9v-0.6c0-0.2,0-1.6-1-1.8c-1.1-0.4-2.7-3-2.7-7.7c0-3.5,0.9-9.4,5-17.6l8.9-17.6
			c0.4,0,0.7,0,1.1,0h51c4.8,9.5,24.2,45.3,24.2,45.3h17.9l-59.5-114.8H488.4z M459.1,356.4l24.1-47.7c0,0,12.7,25,24.2,47.7H459.1z
			"/>
		<path class="st0" d="M284.5,360c0.4,0,0.7,0,1.1,0h51c4.8,9.5,24.2,45.3,24.2,45.3h17.9l-59.5-114.8h-3.5l-58.2,114.8h16.9v-0.6
			c0-0.2,0-1.6-1-1.8c-1.1-0.4-2.7-3-2.7-7.7c0-3.5,0.9-9.4,5-17.6L284.5,360z M310.5,308.6c0,0,12.7,25,24.2,47.7h-48.3
			L310.5,308.6z"/>
		<path class="st0" d="M419.2,378.1l0.2-87.4h-24.2v0.6c0,0.2,0,1.6,1,1.8c1,0.3,2.5,1.9,4,4.7c2.3,4.1,3.3,10,3.3,14.8V379
			c0,13.1-2,23.4-6,30.4c-4.4,7.7-11.2,11.5-20.2,11.5h0c-0.7,0-1.4,0-2.1-0.1l-1-0.1l1.1,2.2l0.3,0c1.3,0.1,2.6,0.1,3.8,0.1h0
			C404.5,423.1,419.2,405.6,419.2,378.1z"/>
		<path class="st0" d="M125.6,290.6H60.3h-6.6h-6.9l-1.5,4.7l-3.7,11.3h0.8c0.2,0,1.4,0,1.7-0.9c0.1-0.1,0.4-0.4,0.7-0.8
			c0.1-0.2,0.6-0.7,0.6-0.7c1.3-1.7,3.5-4,8.4-6c0,0,6.1-1.8,6.6-1.9v0c5-1.1,12.2-1.8,23-1.8h2.5v111.3h15.9V294.3h2.4
			c9.5,0,16.4,0.7,21.6,1.8c10.9,2.3,13.8,6.3,15.5,8.6c0.3,0.4,0.6,0.7,0.7,0.8c0.3,0.8,1.4,0.9,1.7,0.9h0.8l-5.3-15.9H125.6z"/>
	</g>
	<path class="st1" d="M91.1,263.4c0.5,0.3,1.3,0.5,2.4,0.5c1.8,0,3.6-0.5,5.5-1.4c1.3-0.6,3-1.8,5.3-3.4c1,0.3,1.7,0.5,2.2,0.5
		c0.5,0.2,1.5,0.2,3.1,0.2l2.2-4.3h-2.4c-0.8,0-1.4-0.1-1.9-0.2c0.8-1.3,1.3-2.2,1.4-2.9c0.2-0.6,0.2-1.6,0.2-2.9
		c0-1.3-0.2-2.2-0.5-2.9c-0.6-1.3-1.2-2.1-1.7-2.4c-0.5-0.6-1.4-1.3-2.6-1.9c-1-0.5-2-0.7-3.1-0.7c-1.4,0-2.6,0.6-3.6,1.9
		c-1.1,1.1-1.7,2.6-1.7,4.6c0,3.2,1.4,6.2,4.3,9.1c-3,1.8-6.9,3.4-11.7,4.8L91.1,263.4z M99.3,249.1c0-1.4,0.8-2.2,2.4-2.2
		c1,0,2,0.3,3.1,1c0.8,0.5,1.6,1.2,2.4,2.2c-0.6,1.9-1.8,3.4-3.4,4.3c-1.1-0.3-2.2-1-3.1-1.9C99.8,251.5,99.3,250.3,99.3,249.1z"/>
	<path class="st1" d="M416.5,250.3l1.7-4.8c-3.7,1.1-7.8,2.7-12.5,4.8c-4.8,2.4-8.1,4.1-10.1,5.3c-0.2,0.3-0.4,1-0.7,1.9
		c-0.3,1.3-0.5,2.2-0.5,2.6l11.3-5.5C411.1,252.2,414.7,250.7,416.5,250.3z"/>
	<path class="st1" d="M214.5,250.3l1.7-4.8c-3.7,1.1-7.8,2.7-12.5,4.8c-4.8,2.4-8.1,4.1-10.1,5.3c-0.2,0.3-0.4,1-0.7,1.9
		c-0.3,1.3-0.5,2.2-0.5,2.6l11.3-5.5C209.1,252.2,212.7,250.7,214.5,250.3z"/>
	<g>
		<path class="st1" d="M189.4,468.5c0-4.1,0-4.9-0.1-5.8c-0.1-0.9-0.3-1.4-1.2-1.6c-0.2-0.1-0.7-0.1-1.1-0.1c-0.3,0-0.5-0.1-0.5-0.2
			c0-0.2,0.2-0.2,0.6-0.2c0.7,0,1.5,0,2.2,0c0.7,0,1.3,0.1,1.7,0.1c0.9,0,6.3,0,6.8,0c0.5-0.1,1-0.1,1.2-0.2c0.1,0,0.3-0.1,0.4-0.1
			c0.1,0,0.2,0.1,0.2,0.2c0,0.2-0.1,0.5-0.2,1.8c0,0.3-0.1,1.5-0.1,1.8c0,0.1-0.1,0.3-0.3,0.3c-0.2,0-0.2-0.1-0.2-0.4
			c0-0.2,0-0.7-0.2-1c-0.2-0.5-0.5-0.8-1.8-1c-0.5-0.1-3.3-0.1-3.9-0.1c-0.1,0-0.2,0.1-0.2,0.3v6.9c0,0.2,0,0.3,0.2,0.3
			c0.6,0,3.7,0,4.4-0.1c0.7-0.1,1.1-0.1,1.3-0.4c0.2-0.2,0.3-0.4,0.4-0.4c0.1,0,0.2,0.1,0.2,0.2c0,0.2-0.1,0.6-0.2,2
			c0,0.5-0.1,1.6-0.1,1.8c0,0.2,0,0.5-0.2,0.5c-0.2,0-0.2-0.1-0.2-0.2c0-0.3,0-0.6-0.1-1c-0.1-0.5-0.5-1-1.5-1.1
			c-0.5-0.1-3.2-0.1-3.9-0.1c-0.1,0-0.2,0.1-0.2,0.3v2.2c0,0.9,0,3.4,0,4.2c0.1,1.9,0.5,2.3,3.3,2.3c0.7,0,1.9,0,2.6-0.3
			c0.7-0.3,1-0.9,1.2-2c0.1-0.3,0.1-0.4,0.3-0.4c0.2,0,0.2,0.2,0.2,0.5c0,0.6-0.2,2.5-0.4,3c-0.2,0.7-0.4,0.7-1.5,0.7
			c-2,0-3.5-0.1-4.7-0.1c-1.2-0.1-2-0.1-2.8-0.1c-0.3,0-0.9,0-1.6,0c-0.6,0-1.3,0.1-1.9,0.1c-0.4,0-0.5-0.1-0.5-0.3
			c0-0.1,0.1-0.2,0.4-0.2c0.4,0,0.7-0.1,1-0.1c0.5-0.1,0.7-0.7,0.8-1.5c0.1-1.1,0.1-3.3,0.1-5.8V468.5z"/>
		<path class="st1" d="M210.6,478.6c-2.7-2.3-3.4-5.4-3.4-8c0-1.9,0.6-5.1,3.2-7.5c2-1.8,4.6-2.9,8.6-2.9c1.7,0,2.7,0.1,4,0.3
			c1,0.1,1.9,0.4,2.7,0.5c0.3,0,0.4,0.2,0.4,0.3c0,0.2-0.1,0.5-0.1,1.5c-0.1,0.9,0,2.4-0.1,2.9c0,0.4-0.1,0.6-0.3,0.6
			c-0.2,0-0.3-0.2-0.3-0.6c0-0.8-0.4-1.8-1.1-2.5c-0.9-1-3-1.7-5.5-1.7c-2.4,0-3.9,0.6-5.1,1.7c-2,1.8-2.5,4.4-2.5,7.1
			c0,6.5,4.9,9.7,8.6,9.7c2.4,0,3.9-0.3,5-1.5c0.5-0.5,0.8-1.3,0.9-1.8c0.1-0.4,0.1-0.5,0.4-0.5c0.2,0,0.2,0.2,0.2,0.4
			c0,0.3-0.3,2.7-0.6,3.6c-0.1,0.5-0.2,0.6-0.7,0.8c-1.1,0.4-3.2,0.6-4.9,0.6C216.2,481.5,213.1,480.7,210.6,478.6z"/>
		<path class="st1" d="M232.6,470.8c0-4.7,3.1-10.7,11.3-10.7c6.8,0,11,4,11,10.2c0,6.2-4.4,11.2-11.3,11.2
			C235.7,481.5,232.6,475.7,232.6,470.8z M251,471.4c0-6.1-3.5-9.9-8-9.9c-3.1,0-6.7,1.7-6.7,8.5c0,5.7,3.1,10.2,8.4,10.2
			C246.6,480.2,251,479.2,251,471.4z"/>
		<path class="st1" d="M276.1,468.5c0-4.1,0-4.9-0.1-5.8c-0.1-0.9-0.3-1.4-1.2-1.6c-0.2-0.1-0.7-0.1-1.1-0.1c-0.3,0-0.5-0.1-0.5-0.2
			c0-0.2,0.2-0.2,0.6-0.2c1.4,0,3.2,0.1,3.7,0.1c0.9,0,3-0.1,3.8-0.1c1.7,0,3.5,0.2,5,1.2c0.8,0.5,1.9,1.9,1.9,3.7
			c0,2-0.8,3.9-3.6,6.1c2.4,3.1,4.3,5.5,5.9,7.2c1.5,1.6,2.6,1.8,3.1,1.9c0.3,0.1,0.5,0.1,0.8,0.1c0.2,0,0.3,0.1,0.3,0.2
			c0,0.2-0.2,0.3-0.5,0.3h-2.6c-1.5,0-2.2-0.1-2.9-0.5c-1.2-0.6-2.2-1.9-3.7-4c-1.1-1.5-2.3-3.4-2.7-3.8c-0.1-0.2-0.3-0.2-0.5-0.2
			l-2.4-0.1c-0.1,0-0.2,0.1-0.2,0.2v0.4c0,2.5,0,4.7,0.1,5.8c0.1,0.8,0.2,1.4,1.1,1.5c0.4,0.1,1,0.1,1.3,0.1c0.2,0,0.3,0.1,0.3,0.2
			c0,0.2-0.2,0.3-0.5,0.3c-1.6,0-3.6-0.1-4-0.1c-0.5,0-2.2,0.1-3.3,0.1c-0.4,0-0.5-0.1-0.5-0.3c0-0.1,0.1-0.2,0.4-0.2
			c0.4,0,0.7-0.1,1-0.1c0.5-0.1,0.7-0.7,0.8-1.5c0.1-1.1,0.1-3.3,0.1-5.8V468.5z M279.3,470.6c0,0.3,0.1,0.4,0.2,0.5
			c0.6,0.2,1.4,0.3,2.1,0.3c1.1,0,1.4-0.1,1.9-0.5c0.8-0.6,1.6-1.9,1.6-4.1c0-3.9-2.6-5-4.2-5c-0.7,0-1.2,0-1.4,0.1
			c-0.2,0.1-0.2,0.2-0.2,0.4V470.6z"/>
		<path class="st1" d="M300.2,468.5c0-4.1,0-4.9-0.1-5.8c-0.1-0.9-0.3-1.4-1.2-1.6c-0.2-0.1-0.7-0.1-1.1-0.1c-0.3,0-0.5-0.1-0.5-0.2
			c0-0.2,0.2-0.2,0.6-0.2c0.7,0,1.5,0,2.2,0c0.7,0,1.3,0.1,1.7,0.1c0.9,0,6.3,0,6.8,0c0.5-0.1,1-0.1,1.2-0.2c0.1,0,0.3-0.1,0.4-0.1
			c0.1,0,0.2,0.1,0.2,0.2c0,0.2-0.1,0.5-0.2,1.8c0,0.3-0.1,1.5-0.1,1.8c0,0.1-0.1,0.3-0.3,0.3s-0.2-0.1-0.2-0.4c0-0.2,0-0.7-0.2-1
			c-0.2-0.5-0.5-0.8-1.8-1c-0.5-0.1-3.3-0.1-3.9-0.1c-0.1,0-0.2,0.1-0.2,0.3v6.9c0,0.2,0,0.3,0.2,0.3c0.6,0,3.7,0,4.4-0.1
			c0.7-0.1,1.1-0.1,1.3-0.4c0.2-0.2,0.3-0.4,0.4-0.4c0.1,0,0.2,0.1,0.2,0.2c0,0.2-0.1,0.6-0.2,2c0,0.5-0.1,1.6-0.1,1.8
			c0,0.2,0,0.5-0.2,0.5c-0.2,0-0.2-0.1-0.2-0.2c0-0.3,0-0.6-0.1-1c-0.1-0.5-0.5-1-1.5-1.1c-0.5-0.1-3.2-0.1-3.9-0.1
			c-0.1,0-0.2,0.1-0.2,0.3v2.2c0,0.9,0,3.4,0,4.2c0.1,1.9,0.5,2.3,3.3,2.3c0.7,0,1.9,0,2.6-0.3c0.7-0.3,1-0.9,1.2-2
			c0.1-0.3,0.1-0.4,0.3-0.4c0.2,0,0.2,0.2,0.2,0.5c0,0.6-0.2,2.5-0.4,3c-0.2,0.7-0.4,0.7-1.5,0.7c-2,0-3.5-0.1-4.7-0.1
			c-1.2-0.1-2-0.1-2.8-0.1c-0.3,0-0.9,0-1.6,0c-0.6,0-1.3,0.1-1.9,0.1c-0.4,0-0.5-0.1-0.5-0.3c0-0.1,0.1-0.2,0.4-0.2
			c0.4,0,0.7-0.1,1-0.1c0.5-0.1,0.7-0.7,0.8-1.5c0.1-1.1,0.1-3.3,0.1-5.8V468.5z"/>
		<path class="st1" d="M319.4,480.8c-0.4-0.2-0.5-0.3-0.5-0.9c0-1.5,0.1-3.1,0.1-3.6c0-0.4,0.1-0.7,0.3-0.7c0.2,0,0.3,0.2,0.3,0.5
			c0,0.4,0.1,0.9,0.2,1.4c0.6,2,2.2,2.8,3.9,2.8c2.5,0,3.7-1.7,3.7-3.1c0-1.3-0.4-2.6-2.7-4.4l-1.3-1c-3-2.3-4-4.3-4-6.5
			c0-3,2.5-5.2,6.3-5.2c1.8,0,2.9,0.3,3.6,0.5c0.2,0.1,0.4,0.1,0.4,0.3c0,0.4-0.1,1.1-0.1,3.3c0,0.6-0.1,0.8-0.3,0.8
			c-0.2,0-0.3-0.2-0.3-0.5c0-0.2-0.1-1.1-0.7-1.8c-0.4-0.5-1.2-1.3-3-1.3c-2,0-3.2,1.2-3.2,2.8c0,1.3,0.6,2.2,2.9,3.9l0.8,0.6
			c3.3,2.5,4.5,4.4,4.5,6.9c0,1.6-0.6,3.5-2.6,4.7c-1.4,0.9-2.9,1.1-4.3,1.1C321.8,481.5,320.6,481.3,319.4,480.8z"/>
		<path class="st1" d="M337.4,470.8c0-4.7,3.1-10.7,11.3-10.7c6.8,0,11,4,11,10.2c0,6.2-4.4,11.2-11.3,11.2
			C340.5,481.5,337.4,475.7,337.4,470.8z M355.8,471.4c0-6.1-3.5-9.9-8-9.9c-3.1,0-6.7,1.7-6.7,8.5c0,5.7,3.1,10.2,8.4,10.2
			C351.4,480.2,355.8,479.2,355.8,471.4z"/>
		<path class="st1" d="M368.9,468.5c0-4.1,0-4.9-0.1-5.8c-0.1-0.9-0.3-1.4-1.2-1.6c-0.2-0.1-0.7-0.1-1.1-0.1c-0.3,0-0.5-0.1-0.5-0.2
			c0-0.2,0.2-0.2,0.6-0.2c1.4,0,3.2,0.1,3.7,0.1c0.9,0,3-0.1,3.8-0.1c1.7,0,3.5,0.2,5,1.2c0.8,0.5,1.9,1.9,1.9,3.7
			c0,2-0.8,3.9-3.6,6.1c2.4,3.1,4.3,5.5,5.9,7.2c1.5,1.6,2.6,1.8,3.1,1.9c0.3,0.1,0.5,0.1,0.8,0.1c0.2,0,0.3,0.1,0.3,0.2
			c0,0.2-0.2,0.3-0.5,0.3h-2.6c-1.5,0-2.2-0.1-2.9-0.5c-1.2-0.6-2.2-1.9-3.7-4c-1.1-1.5-2.3-3.4-2.7-3.8c-0.1-0.2-0.3-0.2-0.5-0.2
			l-2.4-0.1c-0.1,0-0.2,0.1-0.2,0.2v0.4c0,2.5,0,4.7,0.1,5.8c0.1,0.8,0.2,1.4,1.1,1.5c0.4,0.1,1,0.1,1.3,0.1c0.2,0,0.3,0.1,0.3,0.2
			c0,0.2-0.2,0.3-0.5,0.3c-1.6,0-3.6-0.1-4-0.1c-0.5,0-2.2,0.1-3.3,0.1c-0.4,0-0.5-0.1-0.5-0.3c0-0.1,0.1-0.2,0.4-0.2
			c0.4,0,0.7-0.1,1-0.1c0.5-0.1,0.7-0.7,0.8-1.5c0.1-1.1,0.1-3.3,0.1-5.8V468.5z M372.1,470.6c0,0.3,0.1,0.4,0.2,0.5
			c0.6,0.2,1.4,0.3,2.1,0.3c1.1,0,1.4-0.1,1.9-0.5c0.8-0.6,1.6-1.9,1.6-4.1c0-3.9-2.6-5-4.2-5c-0.7,0-1.2,0-1.4,0.1
			c-0.2,0.1-0.2,0.2-0.2,0.4V470.6z"/>
		<path class="st1" d="M395.6,462.1l-4.1,0.1c-1.6,0.1-2.2,0.2-2.6,0.8c-0.3,0.4-0.4,0.7-0.5,1c-0.1,0.2-0.1,0.3-0.3,0.3
			c-0.2,0-0.2-0.1-0.2-0.4c0-0.4,0.5-2.9,0.6-3.1c0.1-0.4,0.2-0.5,0.3-0.5c0.2,0,0.5,0.3,1.2,0.3c0.8,0.1,1.8,0.1,2.7,0.1h10.8
			c0.9,0,1.5-0.1,1.9-0.1c0.4-0.1,0.6-0.1,0.7-0.1c0.2,0,0.2,0.2,0.2,0.6c0,0.6-0.1,2.5-0.1,3.2c0,0.3-0.1,0.4-0.2,0.4
			c-0.2,0-0.3-0.1-0.3-0.5l0-0.3c-0.1-0.7-0.8-1.5-3.2-1.5l-3.4-0.1v11.2c0,2.5,0,4.7,0.1,5.8c0.1,0.8,0.2,1.4,1.1,1.5
			c0.4,0.1,1,0.1,1.4,0.1c0.3,0,0.4,0.1,0.4,0.2c0,0.2-0.2,0.3-0.5,0.3c-1.8,0-3.5-0.1-4.3-0.1c-0.6,0-2.3,0.1-3.4,0.1
			c-0.4,0-0.5-0.1-0.5-0.3c0-0.1,0.1-0.2,0.4-0.2c0.4,0,0.7-0.1,1-0.1c0.5-0.1,0.7-0.7,0.8-1.5c0.1-1.1,0.1-3.3,0.1-5.8V462.1z"/>
	</g>
	<g>
		<path class="st1" d="M345.7,76.9L345.7,76.9c-2.5,0-5.2,0.2-8.4,0.6c0.1,2.1,0,3.9-0.2,5.9c2.2-0.3,4.3-0.4,6.4-0.4
			c9.6,0,19.8,2.5,29.5,7.2l2,1l-0.6,2.1c-1.8,6.8-4.3,13.1-7.7,18.7c1.5,1.2,3,2.5,4.5,3.9c4.4-7,7.2-13,9.1-19.2
			c1.2-3.8,2.6-7.4,4.4-10.6c-4.4-0.5-8.8-1.7-13.3-3.6C362.9,78.7,354.5,76.9,345.7,76.9L345.7,76.9z"/>
		<path class="st1" d="M251.8,87.3c-1.2-11.6,1.4-24,7.5-36l1-2l2.1,0.6c6.8,1.9,13,4.6,18.5,8c1.2-1.5,2.6-3,3.9-4.4
			c-7-4.5-12.9-7.5-19-9.5c-3.8-1.3-7.4-2.8-10.5-4.6c-0.5,4.4-1.8,8.8-3.9,13.2c-5,11-6.8,22.2-5.5,34.3
			C248.3,87.1,250.4,87.2,251.8,87.3z"/>
		<path class="st1" d="M255.9,171.2L255.9,171.2c-2.2,0.3-4.3,0.4-6.4,0.4c-9.6,0-19.8-2.5-29.5-7.2l-2-1l0.6-2.1
			c1.8-6.8,4.3-13.1,7.7-18.7c-1.5-1.2-3-2.5-4.5-3.9c-4.4,7-7.2,13-9.1,19.2c-1.2,3.9-2.6,7.4-4.4,10.6c4.4,0.5,8.8,1.7,13.3,3.6
			c8.5,3.7,16.9,5.4,25.7,5.4c2.5,0,5.2-0.2,8.5-0.6C255.7,175.8,255.7,173.8,255.9,171.2z"/>
		<path class="st1" d="M341.1,167.1c1.2,11.7-1.3,24.2-7.4,36.2l-1,2l-2.1-0.6c-6.7-1.9-13-4.6-18.5-8c-1.2,1.5-2.6,3-3.9,4.4
			c7,4.5,12.9,7.5,19,9.5c3.8,1.3,7.4,2.8,10.5,4.6c0.5-4.4,1.8-8.8,3.9-13.2c5.1-11.1,6.9-22.6,5.4-35
			C345.2,166.9,343.3,167,341.1,167.1z"/>
		<path class="st1" d="M278.5,88.2l-3.1-1.6c-3.9-2-8-3.6-12.4-4.6c0.1,2.1,0.3,4.2,0.7,6.1c3.5,1,6.8,2.3,9.9,4
			c1.4,0.8,2.8,1.7,4.1,2.7c2.4,1.8,4.6,3.8,6.6,6c-0.5-2.9-0.6-5.9-0.3-8.9c0.1-1.7,0.4-3.3,0.7-4.9c1-5.1,3-10,5.8-14.6
			c6.9-11.4,18.9-20.5,33.8-25.7l2.1-0.7l1.1,1.9c3.5,6.1,6.2,12.3,7.8,18.6c1.9-0.2,3.9-0.4,5.9-0.4c-1.9-8.1-4.1-14.3-7.1-20
			c-1.9-3.6-3.4-7.1-4.4-10.6h0c-3.4,2.8-7.4,5.1-12,6.9c-12.5,4.9-22.4,12.9-30.2,24.3c-3.9,5.6-6.6,11.8-8,18.2L278.5,88.2z"/>
		<path class="st1" d="M357.1,117.6c-5.7-3.8-11.8-6.5-18.3-7.8l-3.4-0.7l1.6-3.1c2-3.9,3.5-8.1,4.4-12.4h0
			c-2.1,0.1-4.2,0.4-6.1,0.8c-0.9,3.5-2.2,6.9-3.9,9.9c-0.8,1.4-1.6,2.8-2.6,4.2c-1.7,2.4-3.7,4.7-5.9,6.6c2.1-0.3,4.2-0.5,6.3-0.5
			c0.8,0,1.7,0,2.6,0.1c1.7,0.1,3.3,0.3,4.9,0.6c5.1,1,10,2.8,14.7,5.6c11.5,6.8,20.7,18.7,26.1,33.5l0.7,2.1l-1.9,1.1
			c-6,3.6-12.2,6.3-18.5,8c0.2,1.9,0.4,3.9,0.5,5.9c8.1-2,14.3-4.2,19.9-7.3c3.5-1.9,7.1-3.5,10.5-4.5c-2.8-3.4-5.2-7.4-7-11.9
			C376.6,135.1,368.6,125.3,357.1,117.6z"/>
		<path class="st1" d="M314.5,166.4l3.1,1.6c3.9,2,8,3.6,12.4,4.6c-0.1-2.1-0.3-4.2-0.7-6.1c-3.5-1-6.8-2.3-9.9-4
			c-1.4-0.8-2.8-1.7-4.1-2.7c-2.4-1.8-4.6-3.8-6.6-6c0.4,2.9,0.6,5.9,0.3,8.9c-0.1,1.7-0.3,3.3-0.7,4.9c-1,5.1-3,10-5.8,14.6
			c-6.9,11.4-18.9,20.5-33.8,25.7l-2.1,0.7l-1.1-1.9c-3.5-6.1-6.2-12.3-7.8-18.6c-1.9,0.2-3.9,0.4-5.9,0.4c1.9,8.1,4.1,14.3,7.1,20
			c1.9,3.5,3.3,7,4.4,10.5h0.1c3.4-2.7,7.4-5,11.9-6.8c12.5-4.9,22.4-12.9,30.2-24.3c3.9-5.6,6.6-11.8,8-18.2L314.5,166.4z"/>
		<path class="st1" d="M235.9,137.1c5.7,3.8,11.8,6.5,18.3,7.8l3.4,0.7l-1.6,3.1c-2,3.9-3.5,8.1-4.4,12.4c2.1-0.1,4.2-0.4,6.1-0.8
			c0.9-3.5,2.2-6.9,3.9-9.9c0.8-1.4,1.6-2.8,2.6-4.2c1.7-2.4,3.7-4.7,5.9-6.6v0v0c-2.1,0.3-4.2,0.5-6.3,0.5c-0.8,0-1.7,0-2.6-0.1
			c-1.7-0.1-3.3-0.3-4.9-0.6c-5.1-1-10-2.8-14.7-5.6c-11.5-6.8-20.7-18.7-26.1-33.5l-0.7-2.1l1.9-1.1c6-3.6,12.2-6.3,18.5-8
			c-0.2-1.9-0.4-3.9-0.5-5.9c-8.1,2-14.2,4.2-19.9,7.3c-3.5,1.9-7.1,3.5-10.5,4.5c2.8,3.4,5.1,7.4,7,11.9
			C216.3,119.5,224.4,129.3,235.9,137.1z"/>
		<polygon class="st1" points="270.1,139.6 270.1,139.6 270.1,139.6 270.1,139.6 270.1,139.6 		"/>
		<polygon class="st1" points="268.4,115.4 268.4,115.4 268.4,115.4 		"/>
		<polygon class="st1" points="268.4,115.4 268.4,115.4 239.5,105.2 238.3,108.6 267.2,118.8 		"/>
		
			<rect x="340.1" y="127.8" transform="matrix(0.3321 -0.9433 0.9433 0.3321 93.4374 418.014)" class="st1" width="3.6" height="30.6"/>
		
			<rect x="265.5" y="170.5" transform="matrix(0.3318 -0.9433 0.9433 0.3318 25.0552 380.0193)" class="st1" width="30.6" height="3.6"/>
		
			<rect x="296.3" y="85.9" transform="matrix(0.3623 -0.9321 0.9321 0.3623 116.8866 346.3332)" class="st1" width="30.6" height="3.6"/>
		<path class="st1" d="M296,120.7c-3.3,0-5.9,2.7-5.9,5.9c0,3.3,2.7,5.9,5.9,5.9c3.3,0,5.9-2.7,5.9-5.9
			C302,123.4,299.3,120.7,296,120.7z"/>
	</g>
</g>
</svg>
