<?xml version="1.0" encoding="UTF-8"?>
<svg id="Layer_1" data-name="Layer 1" xmlns="http://www.w3.org/2000/svg" version="1.1" xmlns:xlink="http://www.w3.org/1999/xlink" viewBox="0 0 71.19 86.07">
  <defs>
    <style>
      .cls-1 {
        fill: none;
      }

      .cls-1, .cls-2 {
        stroke-width: 0px;
      }

      .cls-3 {
        clip-path: url(#clippath);
      }

      .cls-2 {
        fill: #fff;
      }
    </style>
    <clipPath id="clippath">
      <rect class="cls-1" y="0" width="71.19" height="86.07"/>
    </clipPath>
  </defs>
  <g class="cls-3">
    <path class="cls-2" d="M5.4,73.41s4.76-16.05,19.25-34.75c14.34-18.51,32-27.56,32-27.56,0,0-31.05,20.38-51.25,62.32M63.54.03c-22.47,1.3-28.09,16.76-28.12,16.83.24-5.05,4.31-9.23,4.31-9.23,0,0-5.15,1.74-12.78,8.33-8.44,7.29-8.76,22.54-8.76,22.54-1.8-8.91.3-15.43.3-15.43,0,0-11.07,10.66-12.4,19.82-.8,5.46,2.44,11.3,2.44,11.3-3.9-2.62-4.49-7.86-4.49-7.86-6.55,12.48,1.7,21.06,1.7,21.06L.28,81.63c-.96,2.95.79,4.43,1.7,4.43,3.96-9.94,7.85-16.5,7.85-16.5,12.47,2.84,21.81-9.45,21.81-9.45-3.91-.03-6.36-1.3-6.36-1.3,11.89.78,18.39-11.75,18.39-11.75-4.04.39-6.84-.24-7.75-.59.9-.12,2-.21,3.3-.44C53.45,43.55,85.93-1.27,63.54.03"/>
  </g>
</svg>