<?xml version="1.0" encoding="UTF-8"?>
<svg id="Layer_1" data-name="Layer 1" xmlns="http://www.w3.org/2000/svg" version="1.1" xmlns:xlink="http://www.w3.org/1999/xlink" viewBox="0 0 79.96 92.25">
  <defs>
    <style>
      .cls-1 {
        fill: none;
      }

      .cls-1, .cls-2 {
        stroke-width: 0px;
      }

      .cls-3 {
        clip-path: url(#clippath);
      }

      .cls-2 {
        fill: #fff;
      }
    </style>
    <clipPath id="clippath">
      <rect class="cls-1" y="0" width="79.96" height="92.25"/>
    </clipPath>
  </defs>
  <g class="cls-3">
    <path class="cls-2" d="M15.26,63.32l-4.63,4.62c-.56.56-.68,1.33-.28,1.73.41.41,1.18.28,1.73-.27l4.63-4.63c.56-.56.67-1.33.27-1.73-.4-.4-1.18-.28-1.73.28"/>
    <path class="cls-2" d="M15.18,16.71c.55.56,1.33.67,1.73.27.41-.4.28-1.18-.27-1.73l-4.63-4.63c-.55-.56-1.33-.68-1.73-.28-.41.4-.28,1.18.27,1.73l4.63,4.63Z"/>
    <path class="cls-2" d="M45.07,89.32h-10.28c-.74,0-.89.4-.33.88l1.37,1.17c.57.48,1.63.88,2.38.88h3.43c.74,0,1.81-.39,2.38-.88l1.37-1.17c.57-.48.42-.88-.32-.88"/>
    <path class="cls-2" d="M39.93,9.38c.57,0,1.03-.63,1.03-1.42V1.42C40.96.64,40.5,0,39.93,0s-1.03.64-1.03,1.42v6.55c0,.79.46,1.42,1.03,1.42"/>
    <path class="cls-2" d="M46.06,85.4h-12.27c-.74,0-1.35.55-1.35,1.22s.61,1.21,1.35,1.21h12.27c.74,0,1.35-.55,1.35-1.21s-.61-1.22-1.35-1.22"/>
    <path class="cls-2" d="M7.96,39H1.42C.64,39,0,39.46,0,40.03s.64,1.03,1.42,1.03h6.55c.78,0,1.42-.46,1.42-1.03s-.64-1.03-1.42-1.03"/>
    <path class="cls-2" d="M64.78,63.25c-.55-.56-1.33-.68-1.73-.27-.4.4-.28,1.18.28,1.73l4.62,4.63c.56.56,1.33.68,1.73.27.4-.4.28-1.18-.27-1.73l-4.63-4.63Z"/>
    <path class="cls-2" d="M39.98,53.98s-13.54-8.46-13.54-16.96c0-3.81,3.09-6.89,6.89-6.89,3.18,0,5.85,2.15,6.65,5.07.8-2.92,3.47-5.07,6.65-5.07,3.8,0,6.89,3.08,6.89,6.89,0,8.5-13.54,16.96-13.54,16.96M39.92,18.5c-11.95,0-21.64,9.69-21.64,21.64,0,4.66,1.47,8.98,3.98,12.51.27.55.73,1.13,1.38,1.74t0,0c.54.61,1.1,1.19,1.7,1.73,7.02,7.82,5.2,15.37,6.46,20.39,2.76.84,5.59,1.11,8.11,1.1,2.53,0,5.35-.26,8.12-1.1,1.26-5.02-.56-12.57,6.47-20.4.48-.44.94-.9,1.38-1.38.1-.12.21-.23.31-.35t0,0c.65-.61,1.1-1.2,1.38-1.74,2.51-3.53,3.98-7.85,3.98-12.51,0-11.95-9.69-21.64-21.64-21.64"/>
    <path class="cls-2" d="M64.7,16.64l4.63-4.63c.56-.55.68-1.33.27-1.73-.4-.4-1.18-.28-1.73.27l-4.63,4.63c-.56.55-.68,1.33-.27,1.73.4.4,1.18.28,1.73-.27"/>
    <path class="cls-2" d="M46.06,82.07h-12.27c-.74,0-1.35.55-1.35,1.22s.61,1.22,1.35,1.22h12.27c.74,0,1.35-.55,1.35-1.22s-.61-1.22-1.35-1.22"/>
    <path class="cls-2" d="M46.06,78.73h-12.27c-.74,0-1.35.55-1.35,1.22s.61,1.22,1.35,1.22h12.27c.74,0,1.35-.55,1.35-1.22s-.61-1.22-1.35-1.22"/>
    <path class="cls-2" d="M78.54,38.9h-6.55c-.78,0-1.42.46-1.42,1.03s.64,1.03,1.42,1.03h6.54c.79,0,1.42-.47,1.42-1.03s-.64-1.03-1.42-1.03"/>
  </g>
</svg>