<?xml version="1.0" encoding="utf-8"?>
<!-- Generator: Adobe Illustrator 28.0.0, SVG Export Plug-In . SVG Version: 6.00 Build 0)  -->
<svg version="1.1" id="Layer_1" xmlns="http://www.w3.org/2000/svg" xmlns:xlink="http://www.w3.org/1999/xlink" x="0px" y="0px"
	 viewBox="0 0 2070.6 218" style="enable-background:new 0 0 2070.6 218;" xml:space="preserve">
<style type="text/css">
	
		.st0{clip-path:url(#SVGID_00000101077439251566841050000011083760917511798404_);fill:none;stroke:#5CBA47;stroke-width:1.979;stroke-miterlimit:10;}
</style>
<g>
	<defs>
		<rect id="SVGID_1_" x="32.7" y="36.5" width="2005.2" height="144.9"/>
	</defs>
	<clipPath id="SVGID_00000176727750928157338550000006922535561411716012_">
		<use xlink:href="#SVGID_1_"  style="overflow:visible;"/>
	</clipPath>
	
		<path style="clip-path:url(#SVGID_00000176727750928157338550000006922535561411716012_);fill:none;stroke:#5CBA47;stroke-width:1.979;stroke-miterlimit:10;" d="
		M384.4,92.1c-15.2-6.3-24.1-8.2-34.8-4.6C336.2,91.9,327,109,318.9,109 M384.4,125.8c-15.2,6.3-24.1,8.2-34.8,4.6
		C336.2,126,327,109,318.9,109 M398.3,92.1c15.2-6.3,24.1-8.2,34.8-4.6c13.3,4.4,22.6,21.5,30.6,21.5 M398.3,125.8
		c15.2,6.3,24.1,8.2,34.8,4.6c13.3-4.4,22.6-21.5,30.6-21.5 M398.3,92.1C392,77,387.1,69.3,376.9,64.2c-12.5-6.3-31.1-0.8-36.8-6.5
		 M374.5,116c-15.2-6.3-22.8-11.2-27.9-21.4c-6.3-12.5-0.8-31.1-6.5-36.8 M408.2,102c15.2,6.3,22.8,11.2,27.9,21.4
		c6.3,12.5,0.8,31.1,6.5,36.8 M384.4,125.8c6.3,15.2,11.2,22.8,21.4,27.9c12.5,6.3,31.1,0.8,36.8,6.5 M408.2,102
		c6.3-15.2,8.2-24.1,4.6-34.8c-4.4-13.3-21.5-22.6-21.5-30.6 M374.5,102c-6.3-15.2-8.2-24.1-4.6-34.8c4.4-13.3,21.5-22.6,21.5-30.6
		 M408.2,116c6.3,15.2,8.2,24.1,4.6,34.8c-4.4,13.3-21.5,22.6-21.5,30.6 M374.5,116c-6.3,15.2-8.2,24.1-4.6,34.8
		c4.4,13.3,21.5,22.6,21.5,30.6 M401.2,118.9l7-2.9l-2.9-7l2.9-7l-7-2.9l-2.9-7l-7,2.9l-7-2.9l-2.9,7l-7,2.9l2.9,7l-2.9,7l7,2.9
		l2.9,7l7-2.9l7,2.9L401.2,118.9z M517.6,102c-15.2,6.3-22.8,11.2-27.9,21.4c-6.3,12.5-0.8,31.1-6.5,36.8 M541.4,125.8
		c-6.3,15.2-11.2,22.8-21.4,27.9c-12.5,6.3-31.1,0.8-36.8,6.5 M527.4,92.1c6.3-15.2,11.2-22.8,21.4-27.9c12.5-6.3,31.1-0.8,36.8-6.5
		 M551.3,116c15.2-6.3,22.8-11.2,27.9-21.4c6.3-12.5,0.8-31.1,6.5-36.8 M527.4,92.1c-15.2-6.3-24.1-8.2-34.8-4.6
		C479.3,91.9,470,109,462,109 M527.4,125.8c-15.2,6.3-24.1,8.2-34.8,4.6C479.3,126,470,109,462,109 M541.4,92.1
		c15.2-6.3,24.1-8.2,34.8-4.6c13.3,4.4,22.6,21.5,30.6,21.5 M541.4,125.8c15.2,6.3,24.1,8.2,34.8,4.6c13.3-4.4,22.6-21.5,30.6-21.5
		 M541.4,92.1C535.1,77,530.2,69.3,520,64.2c-12.5-6.3-31.1-0.8-36.8-6.5 M517.6,116c-15.2-6.3-22.8-11.2-27.9-21.4
		c-6.3-12.5-0.8-31.1-6.5-36.8 M551.3,102c15.2,6.3,22.8,11.2,27.9,21.4c6.3,12.5,0.8,31.1,6.5,36.8 M527.4,125.8
		c6.3,15.2,11.2,22.8,21.4,27.9c12.5,6.3,31.1,0.8,36.8,6.5 M551.3,102c6.3-15.2,8.2-24.1,4.6-34.8c-4.4-13.3-21.5-22.6-21.5-30.6
		 M517.6,102c-6.3-15.2-8.2-24.1-4.6-34.8c4.4-13.3,21.5-22.6,21.5-30.6 M551.3,116c6.3,15.2,8.2,24.1,4.6,34.8
		c-4.4,13.3-21.5,22.6-21.5,30.6 M517.6,116c-6.3,15.2-8.2,24.1-4.6,34.8c4.4,13.3,21.5,22.6,21.5,30.6 M544.3,118.9l7-2.9l-2.9-7
		l2.9-7l-7-2.9l-2.9-7l-7,2.9l-7-2.9l-2.9,7l-7,2.9l2.9,7l-2.9,7l7,2.9l2.9,7l7-2.9l7,2.9L544.3,118.9z M660.7,102
		c-15.2,6.3-22.8,11.2-27.9,21.4c-6.3,12.5-0.8,31.1-6.5,36.8 M684.5,125.8c-6.3,15.2-11.2,22.8-21.4,27.9
		c-12.5,6.3-31.1,0.8-36.8,6.5 M670.5,92.1c6.3-15.2,11.2-22.8,21.4-27.9c12.5-6.3,31.1-0.8,36.8-6.5 M694.4,116
		c15.2-6.3,22.8-11.2,27.9-21.4c6.3-12.5,0.8-31.1,6.5-36.8 M670.5,92.1c-15.2-6.3-24.1-8.2-34.8-4.6c-13.3,4.4-22.6,21.5-30.6,21.5
		 M670.5,125.8c-15.2,6.3-24.1,8.2-34.8,4.6c-13.3-4.4-22.6-21.5-30.6-21.5 M684.5,92.1c15.2-6.3,24.1-8.2,34.8-4.6
		c13.3,4.4,22.6,21.5,30.6,21.5 M684.5,125.8c15.2,6.3,24.1,8.2,34.8,4.6c13.3-4.4,22.6-21.5,30.6-21.5 M684.5,92.1
		c-6.3-15.2-11.2-22.8-21.4-27.9c-12.5-6.3-31.1-0.8-36.8-6.5 M660.7,116c-15.2-6.3-22.8-11.2-27.9-21.4
		c-6.3-12.5-0.8-31.1-6.5-36.8 M694.3,102c15.2,6.3,22.8,11.2,27.9,21.4c6.3,12.5,0.8,31.1,6.5,36.8 M670.5,125.8
		c6.3,15.2,11.2,22.8,21.4,27.9c12.5,6.3,31.1,0.8,36.8,6.5 M694.3,102c6.3-15.2,8.2-24.1,4.6-34.8c-4.4-13.3-21.5-22.6-21.5-30.6
		 M660.7,102c-6.3-15.2-8.2-24.1-4.6-34.8c4.4-13.3,21.5-22.6,21.5-30.6 M694.3,116c6.3,15.2,8.2,24.1,4.6,34.8
		c-4.4,13.3-21.5,22.6-21.5,30.6 M660.7,116c-6.3,15.2-8.2,24.1-4.6,34.8c4.4,13.3,21.5,22.6,21.5,30.6 M687.4,118.9l7-2.9l-2.9-7
		l2.9-7l-7-2.9l-2.9-7l-7,2.9l-7-2.9l-2.9,7l-7,2.9l2.9,7l-2.9,7l7,2.9l2.9,7l7-2.9l7,2.9L687.4,118.9z M803.7,102
		c-15.2,6.3-22.8,11.2-27.9,21.4c-6.3,12.5-0.8,31.1-6.5,36.8 M827.6,125.8c-6.3,15.2-11.2,22.8-21.4,27.9
		c-12.5,6.3-31.1,0.8-36.8,6.5 M813.6,92.1c6.3-15.2,11.2-22.8,21.4-27.9c12.5-6.3,31.1-0.8,36.8-6.5 M837.4,116
		c15.2-6.3,22.8-11.2,27.9-21.4c6.3-12.5,0.8-31.1,6.5-36.8 M813.6,92.1c-15.2-6.3-24.1-8.2-34.8-4.6c-13.3,4.4-22.6,21.5-30.6,21.5
		 M813.6,125.8c-15.2,6.3-24.1,8.2-34.8,4.6c-13.3-4.4-22.6-21.5-30.6-21.5 M827.6,92.1c15.2-6.3,24.1-8.2,34.8-4.6
		C875.7,91.9,885,109,893,109 M827.6,125.8c15.2,6.3,24.1,8.2,34.8,4.6C875.7,126,885,109,893,109 M827.6,92.1
		c-6.3-15.2-11.2-22.8-21.4-27.9c-12.5-6.3-31.1-0.8-36.8-6.5 M803.7,116c-15.2-6.3-22.8-11.2-27.9-21.4
		c-6.3-12.5-0.8-31.1-6.5-36.8 M837.4,102c15.2,6.3,22.8,11.2,27.9,21.4c6.3,12.5,0.8,31.1,6.5,36.8 M813.6,125.8
		c6.3,15.2,11.2,22.8,21.4,27.9c12.5,6.3,31.1,0.8,36.8,6.5 M837.4,102c6.3-15.2,8.2-24.1,4.6-34.8c-4.4-13.3-21.5-22.6-21.5-30.6
		 M803.7,102c-6.3-15.2-8.2-24.1-4.6-34.8c4.4-13.3,21.5-22.6,21.5-30.6 M837.4,116c6.3,15.2,8.2,24.1,4.6,34.8
		c-4.4,13.3-21.5,22.6-21.5,30.6 M803.7,116c-6.3,15.2-8.2,24.1-4.6,34.8c4.4,13.3,21.5,22.6,21.5,30.6 M830.4,118.9l7-2.9l-2.9-7
		l2.9-7l-7-2.9l-2.9-7l-7,2.9l-7-2.9l-2.9,7l-7,2.9l2.9,7l-2.9,7l7,2.9l2.9,7l7-2.9l7,2.9L830.4,118.9z M946.8,102
		c-15.2,6.3-22.8,11.2-27.9,21.4c-6.3,12.5-0.8,31.1-6.5,36.8 M970.6,125.8c-6.3,15.2-11.2,22.8-21.4,27.9
		c-12.5,6.3-31.1,0.8-36.8,6.5 M956.7,92.1c6.3-15.2,11.2-22.8,21.4-27.9c12.5-6.3,31.1-0.8,36.8-6.5 M980.5,116
		c15.2-6.3,22.8-11.2,27.9-21.4c6.3-12.5,0.8-31.1,6.5-36.8 M956.7,92.1c-15.2-6.3-24.1-8.2-34.8-4.6c-13.3,4.4-22.6,21.5-30.6,21.5
		 M956.7,125.8c-15.2,6.3-24.1,8.2-34.8,4.6c-13.3-4.4-22.6-21.5-30.6-21.5 M970.6,92.1c15.2-6.3,24.1-8.2,34.8-4.6
		c13.3,4.4,22.6,21.5,30.6,21.5 M970.6,125.8c15.2,6.3,24.1,8.2,34.8,4.6c13.3-4.4,22.6-21.5,30.6-21.5 M970.6,92.1
		c-6.3-15.2-11.2-22.8-21.4-27.9c-12.5-6.3-31.1-0.8-36.8-6.5 M946.8,116c-15.2-6.3-22.8-11.2-27.9-21.4
		c-6.3-12.5-0.8-31.1-6.5-36.8 M980.5,102c15.2,6.3,22.8,11.2,27.9,21.4c6.3,12.5,0.8,31.1,6.5,36.8 M956.7,125.8
		c6.3,15.2,11.2,22.8,21.4,27.9c12.5,6.3,31.1,0.8,36.8,6.5 M980.5,102c6.3-15.2,8.2-24.1,4.6-34.8c-4.4-13.3-21.5-22.6-21.5-30.6
		 M946.8,102c-6.3-15.2-8.2-24.1-4.6-34.8c4.4-13.3,21.5-22.6,21.5-30.6 M980.5,116c6.3,15.2,8.2,24.1,4.6,34.8
		c-4.4,13.3-21.5,22.6-21.5,30.6 M946.8,116c-6.3,15.2-8.2,24.1-4.6,34.8c4.4,13.3,21.5,22.6,21.5,30.6 M973.5,118.9l7-2.9l-2.9-7
		l2.9-7l-7-2.9l-2.9-7l-7,2.9l-7-2.9l-2.9,7l-7,2.9l2.9,7l-2.9,7l7,2.9l2.9,7l7-2.9l7,2.9L973.5,118.9z M1089.9,102
		c-15.2,6.3-22.8,11.2-27.9,21.4c-6.3,12.5-0.8,31.1-6.5,36.8 M1113.7,125.8c-6.3,15.2-11.2,22.8-21.4,27.9
		c-12.5,6.3-31.1,0.8-36.8,6.5 M1099.8,92.1c6.3-15.2,11.2-22.8,21.4-27.9c12.5-6.3,31.1-0.8,36.8-6.5 M1123.6,116
		c15.2-6.3,22.8-11.2,27.9-21.4c6.3-12.5,0.8-31.1,6.5-36.8 M1099.8,92.1c-15.2-6.3-24.1-8.2-34.8-4.6
		c-13.3,4.4-22.6,21.5-30.6,21.5 M1099.8,125.8c-15.2,6.3-24.1,8.2-34.8,4.6c-13.3-4.4-22.6-21.5-30.6-21.5 M1113.7,92.1
		c15.2-6.3,24.1-8.2,34.8-4.6c13.3,4.4,22.6,21.5,30.6,21.5 M1113.7,125.8c15.2,6.3,24.1,8.2,34.8,4.6c13.3-4.4,22.6-21.5,30.6-21.5
		 M1113.7,92.1c-6.3-15.2-11.2-22.8-21.4-27.9c-12.5-6.3-31.1-0.8-36.8-6.5 M1089.9,116c-15.2-6.3-22.8-11.2-27.9-21.4
		c-6.3-12.5-0.8-31.1-6.5-36.8 M1123.6,102c15.2,6.3,22.8,11.2,27.9,21.4c6.3,12.5,0.8,31.1,6.5,36.8 M1099.8,125.8
		c6.3,15.2,11.2,22.8,21.4,27.9c12.5,6.3,31.1,0.8,36.8,6.5 M1123.6,102c6.3-15.2,8.2-24.1,4.6-34.8c-4.4-13.3-21.5-22.6-21.5-30.6
		 M1089.9,102c-6.3-15.2-8.2-24.1-4.6-34.8c4.4-13.3,21.5-22.6,21.5-30.6 M1123.6,116c6.3,15.2,8.2,24.1,4.6,34.8
		c-4.4,13.3-21.5,22.6-21.5,30.6 M1089.9,116c-6.3,15.2-8.2,24.1-4.6,34.8c4.4,13.3,21.5,22.6,21.5,30.6 M1116.6,118.9l7-2.9l-2.9-7
		l2.9-7l-7-2.9l-2.9-7l-7,2.9l-7-2.9l-2.9,7l-7,2.9l2.9,7l-2.9,7l7,2.9l2.9,7l7-2.9l7,2.9L1116.6,118.9z M1233,102
		c-15.2,6.3-22.8,11.2-27.9,21.4c-6.3,12.5-0.8,31.1-6.5,36.8 M1256.8,125.8c-6.3,15.2-11.2,22.8-21.4,27.9
		c-12.5,6.3-31.1,0.8-36.8,6.5 M1242.9,92.1c6.3-15.2,11.2-22.8,21.4-27.9c12.5-6.3,31.1-0.8,36.8-6.5 M1266.7,116
		c15.2-6.3,22.8-11.2,27.9-21.4c6.3-12.5,0.8-31.1,6.5-36.8 M1242.9,92.1c-15.2-6.3-24.1-8.2-34.8-4.6
		c-13.3,4.4-22.6,21.5-30.6,21.5 M1242.9,125.8c-15.2,6.3-24.1,8.2-34.8,4.6c-13.3-4.4-22.6-21.5-30.6-21.5 M1256.8,92.1
		c15.2-6.3,24.1-8.2,34.8-4.6c13.3,4.4,22.6,21.5,30.6,21.5 M1256.8,125.8c15.2,6.3,24.1,8.2,34.8,4.6c13.3-4.4,22.6-21.5,30.6-21.5
		 M1256.8,92.1c-6.3-15.2-11.2-22.8-21.4-27.9c-12.5-6.3-31.1-0.8-36.8-6.5 M1233,116c-15.2-6.3-22.8-11.2-27.9-21.4
		c-6.3-12.5-0.8-31.1-6.5-36.8 M1266.7,102c15.2,6.3,22.8,11.2,27.9,21.4c6.3,12.5,0.8,31.1,6.5,36.8 M1242.9,125.8
		c6.3,15.2,11.2,22.8,21.4,27.9c12.5,6.3,31.1,0.8,36.8,6.5 M1266.7,102c6.3-15.2,8.2-24.1,4.6-34.8c-4.4-13.3-21.5-22.6-21.5-30.6
		 M1233,102c-6.3-15.2-8.2-24.1-4.6-34.8c4.4-13.3,21.5-22.6,21.5-30.6 M1266.7,116c6.3,15.2,8.2,24.1,4.6,34.8
		c-4.4,13.3-21.5,22.6-21.5,30.6 M1233,116c-6.3,15.2-8.2,24.1-4.6,34.8c4.4,13.3,21.5,22.6,21.5,30.6 M1259.7,118.9l7-2.9l-2.9-7
		l2.9-7l-7-2.9l-2.9-7l-7,2.9l-7-2.9l-2.9,7l-7,2.9l2.9,7l-2.9,7l7,2.9l2.9,7l7-2.9l7,2.9L1259.7,118.9z M1376.1,102
		c-15.2,6.3-22.8,11.2-27.9,21.4c-6.3,12.5-0.8,31.1-6.5,36.8 M1399.9,125.8c-6.3,15.2-11.2,22.8-21.4,27.9
		c-12.5,6.3-31.1,0.8-36.8,6.5 M1385.9,92.1c6.3-15.2,11.2-22.8,21.4-27.9c12.5-6.3,31.1-0.8,36.8-6.5 M1409.8,116
		c15.2-6.3,22.8-11.2,27.9-21.4c6.3-12.5,0.8-31.1,6.5-36.8 M1385.9,92.1c-15.2-6.3-24.1-8.2-34.8-4.6
		c-13.3,4.4-22.6,21.5-30.6,21.5 M1385.9,125.8c-15.2,6.3-24.1,8.2-34.8,4.6c-13.3-4.4-22.6-21.5-30.6-21.5 M1399.9,92.1
		c15.2-6.3,24.1-8.2,34.8-4.6c13.3,4.4,22.6,21.5,30.6,21.5 M1399.9,125.8c15.2,6.3,24.1,8.2,34.8,4.6c13.3-4.4,22.6-21.5,30.6-21.5
		 M1399.9,92.1c-6.3-15.2-11.2-22.8-21.4-27.9c-12.5-6.3-31.1-0.8-36.8-6.5 M1376.1,116c-15.2-6.3-22.8-11.2-27.9-21.4
		c-6.3-12.5-0.8-31.1-6.5-36.8 M1409.8,102c15.2,6.3,22.8,11.2,27.9,21.4c6.3,12.5,0.8,31.1,6.5,36.8 M1385.9,125.8
		c6.3,15.2,11.2,22.8,21.4,27.9c12.5,6.3,31.1,0.8,36.8,6.5 M1409.8,102c6.3-15.2,8.2-24.1,4.6-34.8c-4.4-13.3-21.5-22.6-21.5-30.6
		 M1376.1,102c-6.3-15.2-8.2-24.1-4.6-34.8c4.4-13.3,21.5-22.6,21.5-30.6 M1409.8,116c6.3,15.2,8.2,24.1,4.6,34.8
		c-4.4,13.3-21.5,22.6-21.5,30.6 M1376.1,116c-6.3,15.2-8.2,24.1-4.6,34.8c4.4,13.3,21.5,22.6,21.5,30.6 M1402.8,118.9l7-2.9l-2.9-7
		l2.9-7l-7-2.9l-2.9-7l-7,2.9l-7-2.9l-2.9,7l-7,2.9l2.9,7l-2.9,7l7,2.9l2.9,7l7-2.9l7,2.9L1402.8,118.9z M1519.2,102
		c-15.2,6.3-22.8,11.2-27.9,21.4c-6.3,12.5-0.8,31.1-6.5,36.8 M1543,125.8c-6.3,15.2-11.2,22.8-21.4,27.9
		c-12.5,6.3-31.1,0.8-36.8,6.5 M1529,92.1c6.3-15.2,11.2-22.8,21.4-27.9c12.5-6.3,31.1-0.8,36.8-6.5 M1552.9,116
		c15.2-6.3,22.8-11.2,27.9-21.4c6.3-12.5,0.8-31.1,6.5-36.8 M1529,92.1c-15.2-6.3-24.1-8.2-34.8-4.6c-13.3,4.4-22.6,21.5-30.6,21.5
		 M1529,125.8c-15.2,6.3-24.1,8.2-34.8,4.6c-13.3-4.4-22.6-21.5-30.6-21.5 M1543,92.1c15.2-6.3,24.1-8.2,34.8-4.6
		c13.3,4.4,22.6,21.5,30.6,21.5 M1543,125.8c15.2,6.3,24.1,8.2,34.8,4.6c13.3-4.4,22.6-21.5,30.6-21.5 M1543,92.1
		c-6.3-15.2-11.2-22.8-21.4-27.9c-12.5-6.3-31.1-0.8-36.8-6.5 M1519.2,116c-15.2-6.3-22.8-11.2-27.9-21.4
		c-6.3-12.5-0.8-31.1-6.5-36.8 M1552.8,102c15.2,6.3,22.8,11.2,27.9,21.4c6.3,12.5,0.8,31.1,6.5,36.8 M1529,125.8
		c6.3,15.2,11.2,22.8,21.4,27.9c12.5,6.3,31.1,0.8,36.8,6.5 M1552.8,102c6.3-15.2,8.2-24.1,4.6-34.8c-4.4-13.3-21.5-22.6-21.5-30.6
		 M1519.2,102c-6.3-15.2-8.2-24.1-4.6-34.8c4.4-13.3,21.5-22.6,21.5-30.6 M1552.8,116c6.3,15.2,8.2,24.1,4.6,34.8
		c-4.4,13.3-21.5,22.6-21.5,30.6 M1519.2,116c-6.3,15.2-8.2,24.1-4.6,34.8c4.4,13.3,21.5,22.6,21.5,30.6 M1545.9,118.9l7-2.9l-2.9-7
		l2.9-7l-7-2.9l-2.9-7l-7,2.9l-7-2.9l-2.9,7l-7,2.9l2.9,7l-2.9,7l7,2.9l2.9,7l7-2.9l7,2.9L1545.9,118.9z M1806.3,102
		c-15.2,6.3-22.8,11.2-27.9,21.4c-6.3,12.5-0.8,31.1-6.5,36.8 M1830.1,125.8c-6.3,15.2-11.2,22.8-21.4,27.9
		c-12.5,6.3-31.1,0.8-36.8,6.5 M1816.2,92.1c6.3-15.2,11.2-22.8,21.4-27.9c12.5-6.3,31.1-0.8,36.8-6.5 M1840,116
		c15.2-6.3,22.8-11.2,27.9-21.4c6.3-12.5,0.8-31.1,6.5-36.8 M1816.2,92.1c-15.2-6.3-24.1-8.2-34.8-4.6
		c-13.3,4.4-22.6,21.5-30.6,21.5 M1816.2,125.8c-15.2,6.3-24.1,8.2-34.8,4.6c-13.3-4.4-22.6-21.5-30.6-21.5 M1830.1,92.1
		c15.2-6.3,24.1-8.2,34.8-4.6c13.3,4.4,22.6,21.5,30.6,21.5 M1830.1,125.8c15.2,6.3,24.1,8.2,34.8,4.6c13.3-4.4,22.6-21.5,30.6-21.5
		 M1830.1,92.1c-6.3-15.2-11.2-22.8-21.4-27.9c-12.5-6.3-31.1-0.8-36.8-6.5 M1806.3,116c-15.2-6.3-22.8-11.2-27.9-21.4
		c-6.3-12.5-0.8-31.1-6.5-36.8 M1840,102c15.2,6.3,22.8,11.2,27.9,21.4c6.3,12.5,0.8,31.1,6.5,36.8 M1816.2,125.8
		c6.3,15.2,11.2,22.8,21.4,27.9c12.5,6.3,31.1,0.8,36.8,6.5 M1840,102c6.3-15.2,8.2-24.1,4.6-34.8c-4.4-13.3-21.5-22.6-21.5-30.6
		 M1806.3,102c-6.3-15.2-8.2-24.1-4.6-34.8c4.4-13.3,21.5-22.6,21.5-30.6 M1840,116c6.3,15.2,8.2,24.1,4.6,34.8
		c-4.4,13.3-21.5,22.6-21.5,30.6 M1806.3,116c-6.3,15.2-8.2,24.1-4.6,34.8c4.4,13.3,21.5,22.6,21.5,30.6 M1833,118.9l7-2.9l-2.9-7
		l2.9-7l-7-2.9l-2.9-7l-7,2.9l-7-2.9l-2.9,7l-7,2.9l2.9,7l-2.9,7l7,2.9l2.9,7l7-2.9l7,2.9L1833,118.9z M1661.5,102
		c-15.2,6.3-22.8,11.2-27.9,21.4c-6.3,12.5-0.8,31.1-6.5,36.8 M1685.3,125.8c-6.3,15.2-11.2,22.8-21.4,27.9
		c-12.5,6.3-31.1,0.8-36.8,6.5 M1671.3,92.1c6.3-15.2,11.2-22.8,21.4-27.9c12.5-6.3,31.1-0.8,36.8-6.5 M1695.1,116
		c15.2-6.3,22.8-11.2,27.9-21.4c6.3-12.5,0.8-31.1,6.5-36.8 M1671.3,92.1c-15.2-6.3-24.1-8.2-34.8-4.6
		c-13.3,4.4-22.6,21.5-30.6,21.5 M1671.3,125.8c-15.2,6.3-24.1,8.2-34.8,4.6c-13.3-4.4-22.6-21.5-30.6-21.5 M1685.3,92.1
		c15.2-6.3,24.1-8.2,34.8-4.6c13.3,4.4,22.6,21.5,30.6,21.5 M1685.3,125.8c15.2,6.3,24.1,8.2,34.8,4.6c13.3-4.4,22.6-21.5,30.6-21.5
		 M1685.3,92.1c-6.3-15.2-11.2-22.8-21.4-27.9c-12.5-6.3-31.1-0.8-36.8-6.5 M1661.5,116c-15.2-6.3-22.8-11.2-27.9-21.4
		c-6.3-12.5-0.8-31.1-6.5-36.8 M1695.1,102c15.2,6.3,22.8,11.2,27.9,21.4c6.3,12.5,0.8,31.1,6.5,36.8 M1671.3,125.8
		c6.3,15.2,11.2,22.8,21.4,27.9c12.5,6.3,31.1,0.8,36.8,6.5 M1695.1,102c6.3-15.2,8.2-24.1,4.6-34.8c-4.4-13.3-21.5-22.6-21.5-30.6
		 M1661.4,102c-6.3-15.2-8.2-24.1-4.6-34.8c4.4-13.3,21.5-22.6,21.5-30.6 M1695.1,116c6.3,15.2,8.2,24.1,4.6,34.8
		c-4.4,13.3-21.5,22.6-21.5,30.6 M1661.4,116c-6.3,15.2-8.2,24.1-4.6,34.8c4.4,13.3,21.5,22.6,21.5,30.6 M1688.2,118.9l7-2.9l-2.9-7
		l2.9-7l-7-2.9l-2.9-7l-7,2.9l-7-2.9l-2.9,7l-7,2.9l2.9,7l-2.9,7l7,2.9l2.9,7l7-2.9l7,2.9L1688.2,118.9z M1948.6,102
		c-15.2,6.3-22.8,11.2-27.9,21.4c-6.3,12.5-0.8,31.1-6.5,36.8 M1972.4,125.8c-6.3,15.2-11.2,22.8-21.4,27.9
		c-12.5,6.3-31.1,0.8-36.8,6.5 M1958.5,92.1c6.3-15.2,11.2-22.8,21.4-27.9c12.5-6.3,31.1-0.8,36.8-6.5 M1982.3,116
		c15.2-6.3,22.8-11.2,27.9-21.4c6.3-12.5,0.8-31.1,6.5-36.8 M1958.5,92.1c-15.2-6.3-24.1-8.2-34.8-4.6
		c-13.3,4.4-22.6,21.5-30.6,21.5 M1958.5,125.8c-15.2,6.3-24.1,8.2-34.8,4.6c-13.3-4.4-22.6-21.5-30.6-21.5 M1972.4,92.1
		c15.2-6.3,24.1-8.2,34.8-4.6c13.3,4.4,22.6,21.5,30.6,21.5 M1972.4,125.8c15.2,6.3,24.1,8.2,34.8,4.6c13.3-4.4,22.6-21.5,30.6-21.5
		 M1972.4,92.1c-6.3-15.2-11.2-22.8-21.4-27.9c-12.5-6.3-31.1-0.8-36.8-6.5 M1948.6,116c-15.2-6.3-22.8-11.2-27.9-21.4
		c-6.3-12.5-0.8-31.1-6.5-36.8 M1982.3,102c15.2,6.3,22.8,11.2,27.9,21.4c6.3,12.5,0.8,31.1,6.5,36.8 M1958.5,125.8
		c6.3,15.2,11.2,22.8,21.4,27.9c12.5,6.3,31.1,0.8,36.8,6.5 M1982.3,102c6.3-15.2,8.2-24.1,4.6-34.8c-4.4-13.3-21.5-22.6-21.5-30.6
		 M1948.6,102c-6.3-15.2-8.2-24.1-4.6-34.8c4.4-13.3,21.5-22.6,21.5-30.6 M1982.3,116c6.3,15.2,8.2,24.1,4.6,34.8
		c-4.4,13.3-21.5,22.6-21.5,30.6 M1948.6,116c-6.3,15.2-8.2,24.1-4.6,34.8c4.4,13.3,21.5,22.6,21.5,30.6 M1975.3,118.9l7-2.9l-2.9-7
		l2.9-7l-7-2.9l-2.9-7l-7,2.9l-7-2.9l-2.9,7l-7,2.9l2.9,7l-2.9,7l7,2.9l2.9,7l7-2.9l7,2.9L1975.3,118.9z"/>
	
		<path style="clip-path:url(#SVGID_00000176727750928157338550000006922535561411716012_);fill:none;stroke:#5CBA47;stroke-width:1.979;stroke-miterlimit:10;" d="
		M88.3,102c-15.2,6.3-22.8,11.2-27.9,21.4c-6.3,12.5-0.8,31.1-6.5,36.8 M112.1,125.8c-6.3,15.2-11.2,22.8-21.4,27.9
		c-12.5,6.3-31.1,0.8-36.8,6.5 M98.2,92.1c6.3-15.2,11.2-22.8,21.4-27.9c12.5-6.3,31.1-0.8,36.8-6.5 M122,116
		c15.2-6.3,22.8-11.2,27.9-21.4c6.3-12.5,0.8-31.1,6.5-36.8 M98.2,92.1c-15.2-6.3-24.1-8.2-34.8-4.6C50.1,91.9,40.8,109,32.7,109
		 M98.2,125.8c-15.2,6.3-24.1,8.2-34.8,4.6C50.1,126,40.8,109,32.7,109 M112.1,92.1c15.2-6.3,24.1-8.2,34.8-4.6
		c13.3,4.4,22.6,21.5,30.6,21.5 M112.1,125.8c15.2,6.3,24.1,8.2,34.8,4.6c13.3-4.4,22.6-21.5,30.6-21.5 M112.1,92.1
		c-6.3-15.2-11.2-22.8-21.4-27.9c-12.5-6.3-31.1-0.8-36.8-6.5 M88.3,116c-15.2-6.3-22.8-11.2-27.9-21.4c-6.3-12.5-0.8-31.1-6.5-36.8
		 M122,102c15.2,6.3,22.8,11.2,27.9,21.4c6.3,12.5,0.8,31.1,6.5,36.8 M98.2,125.8c6.3,15.2,11.2,22.8,21.4,27.9
		c12.5,6.3,31.1,0.8,36.8,6.5 M122,102c6.3-15.2,8.2-24.1,4.6-34.8c-4.4-13.3-21.5-22.6-21.5-30.6 M88.3,102
		c-6.3-15.2-8.2-24.1-4.6-34.8c4.4-13.3,21.5-22.6,21.5-30.6 M122,116c6.3,15.2,8.2,24.1,4.6,34.8c-4.4,13.3-21.5,22.6-21.5,30.6
		 M88.3,116c-6.3,15.2-8.2,24.1-4.6,34.8c4.4,13.3,21.5,22.6,21.5,30.6 M115,118.9l7-2.9l-2.9-7l2.9-7l-7-2.9l-2.9-7l-7,2.9l-7-2.9
		l-2.9,7l-7,2.9l2.9,7l-2.9,7l7,2.9l2.9,7l7-2.9l7,2.9L115,118.9z M231.4,102c-15.2,6.3-22.8,11.2-27.9,21.4
		c-6.3,12.5-0.8,31.1-6.5,36.8 M255.2,125.8c-6.3,15.2-11.2,22.8-21.4,27.9c-12.5,6.3-31.1,0.8-36.8,6.5 M241.3,92.1
		c6.3-15.2,11.2-22.8,21.4-27.9c12.5-6.3,31.1-0.8,36.8-6.5 M265.1,116c15.2-6.3,22.8-11.2,27.9-21.4c6.3-12.5,0.8-31.1,6.5-36.8
		 M241.3,92.1c-15.2-6.3-24.1-8.2-34.8-4.6c-13.3,4.4-22.6,21.5-30.6,21.5 M241.3,125.8c-15.2,6.3-24.1,8.2-34.8,4.6
		c-13.3-4.4-22.6-21.5-30.6-21.5 M255.2,92.1c15.2-6.3,24.1-8.2,34.8-4.6c13.3,4.4,22.6,21.5,30.6,21.5 M255.2,125.8
		c15.2,6.3,24.1,8.2,34.8,4.6c13.3-4.4,22.6-21.5,30.6-21.5 M255.2,92.1C249,77,244,69.3,233.9,64.2c-12.5-6.3-31.1-0.8-36.8-6.5
		 M231.4,116c-15.2-6.3-22.8-11.2-27.9-21.4c-6.3-12.5-0.8-31.1-6.5-36.8 M265.1,102c15.2,6.3,22.8,11.2,27.9,21.4
		c6.3,12.5,0.8,31.1,6.5,36.8 M241.3,125.8c6.3,15.2,11.2,22.8,21.4,27.9c12.5,6.3,31.1,0.8,36.8,6.5 M265.1,102
		c6.3-15.2,8.2-24.1,4.6-34.8c-4.4-13.3-21.5-22.6-21.5-30.6 M231.4,102c-6.3-15.2-8.2-24.1-4.6-34.8c4.4-13.3,21.5-22.6,21.5-30.6
		 M265.1,116c6.3,15.2,8.2,24.1,4.6,34.8c-4.4,13.3-21.5,22.6-21.5,30.6 M231.4,116c-6.3,15.2-8.2,24.1-4.6,34.8
		c4.4,13.3,21.5,22.6,21.5,30.6 M258.1,118.9l7-2.9l-2.9-7l2.9-7l-7-2.9l-2.9-7l-7,2.9l-7-2.9l-2.9,7l-7,2.9l2.9,7l-2.9,7l7,2.9
		l2.9,7l7-2.9l7,2.9L258.1,118.9z M374.5,102c-15.2,6.3-22.8,11.2-27.9,21.4c-6.3,12.5-0.8,31.1-6.5,36.8 M398.3,125.8
		c-6.3,15.2-11.2,22.8-21.4,27.9c-12.5,6.3-31.1,0.8-36.8,6.5 M384.4,92.1c6.3-15.2,11.2-22.8,21.4-27.9c12.5-6.3,31.1-0.8,36.8-6.5
		 M408.2,116c15.2-6.3,22.8-11.2,27.9-21.4c6.3-12.5,0.8-31.1,6.5-36.8"/>
</g>
</svg>
