<?xml version="1.0" encoding="UTF-8"?>
<svg id="Layer_1" data-name="Layer 1" xmlns="http://www.w3.org/2000/svg" version="1.1" viewBox="0 0 1783.94 195.59">
  <defs>
    <style>
      .cls-1 {
        fill: #a3405e;
      }

      .cls-1, .cls-2 {
        stroke-width: 0px;
      }

      .cls-2 {
        fill: none;
      }
    </style>
  </defs>
  <rect class="cls-2" x="627.19" y="123.54" width="69.96" height="15.95" transform="translate(100.95 506.74) rotate(-45)"/>
  <rect class="cls-2" x="555.42" y="90.24" width="15.1" height="15.1" transform="translate(95.7 426.66) rotate(-44.99)"/>
  <rect class="cls-2" x="759.07" y="121.95" width="69.52" height="17.26" transform="translate(140.18 599.58) rotate(-45)"/>
  <rect class="cls-2" x="588.44" y="94.87" width="15.51" height="71.72" transform="translate(82.16 459.83) rotate(-45)"/>
  <rect class="cls-2" x="719.21" y="96.19" width="17.26" height="69.08" transform="translate(120.76 552.99) rotate(-45)"/>
  <rect class="cls-2" x="981.48" y="95.82" width="17.26" height="69.52" transform="translate(197.7 738.4) rotate(-45)"/>
  <rect class="cls-2" x="851.72" y="96.79" width="15.95" height="68.2" transform="translate(159.19 646.15) rotate(-44.99)"/>
  <rect class="cls-2" x="890.14" y="122.91" width="68.2" height="15.95" transform="translate(178.15 691.87) rotate(-45)"/>
  <path class="cls-2" d="M578.99,97.79l50.42,50.42,50.42-50.42-50.42-50.42-50.42,50.42ZM630.87,75.59l18.75,20.98c.08.1.16.23.24.38.05.1.09.21.12.33.03.14.05.28.05.43v.16c0,.15-.02.3-.05.44-.03.12-.07.23-.12.34-.09.19-.19.31-.27.41l-18.7,20.94c-.18.19-.39.35-.62.46-.23.1-.49.16-.76.16s-.52-.06-.76-.16c-.23-.1-.45-.26-.63-.46l-18.68-20.91c-.06-.07-.14-.17-.22-.31-.09-.15-.15-.3-.19-.47-.03-.13-.05-.27-.05-.42v-.15c0-.19.02-.32.05-.46.04-.17.11-.32.2-.47.08-.14.16-.23.22-.31l18.68-20.91c.17-.19.38-.35.62-.45.24-.11.5-.17.76-.17s.53.06.76.16c.23.11.45.26.62.46Z"/>
  <path class="cls-2" d="M842.92,97.79l49.04,49.04,49.04-49.04-49.04-49.04-49.04,49.04ZM893.35,75.6l18.68,20.91c.08.09.15.19.22.3.09.15.15.31.2.48.03.14.05.28.05.43v.16c0,.16-.02.3-.06.46-.04.15-.11.3-.2.46-.06.11-.13.2-.21.29l-18.69,20.91c-.18.2-.39.35-.61.45-.24.11-.51.17-.77.17s-.52-.06-.75-.16c-.24-.11-.46-.26-.63-.46l-18.68-20.91c-.08-.08-.19-.22-.29-.43-.05-.11-.09-.22-.11-.32-.04-.17-.06-.31-.06-.44v-.14c0-.18.02-.32.06-.46.03-.12.07-.22.12-.33.1-.21.21-.35.3-.44l18.68-20.91c.17-.19.39-.35.62-.45.24-.11.5-.17.76-.17s.53.06.75.16c.24.11.46.27.63.46Z"/>
  <rect class="cls-2" x="818.47" y="89.37" width="16.86" height="16.86" transform="translate(173.01 613.31) rotate(-45)"/>
  <polygon class="cls-2" points="751.21 89.98 744.21 97.79 751.42 105.86 751.44 105.86 752.93 107.56 761.15 116.75 778.08 97.79 761.15 78.84 752.71 88.29 751.21 89.98"/>
  <rect class="cls-2" x="1021.55" y="122.1" width="69.08" height="17.26" transform="translate(216.88 785.06) rotate(-45)"/>
  <polygon class="cls-2" points="891.97 116.75 900.41 107.3 901.9 105.61 908.9 97.79 901.7 89.73 901.68 89.73 900.18 88.03 891.97 78.84 875.03 97.79 891.97 116.75"/>
  <polygon class="cls-2" points="629.49 116.75 646.43 97.79 629.49 78.84 612.55 97.79 629.49 116.75"/>
  <rect class="cls-2" x="686.28" y="89.15" width="17.3" height="17.3" transform="translate(134.37 520) rotate(-45)"/>
  <path class="cls-2" d="M711.89,97.79l48.87,48.87,48.87-48.87-48.87-48.87-48.87,48.87ZM762.53,75.6l18.68,20.91c.09.1.19.23.29.44.05.1.09.21.13.34.03.14.05.29.05.43v.16c0,.14-.02.29-.06.46-.03.1-.07.21-.12.31-.1.21-.21.35-.29.44l-18.68,20.91c-.17.19-.39.35-.61.45-.24.11-.51.17-.77.17s-.52-.06-.75-.16c-.24-.11-.46-.26-.63-.46l-18.67-20.9c-.06-.07-.15-.17-.23-.31-.09-.15-.15-.3-.19-.47-.04-.14-.05-.29-.05-.43v-.17c0-.15.02-.29.05-.43.04-.17.11-.32.2-.48.08-.14.16-.24.23-.31l18.67-20.9c.17-.19.39-.35.62-.45.24-.11.5-.17.77-.17s.53.06.75.16c.24.11.46.27.63.46Z"/>
  <polygon class="cls-2" points="1687.56 116.75 1704.49 97.79 1687.56 78.84 1670.62 97.79 1687.56 116.75"/>
  <rect class="cls-2" x="1710.84" y="30.6" width="15.95" height="68.2" transform="translate(457.68 1234.33) rotate(-45)"/>
  <path class="cls-2" d="M1637.49,97.79l49.18,49.18,49.18-49.18-49.18-49.18-49.18,49.18ZM1688.94,75.6l18.68,20.92c.09.1.2.24.3.44.04.1.08.21.11.32.04.14.06.28.06.43v.16c0,.15-.02.3-.05.44-.03.12-.07.23-.12.35-.08.16-.17.29-.29.43l-18.68,20.92c-.17.19-.39.35-.61.45-.25.11-.51.17-.77.17s-.52-.06-.75-.16c-.22-.1-.42-.24-.58-.41l-18.72-20.96c-.09-.09-.16-.19-.22-.3-.09-.16-.15-.31-.19-.46-.04-.14-.05-.29-.05-.44v-.17c0-.15.02-.3.05-.43.04-.17.11-.32.2-.48.06-.1.13-.2.22-.3l18.75-20.99c.15-.15.34-.28.54-.37.24-.11.5-.17.77-.17s.53.06.76.16c.24.11.46.26.63.46Z"/>
  <rect class="cls-2" x="1684.71" y="122.91" width="68.2" height="15.95" transform="translate(410.88 1253.72) rotate(-45)"/>
  <rect class="cls-2" x="1619.53" y="56.67" width="69.08" height="16.38" transform="translate(438.57 1188.57) rotate(-45)"/>
  <rect class="cls-2" x="948.61" y="89.37" width="16.86" height="16.86" transform="translate(211.16 705.37) rotate(-45)"/>
  <rect class="cls-2" x="1448.77" y="29.1" width="15.95" height="69.96" transform="translate(381.41 1048.9) rotate(-45)"/>
  <rect class="cls-2" x="1579.77" y="30.25" width="17.26" height="69.52" transform="translate(419.26 1142.21) rotate(-45)"/>
  <rect class="cls-2" x="1487.87" y="56.23" width="69.08" height="17.26" transform="translate(400.07 1095.54) rotate(-45)"/>
  <rect class="cls-2" x="1151.89" y="122.98" width="71.71" height="15.51" transform="translate(255.43 878.14) rotate(-45)"/>
  <path class="cls-2" d="M1235.69,100.02l-.49.05c-.09,0-.17.01-.26.01s-.17,0-.25-.01l-.49-.05-10.84,10.84,52.26,52.26,11.59-11.59-51.52-51.52Z"/>
  <path class="cls-2" d="M1344.3,100.02l-.49.05c-.08,0-.17.01-.25.01s-.17,0-.25-.01l-.49-.05-51.52,51.52,11.59,11.59,52.26-52.26-10.84-10.84Z"/>
  <rect class="cls-2" x="1383.01" y="94.87" width="15.51" height="71.72" transform="translate(314.9 1021.71) rotate(-45)"/>
  <rect class="cls-2" x="1113.79" y="96.53" width="15.95" height="69.96" transform="translate(235.57 831.72) rotate(-45)"/>
  <rect class="cls-2" x="1513.78" y="96.19" width="17.26" height="69.08" transform="translate(353.46 1114.8) rotate(-45)"/>
  <rect class="cls-2" x="1553.64" y="121.95" width="69.52" height="17.26" transform="translate(372.9 1161.41) rotate(-45)"/>
  <rect class="cls-2" x="1645.88" y="96.19" width="16.38" height="69.08" transform="translate(392.02 1207.9) rotate(-45)"/>
  <rect class="cls-2" x="1421.76" y="123.54" width="69.96" height="15.95" transform="translate(333.67 1068.58) rotate(-45)"/>
  <polygon class="cls-2" points="1154.44 116.75 1171.38 97.79 1154.44 78.84 1137.51 97.79 1154.44 116.75"/>
  <polygon class="cls-2" points="413.14 162.27 443.46 162.27 428.3 145.3 413.14 162.27"/>
  <path class="cls-2" d="M549.73,100.02l-.49.05c-.09,0-.17.01-.25.01s-.17,0-.25-.01l-.49-.05-51.52,51.52,11.59,11.59,52.26-52.26-10.84-10.84Z"/>
  <polygon class="cls-2" points="280.36 162.27 310.68 162.27 295.52 145.3 280.36 162.27"/>
  <polygon class="cls-2" points="238.15 105.61 245.16 97.79 237.95 89.73 237.93 89.73 236.43 88.03 228.22 78.84 211.28 97.79 228.22 116.75 236.66 107.3 238.15 105.61"/>
  <polygon class="cls-2" points="143.74 162.27 174.06 162.27 158.9 145.3 143.74 162.27"/>
  <path class="cls-2" d="M277.48,97.79l-48.87-48.87-48.87,48.87,48.87,48.87,48.87-48.87ZM226.84,119.99l-18.68-20.91c-.08-.09-.19-.23-.29-.43-.05-.11-.09-.22-.12-.32-.04-.16-.06-.31-.06-.44v-.14c0-.18.02-.32.06-.47.03-.12.07-.23.11-.33.1-.21.21-.34.3-.45l18.68-20.91c.17-.19.39-.35.62-.45.24-.11.5-.17.76-.17s.53.06.75.16c.24.11.46.27.63.46l18.68,20.91c.09.1.16.19.22.3.09.16.16.32.2.48.03.14.05.28.05.43v.16c0,.16-.02.3-.06.46-.04.15-.11.31-.2.46-.06.11-.13.2-.21.29l-18.69,20.92c-.17.19-.39.35-.61.45-.24.11-.51.17-.77.17s-.52-.06-.75-.16c-.24-.11-.46-.26-.63-.46Z"/>
  <rect class="cls-2" x="285.79" y="89.15" width="17.3" height="17.3" transform="translate(17.08 236.83) rotate(-45)"/>
  <rect class="cls-2" x="154.04" y="89.37" width="16.86" height="16.86" transform="translate(-21.56 143.54) rotate(-45)"/>
  <polygon class="cls-2" points="1609.88 162.27 1640.2 162.27 1625.04 145.3 1609.88 162.27"/>
  <path class="cls-2" d="M1503.58,33.32h-30.32l15.16,16.97,15.16-16.97ZM1495.75,40.53l-.02.02.02-.02h0Z"/>
  <polygon class="cls-2" points="1640.2 33.32 1609.88 33.32 1625.04 50.29 1640.2 33.32"/>
  <path class="cls-2" d="M1473.25,162.27h30.32l-15.16-16.97-15.16,16.97ZM1495.75,155.06l-.02-.02.02.02h0Z"/>
  <path class="cls-2" d="M410.38,97.79l-50.43-50.42-50.42,50.42,50.42,50.42,50.43-50.42ZM358.49,120l-18.74-20.98c-.08-.1-.16-.23-.24-.38-.05-.1-.08-.21-.12-.33-.03-.14-.05-.28-.05-.42v-.16c0-.18.02-.32.05-.45.03-.12.07-.23.12-.34.07-.14.16-.28.27-.41l18.7-20.94c.17-.19.39-.35.62-.46.23-.1.5-.16.76-.16s.52.06.76.16c.21.1.42.24.58.41l18.72,20.96c.09.1.16.19.22.3.09.16.15.31.19.47.04.14.06.29.06.44v.17c0,.14-.02.29-.05.43-.04.17-.1.32-.2.48-.06.1-.13.2-.22.3l-18.75,20.99c-.14.15-.34.29-.55.37-.24.11-.5.17-.77.17s-.53-.06-.76-.16c-.23-.11-.45-.26-.62-.46Z"/>
  <polygon class="cls-2" points="1370.8 33.32 1340.47 33.32 1355.63 50.29 1370.8 33.32"/>
  <rect class="cls-2" x="292.74" y="49.87" width="1.72" height="2.06" transform="translate(60.21 236.15) rotate(-48.28)"/>
  <path class="cls-2" d="M310.68,33.32h-30.32l15.16,16.97,15.16-16.97ZM288.19,40.54s.01.01.02.02l-.02-.02h0Z"/>
  <polygon class="cls-2" points="174.06 33.32 143.74 33.32 158.9 50.29 174.06 33.32"/>
  <polygon class="cls-2" points="1022.79 116.75 1031.23 107.3 1032.72 105.61 1039.72 97.79 1032.52 89.73 1032.5 89.73 1031 88.03 1022.79 78.84 1005.85 97.79 1022.79 116.75"/>
  <rect class="cls-2" x="1354.9" y="57.1" width="71.72" height="15.51" transform="translate(361.49 1002.42) rotate(-45)"/>
  <rect class="cls-2" x="1213.42" y="90.24" width="15.1" height="15.1" transform="translate(288.41 891.94) rotate(-45)"/>
  <path class="cls-2" d="M1238.24,97.79l51.01,51.01,51.01-51.01-51.01-51.01-51.01,51.01ZM1288.97,75.6l18.68,20.91c.09.1.16.19.22.3.09.16.15.3.19.47.04.14.05.29.05.43v.17c0,.15-.02.29-.05.43-.04.17-.11.32-.2.48-.06.1-.13.2-.22.3l-18.68,20.91c-.18.2-.39.35-.62.46-.24.11-.5.16-.77.16s-.52-.06-.76-.16c-.24-.11-.45-.26-.62-.46l-18.68-20.92c-.08-.09-.19-.22-.29-.43-.05-.11-.09-.22-.13-.34-.03-.14-.05-.28-.05-.42v-.14c0-.18.02-.32.06-.48.02-.1.07-.2.12-.31.11-.22.22-.36.29-.44l18.68-20.91c.17-.19.39-.35.62-.46.23-.11.49-.16.76-.16s.52.06.76.16c.23.1.45.26.63.46Z"/>
  <rect class="cls-2" x="418.85" y="90.24" width="15.1" height="15.1" transform="translate(55.72 330.13) rotate(-45)"/>
  <path class="cls-2" d="M1104.1,97.79l50.42,50.42,50.43-50.42-50.43-50.42-50.42,50.42ZM1155.78,75.55l18.72,20.96c.09.1.16.19.22.3.09.16.15.31.19.46.04.14.05.29.05.44v.17c0,.15-.02.29-.05.43-.04.17-.1.32-.2.48-.06.1-.13.2-.22.3l-18.75,20.99c-.14.15-.35.29-.55.37-.24.11-.5.17-.77.17s-.53-.06-.76-.16c-.23-.11-.45-.26-.62-.46l-18.74-20.98c-.08-.1-.16-.23-.24-.38-.05-.1-.08-.21-.12-.33-.03-.14-.05-.28-.05-.42v-.16c0-.18.02-.31.05-.45.03-.12.07-.23.12-.34.07-.14.16-.27.27-.41l18.7-20.94c.17-.19.39-.35.62-.46.23-.1.5-.16.76-.16s.52.06.76.16c.22.1.42.24.58.41Z"/>
  <path class="cls-2" d="M974.31,97.79l48.87,48.87,48.87-48.87-48.87-48.87-48.87,48.87ZM1024.17,75.6l18.68,20.91c.09.1.16.2.22.29.09.16.16.31.2.48.03.14.05.28.05.43v.16c0,.15-.02.29-.06.46-.04.15-.11.3-.2.46-.06.11-.13.2-.21.29l-18.69,20.92c-.17.19-.39.35-.61.45-.24.11-.51.17-.77.17s-.52-.06-.75-.16c-.24-.1-.45-.26-.63-.46l-18.68-20.91c-.08-.08-.19-.22-.29-.43-.05-.11-.09-.21-.12-.32-.04-.15-.06-.3-.06-.44v-.14c0-.18.02-.32.06-.46.03-.12.07-.23.11-.32.11-.22.21-.36.3-.45l18.68-20.91c.17-.19.39-.35.62-.45.24-.11.5-.17.77-.17s.53.06.75.16c.24.11.46.27.63.46Z"/>
  <rect class="cls-2" x="1349.99" y="90.24" width="15.1" height="15.1" transform="translate(328.41 988.5) rotate(-45)"/>
  <rect class="cls-2" x="1080.36" y="89.15" width="17.3" height="17.3" transform="translate(249.81 798.69) rotate(-45)"/>
  <polygon class="cls-2" points="1287.59 116.75 1304.52 97.79 1287.59 78.84 1270.65 97.79 1287.59 116.75"/>
  <polygon class="cls-2" points="1545.78 89.98 1538.78 97.79 1545.99 105.86 1546.01 105.86 1547.5 107.56 1555.72 116.75 1572.65 97.79 1555.72 78.84 1547.27 88.29 1545.78 89.98"/>
  <path class="cls-2" d="M545.7,97.79l-51.01-51.01-51.01,51.01,51.01,51.01,51.01-51.01ZM491.64,120l-18.69-20.92c-.08-.08-.19-.22-.29-.43-.05-.11-.09-.22-.13-.34-.03-.14-.05-.28-.05-.42v-.14c0-.18.02-.32.06-.47.03-.11.07-.21.12-.31.08-.17.18-.32.29-.45l18.68-20.91c.17-.19.38-.35.62-.46.23-.11.49-.16.76-.16s.53.06.76.16c.24.1.45.26.63.46l18.68,20.91c.09.1.16.19.22.3.09.16.15.3.19.47.04.14.05.29.05.43v.17c0,.15-.02.29-.05.43-.04.17-.11.32-.2.48-.05.1-.13.19-.22.3l-18.68,20.91c-.18.2-.39.35-.62.46-.24.11-.5.16-.77.16s-.52-.06-.76-.16c-.24-.11-.45-.26-.62-.45Z"/>
  <polygon class="cls-2" points="493.02 78.84 476.08 97.79 493.02 116.75 509.95 97.79 493.02 78.84"/>
  <path class="cls-2" d="M1506.46,97.79l48.87,48.87,48.87-48.87-48.87-48.87-48.87,48.87ZM1557.1,75.59l18.68,20.91c.08.09.19.23.29.44.05.1.09.21.13.34.03.14.05.29.05.43v.16c0,.15-.02.29-.06.46-.03.11-.07.22-.12.31-.11.22-.22.36-.29.44l-18.68,20.91c-.18.2-.39.35-.61.45-.24.11-.51.17-.77.17s-.52-.06-.75-.16c-.24-.11-.46-.26-.63-.46l-18.67-20.9c-.06-.07-.15-.17-.23-.31-.08-.15-.15-.3-.19-.46-.04-.14-.05-.29-.05-.43v-.17c0-.15.02-.3.05-.43.05-.18.11-.33.2-.48.08-.14.17-.24.23-.31l18.67-20.89c.17-.19.38-.35.62-.45.24-.11.5-.17.77-.17s.53.06.75.16c.24.11.46.26.63.46Z"/>
  <polygon class="cls-2" points="1424.06 116.75 1441 97.79 1424.06 78.84 1407.12 97.79 1424.06 116.75"/>
  <path class="cls-2" d="M1373.56,97.79l50.43,50.42,50.42-50.42-50.42-50.42-50.43,50.42ZM1425.44,75.59l18.75,20.98c.08.1.17.23.24.38.05.1.09.21.11.32.04.13.05.28.05.43v.16c0,.16-.02.31-.05.44-.03.12-.07.23-.13.35-.1.19-.19.32-.27.41l-18.7,20.93c-.17.19-.39.35-.62.46-.23.1-.49.16-.76.16s-.52-.06-.76-.16c-.23-.1-.45-.26-.63-.46l-18.68-20.91c-.06-.07-.14-.17-.22-.3-.08-.15-.15-.3-.19-.48-.03-.13-.05-.27-.05-.42v-.15c0-.19.02-.32.05-.46.04-.17.11-.33.19-.47.08-.14.16-.23.22-.31l18.68-20.91c.17-.19.38-.35.62-.45.24-.11.5-.17.76-.17s.53.06.76.16c.23.11.45.26.62.45Z"/>
  <rect class="cls-2" x="1480.85" y="89.15" width="17.3" height="17.3" transform="translate(367.06 1081.82) rotate(-45)"/>
  <rect class="cls-2" x="1613.04" y="89.37" width="16.86" height="16.86" transform="translate(405.77 1175.19) rotate(-45)"/>
  <polygon class="cls-2" points="359.87 78.84 342.94 97.79 359.87 116.75 376.81 97.79 359.87 78.84"/>
  <polygon class="cls-2" points="968.63 33.32 938.3 33.32 953.47 50.29 968.63 33.32"/>
  <polygon class="cls-2" points="443.46 33.32 413.14 33.32 428.3 50.29 443.46 33.32"/>
  <rect class="cls-2" x="1087.31" y="49.87" width="1.72" height="2.06" transform="translate(325.63 828.87) rotate(-48.25)"/>
  <polygon class="cls-2" points="845.63 33.32 815.31 33.32 830.47 50.29 845.63 33.32"/>
  <path class="cls-2" d="M709.01,33.32h-30.32l15.16,16.97,15.16-16.97ZM701.18,40.53l-.02.02s.01-.01.02-.02h0Z"/>
  <path class="cls-2" d="M1105.25,33.32h-30.32l15.16,16.97,15.16-16.97ZM1082.76,40.54l.02.02-.02-.02h0Z"/>
  <path class="cls-2" d="M441.12,100.02l-.49.05c-.08,0-.17.01-.25.01s-.17,0-.25-.01l-.49-.05-10.84,10.84,52.26,52.26,11.59-11.59-51.52-51.52Z"/>
  <rect class="cls-2" x="186.91" y="95.82" width="17.26" height="69.52" transform="translate(-35.06 176.52) rotate(-45)"/>
  <rect class="cls-2" x="357.32" y="122.98" width="71.71" height="15.51" transform="translate(22.72 316.31) rotate(-45)"/>
  <rect class="cls-2" x="95.33" y="122.54" width="69.08" height="16.38" transform="translate(-54.4 130.12) rotate(-45)"/>
  <rect class="cls-2" x="319.22" y="96.53" width="15.95" height="69.96" transform="translate(2.85 269.9) rotate(-45)"/>
  <rect class="cls-2" x="226.98" y="122.1" width="69.08" height="17.26" transform="translate(-15.85 223.21) rotate(-45)"/>
  <path class="cls-2" d="M1342.82,95.58l.49-.05c.08,0,.17-.01.25-.01s.17,0,.25.01l.49.05,10.84-10.85-52.26-52.26-11.59,11.59,51.52,51.52Z"/>
  <path class="cls-2" d="M678.68,162.27h30.32l-15.16-16.97-15.16,16.97ZM701.18,155.06l-.02-.02s.01.01.02.02h0Z"/>
  <polygon class="cls-2" points="1074.93 162.27 1105.25 162.27 1090.09 145.3 1074.93 162.27"/>
  <polygon class="cls-2" points="938.3 162.27 968.63 162.27 953.47 145.3 938.3 162.27"/>
  <polygon class="cls-2" points="545.9 162.27 576.23 162.27 561.07 145.3 545.9 162.27"/>
  <polygon class="cls-2" points="545.9 33.32 561.07 50.29 576.23 33.32 545.9 33.32"/>
  <polygon class="cls-2" points="1238.03 33.32 1207.71 33.32 1222.87 50.29 1238.03 33.32"/>
  <polygon class="cls-2" points="697.11 144.73 695.57 143.36 694.43 144.65 695.97 146.02 697.11 144.73"/>
  <rect class="cls-2" x="57.15" y="96.79" width="15.95" height="68.2" transform="translate(-73.47 84.38) rotate(-45)"/>
  <polygon class="cls-2" points="1207.71 162.27 1238.03 162.27 1222.87 145.3 1207.71 162.27"/>
  <polygon class="cls-2" points="815.31 162.27 845.63 162.27 830.47 145.3 815.31 162.27"/>
  <polygon class="cls-2" points="1340.47 162.27 1370.8 162.27 1355.63 145.3 1340.47 162.27"/>
  <rect class="cls-2" x="693.3" y="56.23" width="69.08" height="17.26" transform="translate(167.33 533.67) rotate(-45)"/>
  <rect class="cls-2" x="825.59" y="56.73" width="68.2" height="15.95" transform="translate(206.05 626.85) rotate(-45)"/>
  <rect class="cls-2" x="385.42" y="29" width="15.51" height="71.72" transform="translate(69.3 297.01) rotate(-45)"/>
  <rect class="cls-2" x="654.2" y="29.1" width="15.95" height="69.96" transform="translate(148.63 487) rotate(-45)"/>
  <path class="cls-2" d="M439.63,95.58l.49-.05c.08,0,.17-.01.25-.01s.17,0,.25.01l.49.05,51.52-51.52-11.59-11.59-52.26,52.27,10.84,10.85Z"/>
  <rect class="cls-2" x="560.33" y="57.1" width="71.72" height="15.51" transform="translate(128.77 440.58) rotate(-45)"/>
  <path class="cls-2" d="M548.25,95.58l.49-.05c.08,0,.17-.01.25-.01s.17,0,.25.01l.49.05,10.85-10.85-52.26-52.26-11.59,11.59,51.52,51.52Z"/>
  <rect class="cls-2" x="785.2" y="30.25" width="17.26" height="69.52" transform="translate(186.56 580.4) rotate(-45)"/>
  <rect class="cls-2" x="1179.99" y="29" width="15.51" height="71.72" transform="translate(302.07 858.91) rotate(-45)"/>
  <path class="cls-2" d="M146.44,97.79l-49.18-49.18-49.18,49.18,49.18,49.18,49.18-49.18ZM95,120l-18.69-20.92c-.12-.14-.22-.28-.3-.44-.05-.1-.09-.21-.11-.32-.04-.14-.05-.28-.05-.43v-.16c0-.18.02-.31.05-.45.03-.12.07-.23.12-.34.1-.19.21-.34.3-.44l18.68-20.91c.17-.19.39-.35.61-.45.24-.11.51-.17.77-.17s.52.06.76.16c.23.1.45.26.63.46l18.63,20.85c.13.15.21.25.27.36.09.15.15.3.19.47.04.14.05.28.05.43v.17c0,.15-.02.29-.05.43-.04.17-.1.32-.2.48-.06.11-.13.2-.22.31l-18.67,20.9c-.17.19-.38.35-.62.45-.24.11-.5.17-.77.17s-.53-.06-.76-.16c-.24-.11-.46-.27-.62-.45Z"/>
  <rect class="cls-2" x="916.27" y="30.6" width="15.95" height="68.2" transform="translate(224.95 672.49) rotate(-45)"/>
  <rect class="cls-2" x="1086.78" y="56.11" width="69.96" height="15.95" transform="translate(283.26 812) rotate(-45)"/>
  <rect class="cls-2" x="955.35" y="56.38" width="69.52" height="17.26" transform="translate(244.02 719.15) rotate(-45)"/>
  <rect class="cls-2" x="1047.46" y="30.32" width="17.26" height="69.08" transform="translate(263.46 765.77) rotate(-45)"/>
  <path class="cls-2" d="M1234.2,95.58l.49-.05c.08,0,.17-.01.25-.01s.17,0,.25.01l.49.05,51.52-51.52-11.59-11.59-52.26,52.27,10.84,10.85Z"/>
  <rect class="cls-2" x="121.67" y="30.32" width="16.39" height="69.08" transform="translate(-7.83 110.82) rotate(-45)"/>
  <rect class="cls-2" x="160.78" y="56.38" width="69.52" height="17.26" transform="translate(11.3 157.31) rotate(-45)"/>
  <rect class="cls-2" x="252.89" y="30.32" width="17.26" height="69.08" transform="translate(30.74 203.93) rotate(-45)"/>
  <rect class="cls-2" x="31.02" y="56.73" width="68.2" height="15.95" transform="translate(-26.68 65) rotate(-45)"/>
  <polygon class="cls-2" points="96.38 78.84 79.44 97.79 96.38 116.75 113.31 97.79 96.38 78.84"/>
  <rect class="cls-2" x="292.21" y="56.11" width="69.96" height="15.95" transform="translate(50.52 250.13) rotate(-45)"/>
  <path class="cls-1" d="M483.6,164.82c.34-.42.67-.81,1-1.15,1.46-1.47,3-3,4.35-4.34l5.74-5.72,7.27,7.25c1.54,1.53,2.98,3.07,4.19,4.36.96,1.02,1.83,1.54,2.61,1.54.1,0,.21,0,.31-.03,1.15-.22,2.76-2.05,4.06-3.53.46-.53.9-1.02,1.28-1.4l48.56-48.57,51.37,51.37c.23.23.51.42.81.54.29.12.6.18.91.18s.62-.06.92-.18c.29-.12.57-.3.81-.53l11.63-11.63,11.94,11.94c.23.23.51.42.81.54.29.12.6.18.92.18s.62-.06.91-.18c.3-.12.58-.31.81-.54l50.13-50.13,49.51,49.51c.23.23.51.42.81.54.29.12.6.18.91.18s.62-.06.92-.18c.3-.12.58-.3.81-.53l12.87-12.87,12.87,12.87c.23.23.51.41.81.54.29.12.6.18.91.18s.63-.06.92-.18c.3-.12.58-.3.81-.53l49.82-49.82,49.51,49.51c.23.23.51.41.81.54.29.12.59.18.91.18s.62-.06.91-.18c.3-.12.58-.3.81-.53l12.11-12.11,12.11,12.11c.23.23.51.41.81.54.29.12.6.18.91.18s.62-.06.91-.18c.3-.12.58-.31.81-.53l49.51-49.51,49.82,49.82c.23.23.51.42.81.54.29.12.6.18.91.18s.63-.06.92-.18c.3-.12.58-.3.8-.53l12.87-12.87,12.87,12.87c.23.23.51.42.81.54.29.12.59.18.91.18s.62-.06.92-.18c.3-.12.58-.3.81-.53l49.51-49.51,50.13,50.13c.22.23.5.41.81.53.29.12.6.18.91.18s.62-.06.91-.18c.3-.12.58-.31.81-.54l11.94-11.94,11.63,11.63c.23.23.51.42.81.54.29.12.6.18.91.18s.62-.06.92-.18c.3-.12.58-.3.81-.53l51.37-51.37,50.47,50.47c.33.33.65.71,1,1.12.86,1.01,1.74,2.05,2.77,2.18.06,0,.12.01.17.01.98,0,1.95-1.18,2.81-2.23.33-.41.65-.79.97-1.12,1.46-1.47,3-3,4.35-4.34l5.74-5.72,7.27,7.25c1.52,1.51,2.91,2.99,4.19,4.36.95,1.02,1.83,1.54,2.61,1.54.1,0,.21,0,.31-.03,1.15-.22,2.76-2.05,4.06-3.53.46-.53.9-1.02,1.28-1.4l48.57-48.57,51.37,51.37c.23.23.51.42.81.54.29.12.6.18.91.18s.62-.06.92-.18c.29-.11.57-.3.8-.53l11.63-11.63,11.94,11.94c.23.23.51.42.81.53.29.12.6.18.92.18s.62-.06.91-.18c.3-.12.58-.31.81-.54l50.13-50.13,49.51,49.51c.23.23.51.42.81.54.29.12.59.18.91.18s.62-.06.92-.18c.3-.12.58-.3.81-.53l12.87-12.87,12.87,12.87c.23.23.51.41.81.53.29.12.6.18.91.18s.62-.06.92-.18c.3-.12.58-.3.81-.53l49.82-49.82,49.51,49.51c.22.23.5.41.81.54.29.12.6.18.91.18s.62-.06.91-.18c.3-.12.58-.3.81-.53l12.25-12.25,11.94,11.94c.23.23.51.41.8.53.29.12.6.18.92.18s.62-.06.91-.18c.3-.12.58-.31.81-.54l49.55-49.55c.23-.22.41-.5.53-.81.12-.29.18-.6.18-.91s-.06-.62-.18-.91c-.12-.31-.31-.59-.53-.81l-12.89-12.89,12.89-12.89c.23-.23.41-.5.53-.81.12-.29.18-.6.18-.91s-.06-.62-.18-.91c-.12-.3-.31-.58-.53-.81l-49.56-49.55c-.23-.23-.5-.41-.8-.53-.29-.12-.6-.18-.92-.18s-.62.06-.91.18c-.3.12-.58.3-.81.54l-11.94,11.94-12.25-12.25c-.23-.23-.51-.41-.81-.54-.29-.12-.6-.18-.91-.18s-.62.06-.91.18c-.31.12-.58.31-.81.54l-49.51,49.51-49.82-49.82c-.23-.23-.51-.42-.81-.54-.29-.12-.59-.18-.91-.18s-.62.06-.92.18c-.3.12-.58.3-.81.53l-12.87,12.87-12.87-12.87c-.24-.23-.52-.42-.81-.54-.29-.12-.59-.18-.91-.18s-.63.06-.92.18c-.29.12-.57.3-.81.53l-49.51,49.51-50.13-50.13c-.23-.23-.51-.41-.81-.53-.29-.12-.6-.18-.92-.18s-.62.06-.91.17c-.3.12-.58.31-.81.54l-11.94,11.94-11.63-11.63c-.23-.23-.51-.41-.81-.54-.29-.12-.6-.18-.91-.18s-.62.06-.92.18c-.3.12-.58.3-.81.53l-51.37,51.37-48.57-48.56c-.38-.38-.82-.88-1.29-1.42-1.29-1.47-2.91-3.3-4.05-3.52-.1-.02-.21-.03-.31-.03-.77,0-1.65.52-2.61,1.54-1.2,1.28-2.63,2.81-4.19,4.36l-7.27,7.25-5.74-5.72c-1.35-1.34-2.88-2.87-4.35-4.34-.33-.33-.65-.72-1.01-1.16-.84-1.03-1.8-2.19-2.78-2.19-.06,0-.11,0-.17.01-1.03.13-1.94,1.2-2.85,2.27-.31.37-.61.71-.92,1.02l-50.47,50.47-51.37-51.37c-.23-.23-.51-.41-.81-.53-.29-.12-.6-.18-.92-.18s-.62.06-.92.18c-.3.12-.58.3-.81.53l-11.63,11.63-11.94-11.94c-.23-.23-.5-.41-.8-.53-.29-.12-.6-.18-.91-.18s-.62.06-.91.17c-.31.13-.59.31-.81.54l-50.13,50.13-49.51-49.51c-.23-.23-.51-.42-.81-.53-.29-.12-.59-.18-.91-.18s-.63.06-.92.18c-.3.12-.58.3-.81.53l-12.87,12.87-12.87-12.87c-.23-.23-.51-.41-.81-.53-.29-.12-.59-.18-.91-.18s-.62.06-.92.18c-.3.12-.57.3-.8.53l-49.82,49.82-48.91-48.91h0s-.6-.6-.6-.6c-.23-.23-.51-.41-.81-.53-.29-.12-.6-.18-.91-.18s-.62.06-.91.18c-.31.13-.59.31-.81.54l-12.11,12.11-12.11-12.11c-.23-.23-.51-.41-.81-.53-.29-.12-.6-.18-.91-.18s-.62.06-.91.18c-.3.12-.59.31-.81.54l-49.51,49.51-49.82-49.82c-.23-.23-.51-.42-.81-.54-.29-.12-.59-.18-.91-.18s-.63.06-.92.18c-.3.12-.58.3-.81.53l-12.87,12.87-12.87-12.87c-.24-.23-.52-.42-.81-.53-.29-.12-.6-.18-.91-.18s-.63.06-.92.18c-.3.12-.58.3-.81.53l-49.51,49.51-50.13-50.13c-.22-.23-.5-.41-.8-.53-.3-.12-.61-.18-.92-.18s-.62.06-.91.17c-.3.12-.58.31-.81.54l-11.94,11.94-11.63-11.63c-.23-.23-.52-.42-.81-.54s-.6-.18-.91-.18-.62.06-.92.18c-.3.12-.58.3-.81.53l-51.37,51.37-48.57-48.57c-.37-.37-.79-.85-1.29-1.42-1.29-1.47-2.9-3.29-4.05-3.52-.1-.02-.21-.03-.31-.03-.77,0-1.65.52-2.61,1.54-1.31,1.4-2.72,2.89-4.19,4.36l-7.27,7.25-5.74-5.72c-1.35-1.34-2.89-2.87-4.35-4.34-.31-.32-.62-.68-1.01-1.15-.84-1.03-1.79-2.19-2.78-2.19-.06,0-.11,0-.17.01-1.03.13-1.92,1.18-2.79,2.2-.33.39-.65.76-.98,1.09l-50.47,50.47-51.37-51.37c-.23-.23-.51-.41-.81-.53-.29-.12-.6-.18-.91-.18s-.62.06-.92.18c-.3.12-.58.3-.81.53l-11.63,11.63-11.94-11.94c-.22-.23-.5-.41-.8-.53-.29-.12-.6-.18-.91-.18s-.62.06-.91.17c-.31.12-.59.31-.81.54l-50.13,50.13-49.51-49.51c-.23-.23-.51-.42-.81-.54-.29-.12-.59-.18-.91-.18s-.63.06-.92.18c-.3.12-.58.3-.81.53l-12.87,12.87-12.87-12.87c-.23-.23-.51-.41-.81-.53-.29-.12-.59-.18-.91-.18s-.63.06-.92.18c-.29.12-.57.3-.81.53l-49.82,49.82-48.8-48.8h0s-.71-.71-.71-.71c-.22-.23-.5-.41-.81-.53-.29-.12-.6-.18-.92-.18s-.62.06-.91.18c-.3.12-.58.31-.81.54l-12.25,12.25-11.94-11.94c-.22-.23-.5-.41-.81-.53-.29-.12-.59-.18-.91-.18s-.62.06-.91.18c-.3.12-.58.3-.81.53l-49.55,49.55c-.23.23-.41.51-.53.81-.12.29-.18.6-.18.91s.06.63.18.92c.12.3.31.58.53.81l12.9,12.89-12.9,12.89c-.23.23-.41.51-.53.81-.12.29-.18.59-.18.91s.06.62.18.91c.12.3.31.58.53.81l42.23,42.23c4.52,4.52,6.25,6.25,6.94,6.96h.01s.37.36.37.36c.23.23.51.41.81.53.29.12.6.18.92.18s.62-.06.91-.18c.31-.12.58-.31.81-.54l11.94-11.94,12.25,12.25c.23.23.51.41.81.54.29.12.6.18.91.18s.63-.06.92-.18c.3-.12.58-.31.81-.53l49.51-49.51,49.82,49.82c.23.23.51.42.81.54.29.12.6.18.92.18s.62-.06.92-.18c.3-.12.58-.3.81-.53l12.87-12.87,12.87,12.87c.23.23.51.42.81.54.29.12.59.18.91.18s.63-.06.92-.18c.29-.12.57-.3.8-.53l49.51-49.51,50.13,50.13c.22.23.5.41.8.53.29.12.6.18.92.18s.62-.06.91-.18c.3-.12.58-.31.81-.54l11.94-11.94,11.63,11.63c.23.23.51.42.81.54.29.12.6.18.91.18s.62-.06.92-.18c.3-.12.58-.3.8-.53l51.37-51.37,50.47,50.47c.33.33.65.7.99,1.11.86,1.01,1.75,2.06,2.77,2.18.06,0,.12.01.17.01.98,0,1.94-1.16,2.79-2.2ZM508.32,163.12l-11.59-11.59,51.52-51.52.49.05c.08,0,.17.01.25.01s.17,0,.25-.01l.49-.05,10.84,10.84-52.26,52.26ZM228.61,48.92l48.87,48.87-48.87,48.87-48.87-48.87,48.87-48.87ZM162.47,109.72l-11.92-11.92,11.92-11.92,11.92,11.92-11.92,11.92ZM294.44,85.56l12.23,12.23-12.23,12.23-12.23-12.23,12.23-12.23ZM359.95,47.37l50.43,50.42-50.43,50.42-50.42-50.42,50.42-50.42ZM426.4,87.12l10.68,10.68-10.68,10.68-10.68-10.68,10.68-10.68ZM494.68,46.78l51.01,51.01-51.01,51.01-51.01-51.01,51.01-51.01ZM1555.33,146.67l-48.87-48.87,48.87-48.87,48.87,48.87-48.87,48.87ZM1621.47,85.87l11.92,11.92-11.92,11.92-11.92-11.92,11.92-11.92ZM1489.5,110.03l-12.23-12.23,12.23-12.23,12.23,12.23-12.23,12.23ZM1423.98,148.22l-50.43-50.42,50.43-50.42,50.42,50.42-50.42,50.42ZM1357.54,108.47l-10.68-10.68,10.68-10.68,10.68,10.68-10.68,10.68ZM1289.25,148.81l-51.01-51.01,51.01-51.01,51.01,51.01-51.01,51.01ZM1220.97,108.47l-10.68-10.68,10.68-10.68,10.68,10.68-10.68,10.68ZM1154.52,148.22l-50.42-50.42,50.42-50.42,50.43,50.42-50.43,50.42ZM1089,110.03l-12.23-12.23,12.23-12.23,12.23,12.23-12.23,12.23ZM1023.18,146.67l-48.87-48.87,48.87-48.87,48.87,48.87-48.87,48.87ZM957.04,109.72l-11.92-11.92,11.92-11.92,11.92,11.92-11.92,11.92ZM891.97,146.84l-49.04-49.04,49.04-49.04,49.04,49.04-49.04,49.04ZM826.9,109.72l-11.92-11.92,11.92-11.92,11.92,11.92-11.92,11.92ZM760.76,146.67l-48.87-48.87,48.87-48.87,48.87,48.87-48.87,48.87ZM694.93,110.03l-12.23-12.23,12.23-12.23,12.23,12.23-12.23,12.23ZM629.41,148.22l-50.42-50.42,50.42-50.42,50.42,50.42-50.42,50.42ZM562.97,108.47l-10.68-10.68,10.68-10.68,10.68,10.68-10.68,10.68ZM616.06,161.57l-50.71-50.71,10.97-10.97,50.71,50.71-10.96,10.97ZM643.08,161.88l-11.28-11.28,49.47-49.47,11.28,11.28-49.47,49.47ZM746.17,161.26l-48.85-48.85,12.21-12.21,48.85,48.85-12.21,12.21ZM775.35,161.26l-12.21-12.21,49.16-49.16,12.21,12.21-49.16,49.16ZM878.17,160.64l-48.23-48.23,11.28-11.28,48.23,48.23-11.28,11.28ZM905.77,160.64l-11.27-11.28,48.23-48.23,11.28,11.28-48.23,48.23ZM1008.58,161.26l-49.16-49.16,12.21-12.21,49.16,49.16-12.21,12.21ZM1037.77,161.26l-12.21-12.21,48.85-48.85,12.21,12.21-48.85,48.85ZM1140.86,161.88l-49.47-49.47,11.28-11.28,49.47,49.47-11.28,11.28ZM1167.87,161.57l-10.97-10.97,50.71-50.71,10.96,10.97-50.71,50.71ZM1275.62,163.12l-52.26-52.26,10.84-10.84.49.05c.08,0,.17.01.25.01s.17,0,.26-.01l.49-.05,51.52,51.52-11.59,11.59ZM1302.88,163.12l-11.59-11.59,51.52-51.52.49.05c.08,0,.17.01.25.01s.17,0,.25-.01l.49-.05,10.84,10.84-52.26,52.26ZM1410.63,161.57l-50.71-50.71,10.97-10.97,50.71,50.71-10.97,10.97ZM1437.65,161.88l-11.28-11.28,49.47-49.47,11.27,11.28-49.47,49.47ZM1540.74,161.26l-48.85-48.85,12.21-12.21,48.85,48.85-12.2,12.21ZM1569.92,161.26l-12.21-12.21,49.16-49.16,12.21,12.21-49.16,49.16ZM1672.7,160.95l-48.85-48.85,11.58-11.58,48.85,48.85-11.58,11.58ZM1748.56,112.41l-48.23,48.23-11.28-11.28,48.23-48.23,11.28,11.28ZM1686.67,146.98l-49.18-49.18,49.18-49.18,49.18,49.18-49.18,49.18ZM1700.34,34.95l48.23,48.23-11.28,11.28-48.23-48.23,11.28-11.28ZM1672.7,34.64l11.58,11.59-48.85,48.85-11.58-11.59,48.85-48.85ZM1569.92,34.33l49.16,49.16-12.21,12.21-49.16-49.16,12.21-12.21ZM1540.74,34.33l12.2,12.21-48.85,48.85-12.21-12.21,48.85-48.85ZM1437.65,33.71l49.47,49.47-11.27,11.28-49.47-49.47,11.28-11.27ZM1410.63,34.02l10.97,10.96-50.71,50.71-10.97-10.97,50.71-50.71ZM1302.88,32.47l52.26,52.26-10.84,10.85-.49-.05c-.08,0-.17-.01-.25-.01s-.17,0-.25.01l-.49.05-51.52-51.52,11.59-11.59ZM1275.62,32.46l11.59,11.59-51.52,51.52-.49-.05c-.08,0-.17-.01-.25-.01s-.17,0-.25.01l-.49.05-10.84-10.85,52.26-52.27ZM1167.87,34.02l50.71,50.71-10.96,10.97-50.71-50.71,10.97-10.96ZM1140.86,33.71l11.28,11.27-49.47,49.47-11.28-11.28,49.47-49.47ZM1037.77,34.33l48.85,48.85-12.21,12.21-48.85-48.85,12.21-12.21ZM1008.58,34.33l12.21,12.21-49.16,49.16-12.21-12.21,49.16-49.16ZM905.77,34.95l48.23,48.23-11.28,11.28-48.23-48.23,11.27-11.28ZM878.17,34.95l11.28,11.28-48.23,48.23-11.28-11.28,48.23-48.23ZM775.35,34.33l49.16,49.16-12.21,12.21-49.16-49.16,12.21-12.21ZM746.17,34.33l12.21,12.21-48.85,48.85-12.21-12.21,48.85-48.85ZM643.08,33.71l49.47,49.47-11.28,11.28-49.47-49.47,11.28-11.27ZM616.06,34.02l10.96,10.96-50.71,50.71-10.97-10.97,50.71-50.71ZM508.32,32.47l52.26,52.26-10.85,10.85-.49-.05c-.08,0-.17-.01-.25-.01s-.17,0-.25.01l-.49.05-51.52-51.52,11.59-11.59ZM481.05,32.46l11.59,11.59-51.52,51.52-.49-.05c-.08,0-.17-.01-.25-.01s-.17,0-.25.01l-.49.05-10.84-10.85,52.26-52.27ZM373.3,34.02l50.71,50.71-10.97,10.97-50.71-50.71,10.96-10.96ZM346.29,33.71l11.28,11.27-49.47,49.47-11.27-11.28,49.47-49.47ZM243.2,34.33l48.85,48.85-12.21,12.21-48.85-48.85,12.21-12.21ZM214.01,34.33l12.21,12.21-49.16,49.16-12.21-12.21,49.16-49.16ZM111.23,34.64l48.85,48.85-11.59,11.59-48.85-48.85,11.58-11.59ZM35.37,83.18l48.23-48.23,11.28,11.28-48.23,48.23-11.28-11.28ZM97.26,48.61l49.18,49.18-49.18,49.18-49.18-49.18,49.18-49.18ZM83.6,160.64l-48.23-48.23,11.28-11.28,48.23,48.23-11.28,11.28ZM111.23,160.95l-11.58-11.58,48.85-48.85,11.59,11.58-48.85,48.85ZM214.01,161.26l-49.16-49.16,12.21-12.21,49.16,49.16-12.21,12.21ZM243.2,161.26l-12.21-12.21,48.85-48.85,12.21,12.21-48.85,48.85ZM346.29,161.88l-49.47-49.47,11.27-11.28,49.47,49.47-11.28,11.28ZM373.3,161.57l-10.96-10.97,50.71-50.71,10.97,10.97-50.71,50.71ZM428.79,110.86l10.84-10.84.49.05c.08,0,.17.01.25.01s.17,0,.25-.01l.49-.05,51.52,51.52-11.59,11.59-52.26-52.26Z"/>
  <polygon class="cls-1" points="1697.88 164.23 1697.88 164.61 1697.88 164.23 1697.88 164.23"/>
  <polygon class="cls-1" points="1495.75 155.06 1495.74 155.05 1495.73 155.03 1495.75 155.06"/>
  <path class="cls-1" d="M1507.99,165.45c.13-.07.24-.15.35-.24.18-.15.34-.36.44-.59.1-.22.16-.48.16-.72,0-.15-.02-.29-.05-.43-.04-.16-.1-.31-.19-.46-.06-.11-.14-.21-.22-.3l-18.68-20.91c-.17-.19-.39-.35-.63-.46-.23-.11-.49-.16-.76-.16s-.52.06-.76.17c-.23.1-.45.26-.62.46l-18.68,20.91c-.08.08-.19.22-.29.44-.05.11-.09.22-.12.33-.04.15-.05.3-.05.44s.02.29.05.43c.04.13.09.26.15.38.1.19.25.38.42.52.1.09.22.16.35.23.15.08.3.13.46.16.12.02.24.04.36.04h37.48c.15,0,.29-.02.43-.05.15-.04.28-.08.41-.15ZM1473.25,162.27l15.16-16.97,15.16,16.97h-30.32Z"/>
  <path class="cls-1" d="M1375.57,165.21c.18-.16.34-.36.44-.59.1-.22.16-.47.16-.72,0-.15-.02-.29-.05-.43-.04-.17-.1-.32-.19-.47-.06-.11-.14-.21-.22-.3l-18.68-20.92c-.17-.19-.39-.35-.62-.45s-.5-.16-.76-.16-.52.06-.76.16c-.23.11-.45.26-.62.46l-18.68,20.91c-.08.09-.19.23-.29.44-.05.11-.09.22-.12.34-.04.14-.05.28-.05.43s.02.29.05.42c.04.13.09.26.14.38.1.19.25.38.42.52.11.09.22.17.35.23.15.07.3.13.47.16.12.02.24.04.36.04h37.48c.15,0,.28-.02.43-.05.14-.03.28-.08.41-.15.13-.06.24-.14.35-.24ZM1340.47,162.27l15.16-16.97,15.16,16.97h-30.32Z"/>
  <path class="cls-1" d="M1645.57,163.89c0-.14-.02-.29-.05-.43-.05-.17-.11-.33-.19-.47-.07-.11-.14-.21-.22-.31l-18.69-20.92c-.17-.19-.38-.34-.62-.45-.23-.11-.5-.16-.76-.16s-.52.06-.76.16c-.23.11-.45.26-.62.46l-18.67,20.91c-.08.08-.19.22-.3.44-.05.11-.09.22-.12.34-.04.14-.05.29-.05.43s.02.29.05.43c.03.13.08.25.15.38.1.19.25.38.41.52.11.09.23.17.35.23.15.07.3.13.46.16.12.02.24.04.36.04h37.49c.16,0,.29-.02.43-.05.15-.04.28-.09.41-.15.13-.07.24-.14.35-.23.18-.16.34-.37.44-.59.1-.22.16-.48.16-.72ZM1609.88,162.27l15.16-16.97,15.16,16.97h-30.32Z"/>
  <path class="cls-1" d="M1108.83,165.64c.13,0,.25-.01.36-.03.17-.03.32-.08.46-.16.13-.06.25-.14.35-.23.16-.14.31-.32.41-.52.06-.12.11-.25.14-.37.04-.14.05-.29.05-.43s-.02-.29-.05-.43c-.03-.11-.07-.22-.12-.33-.1-.21-.2-.34-.29-.44l-18.68-20.91c-.17-.19-.38-.35-.62-.46-.24-.11-.5-.16-.77-.16s-.52.06-.76.16c-.23.1-.45.26-.62.46l-18.68,20.92c-.08.09-.15.18-.22.29-.09.16-.15.31-.19.47-.04.14-.05.29-.05.44h0c0,.25.06.5.16.73.1.22.26.43.44.58.11.09.23.17.35.23.13.07.27.12.41.15.14.03.28.05.43.05h37.49ZM1074.93,162.27l15.16-16.97,15.16,16.97h-30.32Z"/>
  <path class="cls-1" d="M1242.79,165.22c.16-.14.31-.32.41-.52.06-.12.11-.25.14-.38.04-.14.05-.28.05-.43s-.02-.29-.05-.43c-.03-.11-.07-.22-.12-.33-.1-.21-.21-.35-.29-.44l-18.68-20.91c-.17-.19-.38-.35-.62-.46-.24-.11-.5-.16-.77-.16s-.52.06-.76.16c-.23.1-.45.26-.62.46l-18.68,20.91c-.09.1-.16.19-.22.3-.09.15-.15.31-.19.47-.04.15-.05.3-.05.44h0c0,.24.06.5.16.73.1.22.26.43.44.59.11.09.22.17.34.23.14.07.27.12.41.15.14.03.28.05.43.05h37.49c.13,0,.25-.01.36-.03.17-.03.32-.08.47-.16.13-.06.24-.14.35-.23ZM1207.71,162.27l15.16-16.97,15.16,16.97h-30.32Z"/>
  <path class="cls-1" d="M972.21,165.64c.13,0,.25-.01.36-.03.17-.03.32-.08.47-.16.13-.06.24-.14.35-.23.17-.14.31-.32.41-.52.06-.12.11-.25.14-.38.04-.14.05-.28.05-.43s-.02-.29-.05-.43c-.03-.12-.07-.23-.12-.34-.1-.21-.21-.35-.3-.44l-18.67-20.91c-.17-.19-.39-.35-.62-.46-.24-.11-.5-.16-.76-.16s-.52.06-.76.16c-.23.11-.45.26-.61.45l-18.69,20.92c-.09.1-.16.2-.22.3-.09.15-.15.3-.19.46-.04.15-.05.29-.05.44h0c0,.25.06.5.16.73.1.22.25.43.44.59.11.09.22.17.34.23.14.07.27.12.41.15.14.04.28.05.43.05h37.48ZM938.3,162.27l15.16-16.97,15.16,16.97h-30.32Z"/>
  <polygon class="cls-1" points="823.78 141.09 823.78 141.09 823.78 141.09 823.78 141.09"/>
  <polygon class="cls-1" points="1495.75 40.53 1495.74 40.54 1495.73 40.56 1495.75 40.53"/>
  <path class="cls-1" d="M1468.85,30.14c-.13.06-.24.14-.35.23-.17.14-.31.32-.42.52-.06.12-.11.25-.14.38-.03.13-.05.28-.05.43s.02.29.05.43c.03.11.07.22.12.33.1.22.22.35.29.44l18.68,20.91c.17.19.39.35.62.46.24.11.5.16.76.16s.52-.06.76-.17c.23-.1.45-.26.62-.46l18.68-20.91c.08-.1.16-.19.22-.3.09-.15.15-.31.19-.47.04-.15.05-.29.05-.45,0-.24-.06-.49-.16-.71-.1-.22-.26-.43-.44-.59-.1-.08-.21-.16-.34-.23-.14-.07-.27-.12-.42-.15-.14-.03-.27-.05-.43-.05h-37.49c-.13,0-.25.01-.36.03-.17.03-.32.08-.47.16ZM1503.58,33.32l-15.16,16.97-15.16-16.97h30.32Z"/>
  <polygon class="cls-1" points="1486.26 54.5 1486.26 54.5 1486.26 54.5 1486.26 54.5"/>
  <polygon class="cls-1" points="1334.8 33.59 1334.8 33.59 1334.8 33.59 1334.8 33.59"/>
  <path class="cls-1" d="M1336.07,30.14c-.12.06-.24.14-.35.23-.17.14-.31.32-.41.52-.06.12-.11.25-.14.38-.03.13-.05.28-.05.43s.02.29.05.43c.03.12.07.23.12.33.1.21.21.35.29.44l18.68,20.91c.17.19.39.35.62.46.24.11.51.16.76.16s.52-.06.76-.17c.23-.11.45-.26.62-.45l18.69-20.92c.09-.1.16-.19.22-.3.09-.15.15-.3.19-.47.04-.14.06-.29.06-.44,0-.24-.06-.49-.16-.72-.1-.22-.25-.43-.44-.59-.1-.09-.22-.17-.34-.23-.13-.07-.27-.12-.41-.15-.14-.03-.27-.05-.43-.05h-37.49c-.13,0-.24.01-.36.03-.17.03-.32.09-.47.16ZM1370.8,33.32l-15.16,16.97-15.16-16.97h30.32Z"/>
  <path class="cls-1" d="M1605.47,30.14c-.12.06-.24.14-.35.23-.17.14-.31.33-.42.52-.06.12-.11.24-.14.38-.03.13-.05.27-.05.41v.02c0,.15.02.3.05.43.03.12.07.23.12.33.08.17.18.31.3.45l18.67,20.91c.17.19.39.35.62.46s.5.16.76.16.52-.06.76-.17c.23-.1.44-.26.61-.45l18.69-20.92c.09-.1.16-.19.22-.3.09-.15.15-.31.19-.47.04-.14.05-.29.05-.44,0-.24-.06-.5-.16-.72-.1-.22-.26-.43-.44-.59-.1-.09-.22-.17-.34-.23-.14-.07-.27-.12-.41-.15-.15-.03-.28-.05-.43-.05h-37.49c-.13,0-.24.01-.36.03-.17.03-.32.09-.47.16ZM1640.2,33.32l-15.16,16.97-15.16-16.97h30.32Z"/>
  <path class="cls-1" d="M1070.51,30.15c-.12.06-.24.14-.35.24-.18.16-.34.36-.44.59-.1.22-.16.48-.16.72h0c0,.15.02.29.06.44.04.16.1.32.19.47.06.11.14.21.22.3l18.68,20.91c.17.19.39.35.62.46.24.11.5.16.76.16s.52-.06.76-.17c.23-.1.44-.26.62-.46l18.68-20.91c.08-.1.19-.23.29-.44.05-.11.09-.22.12-.34.04-.14.05-.29.05-.43s-.02-.29-.05-.43c-.03-.12-.08-.25-.14-.38-.1-.19-.24-.37-.41-.52-.11-.09-.23-.17-.35-.23-.16-.08-.31-.13-.46-.16-.12-.02-.24-.04-.36-.04h-37.48c-.16,0-.29.02-.43.05-.15.04-.28.08-.41.15ZM1088.37,52.23l-1.54-1.37,1.14-1.28,1.54,1.37-1.14,1.28ZM1105.25,33.32l-15.16,16.97-15.16-16.97h30.32Z"/>
  <polygon class="cls-1" points="1082.76 40.54 1082.76 40.54 1082.78 40.56 1082.76 40.54"/>
  <path class="cls-1" d="M1202.94,30.38c-.18.16-.34.37-.44.59-.1.22-.16.47-.16.71h0c0,.15.02.3.05.44.04.16.11.32.19.47.06.11.13.2.22.3l18.69,20.92c.17.19.38.35.62.45.24.11.5.16.76.16s.52-.06.76-.17c.23-.1.45-.26.62-.46l18.68-20.91c.08-.1.19-.23.29-.44.05-.11.09-.22.12-.33.04-.15.05-.29.05-.43s-.02-.29-.05-.43c-.03-.13-.08-.25-.14-.38-.1-.2-.25-.38-.42-.52-.1-.09-.22-.17-.35-.23-.15-.07-.3-.13-.46-.16-.12-.02-.24-.03-.36-.03h-37.49c-.16,0-.29.02-.43.05-.14.04-.28.08-.41.15-.12.06-.24.14-.35.23ZM1238.03,33.32l-15.16,16.97-15.16-16.97h30.32Z"/>
  <path class="cls-1" d="M934.73,29.95c-.15,0-.29.02-.43.05-.14.04-.28.08-.41.15-.12.06-.24.14-.35.24-.18.15-.34.36-.44.59-.1.22-.16.47-.16.71h0c0,.15.02.3.06.44.04.16.1.31.19.47.06.11.13.2.22.3l18.69,20.92c.17.19.39.35.62.45.24.11.5.16.76.16s.52-.06.76-.17c.23-.1.44-.26.62-.46l18.67-20.9c.09-.1.2-.24.3-.44.05-.11.09-.22.12-.34.04-.14.05-.29.05-.43s-.02-.29-.05-.43c-.03-.12-.08-.25-.15-.38-.1-.19-.25-.38-.41-.52-.1-.09-.22-.17-.34-.23-.16-.08-.31-.13-.47-.16-.12-.02-.24-.03-.36-.04h-37.48ZM968.63,33.32l-15.16,16.97-15.16-16.97h30.32Z"/>
  <path class="cls-1" d="M1423.3,75.14c-.23.11-.45.26-.62.45l-18.68,20.91c-.06.07-.14.17-.22.31-.09.15-.15.3-.19.47-.04.14-.05.27-.05.46v.15c0,.15.01.29.05.42.05.17.11.33.19.48.08.13.16.23.22.3l18.68,20.91c.18.2.39.35.63.46.23.11.5.16.76.16s.53-.06.76-.16c.23-.11.45-.27.62-.46l18.7-20.93c.07-.09.17-.22.27-.41.05-.11.09-.22.13-.35.03-.13.05-.28.05-.44v-.16c0-.15-.02-.3-.05-.43-.03-.11-.07-.22-.11-.32-.07-.14-.15-.28-.24-.38l-18.75-20.98c-.17-.19-.38-.35-.62-.45-.23-.11-.5-.16-.76-.16s-.53.06-.76.17ZM1441,97.79l-16.93,18.96-16.94-18.96,16.94-18.96,16.93,18.96Z"/>
  <path class="cls-1" d="M1554.95,75.14c-.23.1-.44.26-.62.45l-18.67,20.89c-.07.08-.15.18-.23.31-.09.15-.15.3-.2.48-.03.13-.05.27-.05.43v.17c0,.15.02.29.05.43.04.16.1.32.19.46.08.14.17.24.23.31l18.67,20.9c.17.19.39.35.63.46.23.11.49.16.75.16s.52-.06.77-.17c.22-.1.44-.26.61-.45l18.68-20.91c.07-.08.19-.22.29-.44.05-.1.09-.2.12-.31.04-.16.06-.31.06-.46v-.16c0-.14-.02-.29-.05-.43-.03-.13-.07-.23-.13-.34-.1-.21-.21-.34-.29-.44l-18.68-20.91c-.17-.19-.39-.35-.63-.46-.22-.1-.48-.16-.75-.16s-.53.06-.77.17ZM1572.65,97.79l-16.94,18.96-8.21-9.19-1.5-1.7h-.02l-7.21-8.07,7-7.81,1.49-1.69,8.44-9.45,16.94,18.96Z"/>
  <path class="cls-1" d="M1686.79,75.14c-.2.09-.4.22-.54.37l-18.75,20.99c-.08.1-.16.19-.22.3-.09.16-.15.31-.2.48-.03.13-.05.27-.05.43v.17c0,.15.02.29.05.44.04.16.1.31.19.46.07.11.14.21.22.3l18.72,20.96c.16.17.36.31.58.41.23.11.49.16.75.16s.53-.06.77-.17c.23-.1.44-.26.61-.45l18.68-20.92c.12-.13.21-.27.29-.43.05-.11.09-.22.12-.35.04-.13.05-.28.05-.44v-.16c0-.15-.02-.29-.06-.43-.03-.12-.07-.23-.11-.32-.1-.2-.21-.34-.3-.44l-18.68-20.92c-.17-.19-.39-.35-.63-.46-.23-.11-.49-.16-.76-.16s-.53.06-.77.17ZM1704.49,97.79l-16.93,18.96-16.94-18.96,16.94-18.96,16.93,18.96Z"/>
  <path class="cls-1" d="M1153.68,75.13c-.23.11-.45.27-.62.46l-18.7,20.94c-.11.14-.2.27-.27.41-.05.11-.09.23-.12.34-.04.14-.05.27-.05.45v.16c0,.14.01.28.05.42.03.12.07.23.12.33.07.15.15.28.24.38l18.74,20.98c.17.19.39.35.62.46.23.11.5.16.76.16s.53-.06.77-.17c.2-.09.4-.23.55-.37l18.75-20.99c.09-.1.16-.2.22-.3.09-.16.16-.31.2-.48.03-.13.05-.28.05-.43v-.17c0-.15-.02-.29-.05-.44-.04-.16-.1-.31-.19-.46-.06-.11-.13-.21-.22-.3l-18.72-20.96c-.16-.17-.36-.31-.58-.41-.23-.11-.5-.16-.76-.16s-.53.06-.76.16ZM1171.38,97.79l-16.94,18.96-16.93-18.96,16.93-18.96,16.94,18.96Z"/>
  <path class="cls-1" d="M1286.83,75.14c-.23.1-.45.26-.62.46l-18.68,20.91c-.07.08-.19.22-.29.44-.05.11-.09.21-.12.31-.04.16-.05.3-.05.48v.14c0,.14.01.28.05.42.03.12.07.23.13.34.1.21.21.35.29.43l18.68,20.92c.17.19.39.35.62.46.23.11.49.16.76.16s.52-.06.77-.16c.23-.1.44-.26.62-.46l18.68-20.91c.08-.09.16-.19.22-.3.09-.15.15-.31.2-.48.03-.13.05-.28.05-.43v-.17c0-.15-.02-.29-.05-.43-.04-.17-.1-.31-.19-.47-.06-.11-.13-.2-.22-.3l-18.68-20.91c-.18-.2-.39-.35-.63-.46-.23-.11-.5-.16-.76-.16s-.53.06-.76.16ZM1304.52,97.79l-16.93,18.96-16.94-18.96,16.94-18.96,16.93,18.96Z"/>
  <path class="cls-1" d="M1022.02,75.14c-.23.1-.44.26-.62.45l-18.68,20.91c-.08.09-.19.23-.3.45-.05.09-.08.2-.11.32-.04.14-.05.28-.05.46v.14c0,.14.02.29.06.44.03.11.06.21.12.32.1.22.21.35.29.43l18.68,20.91c.18.2.39.35.63.46.23.11.49.16.75.16s.53-.06.77-.17c.23-.1.44-.26.61-.45l18.69-20.92c.08-.09.15-.18.21-.29.09-.16.16-.31.2-.46.04-.16.06-.31.06-.46v-.16c0-.14-.02-.28-.05-.43-.05-.17-.11-.33-.2-.48-.06-.1-.12-.19-.22-.29l-18.68-20.91c-.17-.19-.39-.35-.63-.46-.23-.1-.49-.16-.75-.16s-.53.06-.77.17ZM1031,88.03l1.49,1.69h.02l7.21,8.07-7,7.82-1.49,1.69-8.44,9.45-16.94-18.96,16.94-18.96,8.21,9.2Z"/>
  <polygon class="cls-1" points="903.31 164.23 903.31 164.61 903.31 164.23 903.31 164.23"/>
  <path class="cls-1" d="M701.18,155.06h0s-.01-.02-.02-.02l.02.02Z"/>
  <path class="cls-1" d="M713.42,165.45c.13-.07.25-.15.35-.24.18-.16.34-.36.44-.59.1-.22.16-.48.16-.72,0-.15-.02-.29-.05-.43-.04-.16-.1-.32-.19-.46-.06-.11-.14-.21-.22-.3l-18.68-20.92c-.17-.19-.39-.35-.62-.46-.23-.11-.5-.16-.76-.16s-.52.06-.76.17c-.23.1-.45.26-.62.46l-18.68,20.91c-.08.08-.19.22-.29.44-.05.1-.09.21-.12.33-.04.14-.05.29-.05.43s.02.29.05.43c.04.13.09.26.15.38.1.19.25.37.41.52.11.09.22.17.35.23.15.08.3.13.46.16.12.02.24.04.36.04h37.49c.15,0,.28-.02.43-.05.15-.04.29-.09.41-.15ZM695.57,143.36l1.54,1.37-1.14,1.29-1.54-1.37,1.14-1.28ZM678.68,162.27l15.16-16.97,15.16,16.97h-30.32Z"/>
  <path class="cls-1" d="M581,165.21c.18-.15.34-.36.44-.59.1-.22.16-.47.16-.72,0-.15-.02-.3-.05-.43-.05-.17-.11-.33-.19-.47-.07-.11-.14-.21-.22-.31l-18.69-20.92c-.17-.19-.38-.35-.62-.45-.23-.11-.5-.16-.76-.16s-.52.06-.76.16c-.23.11-.45.26-.62.46l-18.68,20.91c-.08.09-.19.23-.29.44-.05.11-.09.22-.12.34-.04.14-.05.29-.05.43s.02.29.05.43c.03.13.08.26.14.38.1.19.25.38.41.52.11.09.22.17.35.23.15.07.3.13.46.16.12.02.24.04.36.04h37.49c.15,0,.28-.02.43-.05.14-.03.28-.08.41-.15.12-.06.24-.14.35-.24ZM545.9,162.27l15.16-16.97,15.16,16.97h-30.32Z"/>
  <path class="cls-1" d="M849.21,165.64c.16,0,.29-.02.43-.05.15-.04.28-.09.41-.15.12-.06.24-.14.35-.23.18-.15.34-.36.44-.59.1-.22.16-.47.16-.72,0-.14-.02-.29-.05-.43-.04-.17-.1-.32-.19-.47-.07-.11-.14-.21-.22-.3l-18.69-20.92c-.17-.19-.38-.34-.62-.45-.23-.11-.49-.16-.76-.16s-.52.06-.76.16c-.24.11-.45.26-.62.46l-18.67,20.9c-.09.11-.2.25-.3.44-.05.11-.09.22-.12.34-.03.13-.05.28-.05.43h0c0,.15.02.29.05.43.04.13.08.26.15.38.1.19.25.38.42.52.11.09.22.17.34.23.15.07.3.13.47.16.12.02.23.04.36.04h37.48ZM815.31,162.27l15.16-16.97,15.16,16.97h-30.32Z"/>
  <polygon class="cls-1" points="960.16 141.09 960.16 141.09 960.16 141.09 960.16 141.09"/>
  <path class="cls-1" d="M315.09,165.45c.13-.06.24-.14.35-.23.17-.14.31-.32.41-.52.06-.12.11-.25.14-.38.04-.14.05-.28.05-.43s-.02-.29-.05-.43c-.03-.11-.07-.22-.12-.33-.1-.21-.2-.34-.29-.44l-18.68-20.92c-.17-.19-.38-.35-.62-.45-.24-.11-.5-.16-.77-.16s-.52.06-.76.16c-.24.11-.45.26-.62.46l-18.68,20.92c-.08.09-.15.19-.22.3-.09.15-.15.3-.19.47-.04.14-.05.29-.05.44h0c0,.25.06.5.16.73.1.22.26.43.44.59.11.09.22.17.34.23.13.07.26.12.41.15.14.03.28.05.43.05h37.49c.13,0,.24-.01.36-.03.17-.03.32-.08.46-.16ZM280.36,162.27l15.16-16.97,15.16,16.97h-30.32Z"/>
  <path class="cls-1" d="M447.87,165.45c.13-.06.24-.14.35-.23.16-.14.31-.32.41-.52.07-.12.11-.25.14-.38.04-.14.05-.28.05-.43s-.02-.29-.05-.44c-.03-.11-.07-.22-.12-.32-.11-.22-.22-.36-.3-.44l-18.68-20.91c-.17-.19-.38-.35-.62-.46-.24-.11-.5-.16-.77-.16s-.52.06-.76.16c-.23.1-.44.26-.62.46l-18.68,20.91c-.09.1-.16.19-.22.3-.09.15-.15.31-.19.47-.04.14-.05.29-.05.44h0c0,.25.06.5.16.73.1.22.26.43.44.59.1.09.21.17.34.23.14.07.27.12.41.15.14.03.28.05.43.05h37.49c.13,0,.25-.01.36-.03.17-.03.32-.08.46-.16ZM413.14,162.27l15.16-16.97,15.16,16.97h-30.32Z"/>
  <path class="cls-1" d="M178.47,165.45c.12-.06.24-.14.35-.23.17-.14.32-.33.41-.52.06-.12.11-.25.14-.38.04-.14.05-.28.05-.43s-.02-.29-.05-.44c-.03-.11-.07-.22-.12-.33-.11-.22-.22-.36-.3-.45l-18.67-20.91c-.17-.19-.38-.35-.62-.46-.24-.11-.5-.16-.77-.16s-.52.06-.76.16c-.23.1-.44.26-.61.45l-18.69,20.92c-.08.09-.15.19-.22.3-.09.15-.15.31-.19.47-.04.14-.05.29-.05.44h0c0,.25.06.51.16.73.1.22.26.43.44.59.1.09.22.17.34.23.14.07.27.12.41.15.14.03.28.05.43.05h37.49c.13,0,.24-.01.36-.03.17-.03.32-.08.47-.16ZM143.74,162.27l15.16-16.97,15.16,16.97h-30.32Z"/>
  <path class="cls-1" d="M701.18,40.53h0s-.01.02-.02.02l.02-.02Z"/>
  <path class="cls-1" d="M713.02,30c-.14-.03-.27-.05-.43-.05h-37.49c-.13,0-.24.01-.36.03-.17.03-.32.08-.46.16-.13.07-.25.14-.35.23-.17.14-.31.32-.42.53-.06.11-.11.24-.14.37-.04.14-.05.28-.05.43s.02.29.06.43c.03.11.07.22.12.33.11.22.22.36.3.44l18.68,20.91c.17.19.39.35.62.46.24.11.5.16.76.16s.52-.06.76-.17c.23-.11.45-.26.62-.46l18.68-20.91c.08-.1.16-.2.22-.3.09-.16.15-.31.19-.47.04-.13.05-.28.05-.45,0-.24-.06-.49-.16-.71-.1-.22-.26-.43-.44-.58-.11-.09-.22-.17-.34-.23-.14-.07-.27-.12-.42-.15ZM709.01,33.32l-15.16,16.97-15.16-16.97h30.32Z"/>
  <polygon class="cls-1" points="540.23 33.59 540.23 33.59 540.23 33.59 540.23 33.59"/>
  <path class="cls-1" d="M560.3,54.27c.24.11.5.16.76.16s.52-.06.76-.17c.23-.11.45-.26.62-.45l18.69-20.92c.09-.1.16-.19.22-.3.09-.15.15-.31.19-.47.04-.14.05-.28.05-.45,0-.24-.06-.49-.16-.71-.1-.22-.25-.43-.44-.58-.11-.09-.23-.17-.35-.23-.14-.07-.27-.12-.41-.15-.14-.03-.27-.05-.43-.05h-37.49c-.13,0-.24.01-.36.03-.16.03-.32.08-.46.16-.13.06-.24.14-.35.23-.16.14-.31.32-.41.53-.06.11-.11.23-.14.37-.04.14-.05.29-.05.43s.02.29.06.43c.03.12.07.22.12.33.1.21.21.35.3.44l18.68,20.91c.17.19.39.35.62.46ZM545.9,33.32h30.32l-15.16,16.97-15.16-16.97Z"/>
  <path class="cls-1" d="M809.99,31.26c-.04.14-.05.29-.05.43s.02.29.05.43c.03.11.07.22.12.33.11.22.22.36.3.45l18.67,20.9c.17.19.39.35.62.46s.5.16.76.16.52-.06.76-.17c.23-.1.44-.26.61-.45l18.69-20.92c.09-.1.16-.2.22-.3.09-.16.15-.31.19-.47.04-.14.05-.29.05-.44,0-.24-.06-.5-.16-.72-.1-.22-.26-.43-.44-.59-.11-.09-.22-.17-.34-.23-.13-.07-.27-.12-.41-.15-.15-.03-.28-.05-.43-.05h-37.48c-.13,0-.25.01-.36.03-.16.03-.31.08-.46.16-.13.06-.24.14-.35.23-.16.14-.31.32-.42.53-.06.11-.11.24-.14.37ZM845.63,33.32l-15.16,16.97-15.16-16.97h30.32Z"/>
  <polygon class="cls-1" points="86.05 30.98 86.05 30.98 86.05 31.36 86.05 30.98"/>
  <path class="cls-1" d="M275.94,30.15c-.12.06-.24.14-.35.24-.18.15-.34.36-.44.59-.1.22-.16.47-.16.72h0c0,.15.02.3.05.44.04.17.1.32.19.47.07.11.14.21.22.3l18.68,20.91c.17.19.39.35.62.46.24.11.5.16.76.16s.53-.06.76-.17c.23-.1.45-.26.62-.46l18.68-20.91c.08-.08.19-.22.29-.43.05-.11.09-.22.12-.34.04-.14.06-.29.06-.43s-.02-.29-.06-.43c-.03-.12-.08-.25-.14-.37-.1-.19-.25-.38-.41-.52-.1-.09-.22-.17-.35-.23-.15-.08-.3-.13-.46-.16-.12-.02-.24-.04-.36-.04h-37.48c-.16,0-.3.02-.43.05-.15.04-.28.08-.41.15ZM293.8,52.23l-1.54-1.37,1.14-1.28,1.54,1.37-1.14,1.28ZM310.68,33.32l-15.16,16.97-15.16-16.97h30.32Z"/>
  <path class="cls-1" d="M288.19,40.54h0s.02.02.02.02c0,0-.01-.01-.02-.02Z"/>
  <path class="cls-1" d="M408.37,30.38c-.18.16-.34.37-.44.59-.1.22-.16.47-.16.71h0c0,.15.02.3.06.44.04.16.1.32.19.47.05.1.13.19.22.3l18.69,20.92c.17.19.38.34.62.45.24.11.5.16.76.16s.52-.06.76-.17c.23-.1.45-.26.62-.46l18.68-20.91c.11-.13.21-.27.29-.43.05-.11.09-.22.12-.33.04-.14.05-.29.05-.43s-.02-.29-.05-.43c-.03-.13-.08-.26-.14-.38-.1-.19-.25-.38-.41-.52-.11-.09-.22-.17-.35-.23-.15-.07-.3-.13-.46-.16-.12-.02-.24-.03-.37-.03h-37.49c-.15,0-.29.02-.43.05-.14.04-.28.08-.41.15-.12.06-.24.14-.35.23ZM443.46,33.32l-15.16,16.97-15.16-16.97h30.32Z"/>
  <path class="cls-1" d="M138.37,31.69h0c0,.15.02.3.05.44.04.17.1.32.19.47.07.11.14.21.22.3l18.69,20.92c.17.19.39.35.62.45.24.11.5.16.76.16s.53-.06.76-.17c.23-.1.45-.26.62-.46l18.67-20.9c.08-.09.19-.23.3-.44.05-.12.09-.22.12-.34.04-.14.06-.29.06-.43s-.02-.29-.06-.43c-.03-.12-.08-.25-.15-.38-.1-.19-.25-.38-.41-.52-.1-.09-.22-.17-.35-.23-.15-.07-.3-.13-.46-.16-.12-.02-.24-.04-.36-.04h-37.48c-.16,0-.29.02-.43.05-.14.04-.28.08-.41.15-.12.06-.24.14-.35.24-.18.15-.34.36-.44.59-.1.22-.16.47-.16.72ZM174.06,33.32l-15.16,16.97-15.16-16.97h30.32Z"/>
  <path class="cls-1" d="M628.73,75.14c-.23.11-.45.26-.62.45l-18.68,20.91c-.06.07-.14.17-.22.31-.09.15-.15.31-.2.47-.04.14-.05.27-.05.46v.15c0,.15.01.29.05.42.04.17.11.32.19.47.08.13.16.24.22.31l18.68,20.91c.18.2.39.35.63.46.23.11.5.16.76.16s.53-.06.76-.16c.23-.11.45-.27.62-.46l18.7-20.94c.08-.09.17-.22.27-.41.05-.11.09-.22.12-.34.04-.14.05-.29.05-.44v-.16c0-.14-.02-.29-.05-.43-.03-.12-.07-.23-.12-.33-.07-.15-.16-.28-.24-.38l-18.75-20.98c-.17-.19-.39-.35-.62-.46-.23-.11-.5-.16-.76-.16s-.53.06-.76.17ZM646.43,97.79l-16.93,18.96-16.94-18.96,16.94-18.96,16.93,18.96Z"/>
  <path class="cls-1" d="M760.38,75.14c-.23.1-.44.26-.62.45l-18.67,20.9c-.06.08-.15.18-.23.31-.09.16-.16.31-.2.48-.03.13-.05.28-.05.43v.17c0,.15.02.29.05.43.04.16.1.32.19.47.08.14.17.24.23.31l18.67,20.9c.17.2.39.35.63.46.23.11.49.16.75.16s.53-.06.77-.17c.23-.1.44-.26.61-.45l18.68-20.91c.08-.09.19-.23.29-.44.05-.1.09-.21.12-.31.04-.17.06-.32.06-.46v-.16c0-.13-.02-.28-.05-.43-.03-.12-.07-.24-.13-.34-.1-.21-.2-.34-.29-.44l-18.68-20.91c-.17-.19-.39-.35-.63-.46-.22-.1-.48-.16-.75-.16s-.53.06-.77.17ZM778.08,97.79l-16.94,18.96-8.21-9.19-1.5-1.7h-.02l-7.21-8.07,7-7.81,1.49-1.69,8.44-9.45,16.94,18.96Z"/>
  <path class="cls-1" d="M360.64,120.45c.2-.09.4-.23.55-.37l18.75-20.99c.09-.1.16-.2.22-.3.09-.16.15-.31.2-.48.04-.14.05-.28.05-.43v-.17c0-.15-.02-.29-.06-.44-.04-.16-.1-.31-.19-.47-.06-.11-.13-.2-.22-.3l-18.72-20.96c-.17-.17-.37-.31-.58-.41-.23-.11-.5-.16-.76-.16s-.53.06-.76.16c-.23.11-.45.27-.62.46l-18.7,20.94c-.11.13-.2.26-.27.41-.05.11-.09.23-.12.34-.03.13-.05.27-.05.45v.16c0,.14.01.28.05.42.03.12.07.23.12.33.07.15.15.28.24.38l18.74,20.98c.17.19.39.35.62.46.23.11.5.16.76.16s.53-.06.77-.17ZM342.94,97.79l16.93-18.96,16.94,18.96-16.94,18.96-16.93-18.96Z"/>
  <path class="cls-1" d="M493.78,120.45c.23-.1.44-.26.62-.46l18.68-20.91c.09-.1.16-.2.22-.3.09-.15.15-.31.2-.48.03-.13.05-.28.05-.43v-.17c0-.15-.02-.29-.05-.43-.04-.17-.1-.31-.19-.47-.06-.1-.13-.2-.22-.3l-18.68-20.91c-.18-.2-.4-.35-.63-.46-.23-.11-.49-.16-.76-.16s-.53.06-.76.16c-.23.11-.45.26-.62.46l-18.68,20.91c-.12.13-.21.27-.29.45-.05.1-.09.21-.12.31-.04.15-.05.29-.05.47v.14c0,.14.01.28.05.42.03.12.07.23.13.34.1.21.21.35.29.43l18.69,20.92c.17.19.38.35.62.45.23.11.49.16.76.16s.53-.06.77-.16ZM476.08,97.79l16.94-18.96,16.93,18.96-16.93,18.96-16.94-18.96Z"/>
  <path class="cls-1" d="M228.99,120.45c.23-.1.44-.26.61-.45l18.69-20.92c.08-.09.15-.18.21-.29.09-.16.16-.31.2-.46.04-.16.06-.3.06-.46v-.16c0-.14-.02-.28-.05-.43-.04-.16-.11-.32-.2-.48-.06-.1-.13-.2-.22-.3l-18.68-20.91c-.17-.19-.39-.35-.63-.46-.23-.1-.49-.16-.75-.16s-.53.06-.76.17c-.23.1-.44.26-.62.45l-18.68,20.91c-.09.1-.2.24-.3.45-.05.1-.09.21-.11.33-.04.15-.05.29-.05.47v.14c0,.14.02.28.06.44.03.11.07.21.12.32.1.21.21.34.29.43l18.68,20.91c.17.19.39.35.63.46.23.11.49.16.75.16s.53-.06.77-.17ZM211.28,97.79l16.94-18.96,8.21,9.2,1.49,1.69h.02l7.21,8.07-7.01,7.82-1.49,1.69-8.44,9.45-16.94-18.96Z"/>
  <path class="cls-1" d="M97.15,120.45c.23-.1.44-.26.62-.45l18.67-20.9c.09-.1.16-.2.22-.31.09-.16.15-.31.2-.48.04-.13.05-.28.05-.43v-.17c0-.15-.02-.29-.05-.43-.04-.17-.1-.32-.19-.47-.07-.11-.14-.21-.27-.36l-18.63-20.85c-.18-.2-.39-.35-.63-.46-.23-.11-.5-.16-.76-.16s-.52.06-.77.17c-.23.1-.45.26-.61.45l-18.68,20.91c-.09.1-.2.24-.3.44-.05.11-.09.23-.12.34-.04.14-.05.27-.05.45v.16c0,.15.01.29.05.43.03.11.06.22.11.32.08.17.18.31.3.44l18.69,20.92c.16.19.38.35.62.45.23.1.49.16.76.16s.53-.06.77-.17ZM79.44,97.79l16.94-18.96,16.94,18.96-16.94,18.96-16.94-18.96Z"/>
  <path class="cls-1" d="M891.2,75.14c-.23.1-.44.26-.62.45l-18.68,20.91c-.08.09-.19.23-.3.44-.05.11-.09.21-.12.33-.04.14-.05.28-.05.46v.14c0,.14.02.28.06.44.02.1.06.21.11.32.1.21.21.35.29.43l18.68,20.91c.17.19.39.35.63.46.23.11.49.16.75.16s.53-.06.77-.17c.22-.1.44-.26.61-.45l18.69-20.91c.08-.09.15-.19.21-.29.09-.16.16-.31.2-.46.04-.16.06-.3.06-.46v-.16c0-.14-.02-.28-.05-.43-.04-.17-.11-.32-.2-.48-.07-.11-.14-.2-.22-.3l-18.68-20.91c-.17-.19-.39-.35-.63-.46-.23-.1-.49-.16-.75-.16s-.53.06-.76.17ZM900.18,88.03l1.49,1.69h.02l7.21,8.07-7,7.82-1.49,1.69-8.44,9.45-16.94-18.96,16.94-18.96,8.21,9.2Z"/>
</svg>