<?xml version="1.0" encoding="utf-8"?>
<!-- Generator: Adobe Illustrator 28.0.0, SVG Export Plug-In . SVG Version: 6.00 Build 0)  -->
<svg version="1.1" id="Layer_1" xmlns="http://www.w3.org/2000/svg" xmlns:xlink="http://www.w3.org/1999/xlink" x="0px" y="0px"
	 viewBox="0 0 477.1 328.9" style="enable-background:new 0 0 477.1 328.9;" xml:space="preserve">
<style type="text/css">
	.st0{fill:#5BBA47;}
	.st1{fill:#58595B;}
	.st2{clip-path:url(#SVGID_00000141434417748007807370000017695970023076919960_);fill:#5BBA47;}
	.st3{clip-path:url(#SVGID_00000006704803755629225830000016140934907906790580_);fill:#5BBA47;}
	.st4{clip-path:url(#SVGID_00000115511649648728921210000011902439714552317627_);fill:#5BBA47;}
</style>
<g>
	<g>
		<g>
			<g>
				<path class="st0" d="M226.4,103.4l2-1.3l0.7,2.3c0.9,2.8,2.1,5.6,3.8,8.1c1-1.1,1.9-2.2,2.6-3.3c-1.2-2.1-2.2-4.4-2.8-6.7
					c-0.3-1-0.5-2.1-0.7-3.3c-0.3-2-0.4-4-0.3-6c-1.2,1.6-2.6,3.1-4.1,4.4c-0.9,0.7-1.8,1.4-2.7,2c-2.9,2-6.2,3.4-9.8,4.3
					c-2.7,0.7-5.6,1-8.5,1c-6.5,0-13.5-1.7-20.1-4.9l-1.3-0.6l0.4-1.4c1.2-4.6,3-8.9,5.2-12.7c-1-0.8-2.1-1.7-3-2.6
					c-3,4.8-4.9,8.8-6.2,13c-0.8,2.6-1.8,5-3,7.2c3,0.3,6,1.1,9.1,2.5c5.8,2.5,11.5,3.7,17.5,3.7c2.8,0,5.8-0.3,8.8-0.8
					C218.4,107.4,222.6,105.8,226.4,103.4z"/>
				<g>
					<path class="st0" d="M226.3,48.4l-2.1-1.1c-2.6-1.4-5.5-2.4-8.4-3.1c0.1,1.4,0.2,2.8,0.5,4.2c2.4,0.7,4.7,1.6,6.7,2.7
						c1,0.5,1.9,1.1,2.8,1.8c1.7,1.2,3.2,2.6,4.5,4.1c-0.3-2-0.4-4-0.2-6c0.1-1.1,0.2-2.2,0.5-3.3c0.7-3.4,2-6.8,3.9-9.9
						c4.7-7.7,12.9-13.9,23-17.5l1.4-0.5l0.8,1.3c2.4,4.1,4.2,8.4,5.3,12.6c1.3-0.2,2.7-0.2,4-0.3c-1.3-5.5-2.8-9.7-4.8-13.6
						c-1.3-2.4-2.3-4.8-3-7.2c-2.3,1.9-5.1,3.4-8.2,4.7c-8.5,3.3-15.2,8.7-20.6,16.5c-2.6,3.8-4.5,8-5.5,12.4L226.3,48.4z"/>
					<path class="st0" d="M250.7,46.4l-2,1.3l-0.7-2.3c-0.9-2.8-2.1-5.6-3.8-8.1c-1,1.1-1.9,2.2-2.6,3.3c1.2,2.1,2.2,4.4,2.8,6.7
						c0.3,1,0.5,2.1,0.7,3.3c0.3,2,0.4,4,0.3,6c1.2-1.6,2.6-3.1,4.1-4.4c0.9-0.7,1.8-1.4,2.7-2c2.9-2,6.2-3.4,9.8-4.3
						c2.7-0.7,5.6-1,8.5-1c6.5,0,13.5,1.7,20.1,4.9l1.3,0.6l-0.4,1.4c-1.2,4.6-3,8.9-5.2,12.7c1,0.8,2.1,1.7,3,2.6
						c3-4.8,4.9-8.8,6.2-13c0.8-2.6,1.8-5,3-7.2c-3-0.3-6-1.1-9.1-2.5c-5.8-2.5-11.5-3.7-17.5-3.7c-2.8,0-5.8,0.3-8.8,0.8
						C258.7,42.4,254.5,44,250.7,46.4z"/>
					<path class="st0" d="M296.6,88.6c-3.5-8.4-8.9-15.1-16.7-20.3c-3.9-2.6-8.1-4.4-12.5-5.3l-2.3-0.5l1.1-2.1
						c1.4-2.6,2.4-5.5,3-8.4c-1.4,0.1-2.8,0.2-4.2,0.5c-0.6,2.4-1.5,4.7-2.7,6.8c-0.5,1-1.1,1.9-1.8,2.8c-1.2,1.7-2.5,3.2-4.1,4.5
						c1.4-0.2,2.9-0.4,4.3-0.4c0.6,0,1.2,0,1.8,0.1c1.1,0.1,2.3,0.2,3.3,0.4c3.5,0.7,6.8,1.9,10,3.8c7.8,4.6,14.1,12.7,17.8,22.7
						l0.5,1.4l-1.3,0.8c-4.1,2.5-8.3,4.3-12.6,5.4c0.2,1.3,0.3,2.6,0.3,4c5.5-1.3,9.7-2.9,13.6-5c2.4-1.3,4.8-2.3,7.2-3.1
						C299.4,94.4,297.8,91.7,296.6,88.6z"/>
					<path class="st0" d="M277.2,80.4c-1-1-2.1-1.9-3.2-2.7c-2.2,1.2-4.4,2.1-6.8,2.7c-1.1,0.3-2.2,0.5-3.3,0.7
						c-1.2,0.2-2.4,0.3-3.7,0.3c-0.8,0-1.6,0-2.4-0.1c1.6,1.2,3.1,2.6,4.4,4.2c0.7,0.9,1.4,1.8,2,2.7c1.9,3,3.3,6.3,4.1,9.9
						c2,8.8,0.4,18.9-4.4,28.5l-0.7,1.3l-1.4-0.4c-4.6-1.3-8.8-3.1-12.6-5.4c-0.8,1-1.7,2-2.7,3c4.7,3.1,8.8,5.1,12.9,6.4
						c2.6,0.9,5,1.9,7.2,3.1c0.4-3,1.3-6,2.6-9c3.8-8.3,4.9-16.8,3.4-26.1c-0.7-4.6-2.3-8.9-4.6-12.7l-1.2-2L269,84
						C271.8,83.2,274.6,82,277.2,80.4z"/>
					<path class="st0" d="M250.8,101.4l2.1,1.1c2.6,1.4,5.5,2.4,8.4,3.1c-0.1-1.4-0.2-2.8-0.5-4.2c-2.4-0.7-4.7-1.6-6.7-2.7
						c-1-0.5-1.9-1.1-2.8-1.8c-1.7-1.2-3.2-2.6-4.5-4.1c0.3,2,0.4,4,0.2,6c-0.1,1.1-0.2,2.2-0.5,3.3c-0.7,3.5-2,6.8-3.9,9.9
						c-4.7,7.7-12.9,13.9-23,17.5l-1.4,0.5l-0.8-1.3c-2.4-4.1-4.2-8.4-5.3-12.6c-1.3,0.2-2.7,0.2-4,0.3c1.3,5.5,2.8,9.7,4.8,13.6
						c1.3,2.4,2.3,4.8,3,7.2c2.3-1.9,5.1-3.4,8.2-4.7c8.5-3.3,15.2-8.7,20.6-16.5c2.6-3.8,4.5-8,5.5-12.4L250.8,101.4z"/>
					<path class="st0" d="M197.3,81.5c3.9,2.6,8.1,4.4,12.5,5.3l2.3,0.5l-1.1,2.1c-1.4,2.6-2.4,5.5-3,8.4c1.4-0.1,2.8-0.2,4.2-0.5
						c0.6-2.4,1.5-4.7,2.7-6.8c0.5-1,1.1-1.9,1.8-2.8c1.2-1.7,2.5-3.2,4.1-4.5c-1.4,0.2-2.9,0.4-4.3,0.4c-0.6,0-1.2,0-1.8-0.1
						c-1.1-0.1-2.3-0.2-3.3-0.4c-3.5-0.7-6.8-1.9-10-3.8c-7.8-4.6-14.1-12.7-17.8-22.7l-0.5-1.4l1.3-0.8c4.1-2.5,8.3-4.3,12.6-5.4
						c-0.2-1.3-0.3-2.6-0.3-4c-5.5,1.3-9.7,2.9-13.6,5c-2.4,1.3-4.8,2.3-7.2,3.1c1.9,2.3,3.5,5,4.8,8.1
						C184,69.6,189.4,76.3,197.3,81.5z"/>
					<path class="st0" d="M199.9,69.4c1,1,2.1,1.9,3.2,2.7c2.2-1.2,4.4-2.1,6.8-2.7c1.1-0.3,2.2-0.5,3.3-0.7
						c1.2-0.2,2.4-0.3,3.7-0.3c0.8,0,1.6,0,2.4,0.1c-1.6-1.2-3.1-2.6-4.4-4.2c-0.7-0.9-1.4-1.8-2-2.7c-1.9-3-3.3-6.3-4.1-9.9
						c-2-8.8-0.4-18.9,4.4-28.5l0.7-1.3l1.4,0.4c4.6,1.3,8.8,3.1,12.6,5.4c0.8-1,1.7-2,2.7-3c-4.7-3.1-8.8-5.1-12.9-6.4
						c-2.6-0.9-5-1.9-7.2-3.1c-0.4,3-1.3,6-2.6,9c-3.8,8.3-4.9,16.8-3.4,26.1c0.7,4.6,2.3,8.9,4.6,12.7l1.2,2l-2.3,0.7
						C205.2,66.6,202.5,67.8,199.9,69.4z"/>
				</g>
			</g>
		</g>
		<path class="st0" d="M238.5,70.9c-2.2,0-4,1.8-4,4c0,2.2,1.8,4,4,4c2.2,0,4-1.8,4-4C242.6,72.7,240.8,70.9,238.5,70.9z"/>
	</g>
	<g>
		<g>
			<g>
				<g>
					<g>
						<path class="st1" d="M197.8,187.9c0,0.1,0,1.1,0.7,1.2c1.8,0.6,6.4,4.6,6.4,17.3v26.4c0,18.1-12.1,27.6-24.1,27.6
							c-16,0-23.2-14.3-23.2-27.6v-45.4h-10.9v45.4c0,22.6,14.7,32.7,29.2,32.7c8,0,15.9-3.1,21.7-8.4c6.5-6,9.9-14.5,9.9-24.3
							v-45.4h-9.6V187.9z"/>
						<path class="st1" d="M368.9,187.5l-39.6,78h11.5v-0.4c0-0.1,0-1.1-0.7-1.2c-0.8-0.3-1.8-2.1-1.8-5.3c0-2.4,0.6-6.4,3.4-12
							l6-12c0.3,0,0.5,0,0.8,0h34.6c3.3,6.5,16.4,30.8,16.4,30.8h12.2l-40.4-78H368.9z M349,232.2l16.4-32.4c0,0,8.6,17,16.4,32.4
							H349z"/>
					</g>
					<path class="st1" d="M294.4,265.5l-40.4-78h-2.4l-39.6,78h11.5v-0.4c0-0.1,0-1.1-0.7-1.2c-0.8-0.3-1.8-2.1-1.8-5.3
						c0-2.4,0.6-6.4,3.4-12l6-12c0.3,0,0.5,0,0.8,0h34.6c3.3,6.5,16.4,30.8,16.4,30.8H294.4z M231.7,232.2l16.4-32.4
						c0,0,8.6,17,16.4,32.4H231.7z"/>
					<path class="st1" d="M294.9,277.5c17,0,27-11.8,27-30.6l0.1-59.4h-16.5v0.4c0,0.1,0,1.1,0.7,1.2c0.7,0.2,1.7,1.3,2.7,3.2
						c1.5,2.8,2.3,6.8,2.3,10v45.2c0,8.9-1.4,15.9-4.1,20.6c-3,5.2-7.6,7.8-13.7,7.8h0c-0.5,0-0.9,0-1.4,0l-0.7,0l0.7,1.5l0.2,0
						C293.2,277.5,294,277.5,294.9,277.5L294.9,277.5z"/>
					<path class="st1" d="M131.6,187.5h-9.1H78.1h-4.5H69l-1,3.2l-2.5,7.6H66c0.2,0,1,0,1.1-0.6c0.1-0.1,0.3-0.3,0.5-0.6
						c0.1-0.1,0.4-0.5,0.4-0.5c0.9-1.2,2.4-2.7,5.7-4c0,0,4.1-1.2,4.5-1.3v0c3.4-0.8,8.3-1.2,15.6-1.2h1.7v75.6h10.8V190h1.6
						c6.4,0,11.1,0.5,14.6,1.2c7.4,1.6,9.4,4.3,10.6,5.9c0.2,0.3,0.4,0.5,0.5,0.6c0.2,0.6,1,0.6,1.1,0.6h0.5L131.6,187.5z"/>
				</g>
				<g>
					<defs>
						<path id="SVGID_1_" d="M106,161.6c-0.7-0.7-1-1.4-1-2.3c0-1,0.5-1.5,1.6-1.5c0.7,0,1.4,0.2,2.1,0.7c0.5,0.3,1.1,0.8,1.6,1.5
							c-0.4,1.3-1.2,2.3-2.3,2.9C107.4,162.7,106.7,162.2,106,161.6 M103.9,155.6c-0.8,0.8-1.1,1.8-1.1,3.1c0,2.2,1,4.2,2.9,6.2
							c-2.1,1.2-4.7,2.3-8,3.3l1.8,1c0.3,0.2,0.9,0.3,1.6,0.3c1.2,0,2.4-0.3,3.7-1c0.9-0.4,2.1-1.2,3.6-2.3c0.7,0.2,1.1,0.3,1.5,0.3
							c0.3,0.1,1,0.2,2.1,0.2l1.5-2.9h-1.6c-0.5,0-1-0.1-1.3-0.2c0.5-0.9,0.9-1.5,1-2c0.1-0.4,0.2-1.1,0.2-2c0-0.9-0.1-1.5-0.3-2
							c-0.4-0.9-0.8-1.4-1.1-1.6c-0.3-0.4-0.9-0.9-1.8-1.3c-0.7-0.3-1.4-0.5-2.1-0.5C105.4,154.3,104.6,154.7,103.9,155.6"/>
					</defs>
					<use xlink:href="#SVGID_1_"  style="overflow:visible;fill:#5BBA47;"/>
					<clipPath id="SVGID_00000059996120855868287660000011262808365449435269_">
						<use xlink:href="#SVGID_1_"  style="overflow:visible;"/>
					</clipPath>
					
						<rect x="97.8" y="154.3" style="clip-path:url(#SVGID_00000059996120855868287660000011262808365449435269_);fill:#5BBA47;" width="15.8" height="15.1"/>
				</g>
				<g>
					<defs>
						<path id="SVGID_00000174602268831386051450000012910673233358277784_" d="M313.8,160.1c-3.3,1.6-5.5,2.8-6.8,3.6
							c-0.1,0.2-0.3,0.6-0.5,1.3c-0.2,0.9-0.3,1.5-0.3,1.8l7.6-3.7c3.7-1.6,6.1-2.6,7.3-2.9l1.1-3.3
							C319.8,157.6,317,158.7,313.8,160.1"/>
					</defs>
					<use xlink:href="#SVGID_00000174602268831386051450000012910673233358277784_"  style="overflow:visible;fill:#5BBA47;"/>
					<clipPath id="SVGID_00000096769498619308705290000004671681716006742666_">
						<use xlink:href="#SVGID_00000174602268831386051450000012910673233358277784_"  style="overflow:visible;"/>
					</clipPath>
					
						<rect x="306.2" y="156.9" style="clip-path:url(#SVGID_00000096769498619308705290000004671681716006742666_);fill:#5BBA47;" width="16.1" height="9.9"/>
				</g>
				<g>
					<defs>
						<path id="SVGID_00000148632224545916112390000000961541101372361862_" d="M176.6,160.1c-3.3,1.6-5.5,2.8-6.8,3.6
							c-0.1,0.2-0.3,0.6-0.5,1.3c-0.2,0.9-0.3,1.5-0.3,1.8l7.6-3.7c3.7-1.6,6.1-2.6,7.3-2.9l1.1-3.3
							C182.6,157.6,179.8,158.7,176.6,160.1"/>
					</defs>
					<use xlink:href="#SVGID_00000148632224545916112390000000961541101372361862_"  style="overflow:visible;fill:#5BBA47;"/>
					<clipPath id="SVGID_00000090993665949656636530000014925766631101364388_">
						<use xlink:href="#SVGID_00000148632224545916112390000000961541101372361862_"  style="overflow:visible;"/>
					</clipPath>
					
						<rect x="169" y="156.9" style="clip-path:url(#SVGID_00000090993665949656636530000014925766631101364388_);fill:#5BBA47;" width="16.1" height="9.9"/>
				</g>
			</g>
		</g>
		<g>
			<path class="st0" d="M95.2,307.5c0-2.8,0-3.3,0-3.9c0-0.6-0.2-0.9-0.8-1.1c-0.1,0-0.5-0.1-0.7-0.1c-0.2,0-0.3,0-0.3-0.2
				s0.1-0.2,0.4-0.2c1,0,2.1,0.1,2.7,0.1c0.8,0,1.8-0.1,2.7-0.1c2.3,0,3.1,0.8,3.4,1.1c0.4,0.4,0.9,1.2,0.9,2.2
				c0,2.6-1.9,4.5-4.6,4.5c-0.1,0-0.3,0-0.4,0c-0.1,0-0.2,0-0.2-0.2c0-0.1,0.1-0.2,0.5-0.2c1,0,2.5-1.2,2.5-3.1
				c0-0.6-0.1-1.9-1.1-2.8c-0.7-0.6-1.4-0.7-1.9-0.7c-0.3,0-0.6,0-0.7,0.1c-0.1,0-0.1,0.1-0.1,0.4v7.4c0,1.7,0,3.2,0.1,4
				c0.1,0.5,0.2,0.9,0.7,1c0.3,0,0.7,0.1,0.9,0.1c0.2,0,0.3,0.1,0.3,0.1c0,0.1-0.1,0.2-0.4,0.2c-1.2,0-2.4-0.1-2.9-0.1
				c-0.4,0-1.6,0.1-2.3,0.1c-0.2,0-0.4-0.1-0.4-0.2c0-0.1,0.1-0.1,0.3-0.1c0.3,0,0.5,0,0.7-0.1c0.4-0.1,0.5-0.5,0.5-1
				c0.1-0.8,0.1-2.2,0.1-3.9V307.5z"/>
			<path class="st0" d="M109.8,307.5c0-2.8,0-3.3,0-3.9c0-0.6-0.2-0.9-0.8-1.1c-0.1,0-0.5-0.1-0.7-0.1c-0.2,0-0.3,0-0.3-0.2
				s0.1-0.2,0.4-0.2c1,0,2.1,0.1,2.5,0.1c0.6,0,2-0.1,2.6-0.1c1.2,0,2.4,0.1,3.4,0.8c0.5,0.4,1.3,1.3,1.3,2.5c0,1.4-0.6,2.6-2.4,4.1
				c1.6,2.1,2.9,3.7,4,4.9c1,1.1,1.8,1.2,2.1,1.3c0.2,0,0.4,0.1,0.5,0.1c0.1,0,0.2,0.1,0.2,0.1c0,0.1-0.1,0.2-0.4,0.2h-1.8
				c-1,0-1.5-0.1-2-0.4c-0.8-0.4-1.5-1.3-2.5-2.7c-0.7-1-1.6-2.3-1.8-2.6c-0.1-0.1-0.2-0.1-0.3-0.1l-1.6,0c-0.1,0-0.1,0-0.1,0.1v0.3
				c0,1.7,0,3.2,0.1,4c0.1,0.5,0.2,0.9,0.7,1c0.3,0,0.7,0.1,0.9,0.1c0.1,0,0.2,0.1,0.2,0.1c0,0.1-0.1,0.2-0.4,0.2
				c-1.1,0-2.4-0.1-2.7-0.1c-0.4,0-1.5,0.1-2.3,0.1c-0.2,0-0.4-0.1-0.4-0.2c0-0.1,0.1-0.1,0.3-0.1c0.3,0,0.5,0,0.7-0.1
				c0.4-0.1,0.5-0.5,0.5-1c0.1-0.8,0.1-2.2,0.1-3.9V307.5z M111.9,308.9c0,0.2,0,0.3,0.2,0.3c0.4,0.1,0.9,0.2,1.4,0.2
				c0.7,0,1-0.1,1.3-0.3c0.6-0.4,1.1-1.3,1.1-2.8c0-2.6-1.7-3.4-2.8-3.4c-0.5,0-0.8,0-1,0.1c-0.1,0-0.2,0.1-0.2,0.3V308.9z"/>
			<path class="st0" d="M126.1,307.5c0-2.8,0-3.3,0-3.9c0-0.6-0.2-0.9-0.8-1.1c-0.1,0-0.5-0.1-0.7-0.1c-0.2,0-0.3,0-0.3-0.2
				s0.1-0.2,0.4-0.2c0.5,0,1,0,1.5,0c0.5,0,0.9,0,1.2,0c0.6,0,4.3,0,4.6,0c0.4,0,0.6-0.1,0.8-0.1c0.1,0,0.2-0.1,0.3-0.1
				c0.1,0,0.1,0.1,0.1,0.2c0,0.1-0.1,0.4-0.1,1.2c0,0.2-0.1,1-0.1,1.2c0,0.1-0.1,0.2-0.2,0.2c-0.1,0-0.2-0.1-0.2-0.3
				c0-0.1,0-0.4-0.1-0.7c-0.1-0.3-0.3-0.6-1.2-0.7c-0.3,0-2.3-0.1-2.6-0.1c-0.1,0-0.1,0.1-0.1,0.2v4.7c0,0.1,0,0.2,0.1,0.2
				c0.4,0,2.5,0,3,0c0.4,0,0.7-0.1,0.9-0.3c0.1-0.1,0.2-0.2,0.3-0.2c0.1,0,0.1,0,0.1,0.1s-0.1,0.4-0.1,1.4c0,0.4-0.1,1.1-0.1,1.2
				c0,0.1,0,0.4-0.2,0.4c-0.1,0-0.2-0.1-0.2-0.2c0-0.2,0-0.4-0.1-0.7c-0.1-0.4-0.4-0.6-1-0.7c-0.4,0-2.2-0.1-2.6-0.1
				c-0.1,0-0.1,0.1-0.1,0.2v1.5c0,0.6,0,2.3,0,2.9c0,1.3,0.3,1.6,2.2,1.6c0.5,0,1.3,0,1.7-0.2c0.5-0.2,0.7-0.6,0.8-1.4
				c0-0.2,0.1-0.3,0.2-0.3c0.1,0,0.1,0.1,0.1,0.3c0,0.4-0.1,1.7-0.2,2.1c-0.1,0.5-0.3,0.5-1,0.5c-1.4,0-2.4,0-3.2-0.1
				c-0.8,0-1.4-0.1-1.9-0.1c-0.2,0-0.6,0-1.1,0c-0.4,0-0.9,0-1.3,0c-0.2,0-0.4-0.1-0.4-0.2c0-0.1,0.1-0.1,0.3-0.1
				c0.3,0,0.5,0,0.7-0.1c0.4-0.1,0.5-0.5,0.5-1c0.1-0.8,0.1-2.2,0.1-3.9V307.5z"/>
			<path class="st0" d="M140.9,302.2c0.1-0.3,0.2-0.5,0.3-0.5c0.1,0,0.3,0.1,0.5,0.6l5.1,10.4l5-10.6c0.1-0.3,0.2-0.4,0.4-0.4
				s0.3,0.2,0.3,0.6l1.7,11.4c0.2,1.2,0.4,1.7,0.9,1.9c0.5,0.2,0.9,0.2,1.1,0.2c0.2,0,0.3,0,0.3,0.1c0,0.1-0.2,0.2-0.5,0.2
				c-0.5,0-3-0.1-3.8-0.1c-0.4,0-0.5-0.1-0.5-0.2c0-0.1,0.1-0.1,0.2-0.2c0.1,0,0.2-0.3,0.1-0.8l-1.1-8.1h-0.1l-4,8.4
				c-0.4,0.9-0.5,1-0.7,1s-0.4-0.4-0.6-0.9c-0.4-0.9-1.9-3.7-2.1-4.2c-0.2-0.4-1.3-2.7-1.9-4.1h-0.1l-1,7.4c0,0.3-0.1,0.6-0.1,0.9
				c0,0.4,0.2,0.5,0.6,0.6c0.3,0.1,0.6,0.1,0.8,0.1c0.1,0,0.3,0,0.3,0.1c0,0.2-0.2,0.2-0.4,0.2c-0.8,0-1.6-0.1-1.9-0.1
				c-0.4,0-1.2,0.1-1.8,0.1c-0.2,0-0.3,0-0.3-0.2c0-0.1,0.1-0.1,0.3-0.1c0.1,0,0.3,0,0.6-0.1c0.5-0.1,0.7-0.8,0.8-1.5L140.9,302.2z"
				/>
			<path class="st0" d="M162,307.5c0-2.8,0-3.3,0-3.9c0-0.6-0.2-0.9-0.6-1c-0.2-0.1-0.4-0.1-0.7-0.1c-0.2,0-0.3,0-0.3-0.2
				c0-0.1,0.1-0.1,0.4-0.1c0.7,0,1.9,0.1,2.4,0.1c0.5,0,1.6-0.1,2.3-0.1c0.2,0,0.4,0,0.4,0.1c0,0.1-0.1,0.2-0.3,0.2
				c-0.2,0-0.3,0-0.6,0.1c-0.5,0.1-0.6,0.4-0.7,1.1c0,0.6,0,1.1,0,3.9v3.3c0,1.8,0,3.3,0.1,4.1c0.1,0.5,0.2,0.8,0.7,0.9
				c0.3,0,0.7,0.1,0.9,0.1c0.2,0,0.3,0.1,0.3,0.1c0,0.1-0.1,0.2-0.4,0.2c-1.2,0-2.4-0.1-2.9-0.1c-0.4,0-1.6,0.1-2.3,0.1
				c-0.2,0-0.4-0.1-0.4-0.2c0-0.1,0.1-0.1,0.3-0.1c0.3,0,0.5,0,0.7-0.1c0.4-0.1,0.5-0.4,0.5-0.9c0.1-0.8,0.1-2.2,0.1-4V307.5z"/>
			<path class="st0" d="M171.9,307.5c0-2.8,0-3.3,0-3.9c0-0.6-0.2-0.9-0.8-1.1c-0.1,0-0.5-0.1-0.7-0.1c-0.2,0-0.3,0-0.3-0.2
				s0.1-0.2,0.4-0.2c1,0,2.1,0.1,2.7,0.1c0.4,0,1.6-0.1,2.3-0.1c0.3,0,0.4,0,0.4,0.2s-0.1,0.2-0.3,0.2c-0.2,0-0.3,0-0.5,0.1
				c-0.5,0.1-0.6,0.4-0.7,1.1c0,0.6,0,1.1,0,3.9v2.6c0,2.7,0.5,3.8,1.4,4.6c0.8,0.7,1.7,0.8,2.3,0.8c0.8,0,1.8-0.3,2.6-1
				c1-1,1.1-2.7,1.1-4.6v-2.3c0-2.8,0-3.3,0-3.9c0-0.6-0.2-0.9-0.8-1.1c-0.1,0-0.5-0.1-0.7-0.1s-0.3,0-0.3-0.2s0.1-0.2,0.4-0.2
				c0.9,0,2.1,0.1,2.1,0.1c0.2,0,1.4-0.1,2.1-0.1c0.3,0,0.4,0,0.4,0.2s-0.1,0.2-0.3,0.2c-0.2,0-0.3,0-0.5,0.1
				c-0.5,0.1-0.6,0.4-0.7,1.1c0,0.6,0,1.1,0,3.9v2c0,2.1-0.2,4.2-1.8,5.6c-1.3,1.1-2.6,1.3-3.9,1.3c-1,0-2.8-0.1-4.1-1.3
				c-0.9-0.9-1.6-2.2-1.6-4.9V307.5z"/>
			<path class="st0" d="M191.3,302.2c0.1-0.3,0.2-0.5,0.3-0.5c0.1,0,0.3,0.1,0.5,0.6l5.1,10.4l5-10.6c0.1-0.3,0.2-0.4,0.4-0.4
				s0.3,0.2,0.3,0.6l1.7,11.4c0.2,1.2,0.4,1.7,0.9,1.9c0.5,0.2,0.9,0.2,1.1,0.2c0.2,0,0.3,0,0.3,0.1c0,0.1-0.2,0.2-0.5,0.2
				c-0.5,0-3-0.1-3.8-0.1c-0.4,0-0.5-0.1-0.5-0.2c0-0.1,0.1-0.1,0.2-0.2c0.1,0,0.2-0.3,0.1-0.8l-1.1-8.1h-0.1l-4,8.4
				c-0.4,0.9-0.5,1-0.7,1c-0.2,0-0.4-0.4-0.6-0.9c-0.4-0.9-1.9-3.7-2.1-4.2c-0.2-0.4-1.3-2.7-1.9-4.1h-0.1l-1,7.4
				c0,0.3-0.1,0.6-0.1,0.9c0,0.4,0.2,0.5,0.6,0.6c0.3,0.1,0.6,0.1,0.8,0.1c0.1,0,0.3,0,0.3,0.1c0,0.2-0.2,0.2-0.4,0.2
				c-0.8,0-1.6-0.1-1.9-0.1c-0.4,0-1.2,0.1-1.8,0.1c-0.2,0-0.3,0-0.3-0.2c0-0.1,0.1-0.1,0.3-0.1c0.1,0,0.3,0,0.6-0.1
				c0.5-0.1,0.7-0.8,0.8-1.5L191.3,302.2z"/>
			<path class="st0" d="M222.6,310.7c0,1.8,0,3.2,0.1,3.9c0.1,0.5,0.2,0.9,0.7,1c0.3,0,0.7,0.1,0.9,0.1c0.2,0,0.3,0.1,0.3,0.1
				c0,0.1-0.1,0.2-0.4,0.2c-1.2,0-2.3-0.1-2.8-0.1c-0.5,0-1.6,0.1-2.4,0.1c-0.3,0-0.4,0-0.4-0.2c0-0.1,0.1-0.1,0.3-0.1
				c0.3,0,0.5,0,0.7-0.1c0.4-0.1,0.5-0.5,0.5-1c0.1-0.8,0.1-2.2,0.1-3.9v-3.3c0-2.8,0-3.3,0-3.9c0-0.6-0.2-0.9-0.8-1.1
				c-0.1,0-0.5-0.1-0.7-0.1c-0.2,0-0.3,0-0.3-0.1c0-0.1,0.1-0.2,0.4-0.2c0.5,0,1,0,1.5,0c0.5,0,0.9,0,1.2,0c0.7,0,4.5,0,4.9,0
				c0.4,0,0.6,0,0.8-0.1c0.1,0,0.2-0.1,0.3-0.1c0.1,0,0.1,0.1,0.1,0.2c0,0.1-0.1,0.4-0.1,0.8c0,0.2-0.1,1.3-0.1,1.5
				c0,0.1-0.1,0.3-0.2,0.3c-0.1,0-0.2-0.1-0.2-0.3c0-0.1,0-0.4-0.1-0.7c-0.1-0.3-0.5-0.5-1.2-0.6l-2.9-0.1c-0.1,0-0.2,0.1-0.2,0.3
				v4.6c0,0.1,0,0.2,0.1,0.2l2.4,0c0.3,0,0.6,0,0.8,0c0.4,0,0.6-0.1,0.8-0.3c0.1-0.1,0.1-0.2,0.2-0.2c0.1,0,0.1,0.1,0.1,0.2
				s-0.1,0.6-0.1,1.1c0,0.4-0.1,1.2-0.1,1.4c0,0.2,0,0.4-0.2,0.4c-0.1,0-0.1-0.1-0.1-0.3c0-0.1,0-0.4-0.1-0.6
				c-0.1-0.3-0.4-0.6-0.9-0.7c-0.5-0.1-2.4-0.1-2.7-0.1c-0.1,0-0.1,0-0.1,0.2V310.7z"/>
			<path class="st0" d="M234.6,311.2c-0.1,0-0.1,0-0.2,0.1l-1,2.6c-0.2,0.5-0.3,0.9-0.3,1.1c0,0.3,0.2,0.6,0.7,0.6h0.3
				c0.2,0,0.3,0,0.3,0.1c0,0.1-0.1,0.2-0.3,0.2c-0.6,0-1.4-0.1-2-0.1c-0.2,0-1.2,0.1-2.2,0.1c-0.2,0-0.4,0-0.4-0.2
				c0-0.1,0.1-0.1,0.2-0.1c0.2,0,0.4,0,0.6,0c0.9-0.1,1.2-0.7,1.6-1.7l4.6-11.6c0.2-0.5,0.3-0.7,0.5-0.7c0.2,0,0.3,0.2,0.5,0.6
				c0.4,1,3.4,8.6,4.6,11.4c0.7,1.7,1.2,1.9,1.6,2c0.3,0.1,0.6,0.1,0.8,0.1c0.1,0,0.2,0,0.2,0.1c0,0.1-0.2,0.2-0.9,0.2
				c-0.7,0-2,0-3.5,0c-0.3,0-0.6,0-0.6-0.1c0-0.1,0.1-0.1,0.3-0.2c0.1,0,0.3-0.2,0.2-0.4l-1.5-3.9c0-0.1-0.1-0.1-0.2-0.1H234.6z
				 M238.4,310.3c0.1,0,0.1-0.1,0.1-0.1l-1.7-4.6c0-0.1,0-0.2-0.1-0.2s-0.1,0.1-0.1,0.2l-1.7,4.6c0,0.1,0,0.1,0.1,0.1H238.4z"/>
			<path class="st0" d="M249.2,307.5c0-2.8,0-3.3,0-3.9c0-0.6-0.2-0.9-0.8-1.1c-0.1,0-0.5-0.1-0.7-0.1c-0.2,0-0.3,0-0.3-0.2
				s0.1-0.2,0.4-0.2c1,0,2.1,0.1,2.5,0.1c0.6,0,2-0.1,2.6-0.1c1.2,0,2.4,0.1,3.4,0.8c0.5,0.4,1.3,1.3,1.3,2.5c0,1.4-0.6,2.6-2.4,4.1
				c1.6,2.1,2.9,3.7,4,4.9c1,1.1,1.8,1.2,2.1,1.3c0.2,0,0.4,0.1,0.5,0.1c0.1,0,0.2,0.1,0.2,0.1c0,0.1-0.1,0.2-0.4,0.2h-1.8
				c-1,0-1.5-0.1-2-0.4c-0.8-0.4-1.5-1.3-2.5-2.7c-0.7-1-1.6-2.3-1.8-2.6c-0.1-0.1-0.2-0.1-0.3-0.1l-1.6,0c-0.1,0-0.1,0-0.1,0.1v0.3
				c0,1.7,0,3.2,0.1,4c0.1,0.5,0.2,0.9,0.7,1c0.3,0,0.7,0.1,0.9,0.1c0.1,0,0.2,0.1,0.2,0.1c0,0.1-0.1,0.2-0.4,0.2
				c-1.1,0-2.4-0.1-2.7-0.1c-0.4,0-1.5,0.1-2.3,0.1c-0.2,0-0.4-0.1-0.4-0.2c0-0.1,0.1-0.1,0.3-0.1c0.3,0,0.5,0,0.7-0.1
				c0.4-0.1,0.5-0.5,0.5-1c0.1-0.8,0.1-2.2,0.1-3.9V307.5z M251.4,308.9c0,0.2,0,0.3,0.2,0.3c0.4,0.1,0.9,0.2,1.4,0.2
				c0.7,0,1-0.1,1.3-0.3c0.6-0.4,1.1-1.3,1.1-2.8c0-2.6-1.7-3.4-2.8-3.4c-0.5,0-0.8,0-1,0.1c-0.1,0-0.2,0.1-0.2,0.3V308.9z"/>
			<path class="st0" d="M266.3,302.2c0.1-0.3,0.2-0.5,0.3-0.5c0.1,0,0.3,0.1,0.5,0.6l5.1,10.4l5-10.6c0.1-0.3,0.2-0.4,0.4-0.4
				s0.3,0.2,0.3,0.6l1.7,11.4c0.2,1.2,0.4,1.7,0.9,1.9c0.5,0.2,0.9,0.2,1.1,0.2c0.2,0,0.3,0,0.3,0.1c0,0.1-0.2,0.2-0.5,0.2
				c-0.5,0-3-0.1-3.8-0.1c-0.4,0-0.5-0.1-0.5-0.2c0-0.1,0.1-0.1,0.2-0.2c0.1,0,0.2-0.3,0.1-0.8l-1.1-8.1h-0.1l-4,8.4
				c-0.4,0.9-0.5,1-0.7,1s-0.4-0.4-0.6-0.9c-0.4-0.9-1.9-3.7-2.1-4.2c-0.2-0.4-1.3-2.7-1.9-4.1h-0.1l-1,7.4c0,0.3-0.1,0.6-0.1,0.9
				c0,0.4,0.2,0.5,0.6,0.6c0.3,0.1,0.6,0.1,0.8,0.1c0.1,0,0.3,0,0.3,0.1c0,0.2-0.2,0.2-0.4,0.2c-0.8,0-1.6-0.1-1.9-0.1
				c-0.4,0-1.2,0.1-1.8,0.1c-0.2,0-0.3,0-0.3-0.2c0-0.1,0.1-0.1,0.3-0.1c0.1,0,0.3,0,0.6-0.1c0.5-0.1,0.7-0.8,0.8-1.5L266.3,302.2z"
				/>
			<path class="st0" d="M295.3,307.5c0-2.8,0-3.3,0-3.9c0-0.6-0.2-0.9-0.8-1.1c-0.1,0-0.5-0.1-0.7-0.1c-0.2,0-0.3,0-0.3-0.2
				s0.1-0.2,0.4-0.2c1,0,2.1,0.1,2.5,0.1c0.6,0,2-0.1,2.6-0.1c1.2,0,2.4,0.1,3.4,0.8c0.5,0.4,1.3,1.3,1.3,2.5c0,1.4-0.6,2.6-2.4,4.1
				c1.6,2.1,2.9,3.7,4,4.9c1,1.1,1.8,1.2,2.1,1.3c0.2,0,0.4,0.1,0.5,0.1c0.1,0,0.2,0.1,0.2,0.1c0,0.1-0.1,0.2-0.4,0.2h-1.8
				c-1,0-1.5-0.1-2-0.4c-0.8-0.4-1.5-1.3-2.5-2.7c-0.7-1-1.6-2.3-1.8-2.6c-0.1-0.1-0.2-0.1-0.3-0.1l-1.6,0c-0.1,0-0.1,0-0.1,0.1v0.3
				c0,1.7,0,3.2,0.1,4c0.1,0.5,0.2,0.9,0.7,1c0.3,0,0.7,0.1,0.9,0.1c0.1,0,0.2,0.1,0.2,0.1c0,0.1-0.1,0.2-0.4,0.2
				c-1.1,0-2.4-0.1-2.7-0.1c-0.4,0-1.5,0.1-2.3,0.1c-0.2,0-0.4-0.1-0.4-0.2c0-0.1,0.1-0.1,0.3-0.1c0.3,0,0.5,0,0.7-0.1
				c0.4-0.1,0.5-0.5,0.5-1c0.1-0.8,0.1-2.2,0.1-3.9V307.5z M297.4,308.9c0,0.2,0,0.3,0.2,0.3c0.4,0.1,0.9,0.2,1.4,0.2
				c0.7,0,1-0.1,1.3-0.3c0.6-0.4,1.1-1.3,1.1-2.8c0-2.6-1.7-3.4-2.8-3.4c-0.5,0-0.8,0-1,0.1c-0.1,0-0.2,0.1-0.2,0.3V308.9z"/>
			<path class="st0" d="M311.6,307.5c0-2.8,0-3.3,0-3.9c0-0.6-0.2-0.9-0.8-1.1c-0.1,0-0.5-0.1-0.7-0.1c-0.2,0-0.3,0-0.3-0.2
				s0.1-0.2,0.4-0.2c0.5,0,1,0,1.5,0c0.5,0,0.9,0,1.2,0c0.6,0,4.3,0,4.6,0c0.4,0,0.6-0.1,0.8-0.1c0.1,0,0.2-0.1,0.3-0.1
				c0.1,0,0.1,0.1,0.1,0.2c0,0.1-0.1,0.4-0.1,1.2c0,0.2-0.1,1-0.1,1.2c0,0.1-0.1,0.2-0.2,0.2c-0.1,0-0.2-0.1-0.2-0.3
				c0-0.1,0-0.4-0.1-0.7c-0.1-0.3-0.3-0.6-1.2-0.7c-0.3,0-2.3-0.1-2.6-0.1c-0.1,0-0.1,0.1-0.1,0.2v4.7c0,0.1,0,0.2,0.1,0.2
				c0.4,0,2.5,0,3,0c0.4,0,0.7-0.1,0.9-0.3c0.1-0.1,0.2-0.2,0.3-0.2c0.1,0,0.1,0,0.1,0.1s-0.1,0.4-0.1,1.4c0,0.4-0.1,1.1-0.1,1.2
				c0,0.1,0,0.4-0.2,0.4c-0.1,0-0.2-0.1-0.2-0.2c0-0.2,0-0.4-0.1-0.7c-0.1-0.4-0.4-0.6-1-0.7c-0.4,0-2.2-0.1-2.6-0.1
				c-0.1,0-0.1,0.1-0.1,0.2v1.5c0,0.6,0,2.3,0,2.9c0,1.3,0.3,1.6,2.2,1.6c0.5,0,1.3,0,1.7-0.2c0.5-0.2,0.7-0.6,0.8-1.4
				c0-0.2,0.1-0.3,0.2-0.3c0.1,0,0.1,0.1,0.1,0.3c0,0.4-0.1,1.7-0.2,2.1c-0.1,0.5-0.3,0.5-1,0.5c-1.4,0-2.4,0-3.2-0.1
				c-0.8,0-1.4-0.1-1.9-0.1c-0.2,0-0.6,0-1.1,0c-0.4,0-0.9,0-1.3,0c-0.2,0-0.4-0.1-0.4-0.2c0-0.1,0.1-0.1,0.3-0.1
				c0.3,0,0.5,0,0.7-0.1c0.4-0.1,0.5-0.5,0.5-1c0.1-0.8,0.1-2.2,0.1-3.9V307.5z"/>
			<path class="st0" d="M324.7,315.9c-0.3-0.1-0.4-0.2-0.4-0.6c0-1,0.1-2.1,0.1-2.4c0-0.3,0.1-0.5,0.2-0.5c0.2,0,0.2,0.2,0.2,0.3
				c0,0.2,0.1,0.6,0.2,0.9c0.4,1.4,1.5,1.9,2.6,1.9c1.7,0,2.5-1.1,2.5-2.1c0-0.9-0.3-1.8-1.8-3l-0.9-0.7c-2-1.6-2.7-2.9-2.7-4.4
				c0-2,1.7-3.5,4.3-3.5c1.2,0,2,0.2,2.5,0.3c0.2,0,0.3,0.1,0.3,0.2c0,0.2-0.1,0.8-0.1,2.2c0,0.4-0.1,0.6-0.2,0.6
				c-0.1,0-0.2-0.1-0.2-0.3c0-0.2-0.1-0.7-0.5-1.2c-0.3-0.4-0.8-0.9-2-0.9c-1.4,0-2.2,0.8-2.2,1.9c0,0.9,0.4,1.5,2,2.7l0.5,0.4
				c2.2,1.7,3,3,3,4.7c0,1.1-0.4,2.4-1.7,3.2c-0.9,0.6-2,0.8-2.9,0.8C326.4,316.3,325.5,316.2,324.7,315.9z"/>
			<path class="st0" d="M336.9,309.1c0-3.2,2.1-7.3,7.6-7.3c4.6,0,7.5,2.7,7.5,6.9c0,4.2-3,7.6-7.7,7.6
				C339.1,316.3,336.9,312.4,336.9,309.1z M349.4,309.4c0-4.1-2.4-6.7-5.4-6.7c-2.1,0-4.6,1.2-4.6,5.8c0,3.8,2.1,6.9,5.7,6.9
				C346.4,315.4,349.4,314.8,349.4,309.4z"/>
			<path class="st0" d="M358.3,307.5c0-2.8,0-3.3,0-3.9c0-0.6-0.2-0.9-0.8-1.1c-0.1,0-0.5-0.1-0.7-0.1c-0.2,0-0.3,0-0.3-0.2
				s0.1-0.2,0.4-0.2c1,0,2.1,0.1,2.5,0.1c0.6,0,2-0.1,2.6-0.1c1.2,0,2.4,0.1,3.4,0.8c0.5,0.4,1.3,1.3,1.3,2.5c0,1.4-0.6,2.6-2.4,4.1
				c1.6,2.1,2.9,3.7,4,4.9c1,1.1,1.8,1.2,2.1,1.3c0.2,0,0.4,0.1,0.5,0.1s0.2,0.1,0.2,0.1c0,0.1-0.1,0.2-0.4,0.2h-1.8
				c-1,0-1.5-0.1-2-0.4c-0.8-0.4-1.5-1.3-2.5-2.7c-0.7-1-1.6-2.3-1.8-2.6c-0.1-0.1-0.2-0.1-0.3-0.1l-1.6,0c-0.1,0-0.1,0-0.1,0.1v0.3
				c0,1.7,0,3.2,0.1,4c0.1,0.5,0.2,0.9,0.7,1c0.3,0,0.7,0.1,0.9,0.1c0.1,0,0.2,0.1,0.2,0.1c0,0.1-0.1,0.2-0.4,0.2
				c-1.1,0-2.4-0.1-2.7-0.1c-0.4,0-1.5,0.1-2.3,0.1c-0.2,0-0.4-0.1-0.4-0.2c0-0.1,0.1-0.1,0.3-0.1c0.3,0,0.5,0,0.7-0.1
				c0.4-0.1,0.5-0.5,0.5-1c0.1-0.8,0.1-2.2,0.1-3.9V307.5z M360.5,308.9c0,0.2,0,0.3,0.2,0.3c0.4,0.1,0.9,0.2,1.4,0.2
				c0.7,0,1-0.1,1.3-0.3c0.6-0.4,1.1-1.3,1.1-2.8c0-2.6-1.7-3.4-2.8-3.4c-0.5,0-0.8,0-1,0.1c-0.1,0-0.2,0.1-0.2,0.3V308.9z"/>
			<path class="st0" d="M376.4,303.1l-2.8,0.1c-1.1,0-1.5,0.1-1.8,0.5c-0.2,0.3-0.3,0.5-0.3,0.6c0,0.1-0.1,0.2-0.2,0.2
				c-0.1,0-0.2-0.1-0.2-0.3c0-0.3,0.4-2,0.4-2.1c0.1-0.2,0.1-0.4,0.2-0.4c0.1,0,0.3,0.2,0.8,0.2c0.5,0.1,1.2,0.1,1.9,0.1h7.3
				c0.6,0,1-0.1,1.3-0.1c0.3-0.1,0.4-0.1,0.5-0.1c0.1,0,0.1,0.1,0.1,0.4c0,0.4-0.1,1.7-0.1,2.1c0,0.2-0.1,0.3-0.2,0.3
				c-0.1,0-0.2-0.1-0.2-0.4l0-0.2c0-0.5-0.5-1-2.2-1l-2.3-0.1v7.6c0,1.7,0,3.2,0.1,4c0.1,0.5,0.2,0.9,0.7,1c0.3,0,0.7,0.1,0.9,0.1
				c0.2,0,0.3,0.1,0.3,0.1c0,0.1-0.1,0.2-0.4,0.2c-1.2,0-2.4-0.1-2.9-0.1c-0.4,0-1.6,0.1-2.3,0.1c-0.2,0-0.4-0.1-0.4-0.2
				c0-0.1,0.1-0.1,0.3-0.1c0.3,0,0.5,0,0.7-0.1c0.4-0.1,0.5-0.5,0.5-1c0.1-0.8,0.1-2.2,0.1-3.9V303.1z"/>
		</g>
	</g>
</g>
</svg>
