<?xml version="1.0" encoding="utf-8"?>
<!-- Generator: Adobe Illustrator 28.0.0, SVG Export Plug-In . SVG Version: 6.00 Build 0)  -->
<svg version="1.1" id="Layer_1" xmlns="http://www.w3.org/2000/svg" xmlns:xlink="http://www.w3.org/1999/xlink" x="0px" y="0px"
	 viewBox="0 0 1210.2 1052.4" style="enable-background:new 0 0 1210.2 1052.4;" xml:space="preserve">
<style type="text/css">
	.st0{fill:none;}
	.st1{fill:url(#SVGID_1_);}
	.st2{opacity:0.31;}
	.st3{clip-path:url(#SVGID_00000127024383843255825610000017768023353535808397_);fill:#D8A778;}
	.st4{fill:#D8A778;}
</style>
<rect x="144.3" y="-42.8" class="st0" width="1210" height="1008"/>
<linearGradient id="SVGID_1_" gradientUnits="userSpaceOnUse" x1="-2.2614" y1="3067.1748" x2="-1.2616" y2="3067.1748" gradientTransform="matrix(1210.4286 0 0 -1210.4286 2737.2446 3713122.25)">
	<stop  offset="0" style="stop-color:#E8BD85"/>
	<stop  offset="0.7349" style="stop-color:#D1A366"/>
	<stop  offset="1" style="stop-color:#C8985A"/>
</linearGradient>
<rect class="st1" width="1210.2" height="1052.4"/>
<g>
	<g>
		<g class="st2">
			<g>
				<defs>
					<rect id="SVGID_00000168807881777859144660000006635428808239141303_" x="-730.1" y="17.2" width="1008.7" height="1008"/>
				</defs>
				<clipPath id="SVGID_00000007404502995935235470000001765970782424146309_">
					<use xlink:href="#SVGID_00000168807881777859144660000006635428808239141303_"  style="overflow:visible;"/>
				</clipPath>
				<path style="clip-path:url(#SVGID_00000007404502995935235470000001765970782424146309_);fill:#D8A778;" d="M239.1,736.7h-53
					c-13.7,0-24.8-11.1-24.8-24.8v-53h53c13.7,0,24.8,11.1,24.8,24.8V736.7z M163.7,661.3v50.6c0,12.3,10,22.4,22.4,22.4h50.6v-50.6
					c0-12.3-10-22.4-22.4-22.4H163.7z"/>
				<path style="clip-path:url(#SVGID_00000007404502995935235470000001765970782424146309_);fill:#D8A778;" d="M214.3,633.7h-53
					v-53c0-13.7,11.1-24.8,24.8-24.8h53v53C239.1,622.6,228,633.7,214.3,633.7 M163.7,631.2h50.6c12.3,0,22.4-10,22.4-22.4v-50.6
					H186c-12.3,0-22.4,10-22.4,22.4V631.2z"/>
				<path style="clip-path:url(#SVGID_00000007404502995935235470000001765970782424146309_);fill:#D8A778;" d="M112.9,736.7h-53
					v-53c0-13.7,11.1-24.8,24.8-24.8h53v53C137.7,725.6,126.6,736.7,112.9,736.7 M62.3,734.3h50.6c12.3,0,22.4-10,22.4-22.4v-50.6
					H84.7c-12.3,0-22.4,10-22.4,22.4V734.3z"/>
				<path style="clip-path:url(#SVGID_00000007404502995935235470000001765970782424146309_);fill:#D8A778;" d="M137.7,633.7h-53
					c-13.7,0-24.8-11.1-24.8-24.8v-53h53c13.7,0,24.8,11.1,24.8,24.8V633.7z M62.3,558.3v50.6c0,12.3,10,22.4,22.4,22.4h50.6v-50.6
					c0-12.3-10-22.4-22.4-22.4H62.3z"/>
				<path style="clip-path:url(#SVGID_00000007404502995935235470000001765970782424146309_);fill:#D8A778;" d="M148.9,773.6
					l-37.5-37.5c-9.7-9.7-9.7-25.4,0-35.1l37.5-37.5l37.5,37.5c9.7,9.7,9.7,25.4,0,35.1L148.9,773.6z M148.9,666.9l-35.8,35.8
					c-8.7,8.7-8.7,22.9,0,31.7l35.8,35.8l35.8-35.8c8.7-8.7,8.7-22.9,0-31.7L148.9,666.9z"/>
				<path style="clip-path:url(#SVGID_00000007404502995935235470000001765970782424146309_);fill:#D8A778;" d="M221.7,690.4
					c-6.4,0-12.7-2.4-17.5-7.3l-37.5-37.5l37.5-37.5c4.7-4.7,10.9-7.3,17.5-7.3c6.6,0,12.9,2.6,17.5,7.3l37.5,37.5l-37.5,37.5
					C234.4,688,228.1,690.4,221.7,690.4 M170.1,645.7l35.8,35.8c8.7,8.7,22.9,8.7,31.7,0l35.8-35.8l-35.8-35.8
					c-4.2-4.2-9.8-6.6-15.8-6.6c-6,0-11.6,2.3-15.8,6.6L170.1,645.7z"/>
				<path style="clip-path:url(#SVGID_00000007404502995935235470000001765970782424146309_);fill:#D8A778;" d="M77.2,691.6
					c-6.4,0-12.7-2.4-17.5-7.3l-37.5-37.5l37.5-37.5c4.7-4.7,10.9-7.3,17.5-7.3c6.6,0,12.9,2.6,17.5,7.3l37.5,37.5l-37.5,37.5
					C89.9,689.2,83.6,691.6,77.2,691.6 M25.6,646.8l35.8,35.8c8.7,8.7,22.9,8.7,31.7,0l35.8-35.8L93,611c-4.2-4.2-9.8-6.6-15.8-6.6
					c-6,0-11.6,2.3-15.8,6.6L25.6,646.8z"/>
				<path style="clip-path:url(#SVGID_00000007404502995935235470000001765970782424146309_);fill:#D8A778;" d="M150,629l-37.5-37.5
					c-9.7-9.7-9.7-25.4,0-35.1l37.5-37.5l37.5,37.5c9.7,9.7,9.7,25.4,0,35.1L150,629z M150,522.4l-35.8,35.8
					c-8.7,8.7-8.7,22.9,0,31.7l35.8,35.8l35.8-35.8c8.7-8.7,8.7-22.9,0-31.7L150,522.4z"/>
				<path style="clip-path:url(#SVGID_00000007404502995935235470000001765970782424146309_);fill:#D8A778;" d="M238.5,987.4h-53
					c-13.7,0-24.8-11.1-24.8-24.8v-53h53c13.7,0,24.8,11.1,24.8,24.8V987.4z M163.1,912v50.6c0,12.3,10,22.4,22.4,22.4H236v-50.6
					c0-12.3-10-22.4-22.4-22.4H163.1z"/>
				<path style="clip-path:url(#SVGID_00000007404502995935235470000001765970782424146309_);fill:#D8A778;" d="M213.7,884.4h-53
					v-53c0-13.7,11.1-24.8,24.8-24.8h53v53C238.5,873.3,227.3,884.4,213.7,884.4 M163.1,882h50.6c12.3,0,22.4-10,22.4-22.4V809
					h-50.6c-12.3,0-22.4,10-22.4,22.4V882z"/>
				<path style="clip-path:url(#SVGID_00000007404502995935235470000001765970782424146309_);fill:#D8A778;" d="M112.3,987.4h-53
					v-53c0-13.7,11.1-24.8,24.8-24.8h53v53C137.1,976.3,126,987.4,112.3,987.4 M61.7,985h50.6c12.3,0,22.4-10,22.4-22.4V912H84.1
					c-12.3,0-22.4,10-22.4,22.4V985z"/>
				<path style="clip-path:url(#SVGID_00000007404502995935235470000001765970782424146309_);fill:#D8A778;" d="M137.1,884.4h-53
					c-13.7,0-24.8-11.1-24.8-24.8v-53h53c13.7,0,24.8,11.1,24.8,24.8V884.4z M61.7,809v50.6c0,12.3,10,22.4,22.4,22.4h50.6v-50.6
					c0-12.3-10-22.4-22.4-22.4H61.7z"/>
				<path style="clip-path:url(#SVGID_00000007404502995935235470000001765970782424146309_);fill:#D8A778;" d="M148.3,1024.3
					l-37.5-37.5c-9.7-9.7-9.7-25.4,0-35.1l37.5-37.5l37.5,37.5c9.7,9.7,9.7,25.4,0,35.1L148.3,1024.3z M148.3,917.7l-35.8,35.8
					c-8.7,8.7-8.7,22.9,0,31.7l35.8,35.8l35.8-35.8c8.7-8.7,8.7-22.9,0-31.7L148.3,917.7z"/>
				<path style="clip-path:url(#SVGID_00000007404502995935235470000001765970782424146309_);fill:#D8A778;" d="M221.1,941.2
					c-6.4,0-12.7-2.4-17.5-7.3l-37.5-37.5l37.5-37.5c4.7-4.7,10.9-7.3,17.5-7.3c6.6,0,12.9,2.6,17.5,7.3l37.5,37.5L238.7,934
					C233.8,938.8,227.5,941.2,221.1,941.2 M169.5,896.4l35.8,35.8c8.7,8.7,22.9,8.7,31.7,0l35.8-35.8l-35.8-35.8
					c-4.2-4.2-9.8-6.6-15.8-6.6c-6,0-11.6,2.3-15.8,6.6L169.5,896.4z"/>
				<path style="clip-path:url(#SVGID_00000007404502995935235470000001765970782424146309_);fill:#D8A778;" d="M76.6,942.4
					c-6.4,0-12.7-2.4-17.5-7.3l-37.5-37.5l37.5-37.5c4.7-4.7,10.9-7.3,17.5-7.3c6.6,0,12.9,2.6,17.5,7.3l37.5,37.5l-37.5,37.5
					C89.3,939.9,83,942.4,76.6,942.4 M25,897.6l35.8,35.8c8.7,8.7,22.9,8.7,31.7,0l35.8-35.8l-35.8-35.8c-4.2-4.2-9.8-6.6-15.8-6.6
					c-6,0-11.6,2.3-15.8,6.6L25,897.6z"/>
				<path style="clip-path:url(#SVGID_00000007404502995935235470000001765970782424146309_);fill:#D8A778;" d="M149.4,879.8
					l-37.5-37.5c-9.7-9.7-9.7-25.4,0-35.1l37.5-37.5l37.5,37.5c9.7,9.7,9.7,25.4,0,35.1L149.4,879.8z M149.4,773.1l-35.8,35.8
					c-8.7,8.7-8.7,22.9,0,31.7l35.8,35.8l35.8-35.8c8.7-8.7,8.7-22.9,0-31.7L149.4,773.1z"/>
				<path style="clip-path:url(#SVGID_00000007404502995935235470000001765970782424146309_);fill:#D8A778;" d="M240.9,235h-53
					c-13.7,0-24.8-11.1-24.8-24.8v-53h53c13.7,0,24.8,11.1,24.8,24.8V235z M165.5,159.5v50.6c0,12.3,10,22.4,22.4,22.4h50.6v-50.6
					c0-12.3-10-22.4-22.4-22.4H165.5z"/>
				<path style="clip-path:url(#SVGID_00000007404502995935235470000001765970782424146309_);fill:#D8A778;" d="M216.1,132h-53v-53
					c0-13.7,11.1-24.8,24.8-24.8h53v53C240.9,120.8,229.8,132,216.1,132 M165.5,129.5h50.6c12.3,0,22.4-10,22.4-22.4V56.5h-50.6
					c-12.3,0-22.4,10-22.4,22.4V129.5z"/>
				<path style="clip-path:url(#SVGID_00000007404502995935235470000001765970782424146309_);fill:#D8A778;" d="M114.7,235h-53v-53
					c0-13.7,11.1-24.8,24.8-24.8h53v53C139.5,223.8,128.4,235,114.7,235 M64.1,232.5h50.6c12.3,0,22.4-10,22.4-22.4v-50.6H86.5
					c-12.3,0-22.4,10-22.4,22.4V232.5z"/>
				<path style="clip-path:url(#SVGID_00000007404502995935235470000001765970782424146309_);fill:#D8A778;" d="M139.5,132h-53
					c-13.7,0-24.8-11.1-24.8-24.8v-53h53c13.7,0,24.8,11.1,24.8,24.8V132z M64.1,56.5v50.6c0,12.3,10,22.4,22.4,22.4h50.6V78.9
					c0-12.3-10-22.4-22.4-22.4H64.1z"/>
				<path style="clip-path:url(#SVGID_00000007404502995935235470000001765970782424146309_);fill:#D8A778;" d="M150.7,271.8
					l-37.5-37.5c-4.7-4.7-7.3-10.9-7.3-17.5c0-6.6,2.6-12.9,7.3-17.5l37.5-37.5l37.5,37.5c9.7,9.7,9.7,25.4,0,35.1L150.7,271.8z
					 M150.7,165.2L114.9,201c-4.2,4.2-6.6,9.8-6.6,15.8c0,6,2.3,11.6,6.6,15.8l35.8,35.8l35.8-35.8c8.7-8.7,8.7-22.9,0-31.7
					L150.7,165.2z"/>
				<path style="clip-path:url(#SVGID_00000007404502995935235470000001765970782424146309_);fill:#D8A778;" d="M223.5,188.7
					c-6.6,0-12.9-2.6-17.5-7.3L168.5,144l37.5-37.5c9.7-9.7,25.4-9.7,35.1,0l37.5,37.5l-37.5,37.5
					C236.4,186.2,230.2,188.7,223.5,188.7 M171.9,144l35.8,35.8c4.2,4.2,9.8,6.6,15.8,6.6s11.6-2.3,15.8-6.6l35.8-35.8l-35.8-35.8
					c-8.7-8.7-22.9-8.7-31.7,0L171.9,144z"/>
				<path style="clip-path:url(#SVGID_00000007404502995935235470000001765970782424146309_);fill:#D8A778;" d="M79,189.9
					c-6.4,0-12.7-2.4-17.5-7.3L24,145.1l37.5-37.5c9.7-9.7,25.4-9.7,35.1,0l37.5,37.5l-37.5,37.5C91.7,187.4,85.4,189.9,79,189.9
					 M27.4,145.1l35.8,35.8c8.7,8.7,22.9,8.7,31.7,0l35.8-35.8l-35.8-35.8c-8.7-8.7-22.9-8.7-31.7,0L27.4,145.1z"/>
				<path style="clip-path:url(#SVGID_00000007404502995935235470000001765970782424146309_);fill:#D8A778;" d="M151.9,127.3
					l-37.5-37.5c-4.7-4.7-7.3-10.9-7.3-17.5c0-6.6,2.6-12.9,7.3-17.5l37.5-37.5l37.5,37.5c9.7,9.7,9.7,25.4,0,35.1L151.9,127.3z
					 M151.9,20.7l-35.8,35.8c-4.2,4.2-6.6,9.8-6.6,15.8c0,6,2.3,11.6,6.6,15.8l35.8,35.8l35.8-35.8c8.7-8.7,8.7-22.9,0-31.7
					L151.9,20.7z"/>
				<path style="clip-path:url(#SVGID_00000007404502995935235470000001765970782424146309_);fill:#D8A778;" d="M240.3,485.7h-53
					c-13.7,0-24.8-11.1-24.8-24.8v-53h53c13.7,0,24.8,11.1,24.8,24.8V485.7z M164.9,410.3v50.6c0,12.3,10,22.4,22.4,22.4h50.6v-50.6
					c0-12.3-10-22.4-22.4-22.4H164.9z"/>
				<path style="clip-path:url(#SVGID_00000007404502995935235470000001765970782424146309_);fill:#D8A778;" d="M215.5,382.7h-53
					v-53c0-13.7,11.1-24.8,24.8-24.8h53v53C240.3,371.6,229.2,382.7,215.5,382.7 M164.9,380.3h50.6c12.3,0,22.4-10,22.4-22.4v-50.6
					h-50.6c-12.3,0-22.4,10-22.4,22.4V380.3z"/>
				<path style="clip-path:url(#SVGID_00000007404502995935235470000001765970782424146309_);fill:#D8A778;" d="M114.1,485.7h-53
					v-53c0-13.7,11.1-24.8,24.8-24.8h53v53C138.9,474.6,127.8,485.7,114.1,485.7 M63.5,483.3h50.6c12.3,0,22.4-10,22.4-22.4v-50.6
					H85.9c-12.3,0-22.4,10-22.4,22.4V483.3z"/>
				<path style="clip-path:url(#SVGID_00000007404502995935235470000001765970782424146309_);fill:#D8A778;" d="M138.9,382.7h-53
					c-13.7,0-24.8-11.1-24.8-24.8v-53h53c13.7,0,24.8,11.1,24.8,24.8V382.7z M63.5,307.3v50.6c0,12.3,10,22.4,22.4,22.4h50.6v-50.6
					c0-12.3-10-22.4-22.4-22.4H63.5z"/>
				<path style="clip-path:url(#SVGID_00000007404502995935235470000001765970782424146309_);fill:#D8A778;" d="M150.1,522.6
					l-37.5-37.5c-4.7-4.7-7.3-10.9-7.3-17.5c0-6.6,2.6-12.9,7.3-17.5l37.5-37.5l37.5,37.5c9.7,9.7,9.7,25.4,0,35.1L150.1,522.6z
					 M150.1,415.9l-35.8,35.8c-4.2,4.2-6.6,9.8-6.6,15.8c0,6,2.3,11.6,6.6,15.8l35.8,35.8l35.8-35.8c8.7-8.7,8.7-22.9,0-31.7
					L150.1,415.9z"/>
				<path style="clip-path:url(#SVGID_00000007404502995935235470000001765970782424146309_);fill:#D8A778;" d="M222.9,439.5
					c-6.6,0-12.9-2.6-17.5-7.3l-37.5-37.5l37.5-37.5c9.7-9.7,25.4-9.7,35.1,0l37.5,37.5l-37.5,37.5
					C235.8,436.9,229.6,439.5,222.9,439.5 M171.3,394.7l35.8,35.8c4.2,4.2,9.8,6.6,15.8,6.6s11.6-2.3,15.8-6.6l35.8-35.8l-35.8-35.8
					c-8.7-8.7-22.9-8.7-31.7,0L171.3,394.7z"/>
				<path style="clip-path:url(#SVGID_00000007404502995935235470000001765970782424146309_);fill:#D8A778;" d="M78.4,440.6
					c-6.6,0-12.9-2.6-17.5-7.3l-37.5-37.5l37.5-37.5c9.7-9.7,25.4-9.7,35.1,0l37.5,37.5L96,433.4C91.3,438.1,85,440.6,78.4,440.6
					 M26.8,395.9l35.8,35.8c4.2,4.2,9.8,6.6,15.8,6.6c6,0,11.6-2.3,15.8-6.6l35.8-35.8l-35.8-35.8c-8.7-8.7-22.9-8.7-31.7,0
					L26.8,395.9z"/>
				<path style="clip-path:url(#SVGID_00000007404502995935235470000001765970782424146309_);fill:#D8A778;" d="M151.2,378.1
					l-37.5-37.5c-4.7-4.7-7.3-10.9-7.3-17.5c0-6.6,2.6-12.9,7.3-17.5l37.5-37.5l37.5,37.5c9.7,9.7,9.7,25.4,0,35.1L151.2,378.1z
					 M151.2,271.4l-35.8,35.8c-4.2,4.2-6.6,9.8-6.6,15.8c0,6,2.3,11.6,6.6,15.8l35.8,35.8l35.8-35.8c8.7-8.7,8.7-22.9,0-31.7
					L151.2,271.4z"/>
			</g>
		</g>
		<g>
			<g>
				<path class="st4" d="M542.9,737.6h-53c-13.7,0-24.8-11.1-24.8-24.8v-53h53c13.7,0,24.8,11.1,24.8,24.8V737.6z M467.5,662.1v50.6
					c0,12.3,10,22.4,22.4,22.4h50.6v-50.6c0-12.3-10-22.4-22.4-22.4H467.5z"/>
				<path class="st4" d="M518.1,634.6h-53v-53c0-13.7,11.1-24.8,24.8-24.8h53v53C542.9,623.4,531.7,634.6,518.1,634.6 M467.5,632.1
					h50.6c12.3,0,22.4-10,22.4-22.4v-50.6h-50.6c-12.3,0-22.4,10-22.4,22.4V632.1z"/>
				<path class="st4" d="M416.7,737.6h-53v-53c0-13.7,11.1-24.8,24.8-24.8h53v53C441.5,726.4,430.4,737.6,416.7,737.6 M366.1,735.1
					h50.6c12.3,0,22.4-10,22.4-22.4v-50.6h-50.6c-12.3,0-22.4,10-22.4,22.4V735.1z"/>
				<path class="st4" d="M441.5,634.6h-53c-13.7,0-24.8-11.1-24.8-24.8v-53h53c13.7,0,24.8,11.1,24.8,24.8V634.6z M366.1,559.1v50.6
					c0,12.3,10,22.4,22.4,22.4h50.6v-50.6c0-12.3-10-22.4-22.4-22.4H366.1z"/>
				<path class="st4" d="M452.7,774.5l-37.5-37.5c-4.7-4.7-7.3-10.9-7.3-17.5c0-6.6,2.6-12.9,7.3-17.5l37.5-37.5l37.5,37.5
					c4.7,4.7,7.3,10.9,7.3,17.5c0,6.6-2.6,12.9-7.3,17.5L452.7,774.5z M452.7,667.8l-35.8,35.8c-4.2,4.2-6.6,9.8-6.6,15.8
					s2.3,11.6,6.6,15.8l35.8,35.8l35.8-35.8c4.2-4.2,6.6-9.8,6.6-15.8s-2.3-11.6-6.6-15.8L452.7,667.8z"/>
				<path class="st4" d="M525.5,691.3c-6.4,0-12.7-2.4-17.5-7.3l-37.5-37.5l37.5-37.5c9.7-9.7,25.4-9.7,35.1,0l37.5,37.5l-37.5,37.5
					C538.2,688.9,531.9,691.3,525.5,691.3 M473.9,646.6l35.8,35.8c8.7,8.7,22.9,8.7,31.7,0l35.8-35.8l-35.8-35.8
					c-8.7-8.7-22.9-8.7-31.7,0L473.9,646.6z"/>
				<path class="st4" d="M381,692.5c-6.4,0-12.7-2.4-17.5-7.3l-37.5-37.5l37.5-37.5c4.7-4.7,10.9-7.3,17.5-7.3
					c6.6,0,12.9,2.6,17.5,7.3l37.5,37.5l-37.5,37.5C393.7,690.1,387.4,692.5,381,692.5 M329.4,647.7l35.8,35.8
					c8.7,8.7,22.9,8.7,31.7,0l35.8-35.8l-35.8-35.8c-4.2-4.2-9.8-6.6-15.8-6.6c-6,0-11.6,2.3-15.8,6.6L329.4,647.7z"/>
				<path class="st4" d="M453.8,629.9l-37.5-37.5c-9.7-9.7-9.7-25.4,0-35.1l37.5-37.5l37.5,37.5c9.7,9.7,9.7,25.4,0,35.1
					L453.8,629.9z M453.8,523.3L418,559c-8.7,8.7-8.7,22.9,0,31.7l35.8,35.8l35.8-35.8c8.7-8.7,8.7-22.9,0-31.7L453.8,523.3z"/>
				<path class="st4" d="M542.3,988.3h-53c-13.7,0-24.8-11.1-24.8-24.8v-53h53c13.7,0,24.8,11.1,24.8,24.8V988.3z M466.8,912.9v50.6
					c0,12.3,10,22.4,22.4,22.4h50.6v-50.6c0-12.3-10-22.4-22.4-22.4H466.8z"/>
				<path class="st4" d="M517.5,885.3h-53v-53c0-13.7,11.1-24.8,24.8-24.8h53v53C542.3,874.2,531.1,885.3,517.5,885.3 M466.8,882.9
					h50.6c12.3,0,22.4-10,22.4-22.4v-50.6h-50.6c-12.3,0-22.4,10-22.4,22.4V882.9z"/>
				<path class="st4" d="M416.1,988.3h-53v-53c0-13.7,11.1-24.8,24.8-24.8h53v53C440.9,977.2,429.8,988.3,416.1,988.3 M365.5,985.9
					h50.6c12.3,0,22.4-10,22.4-22.4v-50.6h-50.6c-12.3,0-22.4,10-22.4,22.4V985.9z"/>
				<path class="st4" d="M440.9,885.3h-53c-13.7,0-24.8-11.1-24.8-24.8v-53h53c13.7,0,24.8,11.1,24.8,24.8V885.3z M365.5,809.9v50.6
					c0,12.3,10,22.4,22.4,22.4h50.6v-50.6c0-12.3-10-22.4-22.4-22.4H365.5z"/>
				<path class="st4" d="M452.1,1025.2l-37.5-37.5c-9.7-9.7-9.7-25.4,0-35.1l37.5-37.5l37.5,37.5c4.7,4.7,7.3,10.9,7.3,17.5
					c0,6.6-2.6,12.9-7.3,17.5L452.1,1025.2z M452.1,918.5l-35.8,35.8c-8.7,8.7-8.7,22.9,0,31.7l35.8,35.8l35.8-35.8
					c4.2-4.2,6.6-9.8,6.6-15.8c0-6-2.3-11.6-6.6-15.8L452.1,918.5z"/>
				<path class="st4" d="M524.9,942.1c-6.4,0-12.7-2.4-17.5-7.3l-37.5-37.5l37.5-37.5c9.7-9.7,25.4-9.7,35.1,0l37.5,37.5l-37.5,37.5
					C537.6,939.7,531.3,942.1,524.9,942.1 M473.3,897.3l35.8,35.8c8.7,8.7,22.9,8.7,31.7,0l35.8-35.8l-35.8-35.8
					c-8.7-8.7-22.9-8.7-31.7,0L473.3,897.3z"/>
				<path class="st4" d="M380.4,943.2c-6.4,0-12.7-2.4-17.5-7.3l-37.5-37.5l37.5-37.5c4.7-4.7,10.9-7.3,17.5-7.3
					c6.6,0,12.9,2.6,17.5,7.3l37.5,37.5L397.9,936C393.1,940.8,386.7,943.2,380.4,943.2 M328.8,898.5l35.8,35.8
					c8.7,8.7,22.9,8.7,31.7,0l35.8-35.8l-35.8-35.8c-4.2-4.2-9.8-6.6-15.8-6.6s-11.6,2.3-15.8,6.6L328.8,898.5z"/>
				<path class="st4" d="M453.2,880.7l-37.5-37.5c-9.7-9.7-9.7-25.4,0-35.1l37.5-37.5l37.5,37.5c9.7,9.7,9.7,25.4,0,35.1
					L453.2,880.7z M453.2,774l-35.8,35.8c-8.7,8.7-8.7,22.9,0,31.7l35.8,35.8l35.8-35.8c8.7-8.7,8.7-22.9,0-31.7L453.2,774z"/>
				<path class="st4" d="M544.7,235.8h-53c-13.7,0-24.8-11.1-24.8-24.8v-53h53c13.7,0,24.8,11.1,24.8,24.8V235.8z M469.3,160.4V211
					c0,12.3,10,22.4,22.4,22.4h50.6v-50.6c0-12.3-10-22.4-22.4-22.4H469.3z"/>
				<path class="st4" d="M519.9,132.8h-53v-53c0-13.7,11.1-24.8,24.8-24.8h53v53C544.7,121.7,533.6,132.8,519.9,132.8 M469.3,130.4
					h50.6c12.3,0,22.4-10,22.4-22.4V57.4h-50.6c-12.3,0-22.4,10-22.4,22.4V130.4z"/>
				<path class="st4" d="M418.5,235.8h-53v-53c0-13.7,11.1-24.8,24.8-24.8h53v53C443.3,224.7,432.2,235.8,418.5,235.8 M367.9,233.4
					h50.6c12.3,0,22.4-10,22.4-22.4v-50.6h-50.6c-12.3,0-22.4,10-22.4,22.4V233.4z"/>
				<path class="st4" d="M443.3,132.8h-53c-13.7,0-24.8-11.1-24.8-24.8V55h53c13.7,0,24.8,11.1,24.8,24.8V132.8z M367.9,57.4V108
					c0,12.3,10,22.4,22.4,22.4h50.6V79.8c0-12.3-10-22.4-22.4-22.4H367.9z"/>
				<path class="st4" d="M454.5,272.7L417,235.2c-4.7-4.7-7.3-10.9-7.3-17.5c0-6.6,2.6-12.9,7.3-17.5l37.5-37.5l37.5,37.5
					c9.7,9.7,9.7,25.4,0,35.1L454.5,272.7z M454.5,166.1l-35.8,35.8c-4.2,4.2-6.6,9.8-6.6,15.8c0,6,2.3,11.6,6.6,15.8l35.8,35.8
					l35.8-35.8c8.7-8.7,8.7-22.9,0-31.7L454.5,166.1z"/>
				<path class="st4" d="M527.3,189.6c-6.6,0-12.9-2.6-17.5-7.3l-37.5-37.5l37.5-37.5c9.7-9.7,25.4-9.7,35.1,0l37.5,37.5l-37.5,37.5
					C540.2,187,534,189.6,527.3,189.6 M475.7,144.8l35.8,35.8c4.2,4.2,9.8,6.6,15.8,6.6c6,0,11.6-2.3,15.8-6.6l35.8-35.8L543.2,109
					c-8.7-8.7-22.9-8.7-31.7,0L475.7,144.8z"/>
				<path class="st4" d="M382.8,190.8c-6.6,0-12.9-2.6-17.5-7.3L327.8,146l37.5-37.5c9.7-9.7,25.4-9.7,35.1,0l37.5,37.5l-37.5,37.5
					C395.7,188.2,389.4,190.8,382.8,190.8 M331.2,146l35.8,35.8c4.2,4.2,9.8,6.6,15.8,6.6s11.6-2.3,15.8-6.6l35.8-35.8l-35.8-35.8
					c-8.7-8.7-22.9-8.7-31.7,0L331.2,146z"/>
				<path class="st4" d="M455.6,128.2l-37.5-37.5c-4.7-4.7-7.3-10.9-7.3-17.5c0-6.6,2.6-12.9,7.3-17.5l37.5-37.5l37.5,37.5
					c4.7,4.7,7.3,10.9,7.3,17.5c0,6.6-2.6,12.9-7.3,17.5L455.6,128.2z M455.6,21.5l-35.8,35.8c-4.2,4.2-6.6,9.8-6.6,15.8
					c0,6,2.3,11.6,6.6,15.8l35.8,35.8L491.4,89c4.2-4.2,6.6-9.8,6.6-15.8c0-6-2.3-11.6-6.6-15.8L455.6,21.5z"/>
				<path class="st4" d="M544.1,486.6h-53c-13.7,0-24.8-11.1-24.8-24.8v-53h53c13.7,0,24.8,11.1,24.8,24.8V486.6z M468.7,411.2v50.6
					c0,12.3,10,22.4,22.4,22.4h50.6v-50.6c0-12.3-10-22.4-22.4-22.4H468.7z"/>
				<path class="st4" d="M519.3,383.6h-53v-53c0-13.7,11.1-24.8,24.8-24.8h53v53C544.1,372.5,533,383.6,519.3,383.6 M468.7,381.2
					h50.6c12.3,0,22.4-10,22.4-22.4v-50.6H491c-12.3,0-22.4,10-22.4,22.4V381.2z"/>
				<path class="st4" d="M417.9,486.6h-53v-53c0-13.7,11.1-24.8,24.8-24.8h53v53C442.7,475.5,431.6,486.6,417.9,486.6 M367.3,484.2
					h50.6c12.3,0,22.4-10,22.4-22.4v-50.6h-50.6c-12.3,0-22.4,10-22.4,22.4V484.2z"/>
				<path class="st4" d="M442.7,383.6h-53c-13.7,0-24.8-11.1-24.8-24.8v-53h53c13.7,0,24.8,11.1,24.8,24.8V383.6z M367.3,308.2v50.6
					c0,12.3,10,22.4,22.4,22.4h50.6v-50.6c0-12.3-10-22.4-22.4-22.4H367.3z"/>
				<path class="st4" d="M453.9,523.5L416.4,486c-4.7-4.7-7.3-10.9-7.3-17.5c0-6.6,2.6-12.9,7.3-17.5l37.5-37.5l37.5,37.5
					c9.7,9.7,9.7,25.4,0,35.1L453.9,523.5z M453.9,416.8l-35.8,35.8c-4.2,4.2-6.6,9.8-6.6,15.8c0,6,2.3,11.6,6.6,15.8l35.8,35.8
					l35.8-35.8c8.7-8.7,8.7-22.9,0-31.7L453.9,416.8z"/>
				<path class="st4" d="M526.7,440.4c-6.6,0-12.9-2.6-17.5-7.3l-37.5-37.5l37.5-37.5c4.7-4.7,10.9-7.3,17.5-7.3s12.9,2.6,17.5,7.3
					l37.5,37.5l-37.5,37.5C539.6,437.8,533.4,440.4,526.7,440.4 M475.1,395.6l35.8,35.8c4.2,4.2,9.8,6.6,15.8,6.6
					c6,0,11.6-2.3,15.8-6.6l35.8-35.8l-35.8-35.8c-4.2-4.2-9.8-6.6-15.8-6.6c-6,0-11.6,2.3-15.8,6.6L475.1,395.6z"/>
				<path class="st4" d="M382.2,441.5c-6.6,0-12.9-2.6-17.5-7.3l-37.5-37.5l37.5-37.5c9.7-9.7,25.4-9.7,35.1,0l37.5,37.5l-37.5,37.5
					C395.1,438.9,388.8,441.5,382.2,441.5 M330.6,396.7l35.8,35.8c4.2,4.2,9.8,6.6,15.8,6.6s11.6-2.3,15.8-6.6l35.8-35.8L398,361
					c-8.7-8.7-22.9-8.7-31.7,0L330.6,396.7z"/>
				<path class="st4" d="M455,379l-37.5-37.5c-4.7-4.7-7.3-10.9-7.3-17.5c0-6.6,2.6-12.9,7.3-17.5l37.5-37.5l37.5,37.5
					c4.7,4.7,7.3,10.9,7.3,17.5c0,6.6-2.6,12.9-7.3,17.5L455,379z M455,272.3l-35.8,35.8c-4.2,4.2-6.6,9.8-6.6,15.8
					c0,6,2.3,11.6,6.6,15.8l35.8,35.8l35.8-35.8c4.2-4.2,6.6-9.8,6.6-15.8c0-6-2.3-11.6-6.6-15.8L455,272.3z"/>
			</g>
			<g>
				<path class="st4" d="M837.4,737.6h-53c-13.7,0-24.8-11.1-24.8-24.8v-53h53c13.7,0,24.8,11.1,24.8,24.8V737.6z M762,662.1v50.6
					c0,12.3,10,22.4,22.4,22.4H835v-50.6c0-12.3-10-22.4-22.4-22.4H762z"/>
				<path class="st4" d="M812.6,634.6h-53v-53c0-13.7,11.1-24.8,24.8-24.8h53v53C837.4,623.4,826.3,634.6,812.6,634.6 M762,632.1
					h50.6c12.3,0,22.4-10,22.4-22.4v-50.6h-50.6c-12.3,0-22.4,10-22.4,22.4V632.1z"/>
				<path class="st4" d="M711.2,737.6h-53v-53c0-13.7,11.1-24.8,24.8-24.8h53v53C736,726.4,724.9,737.6,711.2,737.6 M660.6,735.1
					h50.6c12.3,0,22.4-10,22.4-22.4v-50.6H683c-12.3,0-22.4,10-22.4,22.4V735.1z"/>
				<path class="st4" d="M736,634.6h-53c-13.7,0-24.8-11.1-24.8-24.8v-53h53c13.7,0,24.8,11.1,24.8,24.8V634.6z M660.6,559.1v50.6
					c0,12.3,10,22.4,22.4,22.4h50.6v-50.6c0-12.3-10-22.4-22.4-22.4H660.6z"/>
				<path class="st4" d="M747.2,774.5l-37.5-37.5c-4.7-4.7-7.3-10.9-7.3-17.5c0-6.6,2.6-12.9,7.3-17.5l37.5-37.5l37.5,37.5
					c4.7,4.7,7.3,10.9,7.3,17.5c0,6.6-2.6,12.9-7.3,17.5L747.2,774.5z M747.2,667.8l-35.8,35.8c-4.2,4.2-6.6,9.8-6.6,15.8
					s2.3,11.6,6.6,15.8l35.8,35.8l35.8-35.8c4.2-4.2,6.6-9.8,6.6-15.8s-2.3-11.6-6.6-15.8L747.2,667.8z"/>
				<path class="st4" d="M820.1,691.3c-6.4,0-12.7-2.4-17.5-7.3L765,646.6l37.5-37.5c9.7-9.7,25.4-9.7,35.1,0l37.5,37.5l-37.5,37.5
					C832.8,688.9,826.4,691.3,820.1,691.3 M768.4,646.6l35.8,35.8c8.7,8.7,22.9,8.7,31.7,0l35.8-35.8l-35.8-35.8
					c-8.7-8.7-22.9-8.7-31.7,0L768.4,646.6z"/>
				<path class="st4" d="M675.5,692.5c-6.4,0-12.7-2.4-17.5-7.3l-37.5-37.5l37.5-37.5c4.7-4.7,10.9-7.3,17.5-7.3
					c6.6,0,12.9,2.6,17.5,7.3l37.5,37.5l-37.5,37.5C688.2,690.1,681.9,692.5,675.5,692.5 M623.9,647.7l35.8,35.8
					c8.7,8.7,22.9,8.7,31.7,0l35.8-35.8l-35.8-35.8c-4.2-4.2-9.8-6.6-15.8-6.6c-6,0-11.6,2.3-15.8,6.6L623.9,647.7z"/>
				<path class="st4" d="M748.4,629.9l-37.5-37.5c-9.7-9.7-9.7-25.4,0-35.1l37.5-37.5l37.5,37.5c9.7,9.7,9.7,25.4,0,35.1
					L748.4,629.9z M748.4,523.3L712.6,559c-8.7,8.7-8.7,22.9,0,31.7l35.8,35.8l35.8-35.8c8.7-8.7,8.7-22.9,0-31.7L748.4,523.3z"/>
				<path class="st4" d="M836.8,988.3h-53c-13.7,0-24.8-11.1-24.8-24.8v-53h53c13.7,0,24.8,11.1,24.8,24.8V988.3z M761.4,912.9v50.6
					c0,12.3,10,22.4,22.4,22.4h50.6v-50.6c0-12.3-10-22.4-22.4-22.4H761.4z"/>
				<path class="st4" d="M812,885.3h-53v-53c0-13.7,11.1-24.8,24.8-24.8h53v53C836.8,874.2,825.7,885.3,812,885.3 M761.4,882.9H812
					c12.3,0,22.4-10,22.4-22.4v-50.6h-50.6c-12.3,0-22.4,10-22.4,22.4V882.9z"/>
				<path class="st4" d="M710.6,988.3h-53v-53c0-13.7,11.1-24.8,24.8-24.8h53v53C735.4,977.2,724.3,988.3,710.6,988.3 M660,985.9
					h50.6c12.3,0,22.4-10,22.4-22.4v-50.6h-50.6c-12.3,0-22.4,10-22.4,22.4V985.9z"/>
				<path class="st4" d="M735.4,885.3h-53c-13.7,0-24.8-11.1-24.8-24.8v-53h53c13.7,0,24.8,11.1,24.8,24.8V885.3z M660,809.9v50.6
					c0,12.3,10,22.4,22.4,22.4H733v-50.6c0-12.3-10-22.4-22.4-22.4H660z"/>
				<path class="st4" d="M746.6,1025.2l-37.5-37.5c-9.7-9.7-9.7-25.4,0-35.1l37.5-37.5l37.5,37.5c4.7,4.7,7.3,10.9,7.3,17.5
					c0,6.6-2.6,12.9-7.3,17.5L746.6,1025.2z M746.6,918.5l-35.8,35.8c-8.7,8.7-8.7,22.9,0,31.7l35.8,35.8l35.8-35.8
					c4.2-4.2,6.6-9.8,6.6-15.8c0-6-2.3-11.6-6.6-15.8L746.6,918.5z"/>
				<path class="st4" d="M819.5,942.1c-6.4,0-12.7-2.4-17.5-7.3l-37.5-37.5l37.5-37.5c9.7-9.7,25.4-9.7,35.1,0l37.5,37.5L837,934.8
					C832.2,939.7,825.8,942.1,819.5,942.1 M767.8,897.3l35.8,35.8c8.7,8.7,22.9,8.7,31.7,0l35.8-35.8l-35.8-35.8
					c-8.7-8.7-22.9-8.7-31.7,0L767.8,897.3z"/>
				<path class="st4" d="M674.9,943.2c-6.4,0-12.7-2.4-17.5-7.3l-37.5-37.5l37.5-37.5c4.7-4.7,10.9-7.3,17.5-7.3
					c6.6,0,12.9,2.6,17.5,7.3l37.5,37.5L692.5,936C687.6,940.8,681.3,943.2,674.9,943.2 M623.3,898.5l35.8,35.8
					c8.7,8.7,22.9,8.7,31.7,0l35.8-35.8l-35.8-35.8c-4.2-4.2-9.8-6.6-15.8-6.6c-6,0-11.6,2.3-15.8,6.6L623.3,898.5z"/>
				<path class="st4" d="M747.8,880.7l-37.5-37.5c-9.7-9.7-9.7-25.4,0-35.1l37.5-37.5l37.5,37.5c9.7,9.7,9.7,25.4,0,35.1
					L747.8,880.7z M747.8,774L712,809.8c-8.7,8.7-8.7,22.9,0,31.7l35.8,35.8l35.8-35.8c8.7-8.7,8.7-22.9,0-31.7L747.8,774z"/>
				<path class="st4" d="M839.2,235.8h-53c-13.7,0-24.8-11.1-24.8-24.8v-53h53c13.7,0,24.8,11.1,24.8,24.8V235.8z M763.8,160.4V211
					c0,12.3,10,22.4,22.4,22.4h50.6v-50.6c0-12.3-10-22.4-22.4-22.4H763.8z"/>
				<path class="st4" d="M814.4,132.8h-53v-53c0-13.7,11.1-24.8,24.8-24.8h53v53C839.2,121.7,828.1,132.8,814.4,132.8 M763.8,130.4
					h50.6c12.3,0,22.4-10,22.4-22.4V57.4h-50.6c-12.3,0-22.4,10-22.4,22.4V130.4z"/>
				<path class="st4" d="M713,235.8h-53v-53c0-13.7,11.1-24.8,24.8-24.8h53v53C737.9,224.7,726.7,235.8,713,235.8 M662.4,233.4H713
					c12.3,0,22.4-10,22.4-22.4v-50.6h-50.6c-12.3,0-22.4,10-22.4,22.4V233.4z"/>
				<path class="st4" d="M737.9,132.8h-53c-13.7,0-24.8-11.1-24.8-24.8V55h53c13.7,0,24.8,11.1,24.8,24.8V132.8z M662.4,57.4V108
					c0,12.3,10,22.4,22.4,22.4h50.6V79.8c0-12.3-10-22.4-22.4-22.4H662.4z"/>
				<path class="st4" d="M749,272.7l-37.5-37.5c-4.7-4.7-7.3-10.9-7.3-17.5c0-6.6,2.6-12.9,7.3-17.5l37.5-37.5l37.5,37.5
					c9.7,9.7,9.7,25.4,0,35.1L749,272.7z M749,166.1l-35.8,35.8c-4.2,4.2-6.6,9.8-6.6,15.8c0,6,2.3,11.6,6.6,15.8l35.8,35.8
					l35.8-35.8c8.7-8.7,8.7-22.9,0-31.7L749,166.1z"/>
				<path class="st4" d="M821.9,189.6c-6.6,0-12.9-2.6-17.5-7.3l-37.5-37.5l37.5-37.5c9.7-9.7,25.4-9.7,35.1,0l37.5,37.5l-37.5,37.5
					C834.7,187,828.5,189.6,821.9,189.6 M770.3,144.8l35.8,35.8c4.2,4.2,9.8,6.6,15.8,6.6c6,0,11.6-2.3,15.8-6.6l35.8-35.8
					L837.7,109c-8.7-8.7-22.9-8.7-31.7,0L770.3,144.8z"/>
				<path class="st4" d="M677.4,190.8c-6.6,0-12.9-2.6-17.5-7.3L622.3,146l37.5-37.5c9.7-9.7,25.4-9.7,35.1,0l37.5,37.5l-37.5,37.5
					C690.2,188.2,684,190.8,677.4,190.8 M625.7,146l35.8,35.8c4.2,4.2,9.8,6.6,15.8,6.6c6,0,11.6-2.3,15.8-6.6L729,146l-35.8-35.8
					c-8.7-8.7-22.9-8.7-31.7,0L625.7,146z"/>
				<path class="st4" d="M750.2,128.2l-37.5-37.5c-4.7-4.7-7.3-10.9-7.3-17.5c0-6.6,2.6-12.9,7.3-17.5l37.5-37.5l37.5,37.5
					c4.7,4.7,7.3,10.9,7.3,17.5c0,6.6-2.6,12.9-7.3,17.5L750.2,128.2z M750.2,21.5l-35.8,35.8c-4.2,4.2-6.6,9.8-6.6,15.8
					c0,6,2.3,11.6,6.6,15.8l35.8,35.8L786,89c4.2-4.2,6.6-9.8,6.6-15.8c0-6-2.3-11.6-6.6-15.8L750.2,21.5z"/>
				<path class="st4" d="M838.6,486.6h-53c-13.7,0-24.8-11.1-24.8-24.8v-53h53c13.7,0,24.8,11.1,24.8,24.8V486.6z M763.2,411.2v50.6
					c0,12.3,10,22.4,22.4,22.4h50.6v-50.6c0-12.3-10-22.4-22.4-22.4H763.2z"/>
				<path class="st4" d="M813.8,383.6h-53v-53c0-13.7,11.1-24.8,24.8-24.8h53v53C838.6,372.5,827.5,383.6,813.8,383.6 M763.2,381.2
					h50.6c12.3,0,22.4-10,22.4-22.4v-50.6h-50.6c-12.3,0-22.4,10-22.4,22.4V381.2z"/>
				<path class="st4" d="M712.4,486.6h-53v-53c0-13.7,11.1-24.8,24.8-24.8h53v53C737.2,475.5,726.1,486.6,712.4,486.6 M661.8,484.2
					h50.6c12.3,0,22.4-10,22.4-22.4v-50.6h-50.6c-12.3,0-22.4,10-22.4,22.4V484.2z"/>
				<path class="st4" d="M737.2,383.6h-53c-13.7,0-24.8-11.1-24.8-24.8v-53h53c13.7,0,24.8,11.1,24.8,24.8V383.6z M661.8,308.2v50.6
					c0,12.3,10,22.4,22.4,22.4h50.6v-50.6c0-12.3-10-22.4-22.4-22.4H661.8z"/>
				<path class="st4" d="M748.4,523.5L710.9,486c-4.7-4.7-7.3-10.9-7.3-17.5c0-6.6,2.6-12.9,7.3-17.5l37.5-37.5l37.5,37.5
					c9.7,9.7,9.7,25.4,0,35.1L748.4,523.5z M748.4,416.8l-35.8,35.8c-4.2,4.2-6.6,9.8-6.6,15.8c0,6,2.3,11.6,6.6,15.8l35.8,35.8
					l35.8-35.8c8.7-8.7,8.7-22.9,0-31.7L748.4,416.8z"/>
				<path class="st4" d="M821.3,440.4c-6.6,0-12.9-2.6-17.5-7.3l-37.5-37.5l37.5-37.5c4.7-4.7,10.9-7.3,17.5-7.3s12.9,2.6,17.5,7.3
					l37.5,37.5l-37.5,37.5C834.1,437.8,827.9,440.4,821.3,440.4 M769.7,395.6l35.8,35.8c4.2,4.2,9.8,6.6,15.8,6.6
					c6,0,11.6-2.3,15.8-6.6l35.8-35.8l-35.8-35.8c-4.2-4.2-9.8-6.6-15.8-6.6c-6,0-11.6,2.3-15.8,6.6L769.7,395.6z"/>
				<path class="st4" d="M676.7,441.5c-6.6,0-12.9-2.6-17.5-7.3l-37.5-37.5l37.5-37.5c9.7-9.7,25.4-9.7,35.1,0l37.5,37.5l-37.5,37.5
					C689.6,438.9,683.4,441.5,676.7,441.5 M625.1,396.7l35.8,35.8c4.2,4.2,9.8,6.6,15.8,6.6c6,0,11.6-2.3,15.8-6.6l35.8-35.8
					L692.6,361c-8.7-8.7-22.9-8.7-31.7,0L625.1,396.7z"/>
				<path class="st4" d="M749.6,379l-37.5-37.5c-4.7-4.7-7.3-10.9-7.3-17.5c0-6.6,2.6-12.9,7.3-17.5l37.5-37.5l37.5,37.5
					c4.7,4.7,7.3,10.9,7.3,17.5c0,6.6-2.6,12.9-7.3,17.5L749.6,379z M749.6,272.3l-35.8,35.8c-4.2,4.2-6.6,9.8-6.6,15.8
					c0,6,2.3,11.6,6.6,15.8l35.8,35.8l35.8-35.8c4.2-4.2,6.6-9.8,6.6-15.8c0-6-2.3-11.6-6.6-15.8L749.6,272.3z"/>
			</g>
			<g>
				<path class="st4" d="M1132,737.6h-53c-13.7,0-24.8-11.1-24.8-24.8v-53h53c13.7,0,24.8,11.1,24.8,24.8V737.6z M1056.5,662.1v50.6
					c0,12.3,10,22.4,22.4,22.4h50.6v-50.6c0-12.3-10-22.4-22.4-22.4H1056.5z"/>
				<path class="st4" d="M1107.1,634.6h-53v-53c0-13.7,11.1-24.8,24.8-24.8h53v53C1132,623.4,1120.8,634.6,1107.1,634.6
					 M1056.5,632.1h50.6c12.3,0,22.4-10,22.4-22.4v-50.6h-50.6c-12.3,0-22.4,10-22.4,22.4V632.1z"/>
				<path class="st4" d="M1005.8,737.6h-53v-53c0-13.7,11.1-24.8,24.8-24.8h53v53C1030.6,726.4,1019.4,737.6,1005.8,737.6
					 M955.1,735.1h50.6c12.3,0,22.4-10,22.4-22.4v-50.6h-50.6c-12.3,0-22.4,10-22.4,22.4V735.1z"/>
				<path class="st4" d="M1030.6,634.6h-53c-13.7,0-24.8-11.1-24.8-24.8v-53h53c13.7,0,24.8,11.1,24.8,24.8V634.6z M955.1,559.1
					v50.6c0,12.3,10,22.4,22.4,22.4h50.6v-50.6c0-12.3-10-22.4-22.4-22.4H955.1z"/>
				<path class="st4" d="M1041.8,774.5l-37.5-37.5c-4.7-4.7-7.3-10.9-7.3-17.5c0-6.6,2.6-12.9,7.3-17.5l37.5-37.5l37.5,37.5
					c4.7,4.7,7.3,10.9,7.3,17.5c0,6.6-2.6,12.9-7.3,17.5L1041.8,774.5z M1041.8,667.8l-35.8,35.8c-4.2,4.2-6.6,9.8-6.6,15.8
					s2.3,11.6,6.6,15.8l35.8,35.8l35.8-35.8c4.2-4.2,6.6-9.8,6.6-15.8s-2.3-11.6-6.6-15.8L1041.8,667.8z"/>
				<path class="st4" d="M1114.6,691.3c-6.4,0-12.7-2.4-17.5-7.3l-37.5-37.5l37.5-37.5c9.7-9.7,25.4-9.7,35.1,0l37.5,37.5
					l-37.5,37.5C1127.3,688.9,1120.9,691.3,1114.6,691.3 M1063,646.6l35.8,35.8c8.7,8.7,22.9,8.7,31.7,0l35.8-35.8l-35.8-35.8
					c-8.7-8.7-22.9-8.7-31.7,0L1063,646.6z"/>
				<path class="st4" d="M970.1,692.5c-6.4,0-12.7-2.4-17.5-7.3L915,647.7l37.5-37.5c4.7-4.7,10.9-7.3,17.5-7.3
					c6.6,0,12.9,2.6,17.5,7.3l37.5,37.5l-37.5,37.5C982.8,690.1,976.4,692.5,970.1,692.5 M918.5,647.7l35.8,35.8
					c8.7,8.7,22.9,8.7,31.7,0l35.8-35.8l-35.8-35.8c-4.2-4.2-9.8-6.6-15.8-6.6c-6,0-11.6,2.3-15.8,6.6L918.5,647.7z"/>
				<path class="st4" d="M1042.9,629.9l-37.5-37.5c-9.7-9.7-9.7-25.4,0-35.1l37.5-37.5l37.5,37.5c9.7,9.7,9.7,25.4,0,35.1
					L1042.9,629.9z M1042.9,523.3l-35.8,35.8c-8.7,8.7-8.7,22.9,0,31.7l35.8,35.8l35.8-35.8c8.7-8.7,8.7-22.9,0-31.7L1042.9,523.3z"
					/>
				<path class="st4" d="M1131.4,988.3h-53c-13.7,0-24.8-11.1-24.8-24.8v-53h53c13.7,0,24.8,11.1,24.8,24.8V988.3z M1055.9,912.9
					v50.6c0,12.3,10,22.4,22.4,22.4h50.6v-50.6c0-12.3-10-22.4-22.4-22.4H1055.9z"/>
				<path class="st4" d="M1106.5,885.3h-53v-53c0-13.7,11.1-24.8,24.8-24.8h53v53C1131.4,874.2,1120.2,885.3,1106.5,885.3
					 M1055.9,882.9h50.6c12.3,0,22.4-10,22.4-22.4v-50.6h-50.6c-12.3,0-22.4,10-22.4,22.4V882.9z"/>
				<path class="st4" d="M1005.2,988.3h-53v-53c0-13.7,11.1-24.8,24.8-24.8h53v53C1030,977.2,1018.8,988.3,1005.2,988.3
					 M954.5,985.9h50.6c12.3,0,22.4-10,22.4-22.4v-50.6h-50.6c-12.3,0-22.4,10-22.4,22.4V985.9z"/>
				<path class="st4" d="M1030,885.3h-53c-13.7,0-24.8-11.1-24.8-24.8v-53h53c13.7,0,24.8,11.1,24.8,24.8V885.3z M954.5,809.9v50.6
					c0,12.3,10,22.4,22.4,22.4h50.6v-50.6c0-12.3-10-22.4-22.4-22.4H954.5z"/>
				<path class="st4" d="M1041.2,1025.2l-37.5-37.5c-9.7-9.7-9.7-25.4,0-35.1l37.5-37.5l37.5,37.5c4.7,4.7,7.3,10.9,7.3,17.5
					c0,6.6-2.6,12.9-7.3,17.5L1041.2,1025.2z M1041.2,918.5l-35.8,35.8c-8.7,8.7-8.7,22.9,0,31.7l35.8,35.8l35.8-35.8
					c4.2-4.2,6.6-9.8,6.6-15.8c0-6-2.3-11.6-6.6-15.8L1041.2,918.5z"/>
				<path class="st4" d="M1114,942.1c-6.4,0-12.7-2.4-17.5-7.3l-37.5-37.5l37.5-37.5c9.7-9.7,25.4-9.7,35.1,0l37.5,37.5l-37.5,37.5
					C1126.7,939.7,1120.3,942.1,1114,942.1 M1062.4,897.3l35.8,35.8c8.7,8.7,22.9,8.7,31.7,0l35.8-35.8l-35.8-35.8
					c-8.7-8.7-22.9-8.7-31.7,0L1062.4,897.3z"/>
				<path class="st4" d="M969.5,943.2c-6.4,0-12.7-2.4-17.5-7.3l-37.5-37.5l37.5-37.5c4.7-4.7,10.9-7.3,17.5-7.3s12.9,2.6,17.5,7.3
					l37.5,37.5L987,936C982.2,940.8,975.8,943.2,969.5,943.2 M917.9,898.5l35.8,35.8c8.7,8.7,22.9,8.7,31.7,0l35.8-35.8l-35.8-35.8
					c-4.2-4.2-9.8-6.6-15.8-6.6c-6,0-11.6,2.3-15.8,6.6L917.9,898.5z"/>
				<path class="st4" d="M1042.3,880.7l-37.5-37.5c-9.7-9.7-9.7-25.4,0-35.1l37.5-37.5l37.5,37.5c9.7,9.7,9.7,25.4,0,35.1
					L1042.3,880.7z M1042.3,774l-35.8,35.8c-8.7,8.7-8.7,22.9,0,31.7l35.8,35.8l35.8-35.8c8.7-8.7,8.7-22.9,0-31.7L1042.3,774z"/>
				<path class="st4" d="M1133.8,235.8h-53c-13.7,0-24.8-11.1-24.8-24.8v-53h53c13.7,0,24.8,11.1,24.8,24.8V235.8z M1058.3,160.4
					V211c0,12.3,10,22.4,22.4,22.4h50.6v-50.6c0-12.3-10-22.4-22.4-22.4H1058.3z"/>
				<path class="st4" d="M1109,132.8h-53v-53c0-13.7,11.1-24.8,24.8-24.8h53v53C1133.8,121.7,1122.6,132.8,1109,132.8 M1058.3,130.4
					h50.6c12.3,0,22.4-10,22.4-22.4V57.4h-50.6c-12.3,0-22.4,10-22.4,22.4V130.4z"/>
				<path class="st4" d="M1007.6,235.8h-53v-53c0-13.7,11.1-24.8,24.8-24.8h53v53C1032.4,224.7,1021.3,235.8,1007.6,235.8
					 M957,233.4h50.6c12.3,0,22.4-10,22.4-22.4v-50.6h-50.6c-12.3,0-22.4,10-22.4,22.4V233.4z"/>
				<path class="st4" d="M1032.4,132.8h-53c-13.7,0-24.8-11.1-24.8-24.8V55h53c13.7,0,24.8,11.1,24.8,24.8V132.8z M957,57.4V108
					c0,12.3,10,22.4,22.4,22.4h50.6V79.8c0-12.3-10-22.4-22.4-22.4H957z"/>
				<path class="st4" d="M1043.6,272.7l-37.5-37.5c-4.7-4.7-7.3-10.9-7.3-17.5c0-6.6,2.6-12.9,7.3-17.5l37.5-37.5l37.5,37.5
					c9.7,9.7,9.7,25.4,0,35.1L1043.6,272.7z M1043.6,166.1l-35.8,35.8c-4.2,4.2-6.6,9.8-6.6,15.8c0,6,2.3,11.6,6.6,15.8l35.8,35.8
					l35.8-35.8c8.7-8.7,8.7-22.9,0-31.7L1043.6,166.1z"/>
				<path class="st4" d="M1116.4,189.6c-6.6,0-12.9-2.6-17.5-7.3l-37.5-37.5l37.5-37.5c9.7-9.7,25.4-9.7,35.1,0l37.5,37.5
					l-37.5,37.5C1129.3,187,1123,189.6,1116.4,189.6 M1064.8,144.8l35.8,35.8c4.2,4.2,9.8,6.6,15.8,6.6s11.6-2.3,15.8-6.6l35.8-35.8
					l-35.8-35.8c-8.7-8.7-22.9-8.7-31.7,0L1064.8,144.8z"/>
				<path class="st4" d="M971.9,190.8c-6.6,0-12.9-2.6-17.5-7.3L916.8,146l37.5-37.5c9.7-9.7,25.4-9.7,35.1,0l37.5,37.5l-37.5,37.5
					C984.8,188.2,978.5,190.8,971.9,190.8 M920.3,146l35.8,35.8c4.2,4.2,9.8,6.6,15.8,6.6c6,0,11.6-2.3,15.8-6.6l35.8-35.8
					l-35.8-35.8c-8.7-8.7-22.9-8.7-31.7,0L920.3,146z"/>
				<path class="st4" d="M1044.7,128.2l-37.5-37.5c-4.7-4.7-7.3-10.9-7.3-17.5c0-6.6,2.6-12.9,7.3-17.5l37.5-37.5l37.5,37.5
					c4.7,4.7,7.3,10.9,7.3,17.5c0,6.6-2.6,12.9-7.3,17.5L1044.7,128.2z M1044.7,21.5l-35.8,35.8c-4.2,4.2-6.6,9.8-6.6,15.8
					c0,6,2.3,11.6,6.6,15.8l35.8,35.8l35.8-35.8c4.2-4.2,6.6-9.8,6.6-15.8c0-6-2.3-11.6-6.6-15.8L1044.7,21.5z"/>
				<path class="st4" d="M1133.2,486.6h-53c-13.7,0-24.8-11.1-24.8-24.8v-53h53c13.7,0,24.8,11.1,24.8,24.8V486.6z M1057.7,411.2
					v50.6c0,12.3,10,22.4,22.4,22.4h50.6v-50.6c0-12.3-10-22.4-22.4-22.4H1057.7z"/>
				<path class="st4" d="M1108.4,383.6h-53v-53c0-13.7,11.1-24.8,24.8-24.8h53v53C1133.2,372.5,1122,383.6,1108.4,383.6
					 M1057.7,381.2h50.6c12.3,0,22.4-10,22.4-22.4v-50.6h-50.6c-12.3,0-22.4,10-22.4,22.4V381.2z"/>
				<path class="st4" d="M1007,486.6h-53v-53c0-13.7,11.1-24.8,24.8-24.8h53v53C1031.8,475.5,1020.7,486.6,1007,486.6 M956.4,484.2
					h50.6c12.3,0,22.4-10,22.4-22.4v-50.6h-50.6c-12.3,0-22.4,10-22.4,22.4V484.2z"/>
				<path class="st4" d="M1031.8,383.6h-53c-13.7,0-24.8-11.1-24.8-24.8v-53h53c13.7,0,24.8,11.1,24.8,24.8V383.6z M956.4,308.2
					v50.6c0,12.3,10,22.4,22.4,22.4h50.6v-50.6c0-12.3-10-22.4-22.4-22.4H956.4z"/>
				<path class="st4" d="M1043,523.5l-37.5-37.5c-4.7-4.7-7.3-10.9-7.3-17.5c0-6.6,2.6-12.9,7.3-17.5l37.5-37.5l37.5,37.5
					c9.7,9.7,9.7,25.4,0,35.1L1043,523.5z M1043,416.8l-35.8,35.8c-4.2,4.2-6.6,9.8-6.6,15.8c0,6,2.3,11.6,6.6,15.8L1043,520
					l35.8-35.8c8.7-8.7,8.7-22.9,0-31.7L1043,416.8z"/>
				<path class="st4" d="M1115.8,440.4c-6.6,0-12.9-2.6-17.5-7.3l-37.5-37.5l37.5-37.5c4.7-4.7,10.9-7.3,17.5-7.3
					c6.6,0,12.9,2.6,17.5,7.3l37.5,37.5l-37.5,37.5C1128.7,437.8,1122.4,440.4,1115.8,440.4 M1064.2,395.6l35.8,35.8
					c4.2,4.2,9.8,6.6,15.8,6.6s11.6-2.3,15.8-6.6l35.8-35.8l-35.8-35.8c-4.2-4.2-9.8-6.6-15.8-6.6s-11.6,2.3-15.8,6.6L1064.2,395.6z
					"/>
				<path class="st4" d="M971.3,441.5c-6.6,0-12.9-2.6-17.5-7.3l-37.5-37.5l37.5-37.5c9.7-9.7,25.4-9.7,35.1,0l37.5,37.5l-37.5,37.5
					C984.1,438.9,977.9,441.5,971.3,441.5 M919.7,396.7l35.8,35.8c4.2,4.2,9.8,6.6,15.8,6.6c6,0,11.6-2.3,15.8-6.6l35.8-35.8
					L987.1,361c-8.7-8.7-22.9-8.7-31.7,0L919.7,396.7z"/>
				<path class="st4" d="M1044.1,379l-37.5-37.5c-4.7-4.7-7.3-10.9-7.3-17.5c0-6.6,2.6-12.9,7.3-17.5l37.5-37.5l37.5,37.5
					c4.7,4.7,7.3,10.9,7.3,17.5c0,6.6-2.6,12.9-7.3,17.5L1044.1,379z M1044.1,272.3l-35.8,35.8c-4.2,4.2-6.6,9.8-6.6,15.8
					c0,6,2.3,11.6,6.6,15.8l35.8,35.8l35.8-35.8c4.2-4.2,6.6-9.8,6.6-15.8c0-6-2.3-11.6-6.6-15.8L1044.1,272.3z"/>
			</g>
		</g>
	</g>
</g>
</svg>
