<?xml version="1.0" encoding="UTF-8"?>
<svg id="Layer_1" data-name="Layer 1" xmlns="http://www.w3.org/2000/svg" version="1.1" xmlns:xlink="http://www.w3.org/1999/xlink" viewBox="0 0 287.6 112.25">
  <defs>
    <style>
      .cls-1 {
        fill: none;
      }

      .cls-1, .cls-2 {
        stroke-width: 0px;
      }

      .cls-3 {
        clip-path: url(#clippath);
      }

      .cls-2 {
        fill: #fff;
      }
    </style>
    <clipPath id="clippath">
      <rect class="cls-1" y="0" width="287.6" height="112.25"/>
    </clipPath>
  </defs>
  <g class="cls-3">
    <path class="cls-2" d="M161.69,19.8c0,.07.01.64.42.74,1.07.36,3.74,2.71,3.74,10.22v15.53c0,10.68-7.14,16.27-14.19,16.27-9.4,0-13.67-8.44-13.67-16.27v-26.7h-6.43v26.7c0,13.31,8.63,19.26,17.18,19.26,4.72,0,9.37-1.8,12.76-4.95,3.83-3.56,5.85-8.51,5.85-14.31v-26.7h-5.65v.23Z"/>
    <path class="cls-2" d="M250.68,45.88l9.65-19.08s5.07,10,9.67,19.08h-19.32ZM262.4,19.57l-23.29,45.93h6.77v-.23c0-.06-.01-.64-.42-.74-.45-.15-1.08-1.21-1.08-3.1,0-1.4.34-3.75,1.99-7.04l3.56-7.04c.15,0,.29.02.45.02h20.38c1.94,3.82,9.68,18.12,9.68,18.12h7.16l-23.81-45.93h-1.38Z"/>
    <path class="cls-2" d="M181.62,45.88l9.65-19.08s5.07,10,9.67,19.08h-19.32ZM218.54,65.5l-23.81-45.93h-1.39l-23.29,45.93h6.77v-.23c0-.07-.01-.64-.42-.74-.45-.15-1.08-1.21-1.08-3.1,0-1.4.35-3.75,1.99-7.04l3.56-7.04c.15,0,.29.02.45.02h20.38c1.94,3.81,9.68,18.12,9.68,18.12h7.16Z"/>
    <path class="cls-2" d="M218.84,72.56c10.01,0,15.9-6.97,15.9-18.01l.07-34.95h-9.7v.23c0,.07.01.64.42.74.39.13.99.76,1.6,1.86.91,1.65,1.33,4.01,1.33,5.9v26.6c0,5.26-.81,9.34-2.4,12.14-1.74,3.06-4.46,4.61-8.08,4.61h0c-.27,0-.56,0-.84-.03l-.4-.02.43.86h.13c.52.04,1.03.06,1.54.06h0Z"/>
    <path class="cls-2" d="M122.71,19.57h-36.89l-.62,1.87-1.48,4.5h.32c.09,0,.56-.02.67-.35.06-.04.16-.18.28-.34.05-.06.22-.29.22-.29.53-.69,1.4-1.61,3.36-2.38,0,0,2.42-.73,2.63-.77h0c2.01-.45,4.89-.74,9.19-.74h1.01v44.51h6.37V21.06h.94c3.78,0,6.56.29,8.62.74,4.36.93,5.54,2.53,6.21,3.45.12.16.22.3.28.34.11.33.58.35.67.35h.32l-2.1-6.37Z"/>
    <path class="cls-2" d="M106.41.77c-.45.45-.67,1.05-.67,1.82,0,1.28.57,2.49,1.72,3.64-1.22.7-2.78,1.34-4.69,1.92l1.05.57c.19.13.51.19.96.19.7,0,1.44-.19,2.2-.57.51-.25,1.21-.7,2.11-1.34.38.13.67.19.86.19.19.06.61.1,1.25.1l.86-1.72h-.96c-.32,0-.58-.03-.77-.1.32-.51.51-.89.58-1.15.06-.25.1-.64.1-1.15s-.06-.89-.19-1.15c-.26-.51-.48-.83-.67-.96-.19-.25-.54-.51-1.05-.76-.38-.19-.8-.29-1.25-.29-.57,0-1.05.26-1.44.76M107.65,4.31c-.38-.38-.57-.83-.57-1.34,0-.57.32-.86.96-.86.38,0,.8.13,1.25.38.32.19.64.48.96.86-.26.77-.7,1.34-1.34,1.72-.45-.13-.86-.38-1.24-.77"/>
    <path class="cls-2" d="M230.01,3.45c-1.92.96-3.26,1.66-4.02,2.11-.06.13-.16.38-.29.77-.13.51-.19.86-.19,1.05l4.5-2.2c2.17-.96,3.61-1.53,4.31-1.72l.67-1.91c-1.47.45-3.13,1.08-4.98,1.91"/>
    <path class="cls-2" d="M149.2,3.45c-1.92.96-3.26,1.66-4.02,2.11-.06.13-.16.38-.29.77-.13.51-.19.86-.19,1.05l4.5-2.2c2.17-.96,3.61-1.53,4.31-1.72l.67-1.91c-1.47.45-3.13,1.08-4.98,1.91"/>
    <path class="cls-2" d="M29.83,64.49l1.18-.74.41,1.33c.52,1.67,1.26,3.28,2.22,4.79.57-.62,1.09-1.27,1.54-1.93-.72-1.26-1.28-2.58-1.67-3.93-.18-.61-.32-1.26-.42-1.92-.19-1.19-.24-2.38-.15-3.56-.7.96-1.52,1.83-2.43,2.61-.51.44-1.04.84-1.57,1.19-1.73,1.15-3.68,1.99-5.79,2.51-1.6.39-3.29.59-5.02.59-3.86,0-7.95-.99-11.84-2.86l-.79-.38.22-.85c.71-2.71,1.74-5.22,3.07-7.46-.61-.48-1.21-1-1.79-1.54-1.77,2.82-2.9,5.19-3.66,7.66-.47,1.54-1.06,2.97-1.75,4.24,1.75.18,3.55.67,5.34,1.44,3.39,1.47,6.76,2.18,10.3,2.18,1.66,0,3.39-.16,5.15-.48,2.7-.49,5.2-1.46,7.44-2.87"/>
    <path class="cls-2" d="M29.76,32.1l-1.23-.65c-1.55-.81-3.22-1.43-4.97-1.82.04.84.13,1.67.28,2.46,1.41.38,2.74.92,3.97,1.6.56.31,1.12.67,1.66,1.06.97.7,1.86,1.51,2.64,2.41-.18-1.17-.23-2.36-.14-3.56.05-.67.14-1.32.27-1.95.41-2.03,1.18-4,2.31-5.85,2.77-4.56,7.58-8.21,13.53-10.28l.83-.29.44.76c1.42,2.42,2.47,4.92,3.12,7.44.78-.09,1.57-.15,2.36-.17-.75-3.24-1.63-5.71-2.85-7.99-.76-1.42-1.35-2.84-1.77-4.23-1.36,1.11-2.98,2.03-4.8,2.75-5.01,1.97-8.97,5.14-12.13,9.7-1.56,2.25-2.64,4.7-3.22,7.27l-.3,1.36Z"/>
    <path class="cls-2" d="M44.11,30.92l-1.18.74-.41-1.33c-.52-1.67-1.26-3.28-2.22-4.79-.57.62-1.09,1.27-1.54,1.93.72,1.26,1.28,2.58,1.67,3.93.17.61.32,1.26.42,1.92.19,1.19.24,2.38.15,3.56.7-.96,1.52-1.83,2.43-2.61.51-.44,1.04-.84,1.57-1.19,1.73-1.15,3.68-1.99,5.79-2.51,1.6-.39,3.29-.59,5.02-.59,3.86,0,7.95.99,11.84,2.86l.79.38-.22.85c-.71,2.72-1.74,5.22-3.07,7.46.61.48,1.21,1,1.79,1.54,1.77-2.82,2.9-5.19,3.66-7.66.47-1.54,1.06-2.96,1.75-4.24-1.75-.18-3.55-.67-5.34-1.44-3.39-1.47-6.76-2.18-10.3-2.18-1.66,0-3.39.16-5.15.48-2.7.49-5.2,1.46-7.44,2.87"/>
    <path class="cls-2" d="M71.13,55.79c-2.03-4.97-5.26-8.89-9.86-11.98-2.28-1.53-4.74-2.58-7.33-3.13l-1.36-.29.64-1.24c.8-1.55,1.39-3.22,1.77-4.97-.85.04-1.67.15-2.46.31-.37,1.4-.9,2.74-1.56,3.97-.31.56-.66,1.13-1.04,1.67-.7.98-1.5,1.87-2.39,2.65.83-.14,1.68-.21,2.53-.21.34,0,.69.01,1.04.03.67.04,1.33.13,1.96.25,2.04.38,4.02,1.14,5.9,2.24,4.6,2.72,8.32,7.47,10.46,13.38l.3.82-.75.45c-2.41,1.44-4.91,2.52-7.43,3.19.1.77.16,1.56.2,2.35,3.24-.78,5.72-1.69,7.99-2.93,1.42-.77,2.84-1.38,4.23-1.81-1.12-1.35-2.07-2.95-2.81-4.75"/>
    <path class="cls-2" d="M59.74,50.97c-.61-.58-1.25-1.11-1.91-1.58-1.28.69-2.62,1.23-3.98,1.59-.62.16-1.27.29-1.93.38-.71.1-1.44.15-2.15.15-.47,0-.95-.02-1.42-.07.94.72,1.81,1.55,2.57,2.47.42.51.82,1.05,1.16,1.59,1.12,1.75,1.93,3.7,2.4,5.82,1.17,5.2.24,11.15-2.61,16.76l-.4.78-.85-.24c-2.7-.76-5.2-1.84-7.42-3.21-.49.6-1.03,1.18-1.58,1.75,2.79,1.82,5.15,2.99,7.61,3.79,1.54.5,2.95,1.12,4.22,1.83.22-1.74.74-3.52,1.55-5.3,2.24-4.88,2.89-9.9,2-15.37-.44-2.7-1.36-5.21-2.73-7.47l-.72-1.19,1.34-.39c1.68-.49,3.31-1.2,4.85-2.12"/>
    <path class="cls-2" d="M44.18,63.32l1.23.65c1.55.81,3.22,1.42,4.97,1.82-.03-.84-.13-1.67-.28-2.46-1.41-.38-2.74-.92-3.97-1.6-.57-.32-1.12-.67-1.66-1.06-.98-.7-1.86-1.51-2.63-2.41.18,1.17.23,2.36.13,3.56-.05.66-.14,1.32-.27,1.95-.41,2.03-1.19,4-2.31,5.85-2.78,4.56-7.58,8.21-13.53,10.28l-.83.29-.44-.75c-1.42-2.42-2.47-4.92-3.12-7.44-.78.09-1.57.15-2.36.17.75,3.24,1.64,5.71,2.85,7.99.76,1.42,1.35,2.84,1.77,4.23,1.37-1.11,2.98-2.03,4.8-2.75,5.01-1.97,8.97-5.14,12.13-9.7,1.56-2.25,2.64-4.7,3.22-7.27l.31-1.36Z"/>
    <path class="cls-2" d="M12.67,51.61c2.28,1.53,4.74,2.58,7.33,3.13l1.36.29-.64,1.24c-.8,1.55-1.39,3.22-1.77,4.97.85-.04,1.67-.15,2.46-.31.37-1.41.89-2.74,1.56-3.98.31-.56.66-1.12,1.05-1.67.69-.98,1.5-1.87,2.39-2.65-.83.14-1.68.21-2.53.21-.34,0-.69-.01-1.04-.03-.67-.04-1.33-.13-1.96-.24-2.04-.38-4.03-1.14-5.89-2.24-4.6-2.72-8.32-7.47-10.46-13.38l-.3-.82.75-.45c2.41-1.44,4.91-2.52,7.43-3.19-.1-.77-.16-1.56-.2-2.35-3.24.78-5.71,1.69-7.99,2.93-1.42.77-2.84,1.38-4.22,1.81,1.12,1.35,2.07,2.95,2.81,4.75,2.03,4.97,5.26,8.89,9.86,11.98"/>
    <path class="cls-2" d="M14.2,44.45c.61.58,1.25,1.11,1.91,1.58,1.28-.69,2.62-1.23,3.98-1.59.62-.16,1.27-.29,1.93-.38.71-.1,1.44-.15,2.15-.15.47,0,.95.02,1.42.07-.94-.72-1.81-1.55-2.57-2.47-.42-.51-.82-1.05-1.16-1.59-1.12-1.75-1.93-3.7-2.4-5.82-1.17-5.2-.24-11.15,2.61-16.76l.4-.78.84.24c2.71.76,5.2,1.84,7.42,3.21.49-.6,1.03-1.18,1.58-1.75-2.79-1.82-5.15-2.99-7.61-3.79-1.54-.5-2.95-1.12-4.22-1.83-.22,1.74-.74,3.52-1.55,5.29-2.24,4.88-2.89,9.91-2,15.37.44,2.7,1.36,5.21,2.73,7.47l.73,1.19-1.34.39c-1.68.48-3.31,1.2-4.85,2.12"/>
    <path class="cls-2" d="M36.97,45.33c-1.31,0-2.38,1.07-2.38,2.38s1.07,2.38,2.38,2.38,2.38-1.07,2.38-2.38-1.07-2.38-2.38-2.38"/>
    <path class="cls-2" d="M101.28,90.21c0-1.66,0-1.96-.02-2.31-.02-.37-.11-.55-.47-.62-.09-.02-.27-.03-.43-.03-.12,0-.19-.02-.19-.1s.08-.1.24-.1c.58,0,1.26.03,1.57.03.45,0,1.08-.03,1.58-.03,1.36,0,1.85.46,2.03.62.24.23.55.72.55,1.3,0,1.55-1.13,2.64-2.68,2.64-.05,0-.17,0-.23-.01-.06-.01-.13-.02-.13-.1,0-.09.08-.12.31-.12.61,0,1.46-.69,1.46-1.8,0-.36-.03-1.09-.64-1.63-.39-.36-.84-.43-1.09-.43-.16,0-.33.01-.43.04-.05.02-.09.09-.09.21v4.36c0,1,0,1.86.06,2.33.03.31.1.55.43.59.15.02.39.04.56.04.12,0,.17.03.17.09,0,.08-.09.11-.21.11-.72,0-1.41-.03-1.69-.03-.25,0-.94.03-1.37.03-.14,0-.22-.03-.22-.11,0-.05.04-.09.17-.09.16,0,.29-.02.39-.04.22-.04.27-.28.32-.6.06-.46.06-1.32.06-2.32v-1.92Z"/>
    <path class="cls-2" d="M111.12,91.07c0,.12.02.16.1.2.23.08.56.11.83.11.44,0,.58-.04.77-.19.33-.24.64-.74.64-1.63,0-1.55-1.02-1.99-1.67-1.99-.27,0-.47.01-.58.04-.08.02-.1.07-.1.15v3.31ZM109.83,90.21c0-1.66,0-1.96-.02-2.31-.02-.37-.11-.55-.47-.62-.09-.02-.27-.03-.42-.03-.12,0-.19-.02-.19-.1s.08-.1.24-.1c.58,0,1.26.03,1.49.03.37,0,1.2-.03,1.54-.03.69,0,1.42.07,2,.47.31.21.74.76.74,1.49,0,.81-.34,1.55-1.44,2.44.97,1.22,1.72,2.19,2.36,2.87.61.63,1.06.71,1.22.74.12.02.22.03.31.03s.13.03.13.09c0,.09-.08.11-.21.11h-1.03c-.61,0-.88-.06-1.17-.21-.47-.25-.88-.76-1.49-1.6-.44-.6-.94-1.34-1.08-1.5-.05-.07-.12-.08-.2-.08l-.95-.02c-.05,0-.09.02-.09.09v.15c0,1.01,0,1.88.05,2.33.03.32.1.56.43.6.16.02.4.04.53.04.09,0,.13.03.13.09,0,.08-.08.11-.22.11-.63,0-1.44-.03-1.6-.03-.21,0-.89.03-1.33.03-.14,0-.22-.03-.22-.11,0-.05.04-.09.17-.09.16,0,.29-.02.39-.04.22-.04.27-.28.32-.6.06-.46.06-1.32.06-2.32v-1.92Z"/>
    <path class="cls-2" d="M119.48,90.21c0-1.66,0-1.96-.02-2.31-.02-.37-.11-.55-.47-.62-.09-.02-.27-.03-.42-.03-.12,0-.19-.02-.19-.1s.08-.1.24-.1c.29,0,.61.01.88.01.28.01.53.02.69.02.35,0,2.52,0,2.73-.01.21-.02.38-.04.47-.07.05,0,.12-.04.17-.04s.07.04.07.1c0,.08-.05.21-.09.71-.01.11-.03.59-.05.72-.01.05-.03.12-.11.12s-.1-.06-.1-.15c0-.08-.01-.26-.07-.39-.08-.2-.18-.33-.73-.39-.18-.02-1.33-.04-1.55-.04-.05,0-.08.03-.08.11v2.76c0,.08.01.12.08.12.24,0,1.49,0,1.74-.02.26-.02.43-.06.52-.16.08-.09.12-.14.18-.14.04,0,.08.02.08.09s-.04.24-.09.8c-.01.22-.04.65-.04.73,0,.09,0,.21-.1.21-.08,0-.1-.04-.1-.1-.01-.11-.01-.25-.04-.39-.05-.22-.21-.38-.61-.43-.21-.02-1.29-.03-1.55-.03-.05,0-.07.04-.07.11v.86c0,.37-.01,1.37,0,1.69.02.75.2.92,1.31.92.28,0,.74,0,1.02-.13.28-.13.41-.36.49-.81.02-.12.04-.16.12-.16.09,0,.09.09.09.2,0,.25-.09.99-.14,1.21-.08.28-.17.28-.59.28-.82,0-1.42-.02-1.89-.03-.47-.02-.81-.03-1.13-.03-.12,0-.36,0-.62.01-.25,0-.53.02-.75.02-.14,0-.22-.03-.22-.11,0-.05.04-.09.17-.09.16,0,.29-.02.39-.04.22-.04.27-.28.32-.6.06-.46.06-1.32.06-2.32v-1.92Z"/>
    <path class="cls-2" d="M128.19,87.09c.03-.18.1-.28.18-.28s.15.05.29.34l2.97,6.15,2.96-6.22c.09-.17.14-.26.24-.26s.16.11.2.34l.99,6.74c.1.69.21,1,.53,1.1.32.1.53.11.68.11.1,0,.17.01.17.08,0,.09-.13.12-.28.12-.27,0-1.78-.03-2.21-.07-.25-.02-.32-.06-.32-.12,0-.05.04-.09.12-.12.07-.02.1-.16.05-.47l-.65-4.8h-.04l-2.38,4.95c-.25.51-.3.61-.4.61s-.21-.22-.38-.55c-.26-.5-1.12-2.17-1.25-2.47-.1-.23-.75-1.6-1.13-2.42h-.04l-.57,4.34c-.02.2-.03.34-.03.51,0,.21.14.31.33.35.2.04.35.05.46.05.09,0,.16.02.16.08,0,.1-.1.12-.26.12-.46,0-.95-.03-1.14-.03-.21,0-.73.03-1.08.03-.11,0-.2-.02-.2-.12,0-.05.06-.08.17-.08.09,0,.16,0,.33-.03.31-.07.39-.49.45-.86l1.08-7.11Z"/>
    <path class="cls-2" d="M140.57,90.21c0-1.66,0-1.96-.02-2.31-.02-.37-.13-.56-.37-.61-.12-.03-.26-.04-.39-.04-.11,0-.17-.02-.17-.11,0-.07.09-.09.26-.09.41,0,1.1.03,1.42.03.27,0,.92-.03,1.33-.03.14,0,.23.02.23.09,0,.09-.07.11-.18.11s-.2.01-.33.03c-.29.05-.38.24-.4.62-.02.35-.02.65-.02,2.31v1.92c0,1.06,0,1.92.04,2.39.03.29.11.49.44.53.15.02.39.04.56.04.12,0,.17.03.17.09,0,.08-.09.11-.21.11-.72,0-1.41-.03-1.7-.03-.25,0-.94.03-1.37.03-.14,0-.22-.03-.22-.11,0-.05.04-.09.17-.09.16,0,.29-.02.39-.04.22-.04.28-.23.32-.55.06-.46.06-1.32.06-2.38v-1.92Z"/>
    <path class="cls-2" d="M146.45,90.21c0-1.66,0-1.96-.02-2.31-.02-.37-.11-.55-.47-.62-.09-.02-.27-.03-.43-.03-.12,0-.19-.02-.19-.1s.08-.1.24-.1c.58,0,1.26.03,1.59.03.26,0,.95-.03,1.34-.03.16,0,.24.02.24.1s-.07.1-.17.1c-.12,0-.18.01-.32.03-.29.05-.38.24-.4.62-.02.35-.02.65-.02,2.31v1.53c0,1.58.32,2.24.85,2.68.49.4.99.45,1.36.45.48,0,1.07-.15,1.5-.59.6-.6.63-1.58.63-2.7v-1.36c0-1.66,0-1.96-.02-2.31-.02-.37-.11-.55-.47-.62-.09-.02-.27-.03-.39-.03s-.19-.02-.19-.1.08-.1.23-.1c.56,0,1.24.03,1.25.03.13,0,.82-.03,1.24-.03.15,0,.23.02.23.1s-.07.1-.2.1c-.12,0-.19.01-.32.03-.29.05-.38.24-.4.62-.02.35-.02.65-.02,2.31v1.17c0,1.21-.12,2.5-1.04,3.28-.77.66-1.56.78-2.27.78-.58,0-1.62-.03-2.42-.75-.56-.5-.97-1.31-.97-2.89v-1.59Z"/>
    <path class="cls-2" d="M157.85,87.09c.03-.18.1-.28.18-.28s.15.05.29.34l2.97,6.15,2.96-6.22c.09-.17.14-.26.24-.26s.16.11.2.34l.99,6.74c.1.69.21,1,.53,1.1.32.1.53.11.68.11.1,0,.17.01.17.08,0,.09-.13.12-.28.12-.27,0-1.78-.03-2.21-.07-.25-.02-.32-.06-.32-.12,0-.05.04-.09.12-.12.07-.02.1-.16.05-.47l-.65-4.8h-.04l-2.38,4.95c-.25.51-.3.61-.4.61s-.21-.22-.38-.55c-.26-.5-1.12-2.17-1.25-2.47-.1-.23-.75-1.6-1.13-2.42h-.04l-.57,4.34c-.02.2-.03.34-.03.51,0,.21.14.31.33.35.2.04.35.05.46.05.09,0,.16.02.16.08,0,.1-.1.12-.26.12-.46,0-.95-.03-1.14-.03-.21,0-.73.03-1.08.03-.11,0-.2-.02-.2-.12,0-.05.07-.08.17-.08.09,0,.16,0,.33-.03.31-.07.39-.49.45-.86l1.08-7.11Z"/>
    <path class="cls-2" d="M176.29,92.13c0,1.05,0,1.86.05,2.32.03.32.1.56.43.6.15.02.39.04.54.04.14,0,.19.03.19.09,0,.08-.08.11-.24.11-.69,0-1.37-.03-1.66-.03s-.97.03-1.38.03c-.15,0-.23-.02-.23-.11,0-.05.04-.09.16-.09.16,0,.29-.02.39-.04.22-.04.27-.28.32-.6.06-.46.06-1.27.06-2.32v-1.92c0-1.66,0-1.96-.02-2.31-.02-.37-.11-.54-.47-.62-.09-.02-.27-.03-.42-.03-.11,0-.19-.02-.19-.09,0-.09.09-.11.25-.11.28,0,.6.01.88.01.28.01.53.02.69.02.41,0,2.63,0,2.88-.01.21-.01.34-.01.45-.04.06-.02.12-.07.17-.07.04,0,.08.04.08.1,0,.08-.05.21-.09.49,0,.11-.03.75-.05.88-.01.09-.03.15-.11.15s-.1-.05-.11-.17c0-.09,0-.26-.07-.41-.08-.15-.3-.32-.72-.33l-1.68-.03c-.07,0-.1.03-.1.15v2.72c0,.07.01.1.08.1h1.4c.19-.01.34-.01.49-.02.21-.01.36-.05.47-.2.05-.06.08-.11.14-.11.04,0,.07.03.07.1s-.05.34-.09.68c-.02.22-.04.72-.04.8,0,.1,0,.21-.11.21-.07,0-.09-.08-.09-.15s-.02-.21-.07-.34c-.05-.15-.22-.35-.56-.39-.27-.03-1.43-.03-1.61-.03-.05,0-.08.02-.08.1v.88Z"/>
    <path class="cls-2" d="M185.56,91.9c.06,0,.07-.03.06-.07l-.98-2.69s-.02-.1-.06-.1-.05.05-.07.1l-1,2.68s0,.08.04.08h2.01ZM183.33,92.44c-.06,0-.08.02-.1.09l-.59,1.56c-.11.27-.16.53-.16.66,0,.2.1.34.44.34h.16c.13,0,.16.02.16.09,0,.09-.07.11-.19.11-.35,0-.82-.03-1.15-.03-.12,0-.72.03-1.29.03-.14,0-.21-.02-.21-.11,0-.07.04-.09.13-.09.1,0,.25-.01.34-.02.5-.07.71-.44.93-.98l2.74-6.85c.13-.32.2-.44.31-.44.1,0,.16.1.27.35.26.6,2.01,5.05,2.7,6.7.41.98.73,1.13.96,1.19.16.03.33.04.46.04.09,0,.14.01.14.09,0,.09-.1.11-.5.11s-1.19,0-2.06-.02c-.2-.01-.33-.01-.33-.09,0-.07.04-.09.15-.1.08-.02.15-.12.1-.25l-.87-2.31c-.02-.05-.05-.08-.11-.08h-2.43Z"/>
    <path class="cls-2" d="M193.23,91.07c0,.12.02.16.1.2.23.08.56.11.83.11.44,0,.58-.04.77-.19.33-.24.64-.74.64-1.63,0-1.55-1.02-1.99-1.67-1.99-.27,0-.47.01-.58.04-.08.02-.1.07-.1.15v3.31ZM191.94,90.21c0-1.66,0-1.96-.02-2.31-.02-.37-.11-.55-.47-.62-.09-.02-.27-.03-.43-.03-.12,0-.19-.02-.19-.1s.08-.1.24-.1c.58,0,1.26.03,1.49.03.37,0,1.2-.03,1.54-.03.69,0,1.42.07,2.01.47.3.21.74.76.74,1.49,0,.81-.34,1.55-1.44,2.44.97,1.22,1.72,2.19,2.36,2.87.61.63,1.06.71,1.22.74.12.02.22.03.3.03s.13.03.13.09c0,.09-.08.11-.21.11h-1.03c-.61,0-.88-.06-1.17-.21-.47-.25-.88-.76-1.49-1.6-.44-.6-.94-1.34-1.08-1.5-.05-.07-.12-.08-.2-.08l-.95-.02c-.05,0-.09.02-.09.09v.15c0,1.01,0,1.88.05,2.33.03.32.1.56.43.6.16.02.4.04.53.04.09,0,.13.03.13.09,0,.08-.08.11-.22.11-.63,0-1.44-.03-1.6-.03-.21,0-.89.03-1.33.03-.14,0-.22-.03-.22-.11,0-.05.04-.09.17-.09.16,0,.29-.02.39-.04.22-.04.27-.28.32-.6.06-.46.06-1.32.06-2.32v-1.92Z"/>
    <path class="cls-2" d="M201.99,87.09c.03-.18.1-.28.18-.28s.15.05.29.34l2.97,6.15,2.96-6.22c.09-.17.14-.26.24-.26s.16.11.2.34l.99,6.74c.1.69.21,1,.53,1.1.32.1.53.11.68.11.1,0,.17.01.17.08,0,.09-.13.12-.28.12-.27,0-1.78-.03-2.21-.07-.25-.02-.32-.06-.32-.12,0-.05.04-.09.12-.12.07-.02.1-.16.05-.47l-.65-4.8h-.04l-2.38,4.95c-.25.51-.3.61-.4.61s-.21-.22-.38-.55c-.26-.5-1.12-2.17-1.25-2.47-.1-.23-.75-1.6-1.13-2.42h-.04l-.57,4.34c-.02.2-.03.34-.03.51,0,.21.14.31.33.35.2.04.35.05.46.05.09,0,.16.02.16.08,0,.1-.1.12-.26.12-.46,0-.95-.03-1.14-.03-.21,0-.73.03-1.08.03-.11,0-.2-.02-.2-.12,0-.05.07-.08.17-.08.09,0,.16,0,.33-.03.31-.07.39-.49.45-.86l1.08-7.11Z"/>
    <path class="cls-2" d="M220.35,91.07c0,.12.02.16.1.2.23.08.56.11.83.11.44,0,.58-.04.77-.19.33-.24.64-.74.64-1.63,0-1.55-1.02-1.99-1.67-1.99-.27,0-.47.01-.58.04-.08.02-.1.07-.1.15v3.31ZM219.06,90.21c0-1.66,0-1.96-.02-2.31-.02-.37-.11-.55-.47-.62-.09-.02-.27-.03-.43-.03-.12,0-.19-.02-.19-.1s.08-.1.24-.1c.58,0,1.26.03,1.49.03.37,0,1.2-.03,1.54-.03.69,0,1.42.07,2.01.47.3.21.74.76.74,1.49,0,.81-.34,1.55-1.44,2.44.97,1.22,1.72,2.19,2.36,2.87.61.63,1.06.71,1.22.74.12.02.22.03.3.03s.13.03.13.09c0,.09-.08.11-.21.11h-1.03c-.61,0-.88-.06-1.17-.21-.47-.25-.88-.76-1.49-1.6-.44-.6-.94-1.34-1.08-1.5-.05-.07-.12-.08-.2-.08l-.95-.02c-.05,0-.09.02-.09.09v.15c0,1.01,0,1.88.05,2.33.03.32.1.56.43.6.16.02.4.04.53.04.09,0,.13.03.13.09,0,.08-.08.11-.22.11-.63,0-1.44-.03-1.6-.03-.21,0-.89.03-1.33.03-.14,0-.22-.03-.22-.11,0-.05.04-.09.17-.09.16,0,.29-.02.39-.04.22-.04.27-.28.32-.6.06-.46.06-1.32.06-2.32v-1.92Z"/>
    <path class="cls-2" d="M228.71,90.21c0-1.66,0-1.96-.02-2.31-.02-.37-.11-.55-.47-.62-.09-.02-.27-.03-.43-.03-.12,0-.19-.02-.19-.1s.08-.1.24-.1c.29,0,.61.01.88.01.28.01.53.02.69.02.35,0,2.52,0,2.73-.01.21-.02.38-.04.47-.07.05,0,.12-.04.17-.04s.07.04.07.1c0,.08-.05.21-.09.71-.01.11-.03.59-.05.72-.01.05-.03.12-.11.12s-.1-.06-.1-.15c0-.08-.01-.26-.07-.39-.08-.2-.18-.33-.73-.39-.18-.02-1.33-.04-1.55-.04-.05,0-.08.03-.08.11v2.76c0,.08.01.12.08.12.24,0,1.49,0,1.74-.02.26-.02.43-.06.52-.16.08-.09.12-.14.18-.14.04,0,.08.02.08.09s-.04.24-.09.8c-.01.22-.04.65-.04.73,0,.09,0,.21-.1.21-.08,0-.1-.04-.1-.1-.01-.11-.01-.25-.04-.39-.05-.22-.21-.38-.61-.43-.21-.02-1.29-.03-1.55-.03-.05,0-.07.04-.07.11v.86c0,.37-.01,1.37,0,1.69.02.75.2.92,1.31.92.28,0,.74,0,1.02-.13.28-.13.41-.36.49-.81.02-.12.04-.16.12-.16.09,0,.09.09.09.2,0,.25-.09.99-.14,1.21-.08.28-.17.28-.59.28-.82,0-1.42-.02-1.89-.03-.47-.02-.81-.03-1.13-.03-.12,0-.36,0-.62.01-.25,0-.53.02-.75.02-.14,0-.22-.03-.22-.11,0-.05.04-.09.17-.09.16,0,.29-.02.39-.04.22-.04.27-.28.32-.6.06-.46.06-1.32.06-2.32v-1.92Z"/>
    <path class="cls-2" d="M236.42,95.15c-.18-.08-.21-.13-.21-.37,0-.6.04-1.25.05-1.43.01-.16.04-.28.13-.28.1,0,.11.1.11.19,0,.14.04.37.1.56.24.81.88,1.1,1.56,1.1.98,0,1.46-.66,1.46-1.24,0-.53-.16-1.04-1.07-1.74l-.5-.39c-1.2-.94-1.61-1.7-1.61-2.58,0-1.2,1-2.06,2.52-2.06.71,0,1.17.11,1.45.18.1.02.15.06.15.13,0,.14-.04.46-.04,1.31,0,.24-.03.33-.12.33-.08,0-.11-.07-.11-.2,0-.1-.05-.44-.28-.72-.16-.21-.48-.53-1.19-.53-.81,0-1.3.47-1.3,1.12,0,.5.25.88,1.15,1.57l.3.23c1.32.99,1.79,1.74,1.79,2.78,0,.63-.24,1.38-1.02,1.9-.54.35-1.15.45-1.73.45-.63,0-1.12-.08-1.59-.28"/>
    <path class="cls-2" d="M250.97,91.37c0-2.44-1.41-3.96-3.19-3.96-1.25,0-2.68.7-2.68,3.41,0,2.27,1.25,4.07,3.35,4.07.76,0,2.53-.37,2.53-3.52M243.59,91.17c0-1.86,1.23-4.27,4.5-4.27,2.71,0,4.4,1.58,4.4,4.08s-1.74,4.47-4.51,4.47c-3.13,0-4.39-2.34-4.39-4.27"/>
    <path class="cls-2" d="M257.47,91.07c0,.12.02.16.1.2.23.08.56.11.83.11.44,0,.58-.04.77-.19.33-.24.64-.74.64-1.63,0-1.55-1.02-1.99-1.67-1.99-.27,0-.47.01-.58.04-.08.02-.1.07-.1.15v3.31ZM256.19,90.21c0-1.66,0-1.96-.02-2.31-.02-.37-.11-.55-.47-.62-.09-.02-.27-.03-.43-.03-.12,0-.19-.02-.19-.1s.08-.1.24-.1c.58,0,1.26.03,1.49.03.37,0,1.2-.03,1.54-.03.69,0,1.42.07,2.01.47.3.21.74.76.74,1.49,0,.81-.34,1.55-1.44,2.44.97,1.22,1.72,2.19,2.36,2.87.61.63,1.06.71,1.22.74.12.02.22.03.3.03s.13.03.13.09c0,.09-.08.11-.21.11h-1.04c-.61,0-.88-.06-1.17-.21-.47-.25-.88-.76-1.49-1.6-.44-.6-.94-1.34-1.08-1.5-.05-.07-.12-.08-.2-.08l-.95-.02c-.05,0-.09.02-.09.09v.15c0,1.01,0,1.88.05,2.33.03.32.1.56.42.6.16.02.4.04.53.04.09,0,.13.03.13.09,0,.08-.08.11-.22.11-.63,0-1.44-.03-1.6-.03-.21,0-.89.03-1.33.03-.14,0-.22-.03-.22-.11,0-.05.04-.09.17-.09.16,0,.29-.02.39-.04.22-.04.27-.28.32-.6.06-.46.06-1.32.06-2.32v-1.92Z"/>
    <path class="cls-2" d="M266.87,87.66l-1.62.04c-.63.02-.89.08-1.06.32-.11.16-.16.3-.18.38-.02.09-.05.13-.12.13-.08,0-.1-.06-.1-.17,0-.18.21-1.17.23-1.25.03-.14.07-.21.13-.21.09,0,.2.11.47.13.32.03.73.05,1.09.05h4.32c.35,0,.59-.03.75-.05.16-.03.25-.05.29-.05.08,0,.09.06.09.23,0,.23-.03.98-.03,1.26-.01.11-.03.17-.1.17-.09,0-.11-.05-.12-.22v-.12c-.03-.28-.33-.59-1.3-.61l-1.37-.03v4.47c0,1,0,1.86.05,2.33.03.31.1.55.42.59.15.02.39.04.56.04.12,0,.17.03.17.09,0,.08-.09.11-.21.11-.72,0-1.41-.03-1.71-.03-.25,0-.94.03-1.37.03-.14,0-.22-.03-.22-.11,0-.06.04-.09.17-.09.16,0,.29-.02.39-.04.22-.04.28-.28.32-.6.05-.46.05-1.32.05-2.32v-4.47Z"/>
    <path class="cls-2" d="M164.18,108.23c.05,0,.06-.02.05-.06l-1.01-2.74s-.02-.1-.05-.1c-.04,0-.05.06-.06.1l-1.11,2.7s0,.07.04.07l2.14.03ZM161.8,108.79c-.06,0-.08.01-.1.07l-.61,1.43c-.12.26-.17.53-.17.65,0,.19.1.3.44.31h.16c.14,0,.16.06.16.12,0,.09-.06.11-.18.11-.36,0-.88-.05-1.23-.06-.11,0-.71.03-1.29.02-.14,0-.2-.03-.2-.12,0-.06.04-.11.13-.11.1,0,.23,0,.33,0,.51-.07.7-.39.94-.93l3-6.7c.13-.3.22-.43.33-.42.16,0,.21.1.32.34.26.6,2.04,5.01,2.72,6.65.41.98.73,1.12.93,1.16.16.03.29.04.42.04.1,0,.15.04.15.12,0,.09-.07.11-.48.11-.39,0-1.2-.02-2.13-.06-.2-.02-.33-.02-.33-.09,0-.06.03-.1.14-.11.08-.01.15-.11.1-.24l-.82-2.17c-.02-.06-.06-.08-.11-.08l-2.61-.04Z"/>
    <path class="cls-2" d="M170.78,108.51c-.02,1.37-.03,2.05.2,2.26.19.17.61.24,1.47.25.59,0,1.02,0,1.3-.28.14-.14.26-.44.29-.64.01-.1.04-.16.13-.16.08,0,.1.12.1.24,0,.12-.09.92-.18,1.23-.08.24-.13.29-.71.28-.79-.01-1.44-.03-1.99-.07-.55-.02-1.02-.04-1.47-.05-.13,0-.37,0-.63,0-.26,0-.54.02-.77.01-.14,0-.21-.04-.21-.12,0-.05.04-.11.18-.11.16,0,.29,0,.39-.03.23-.05.29-.25.34-.56.06-.45.07-1.3.08-2.28l.03-1.89c.03-1.63.03-1.93.02-2.27-.02-.37-.12-.48-.47-.59-.09-.03-.23-.04-.36-.04-.13,0-.19-.04-.19-.12,0-.07.08-.1.24-.1.52,0,1.22.04,1.52.05.26,0,1.17,0,1.6,0,.16,0,.24.03.24.11,0,.08-.07.11-.2.11-.13,0-.3,0-.43.03-.3.05-.39.19-.42.57-.03.34-.04.64-.06,2.27l-.03,1.89Z"/>
    <path class="cls-2" d="M182.88,108.52c.05,0,.06-.02.05-.06l-1.01-2.74s-.02-.1-.05-.1c-.04,0-.05.06-.06.1l-1.11,2.69s0,.08.04.08l2.14.03ZM180.5,109.07c-.06,0-.08.01-.1.07l-.61,1.43c-.12.26-.17.53-.17.65,0,.19.1.3.44.31h.16c.14,0,.16.06.16.12,0,.09-.06.11-.18.11-.36,0-.88-.05-1.23-.06-.11,0-.71.03-1.29.02-.14,0-.2-.03-.2-.12,0-.06.04-.11.13-.11.1,0,.23,0,.33,0,.51-.07.7-.39.94-.93l3-6.7c.13-.3.22-.43.33-.42.16,0,.21.1.32.35.26.6,2.04,5.01,2.72,6.65.41.98.73,1.12.93,1.16.16.03.29.04.42.04.1,0,.15.04.15.12,0,.09-.07.11-.48.11-.39,0-1.2-.02-2.13-.06-.2-.02-.33-.02-.33-.09,0-.06.03-.1.14-.11.08-.01.15-.11.1-.24l-.82-2.17c-.02-.06-.06-.08-.11-.08l-2.61-.04Z"/>
    <path class="cls-2" d="M193.76,107.36s.06-.01.06-.07v-.23c.03-1.63.02-2.02.01-2.36-.02-.37-.12-.48-.47-.59-.09-.03-.28-.04-.43-.04-.13,0-.19-.04-.19-.12,0-.08.08-.1.24-.1.59,0,1.37.05,1.66.05.26,0,1-.01,1.43,0,.16,0,.24.03.24.1,0,.08-.08.11-.2.11-.09,0-.19,0-.33.03-.29.05-.38.2-.41.57-.03.34-.04.64-.06,2.27l-.03,1.89c-.02.98-.03,1.83.01,2.29.03.3.09.5.43.56.15.03.39.04.57.05.11,0,.17.07.17.12,0,.08-.09.11-.23.11-.72-.01-1.45-.06-1.75-.06-.25,0-1.03.02-1.46.02-.15,0-.24-.04-.24-.12,0-.05.05-.11.18-.11.18,0,.3,0,.4-.03.23-.05.29-.25.34-.56.06-.45.07-1.27.09-2.26v-.82s-.02-.06-.05-.06l-4.18-.06s-.08.01-.08.06v.82c-.03.98-.03,1.8.02,2.27.03.3.09.51.42.56.15.03.4.04.57.05.13,0,.18.07.18.12,0,.08-.09.11-.23.11-.72-.01-1.49-.06-1.8-.07-.25,0-.98.02-1.42.02-.14,0-.21-.04-.21-.12,0-.05.04-.11.18-.11.16,0,.29,0,.39-.03.23-.05.29-.25.34-.56.06-.45.07-1.3.09-2.28l.03-1.89c.02-1.63.03-1.93.02-2.27-.02-.37-.12-.48-.47-.59-.09-.03-.28-.04-.44-.04-.11,0-.19-.04-.19-.12,0-.07.09-.1.24-.1.59,0,1.32.05,1.63.05.26,0,1.03-.01,1.47,0,.15,0,.23.03.23.1,0,.08-.06.11-.2.11-.09,0-.19.01-.32.03-.3.05-.39.19-.42.57-.03.34-.04.73-.06,2.36v.23c0,.06.03.08.07.08l4.18.06Z"/>
    <path class="cls-2" d="M198.27,111.9c-.18-.08-.21-.13-.21-.37,0-.58.07-1.25.09-1.42,0-.16.05-.28.14-.27.1,0,.11.1.11.18,0,.14.03.37.09.56.23.8,1.06,1.07,1.75,1.08.96.01,1.55-.58,1.56-1.34,0-.47-.1-.93-1.07-1.53l-.64-.39c-1.3-.79-1.72-1.51-1.7-2.46.02-1.31,1.29-2.14,2.83-2.11.72.01,1.28.12,1.57.2.1.03.15.06.15.14,0,.14-.04.44-.06,1.28,0,.23-.05.34-.14.34-.07,0-.11-.07-.11-.19,0-.1-.04-.43-.28-.71-.16-.2-.51-.51-1.23-.52-.79-.01-1.52.39-1.53,1.12,0,.48.16.86,1.15,1.43l.45.26c1.45.83,1.89,1.65,1.88,2.62-.01.79-.32,1.43-1.14,1.99-.54.37-1.27.42-1.86.41-.64,0-1.32-.08-1.8-.3"/>
    <path class="cls-2" d="M208.57,108.91c.05,0,.06-.02.05-.06l-1.01-2.74s-.02-.1-.05-.1c-.04,0-.05.06-.06.1l-1.11,2.69s0,.08.04.08l2.14.03ZM206.2,109.46c-.06,0-.08.01-.1.07l-.61,1.43c-.12.26-.17.53-.17.65,0,.19.1.3.44.31h.16c.14,0,.16.06.16.12,0,.09-.06.11-.18.11-.36,0-.88-.05-1.23-.06-.11,0-.71.03-1.29.02-.14,0-.2-.03-.2-.12,0-.06.04-.11.13-.11.1,0,.23,0,.33,0,.51-.07.7-.39.94-.93l3-6.7c.13-.3.22-.42.33-.42.16,0,.21.1.32.35.26.6,2.04,5.01,2.72,6.65.41.98.73,1.12.93,1.16.16.03.29.04.42.04.1,0,.15.04.15.12,0,.09-.07.11-.48.11-.39,0-1.2-.02-2.13-.06-.2-.02-.33-.02-.33-.09,0-.06.03-.1.14-.11.08-.01.15-.11.1-.24l-.82-2.17c-.02-.06-.06-.08-.11-.08l-2.61-.04Z"/>
  </g>
</svg>