<?xml version="1.0" encoding="UTF-8"?>
<svg id="Layer_1" data-name="Layer 1" xmlns="http://www.w3.org/2000/svg" version="1.1" xmlns:xlink="http://www.w3.org/1999/xlink" viewBox="0 0 984.55 255.89">
  <defs>
    <style>
      .cls-1 {
        clip-path: url(#clippath-2);
      }

      .cls-2 {
        clip-path: url(#clippath-1);
      }

      .cls-3 {
        clip-path: url(#clippath-4);
      }

      .cls-4, .cls-5 {
        fill: #fff;
      }

      .cls-6 {
        clip-path: url(#clippath);
      }

      .cls-7 {
        clip-path: url(#clippath-3);
      }

      .cls-5 {
        stroke-width: 0px;
      }

      .cls-8 {
        clip-path: url(#clippath-5);
      }
    </style>
    <clipPath id="clippath">
      <path class="cls-5" d="M61.11,39.97c-.72-.72-1.08-1.56-1.08-2.53,0-1.08.6-1.63,1.81-1.63.72,0,1.5.24,2.35.72.6.36,1.2.9,1.81,1.63-.48,1.45-1.33,2.53-2.53,3.25-.84-.24-1.63-.72-2.35-1.44M58.76,33.29c-.84.85-1.26,1.99-1.26,3.43,0,2.41,1.08,4.7,3.25,6.86-2.29,1.33-5.24,2.53-8.85,3.61l1.99,1.08c.36.24.96.36,1.81.36,1.32,0,2.71-.36,4.15-1.08.96-.48,2.29-1.32,3.97-2.53.72.24,1.26.36,1.63.36.36.12,1.14.18,2.35.18l1.62-3.25h-1.81c-.6,0-1.08-.06-1.45-.18.6-.96.96-1.69,1.08-2.17.12-.48.18-1.2.18-2.17s-.12-1.68-.36-2.17c-.48-.96-.9-1.56-1.26-1.81-.36-.48-1.02-.96-1.99-1.44-.72-.36-1.51-.54-2.35-.54-1.08,0-1.99.48-2.71,1.44"/>
    </clipPath>
    <clipPath id="clippath-1">
      <path class="cls-5" d="M928.27,39.97c-.72-.72-1.08-1.56-1.08-2.53,0-1.08.6-1.63,1.81-1.63.72,0,1.5.24,2.35.72.6.36,1.2.9,1.81,1.63-.48,1.45-1.33,2.53-2.53,3.25-.84-.24-1.62-.72-2.35-1.44M925.93,33.29c-.84.85-1.26,1.99-1.26,3.43,0,2.41,1.08,4.7,3.25,6.86-2.29,1.33-5.24,2.53-8.85,3.61l1.99,1.08c.36.24.96.36,1.81.36,1.32,0,2.71-.36,4.15-1.08.96-.48,2.29-1.32,3.97-2.53.72.24,1.26.36,1.63.36.36.12,1.14.18,2.35.18l1.63-3.25h-1.81c-.6,0-1.08-.06-1.44-.18.6-.96.96-1.69,1.08-2.17.12-.48.18-1.2.18-2.17s-.12-1.68-.36-2.17c-.48-.96-.9-1.56-1.26-1.81-.36-.48-1.02-.96-1.99-1.44-.72-.36-1.51-.54-2.35-.54-1.08,0-1.99.48-2.71,1.44"/>
    </clipPath>
    <clipPath id="clippath-2">
      <path class="cls-5" d="M291.81,38.34c-3.61,1.81-6.14,3.13-7.58,3.97-.12.24-.3.72-.54,1.44-.24.96-.36,1.63-.36,1.99l8.49-4.15c4.09-1.81,6.8-2.89,8.13-3.25l1.26-3.61c-2.77.84-5.9,2.05-9.39,3.61"/>
    </clipPath>
    <clipPath id="clippath-3">
      <path class="cls-5" d="M139.45,38.34c-3.61,1.81-6.14,3.13-7.58,3.97-.12.24-.3.72-.54,1.44-.24.96-.36,1.63-.36,1.99l8.49-4.15c4.09-1.81,6.8-2.89,8.13-3.25l1.26-3.61c-2.77.84-5.9,2.05-9.39,3.61"/>
    </clipPath>
    <clipPath id="clippath-4">
      <path class="cls-5" d="M757.34,38.34c-3.61,1.81-6.14,3.13-7.59,3.97-.12.24-.3.72-.54,1.44-.24.96-.36,1.63-.36,1.99l8.49-4.15c4.09-1.81,6.8-2.89,8.13-3.25l1.26-3.61c-2.77.84-5.9,2.05-9.39,3.61"/>
    </clipPath>
    <clipPath id="clippath-5">
      <path class="cls-5" d="M876.74,38.34c-3.61,1.81-6.14,3.13-7.59,3.97-.12.24-.3.72-.54,1.44-.24.96-.36,1.63-.36,1.99l8.49-4.15c4.09-1.81,6.8-2.89,8.13-3.25l1.26-3.61c-2.77.84-5.9,2.05-9.39,3.61"/>
    </clipPath>
  </defs>
  <g>
    <g>
      <path class="cls-5" d="M162.98,69.17c0,.12.02,1.2.78,1.39,2.01.67,7.05,5.11,7.05,19.26v29.27c0,20.14-13.46,30.68-26.76,30.68-17.71,0-25.78-15.9-25.78-30.68v-50.35h-12.13v50.35c0,25.09,16.27,36.32,32.4,36.32,8.91,0,17.68-3.4,24.06-9.33,7.22-6.71,11.04-16.04,11.04-26.98v-50.35h-10.66v.43Z"/>
      <path class="cls-5" d="M352.89,68.74l-43.92,86.6h12.77v-.43c0-.12-.02-1.2-.78-1.39-.85-.28-2.03-2.28-2.03-5.84,0-2.63.65-7.08,3.75-13.28l6.71-13.27c.28.02.56.04.84.04h38.43c3.65,7.19,18.25,34.17,18.25,34.17h13.5l-44.9-86.6h-2.61ZM330.79,118.34l18.2-35.98s9.55,18.86,18.23,35.98h-36.43Z"/>
    </g>
    <path class="cls-5" d="M270.18,155.34l-44.9-86.6h-2.61l-43.92,86.6h12.77v-.43c0-.12-.02-1.2-.78-1.39-.84-.28-2.03-2.28-2.03-5.84,0-2.63.65-7.08,3.75-13.28l6.71-13.27c.28.02.56.04.84.04h38.43c3.65,7.19,18.25,34.17,18.25,34.17h13.5ZM200.57,118.34l18.2-35.98s9.55,18.86,18.23,35.98h-36.43Z"/>
    <path class="cls-5" d="M270.76,168.66c18.87,0,29.97-13.15,29.97-33.95l.14-65.9h-18.28v.43c0,.12.02,1.2.78,1.39.73.25,1.87,1.43,3.01,3.51,1.71,3.12,2.5,7.57,2.5,11.13v50.16c0,9.92-1.52,17.62-4.52,22.89-3.28,5.77-8.41,8.7-15.23,8.7h0c-.52,0-1.05-.02-1.59-.05l-.74-.05.81,1.63.25.02c.98.06,1.95.1,2.9.1h0Z"/>
    <path class="cls-5" d="M89.51,68.74H19.96l-1.16,3.52-2.8,8.49h.6c.17,0,1.06-.03,1.27-.66.1-.07.3-.33.52-.63.09-.12.42-.56.42-.56,1-1.3,2.64-3.03,6.34-4.49,0,0,4.57-1.37,4.96-1.46h0c3.79-.86,9.22-1.39,17.33-1.39h1.9v83.92h12.01v-83.92h1.77c7.13,0,12.37.55,16.26,1.39,8.21,1.76,10.44,4.77,11.71,6.5.22.3.42.57.52.63.21.63,1.09.66,1.27.66h.6l-3.96-12.01Z"/>
  </g>
  <path class="cls-5" d="M940.24,90.23c4.13,0,7.26-3.27,7.26-7.26s-3.13-7.26-7.26-7.26h0c-4.41,0-7.26,3.13-7.26,7.26s2.85,7.26,7.26,7.26"/>
  <path class="cls-5" d="M960.74,75.71h0c-4.13,0-7.26,3.13-7.26,7.26s3.13,7.26,7.26,7.26,7.25-3.27,7.26-7.25v-.02c0-4.12-2.99-7.25-7.26-7.25"/>
  <g>
    <polygon class="cls-5" points="500.35 78.97 500.35 78.97 500.35 78.97 500.35 78.97"/>
    <path class="cls-5" d="M546.37,110.34c2.61-4.3,4.62-9.14,6-14.41l.3-1.13-1.05-.51c-7.26-3.5-14.89-5.35-22.08-5.35-3.22,0-6.36.37-9.33,1.09-3.91.96-7.52,2.53-10.73,4.66-.98.65-1.96,1.4-2.91,2.21-2.31,1.98-4.28,4.29-5.84,6.85.47-2.97.47-6,0-9-.19-1.23-.46-2.43-.78-3.57-.75-2.62-1.85-5.18-3.28-7.63,1.05-1.59,2.3-3.13,3.7-4.59h0s0,0,0,0h0c2.03,3.09,3.59,6.41,4.66,9.85l.55,1.77,1.57-.99c4.28-2.71,9.07-4.57,14.24-5.52,3.36-.61,6.66-.92,9.83-.92,6.77,0,13.2,1.36,19.67,4.17,3.64,1.58,7.27,2.51,10.8,2.76-1.48,2.58-2.71,5.5-3.69,8.71-1.49,4.89-3.76,9.61-7.34,15.25-1.37-1.32-2.8-2.56-4.26-3.7ZM509.64,153.16l-1.65-.87-.41,1.82c-1.11,4.94-3.18,9.65-6.17,13.97-6.02,8.72-13.59,14.79-23.15,18.57-3.7,1.46-6.92,3.38-9.59,5.69-.78-2.87-1.97-5.81-3.54-8.77-2.4-4.52-4.13-9.45-5.59-15.97,1.9-.03,3.79-.17,5.63-.4,1.2,4.88,3.2,9.74,5.95,14.43l.59,1.01,1.11-.39c11.1-3.88,20.06-10.7,25.22-19.21,2.09-3.44,3.53-7.11,4.29-10.89.23-1.17.4-2.39.49-3.62.23-3.03,0-6.05-.72-8.97,1.76,2.43,3.91,4.57,6.37,6.36,1,.72,2.03,1.38,3.07,1.97,2.38,1.32,4.97,2.36,7.71,3.07.38,1.87.6,3.84.63,5.86h0c-3.62-.76-7.07-1.99-10.26-3.66ZM429.98,144.94c1.49-4.89,3.76-9.61,7.35-15.25,1.37,1.32,2.8,2.56,4.26,3.7-2.61,4.3-4.63,9.15-6,14.41l-.3,1.13,1.05.51c7.26,3.5,14.89,5.35,22.08,5.35,3.22,0,6.36-.37,9.33-1.09,3.91-.96,7.52-2.53,10.73-4.66.98-.66,1.96-1.4,2.91-2.21,2.32-1.99,4.28-4.29,5.84-6.85-.47,2.97-.47,6,0,9,.19,1.23.46,2.43.78,3.57.75,2.62,1.85,5.19,3.28,7.62h0c-1.05,1.59-2.3,3.14-3.7,4.59-2.03-3.09-3.59-6.41-4.66-9.84l-.55-1.78-1.57.99c-4.28,2.71-9.07,4.57-14.24,5.52-3.36.61-6.66.92-9.83.92h0c-6.77,0-13.2-1.36-19.67-4.17-3.64-1.58-7.28-2.51-10.8-2.77,1.47-2.58,2.71-5.5,3.69-8.7ZM522.82,60.16c2.4,4.51,4.13,9.45,5.59,15.97-1.9.03-3.79.17-5.63.4-1.2-4.88-3.2-9.74-5.95-14.43l-.59-1.01-1.11.39c-11.1,3.88-20.06,10.7-25.22,19.21-2.09,3.44-3.53,7.11-4.29,10.88-.23,1.16-.4,2.38-.49,3.62-.23,3.04,0,6.05.72,8.97-1.77-2.43-3.91-4.57-6.37-6.36-1-.73-2.03-1.39-3.07-1.97-2.38-1.32-4.97-2.35-7.71-3.07-.38-1.87-.6-3.84-.64-5.86,3.62.76,7.07,1.99,10.26,3.67l1.64.87.41-1.82c1.11-4.94,3.18-9.65,6.17-13.97,6.02-8.72,13.59-14.79,23.15-18.57,3.69-1.46,6.92-3.37,9.59-5.69.78,2.87,1.97,5.81,3.55,8.77ZM471.02,58.37c4.86,1.59,9.53,3.95,15.1,7.64-1.35,1.35-2.62,2.75-3.78,4.19-4.25-2.69-9.05-4.8-14.29-6.28l-1.13-.32-.53,1.04c-5.32,10.49-7.05,21.61-4.87,31.33.88,3.93,2.38,7.57,4.45,10.82.64.99,1.36,1.99,2.15,2.95,1.94,2.35,4.2,4.36,6.73,5.97-1.65-.3-3.34-.45-5.02-.45-1.32,0-2.66.09-3.98.27-1.23.17-2.43.41-3.58.71-2.63.7-5.22,1.75-7.69,3.13-1.57-1.08-3.09-2.36-4.52-3.79,3.14-1.97,6.48-3.47,9.94-4.47l1.79-.52-.97-1.59c-2.63-4.33-4.39-9.16-5.23-14.35-1.7-10.46-.45-20.08,3.82-29.43,1.65-3.61,2.65-7.23,2.97-10.74,2.55,1.52,5.45,2.82,8.63,3.86ZM431.93,93.62c4.49-2.45,9.41-4.24,15.91-5.77.06,1.9.21,3.79.46,5.63-4.87,1.25-9.71,3.31-14.36,6.11l-1,.6.4,1.1c4,11.06,10.92,19.94,19.48,25.01,3.47,2.05,7.14,3.45,10.93,4.17,1.17.22,2.38.38,3.62.46.64.04,1.28.06,1.92.06,2.38,0,4.75-.3,7.04-.88-2.41,1.79-4.53,3.96-6.29,6.44-.72,1.01-1.37,2.05-1.93,3.09-1.3,2.4-2.3,5-2.99,7.74-1.86.4-3.83.64-5.86.7.72-3.63,1.91-7.1,3.55-10.3l.85-1.66-1.82-.39c-4.96-1.05-9.68-3.07-14.04-6.01-8.78-5.93-14.94-13.43-18.82-22.94-1.5-3.68-3.45-6.88-5.79-9.53,2.86-.81,5.79-2.04,8.73-3.64ZM516.94,185.36c-4.86-1.59-9.53-3.95-15.1-7.64,1.35-1.35,2.62-2.75,3.78-4.19,4.25,2.69,9.06,4.8,14.29,6.28l1.13.32.53-1.05c5.32-10.49,7.05-21.61,4.87-31.32-.88-3.93-2.38-7.57-4.45-10.82-.64-1-1.36-1.99-2.15-2.95-1.94-2.35-4.2-4.36-6.74-5.97,1.65.29,3.34.45,5.02.45,1.32,0,2.66-.09,3.98-.28,1.23-.17,2.44-.41,3.58-.71,2.63-.7,5.22-1.75,7.69-3.13,1.57,1.08,3.09,2.36,4.52,3.79-3.14,1.96-6.48,3.47-9.94,4.47l-1.79.52.97,1.59c2.63,4.33,4.39,9.16,5.23,14.35,1.7,10.46.45,20.08-3.82,29.43-1.65,3.61-2.65,7.22-2.98,10.74-2.54-1.52-5.45-2.82-8.63-3.86ZM564.76,146.47c-2.86.81-5.79,2.03-8.73,3.64-4.49,2.46-9.41,4.24-15.91,5.77-.06-1.9-.21-3.79-.46-5.63,4.87-1.25,9.7-3.31,14.36-6.11l1-.6-.4-1.1c-4-11.06-10.92-19.94-19.48-25.01-3.47-2.05-7.14-3.45-10.93-4.17-1.17-.22-2.38-.37-3.62-.45-.64-.05-1.28-.07-1.92-.07-2.38,0-4.75.3-7.04.88,2.41-1.79,4.53-3.96,6.29-6.44.71-1.01,1.36-2.05,1.93-3.1,1.3-2.4,2.3-5,2.99-7.74,1.86-.4,3.83-.64,5.85-.7-.72,3.63-1.91,7.09-3.55,10.3l-.85,1.65,1.82.39c4.96,1.05,9.68,3.08,14.04,6.02,8.78,5.92,14.94,13.43,18.82,22.94,1.5,3.68,3.45,6.88,5.79,9.53h0Z"/>
    <path class="cls-5" d="M486.54,75.65c-2.99,4.33-5.06,9.03-6.17,13.97l-.41,1.82-1.64-.87c-3.19-1.68-6.64-2.91-10.26-3.67.04,2.03.25,3.99.64,5.86,2.74.72,5.33,1.75,7.71,3.07,1.04.58,2.07,1.24,3.07,1.97,2.46,1.79,4.61,3.93,6.37,6.36-.71-2.92-.95-5.94-.72-8.97.1-1.24.26-2.46.49-3.62.76-3.77,2.2-7.44,4.29-10.88,5.16-8.51,14.12-15.33,25.22-19.21l1.11-.39.59,1.01c2.75,4.69,4.75,9.55,5.95,14.43,1.84-.23,3.73-.37,5.63-.4-1.46-6.52-3.19-11.46-5.59-15.97-1.57-2.95-2.77-5.9-3.55-8.77-2.67,2.31-5.9,4.23-9.59,5.69-9.56,3.78-17.13,9.85-23.15,18.57Z"/>
    <path class="cls-5" d="M561.67,90.09c-3.52-.25-7.15-1.18-10.8-2.76-6.47-2.8-12.9-4.17-19.67-4.17-3.17,0-6.47.31-9.83.92-5.17.95-9.96,2.8-14.24,5.52l-1.57.99-.55-1.77c-1.07-3.44-2.63-6.75-4.66-9.85h0c-1.4,1.46-2.64,3-3.7,4.59,1.43,2.44,2.53,5.01,3.28,7.63.32,1.14.59,2.34.78,3.57.48,3,.48,6.03,0,9,1.56-2.57,3.53-4.87,5.84-6.85.95-.81,1.92-1.56,2.91-2.21,3.21-2.14,6.81-3.71,10.73-4.66,2.97-.72,6.11-1.09,9.33-1.09,7.19,0,14.82,1.85,22.08,5.35l1.05.51-.3,1.13c-1.38,5.26-3.39,10.11-6,14.41,1.46,1.14,2.9,2.38,4.26,3.7,3.58-5.64,5.85-10.36,7.34-15.25.98-3.2,2.22-6.13,3.69-8.71Z"/>
    <path class="cls-5" d="M540.15,114c-4.36-2.94-9.08-4.96-14.04-6.02l-1.82-.39.85-1.65c1.64-3.2,2.84-6.67,3.55-10.3-2.02.06-3.99.29-5.85.7-.69,2.74-1.7,5.35-2.99,7.74-.57,1.05-1.22,2.09-1.93,3.1-1.76,2.48-3.88,4.65-6.29,6.44,2.29-.58,4.66-.88,7.04-.88.64,0,1.28.02,1.92.07,1.24.08,2.46.23,3.62.45,3.79.72,7.46,2.12,10.93,4.17,8.56,5.07,15.48,13.95,19.48,25.01l.4,1.1-1,.6c-4.66,2.8-9.49,4.86-14.36,6.11.25,1.84.41,3.72.46,5.63,6.5-1.53,11.43-3.31,15.91-5.77,2.94-1.61,5.87-2.83,8.73-3.64h0c-2.34-2.65-4.29-5.85-5.79-9.53-3.88-9.52-10.04-17.02-18.82-22.94Z"/>
    <path class="cls-5" d="M532.36,149.06c-.84-5.19-2.6-10.02-5.23-14.35l-.97-1.59,1.79-.52c3.46-1,6.8-2.5,9.94-4.47-1.43-1.43-2.95-2.7-4.52-3.79-2.47,1.38-5.06,2.43-7.69,3.13-1.14.3-2.35.54-3.58.71-1.32.18-2.66.28-3.98.28-1.68,0-3.37-.15-5.02-.45,2.53,1.61,4.8,3.62,6.74,5.97.79.96,1.51,1.95,2.15,2.95,2.07,3.25,3.57,6.89,4.45,10.82,2.17,9.71.44,20.84-4.87,31.32l-.53,1.05-1.13-.32c-5.23-1.47-10.04-3.59-14.29-6.28-1.17,1.44-2.43,2.84-3.78,4.19,5.58,3.69,10.25,6.05,15.1,7.64,3.18,1.04,6.09,2.34,8.63,3.86.32-3.52,1.32-7.13,2.98-10.74,4.27-9.35,5.52-18.97,3.82-29.43Z"/>
    <path class="cls-5" d="M519.9,156.83c-.04-2.02-.25-3.99-.63-5.86-2.74-.72-5.33-1.75-7.71-3.07-1.04-.58-2.08-1.24-3.07-1.97-2.46-1.79-4.61-3.92-6.37-6.36.71,2.92.95,5.94.72,8.97-.09,1.23-.26,2.45-.49,3.62-.76,3.78-2.2,7.44-4.29,10.89-5.16,8.51-14.12,15.33-25.22,19.21l-1.11.39-.59-1.01c-2.76-4.69-4.76-9.55-5.95-14.43-1.84.23-3.73.37-5.63.4,1.46,6.52,3.19,11.46,5.59,15.97,1.57,2.95,2.76,5.9,3.54,8.77,2.67-2.31,5.9-4.22,9.59-5.69,9.56-3.77,17.13-9.85,23.15-18.57,2.98-4.33,5.06-9.03,6.17-13.97l.41-1.82,1.65.87c3.19,1.68,6.63,2.91,10.26,3.67h0Z"/>
    <path class="cls-5" d="M456.75,160.57h0c3.17,0,6.47-.31,9.83-.92,5.17-.95,9.96-2.8,14.24-5.52l1.57-.99.55,1.78c1.07,3.44,2.63,6.75,4.66,9.84,1.4-1.45,2.64-3,3.7-4.59h0c-1.43-2.44-2.53-5.01-3.28-7.63-.33-1.14-.59-2.34-.78-3.57-.48-3.01-.48-6.03,0-9-1.56,2.56-3.52,4.87-5.84,6.85-.95.81-1.92,1.55-2.91,2.21-3.21,2.14-6.82,3.71-10.73,4.66-2.97.72-6.11,1.09-9.33,1.09-7.19,0-14.82-1.85-22.08-5.35l-1.05-.51.3-1.13c1.37-5.26,3.39-10.11,6-14.41-1.46-1.14-2.89-2.38-4.26-3.7-3.58,5.64-5.85,10.36-7.35,15.25-.98,3.2-2.22,6.13-3.69,8.7,3.52.25,7.15,1.18,10.8,2.77,6.47,2.8,12.9,4.17,19.67,4.17Z"/>
    <path class="cls-5" d="M447.81,129.74c4.36,2.94,9.08,4.96,14.04,6.01l1.82.39-.85,1.66c-1.64,3.2-2.84,6.67-3.55,10.3,2.02-.06,3.99-.3,5.86-.7.69-2.74,1.69-5.35,2.99-7.74.56-1.04,1.22-2.08,1.93-3.09,1.76-2.49,3.88-4.65,6.29-6.44-2.29.59-4.66.88-7.04.88-.64,0-1.28-.02-1.92-.06-1.24-.08-2.46-.23-3.62-.46-3.78-.71-7.46-2.11-10.93-4.17-8.56-5.07-15.48-13.95-19.48-25.01l-.4-1.1,1-.6c4.66-2.8,9.49-4.85,14.36-6.11-.25-1.84-.41-3.73-.46-5.63-6.5,1.53-11.42,3.32-15.91,5.77-2.94,1.6-5.87,2.83-8.73,3.64,2.34,2.64,4.29,5.85,5.79,9.53,3.88,9.52,10.04,17.02,18.82,22.94Z"/>
    <path class="cls-5" d="M455.59,94.67c.84,5.19,2.61,10.01,5.23,14.35l.97,1.59-1.79.52c-3.46,1-6.8,2.5-9.94,4.47,1.43,1.43,2.95,2.7,4.52,3.79,2.47-1.38,5.06-2.43,7.69-3.13,1.14-.3,2.34-.54,3.58-.71,1.32-.18,2.66-.27,3.98-.27,1.68,0,3.37.15,5.02.45-2.53-1.61-4.8-3.62-6.73-5.97-.79-.96-1.51-1.95-2.15-2.95-2.07-3.25-3.57-6.89-4.45-10.82-2.17-9.71-.44-20.84,4.87-31.33l.53-1.04,1.13.32c5.23,1.48,10.04,3.59,14.29,6.28,1.16-1.44,2.43-2.84,3.78-4.19-5.58-3.69-10.24-6.05-15.1-7.64-3.18-1.04-6.09-2.34-8.63-3.86-.32,3.52-1.32,7.13-2.97,10.74-4.27,9.34-5.52,18.97-3.82,29.43Z"/>
  </g>
  <g>
    <path class="cls-4" d="M61.11,39.97c-.72-.72-1.08-1.56-1.08-2.53,0-1.08.6-1.63,1.81-1.63.72,0,1.5.24,2.35.72.6.36,1.2.9,1.81,1.63-.48,1.45-1.33,2.53-2.53,3.25-.84-.24-1.63-.72-2.35-1.44M58.76,33.29c-.84.85-1.26,1.99-1.26,3.43,0,2.41,1.08,4.7,3.25,6.86-2.29,1.33-5.24,2.53-8.85,3.61l1.99,1.08c.36.24.96.36,1.81.36,1.32,0,2.71-.36,4.15-1.08.96-.48,2.29-1.32,3.97-2.53.72.24,1.26.36,1.63.36.36.12,1.14.18,2.35.18l1.62-3.25h-1.81c-.6,0-1.08-.06-1.45-.18.6-.96.96-1.69,1.08-2.17.12-.48.18-1.2.18-2.17s-.12-1.68-.36-2.17c-.48-.96-.9-1.56-1.26-1.81-.36-.48-1.02-.96-1.99-1.44-.72-.36-1.51-.54-2.35-.54-1.08,0-1.99.48-2.71,1.44"/>
    <g class="cls-6">
      <rect class="cls-5" x="51.9" y="31.84" width="17.52" height="16.79"/>
    </g>
  </g>
  <g>
    <path class="cls-4" d="M928.27,39.97c-.72-.72-1.08-1.56-1.08-2.53,0-1.08.6-1.63,1.81-1.63.72,0,1.5.24,2.35.72.6.36,1.2.9,1.81,1.63-.48,1.45-1.33,2.53-2.53,3.25-.84-.24-1.62-.72-2.35-1.44M925.93,33.29c-.84.85-1.26,1.99-1.26,3.43,0,2.41,1.08,4.7,3.25,6.86-2.29,1.33-5.24,2.53-8.85,3.61l1.99,1.08c.36.24.96.36,1.81.36,1.32,0,2.71-.36,4.15-1.08.96-.48,2.29-1.32,3.97-2.53.72.24,1.26.36,1.63.36.36.12,1.14.18,2.35.18l1.63-3.25h-1.81c-.6,0-1.08-.06-1.44-.18.6-.96.96-1.69,1.08-2.17.12-.48.18-1.2.18-2.17s-.12-1.68-.36-2.17c-.48-.96-.9-1.56-1.26-1.81-.36-.48-1.02-.96-1.99-1.44-.72-.36-1.51-.54-2.35-.54-1.08,0-1.99.48-2.71,1.44"/>
    <g class="cls-2">
      <rect class="cls-5" x="919.06" y="31.84" width="17.52" height="16.79"/>
    </g>
  </g>
  <g>
    <path class="cls-4" d="M291.81,38.34c-3.61,1.81-6.14,3.13-7.58,3.97-.12.24-.3.72-.54,1.44-.24.96-.36,1.63-.36,1.99l8.49-4.15c4.09-1.81,6.8-2.89,8.13-3.25l1.26-3.61c-2.77.84-5.9,2.05-9.39,3.61"/>
    <g class="cls-1">
      <rect class="cls-5" x="283.32" y="34.73" width="17.88" height="11.01"/>
    </g>
  </g>
  <g>
    <path class="cls-4" d="M139.45,38.34c-3.61,1.81-6.14,3.13-7.58,3.97-.12.24-.3.72-.54,1.44-.24.96-.36,1.63-.36,1.99l8.49-4.15c4.09-1.81,6.8-2.89,8.13-3.25l1.26-3.61c-2.77.84-5.9,2.05-9.39,3.61"/>
    <g class="cls-7">
      <rect class="cls-5" x="130.96" y="34.73" width="17.88" height="11.01"/>
    </g>
  </g>
  <g>
    <path class="cls-4" d="M757.34,38.34c-3.61,1.81-6.14,3.13-7.59,3.97-.12.24-.3.72-.54,1.44-.24.96-.36,1.63-.36,1.99l8.49-4.15c4.09-1.81,6.8-2.89,8.13-3.25l1.26-3.61c-2.77.84-5.9,2.05-9.39,3.61"/>
    <g class="cls-3">
      <rect class="cls-5" x="748.85" y="34.73" width="17.88" height="11.01"/>
    </g>
  </g>
  <g>
    <path class="cls-4" d="M876.74,38.34c-3.61,1.81-6.14,3.13-7.59,3.97-.12.24-.3.72-.54,1.44-.24.96-.36,1.63-.36,1.99l8.49-4.15c4.09-1.81,6.8-2.89,8.13-3.25l1.26-3.61c-2.77.84-5.9,2.05-9.39,3.61"/>
    <g class="cls-8">
      <rect class="cls-5" x="868.25" y="34.73" width="17.88" height="11.01"/>
    </g>
  </g>
  <g>
    <path class="cls-5" d="M599.43,203.51c-.43-.56-1.06-1.04-1.89-1.41-.7-.33-1.59-.49-2.65-.49-.92,0-1.83.17-2.73.5-.9.5-1.58.99-2,1.45-.56.61-.98,1.36-1.25,2.21-.32.78-.49,1.74-.49,2.84,0,1,.14,1.93.41,2.75.28.84.7,1.59,1.27,2.24.5.51,1.18.95,2.01,1.32.7.33,1.61.49,2.72.49h6.14v-6.94c0-.95-.11-1.9-.34-2.81-.28-.87-.68-1.6-1.19-2.16ZM598.21,208.75v4.65h-3.19c-.66,0-1.23-.14-1.72-.42-.46-.29-.85-.67-1.18-1.12-.25-.37-.46-.9-.63-1.57-.13-.64-.19-1.3-.19-1.94,0-.6.07-1.26.2-1.98.04-.62.21-1.21.51-1.77.25-.53.6-.96,1.03-1.28.53-.33,1.13-.49,1.79-.49.53,0,.95.08,1.26.23.41.25.7.47.85.66.21.29.43.64.63,1.01.17.42.3.86.39,1.3.13.51.19.99.2,1.44.04.25.06.69.06,1.29Z"/>
    <path class="cls-5" d="M637.38,203.53l-.02-.03c-.37-.42-.78-.75-1.21-.99-.52-.29-1.14-.45-1.84-.5-.66-.05-1.35.03-2.04.21-.69.24-1.31.53-1.84.88-.29.15-.85.59-1.7,1.35-.56.74-.93,1.27-1.14,1.62l-.2.31.93.27.08.02.11-.17c.46-.71,1.08-1.32,1.85-1.79.63-.42,1.29-.67,1.97-.76.56-.12,1.11-.08,1.63.12.48.2.84.46,1.07.75.08.13.22.46.43,1.27,0,.27.01.61.03,1,.02.45.03.79.03,1.05v5.25h-22.8c-.49,0-1.03-.15-1.61-.44-.51-.24-.95-.53-1.31-.87v-3.44l.17-.52s.08-.14.34-.51c.1-.06.23-.16.39-.3.21-.18.33-.29.43-.4l.07-.07v-.57l-3.5-1.36-.04-.02-.61.24v10.92c0,.96-.02,1.58-.07,1.82-.09.5-.29,1.02-.36,1.21-.01.04-.02.07-.03.08-.12.4-.3.75-.55,1.03-.26.3-.58.62-.95.96-.16.12-.69.43-1.57.91l-.19.11.27.96.28-.09c.55-.19,1.26-.45,2.17-.82.46-.23.97-.53,1.52-.9.51-.42.89-.82,1.11-1.19.38-.52.62-1.02.71-1.47.14-.42.25-1.02.34-1.79.04-.47.07-1.22.07-2.22v-.97c.13.16.16.2.17.21.28.38.52.63.73.79.29.2.59.38.93.56h.04c.46.1.81.15,1.05.15h25.55v-8.8c0-.65-.07-1.21-.21-1.66-.1-.39-.33-.86-.7-1.42Z"/>
    <path class="cls-5" d="M664,203.51c-.43-.56-1.07-1.04-1.89-1.4-.7-.33-1.61-.49-2.72-.49-.87,0-1.76.16-2.66.49-.92.46-1.61.95-2.08,1.46-.56.6-.98,1.35-1.26,2.23-.27.82-.41,1.77-.41,2.82,0,1.97.51,3.58,1.51,4.79h-8.35v-15.44s.01-.19.11-.47c.04-.07.09-.16.17-.25.08-.11.15-.2.2-.3.06-.05.26-.2.83-.64l.09-.07v-.59l-3.5-1.36-.04-.02-.61.24v20.92h22.13v-6.94c0-1.05-.14-1.99-.4-2.79-.19-.84-.57-1.57-1.12-2.18ZM655.87,208.35c0-.59.07-1.25.2-1.96.08-.64.26-1.24.51-1.79.25-.53.6-.97,1.04-1.29.44-.32,1.03-.48,1.77-.48.48,0,.89.08,1.21.24.41.2.71.42.9.65.21.29.42.63.63,1.01.17.43.3.87.39,1.29.04.18.09.42.13.71.05.32.07.55.07.74.04.25.06.69.06,1.29v4.65h-3.19c-.74,0-1.34-.14-1.77-.42-.42-.29-.79-.67-1.13-1.12-.25-.37-.46-.9-.63-1.57-.13-.65-.19-1.31-.19-1.94Z"/>
    <path class="cls-5" d="M695.03,201.92l-.61.24v11.17h-12.18c-.44,0-1.05-.04-1.83-.13-.66-.08-1.2-.27-1.61-.56-.5-.33-.89-.75-1.18-1.23-.29-.53-.43-1.28-.43-2.2,0-.42.02-.74.07-.96.08-.48.15-.88.18-1.07l.4-1.01c.12-.36.25-.61.4-.76l.23-.23-.94-.67-.17.19c-.64.73-1.17,1.54-1.57,2.39-.42.88-.63,1.86-.63,2.92,0,.79.12,1.49.35,2.1.18.46.45.96.78,1.48l.03.03c.65.56,1.05.87,1.26.97.5.23.96.41,1.41.56l1.46.2c.32.05.79.07,1.44.07h15.26v-9.07c0-.08.01-.21.03-.37.03-.22.03-.31.03-.37,0-.06.02-.2.11-.5.06-.16.73-.88,1.15-1.13l.13-.08v-.61l-3.51-1.33-.1-.04Z"/>
    <path class="cls-5" d="M778.95,206.59c-.28-.79-.7-1.48-1.27-2.04-.56-.56-1.24-.98-2.01-1.25-.7-.33-1.59-.49-2.65-.49-.96,0-1.87.14-2.7.42-.79.32-1.44.75-1.96,1.26-.47.47-.87,1.11-1.2,1.91-.23.69-.35,1.57-.35,2.62v4.39h-3.25c-.49,0-1.03-.13-1.61-.37-.39-.19-.81-.51-1.25-.93v-5.74c0-.33.02-.54.06-.68v-.05c0-.06.02-.2.12-.5.07-.18.17-.31.33-.44l.03-.03c.12-.16.37-.38.76-.69l.09-.07v-.59l-3.5-1.36-.04-.02-.61.24v11.24h-5.25c-.49,0-1.03-.13-1.61-.37-.39-.19-.81-.51-1.25-.93v-5.74c0-.33.02-.54.06-.68v-.05c0-.06.02-.2.12-.5.07-.18.17-.31.33-.44l.03-.03c.12-.16.38-.39.77-.69l.09-.07v-.59l-3.5-1.36-.04-.02-.61.24v11.24h-5.52c-.49,0-1.03-.13-1.61-.37-.39-.19-.81-.51-1.25-.93v-5.48c0-.64-.07-1.21-.21-1.67-.1-.39-.34-.87-.72-1.44-.43-.52-.86-.87-1.27-1-.39-.24-.99-.41-1.79-.5-.65-.04-1.34.03-2.04.21-.69.23-1.31.53-1.84.89-.61.33-1.15.77-1.6,1.31-.55.55-.97,1.11-1.25,1.67l-.14.29.81.27.07.02.12-.15c.69-.82,1.34-1.43,1.94-1.81.63-.42,1.27-.67,1.9-.76.61-.12,1.19-.08,1.7.12.48.2.84.46,1.07.75l.02.04c.12.2.37.6.45,1.15.08.52.05,1.14.03,1.63,0,.19-.01.36-.01.5v5.25h-13.29l-1.43-1.06c.37-.29.71-.58,1-.87.46-.46.81-.91,1.05-1.33.28-.51.48-.99.61-1.44.19-.52.28-1.09.28-1.69,0-.88-.17-1.65-.5-2.27-.37-.65-.82-1.21-1.35-1.69-.68-.45-1.35-.8-2.01-1.03-1.55-.43-3.07-.46-4.52-.07-.56.09-1.24.33-2.02.7-.82.45-1.4.81-1.78,1.1-.55.46-1.06.97-1.51,1.52l-.06.07.07,1.2v.11s7.15,5.28,7.15,5.28c-.79.39-1.74.74-2.8,1.03-1.44.31-2.74.46-3.87.46h-6.32v-15.44s.01-.18.11-.48c.03-.07.09-.15.17-.25.08-.1.15-.2.2-.3.1-.08.38-.29.83-.63l.09-.07v-.59l-3.5-1.36-.04-.02-.61.24v20.92h9.87c.38,0,1-.04,1.9-.13.68-.09,1.36-.23,2.04-.41.79-.22,1.52-.44,2.16-.67.79-.32,1.4-.61,1.82-.86l2.73,2.03.06.04h16.22v-1.62c.04.05.08.09.11.12.24.28.5.54.78.78.39.29.69.47.97.58.37.09.71.14,1,.14h8.27v-1.62c.05.06.09.1.13.14l.76.76c.41.3.7.48.98.58.46.09.79.14.99.14h8v-1.62c.05.06.09.1.13.14l.76.76c.39.29.7.48.98.58.46.09.79.14.99.14h6.14v-1.76c.09.1.18.2.26.28.37.37.64.62.85.78.49.29.82.47,1.09.57.46.09.81.14,1.05.14,2.11,0,3.7-.52,4.72-1.54,1.12-1.03,1.69-2.62,1.69-4.74,0-.92-.14-1.78-.42-2.56ZM771.74,204.35h.02c.4-.21.81-.32,1.21-.32h.13c.48,0,.88.1,1.23.32.14.05.54.29.86.67.32.38.53.88.58,1.05.17.38.3.77.38,1.13,0,.05.02.11.04.2.04.17.1.39.14.68.05.33.08.81.08.94,0,.29-.04.81-.13,1.61-.17.68-.34,1.14-.49,1.38-.05.09-.12.17-.19.26-.53.64-1.3,1.04-2.1,1.11-.16.02-.34.02-.54.02-.02,0-.15,0-.87-.13-.52-.13-.82-.21-.9-.26-.33-.12-.62-.27-.86-.43-.26-.19-.48-.37-.62-.5v-2.94s0-.78.16-1.59c.08-.42.25-.9.35-1.19.02-.07.05-.13.06-.16.02-.04.04-.1.07-.17.1-.25.26-.65.51-.97.3-.38.73-.63.87-.72ZM721.46,207.02c0,.79-.19,1.5-.56,2.12-.36.59-.88,1.19-1.57,1.79l-6.89-5.05c.36-.62.83-1.15,1.4-1.57.54-.42,1.17-.69,1.88-.82.73-.12,1.41-.12,2.04,0,.63.08,1.27.32,1.9.7.53.29.97.7,1.31,1.25.32.44.48.97.48,1.57Z"/>
    <path class="cls-5" d="M592.84,198.67c.96,0,1.74-.78,1.74-1.74s-.78-1.74-1.74-1.74-1.74.78-1.74,1.74.78,1.74,1.74,1.74Z"/>
    <path class="cls-5" d="M596.97,198.67c.96,0,1.74-.78,1.74-1.74s-.78-1.74-1.74-1.74-1.74.78-1.74,1.74.78,1.74,1.74,1.74Z"/>
    <path class="cls-5" d="M684.85,199.47c.96,0,1.74-.78,1.74-1.74s-.78-1.74-1.74-1.74-1.74.78-1.74,1.74.78,1.74,1.74,1.74Z"/>
    <path class="cls-5" d="M688.98,199.47c.96,0,1.74-.78,1.74-1.74s-.78-1.74-1.74-1.74-1.74.78-1.74,1.74.78,1.74,1.74,1.74Z"/>
    <path class="cls-5" d="M659.38,198.62c.96,0,1.74-.78,1.74-1.74s-.78-1.74-1.74-1.74-1.74.78-1.74,1.74.78,1.74,1.74,1.74Z"/>
    <path class="cls-5" d="M633.08,199.76c.96,0,1.74-.78,1.74-1.74s-.78-1.74-1.74-1.74-1.74.78-1.74,1.74.78,1.74,1.74,1.74Z"/>
    <path class="cls-5" d="M733.66,217.85c-.96,0-1.74.78-1.74,1.74s.78,1.74,1.74,1.74,1.74-.78,1.74-1.74-.78-1.74-1.74-1.74Z"/>
    <path class="cls-5" d="M746.18,199.45c.96,0,1.74-.78,1.74-1.74s-.78-1.74-1.74-1.74-1.74.78-1.74,1.74.78,1.74,1.74,1.74Z"/>
    <path class="cls-5" d="M750.31,199.45c.96,0,1.74-.78,1.74-1.74s-.78-1.74-1.74-1.74-1.74.78-1.74,1.74.78,1.74,1.74,1.74Z"/>
    <path class="cls-5" d="M760.23,199.45c.96,0,1.74-.78,1.74-1.74s-.78-1.74-1.74-1.74-1.74.78-1.74,1.74.78,1.74,1.74,1.74Z"/>
  </g>
  <g>
    <path class="cls-5" d="M151.85,206.55c0,3.26,0,5.02.54,5.48.43.38,1.1.56,3.08.56,1.35,0,2.34-.02,2.98-.71.31-.33.61-1.04.66-1.53.03-.23.08-.38.28-.38.18,0,.2.13.2.43,0,.28-.18,2.19-.38,2.93-.15.56-.28.69-1.61.69-1.83,0-3.16-.05-4.31-.08-1.15-.05-2.06-.08-3.11-.08-.28,0-.84,0-1.45.03-.59,0-1.25.05-1.76.05-.33,0-.51-.08-.51-.25,0-.13.1-.2.41-.2.38,0,.69-.05.92-.1.51-.1.64-.66.74-1.4.13-1.07.13-3.08.13-5.43v-4.48c0-3.87,0-4.59-.05-5.4-.05-.87-.25-1.28-1.1-1.45-.2-.05-.51-.08-.84-.08-.28,0-.43-.05-.43-.23s.18-.23.56-.23c1.2,0,2.8.08,3.49.08.61,0,2.47-.08,3.47-.08.36,0,.54.05.54.23s-.15.23-.46.23c-.28,0-.69.02-.99.08-.69.13-.89.56-.94,1.45-.05.82-.05,1.53-.05,5.4v4.48Z"/>
    <path class="cls-5" d="M163.49,202.07c0-3.87,0-4.59-.05-5.4-.05-.87-.25-1.28-1.1-1.45-.2-.05-.64-.08-.99-.08-.28,0-.43-.05-.43-.23s.18-.23.56-.23c1.35,0,2.96.08,3.72.08.61,0,2.22-.08,3.13-.08.38,0,.56.05.56.23s-.15.23-.41.23c-.28,0-.43.02-.74.08-.69.13-.89.56-.94,1.45-.05.82-.05,1.53-.05,5.4v3.57c0,3.69.74,5.25,1.99,6.27,1.15.94,2.32,1.05,3.18,1.05,1.12,0,2.5-.36,3.52-1.38,1.4-1.4,1.48-3.69,1.48-6.32v-3.18c0-3.87,0-4.59-.05-5.4-.05-.87-.25-1.28-1.1-1.45-.2-.05-.64-.08-.92-.08s-.43-.05-.43-.23.18-.23.54-.23c1.3,0,2.9.08,2.93.08.31,0,1.91-.08,2.9-.08.36,0,.54.05.54.23s-.15.23-.46.23c-.28,0-.43.02-.74.08-.69.13-.89.56-.94,1.45-.05.82-.05,1.53-.05,5.4v2.73c0,2.83-.28,5.84-2.42,7.67-1.81,1.55-3.64,1.83-5.3,1.83-1.35,0-3.8-.08-5.66-1.76-1.3-1.17-2.27-3.06-2.27-6.75v-3.72Z"/>
    <path class="cls-5" d="M193.63,203.29c.82,1.25,4.94,8.15,5.58,8.97.43.56.82.87,1.48,1.07.43.13.74.15.97.15.18,0,.33.05.33.2,0,.18-.2.25-.48.25h-.76c-.61,0-2.62,0-4.59-.05-.66-.03-.87-.08-.87-.26,0-.15.13-.23.36-.28.13-.03.23-.25.05-.59-1.4-2.5-2.85-5.02-4.03-6.93l-3.77,6.09c-.25.41-.38.79-.36,1.07.03.23.25.38.48.43.15.03.38.05.59.05.15,0,.31.08.31.23,0,.18-.18.23-.51.23h-.46c-.15,0-1.76-.08-2.39-.08-.48,0-1.73.08-2.14.08h-.43c-.25,0-.38-.08-.38-.23s.15-.23.36-.23c.18,0,.56-.03.94-.13.74-.2,1.22-.69,2.09-1.91l4.87-6.96-4.38-7.26c-.61-1.02-1.22-1.63-2.11-1.91-.41-.13-.82-.18-1.07-.18-.15,0-.25-.08-.25-.26,0-.15.18-.2.51-.2.61,0,2.68.08,3.87.08.36,0,1.78-.08,2.73-.08.36,0,.51.05.51.23s-.15.23-.38.23c-.15,0-.48.02-.69.1-.23.08-.31.25-.31.41s.1.46.25.74c1.1,2.04,2.24,3.9,3.24,5.63.74-1.12,3.08-4.66,3.47-5.38.2-.36.28-.76.28-.97,0-.18-.18-.38-.43-.46s-.61-.08-.82-.08c-.15,0-.31-.05-.31-.23,0-.15.18-.23.54-.23.99,0,2.06.08,2.55.08.51,0,1.55-.08,2.5-.08.28,0,.46.08.46.23s-.15.23-.41.23-.56.05-.92.15c-.59.15-1.1.87-1.86,1.99l-4.18,6.01Z"/>
    <path class="cls-5" d="M205.37,202.07c0-3.87,0-4.59-.05-5.4-.05-.87-.25-1.28-1.1-1.45-.2-.05-.64-.08-.99-.08-.28,0-.43-.05-.43-.23s.18-.23.56-.23c1.35,0,2.96.08,3.72.08.61,0,2.22-.08,3.13-.08.38,0,.56.05.56.23s-.15.23-.41.23c-.28,0-.43.02-.74.08-.69.13-.89.56-.94,1.45-.05.82-.05,1.53-.05,5.4v3.57c0,3.69.74,5.25,1.99,6.27,1.15.94,2.32,1.05,3.18,1.05,1.12,0,2.5-.36,3.52-1.38,1.4-1.4,1.48-3.69,1.48-6.32v-3.18c0-3.87,0-4.59-.05-5.4-.05-.87-.25-1.28-1.1-1.45-.2-.05-.64-.08-.92-.08s-.43-.05-.43-.23.18-.23.54-.23c1.3,0,2.9.08,2.93.08.31,0,1.91-.08,2.9-.08.36,0,.54.05.54.23s-.15.23-.46.23c-.28,0-.43.02-.74.08-.69.13-.89.56-.94,1.45-.05.82-.05,1.53-.05,5.4v2.73c0,2.83-.28,5.84-2.42,7.67-1.81,1.55-3.64,1.83-5.3,1.83-1.35,0-3.8-.08-5.66-1.76-1.3-1.17-2.27-3.06-2.27-6.75v-3.72Z"/>
    <path class="cls-5" d="M229.18,202.07c0-3.87,0-4.59-.05-5.4-.05-.87-.25-1.28-1.1-1.45-.2-.05-.64-.08-.99-.08-.28,0-.43-.05-.43-.23s.18-.23.56-.23c1.35,0,2.96.08,3.49.08.87,0,2.8-.08,3.59-.08,1.61,0,3.31.15,4.69,1.1.71.48,1.73,1.78,1.73,3.49,0,1.89-.79,3.62-3.36,5.71,2.27,2.85,4.03,5.12,5.53,6.7,1.43,1.48,2.47,1.66,2.85,1.73.28.05.51.08.71.08s.31.08.31.2c0,.2-.18.25-.48.25h-2.42c-1.43,0-2.06-.13-2.73-.48-1.1-.59-2.06-1.78-3.49-3.74-1.02-1.4-2.19-3.13-2.52-3.52-.13-.15-.28-.18-.46-.18l-2.22-.05c-.13,0-.2.05-.2.2v.36c0,2.37,0,4.38.13,5.45.08.74.23,1.3.99,1.4.38.05.94.1,1.25.1.2,0,.31.08.31.2,0,.18-.18.25-.51.25-1.48,0-3.36-.08-3.75-.08-.48,0-2.09.08-3.11.08-.33,0-.51-.08-.51-.25,0-.13.1-.2.41-.2.38,0,.69-.05.92-.1.51-.1.64-.66.74-1.4.13-1.07.13-3.08.13-5.43v-4.48ZM232.19,204.08c0,.28.05.38.23.46.54.18,1.3.25,1.94.25,1.02,0,1.35-.1,1.81-.43.76-.56,1.5-1.73,1.5-3.82,0-3.62-2.39-4.66-3.9-4.66-.64,0-1.1.02-1.35.1-.18.05-.23.15-.23.36v7.75Z"/>
    <path class="cls-5" d="M251.77,207.34c0-1.38-.25-1.94-.59-2.68-.18-.41-3.59-6.01-4.48-7.34-.64-.94-1.27-1.58-1.76-1.86-.33-.18-.76-.33-1.07-.33-.2,0-.38-.05-.38-.23,0-.15.18-.23.48-.23.46,0,2.37.08,3.21.08.54,0,1.58-.08,2.73-.08.25,0,.38.08.38.23s-.18.18-.56.28c-.23.05-.36.26-.36.46s.13.51.31.87c.36.77,3.92,6.91,4.33,7.62.25-.61,3.47-6.22,3.82-7.01.25-.56.36-.99.36-1.32,0-.25-.1-.53-.54-.64-.23-.05-.46-.1-.46-.25,0-.18.13-.23.43-.23.84,0,1.66.08,2.39.08.56,0,2.24-.08,2.73-.08.28,0,.46.05.46.2,0,.18-.2.26-.48.26-.25,0-.74.1-1.12.31-.54.25-.82.56-1.38,1.25-.84,1.02-4.41,7.01-4.87,8.1-.38.92-.38,1.71-.38,2.55v2.09c0,.41,0,1.48.08,2.55.05.74.28,1.3,1.04,1.4.36.05.92.1,1.27.1.28,0,.41.08.41.2,0,.18-.2.25-.54.25-1.61,0-3.21-.08-3.9-.08-.64,0-2.24.08-3.18.08-.36,0-.56-.05-.56-.25,0-.13.13-.2.41-.2.36,0,.66-.05.89-.1.51-.1.74-.66.79-1.4.08-1.07.08-2.14.08-2.55v-2.09Z"/>
    <path class="cls-5" d="M275.66,202.07c0-3.87,0-4.59-.05-5.4-.05-.87-.25-1.28-1.1-1.45-.2-.05-.64-.08-.99-.08-.28,0-.43-.05-.43-.23s.18-.23.56-.23c1.35,0,2.96.08,3.49.08.87,0,2.8-.08,3.59-.08,1.61,0,3.31.15,4.69,1.1.71.48,1.73,1.78,1.73,3.49,0,1.89-.79,3.62-3.36,5.71,2.27,2.85,4.03,5.12,5.53,6.7,1.43,1.48,2.47,1.66,2.85,1.73.28.05.51.08.71.08s.31.08.31.2c0,.2-.18.25-.48.25h-2.42c-1.43,0-2.06-.13-2.73-.48-1.1-.59-2.06-1.78-3.49-3.74-1.02-1.4-2.19-3.13-2.52-3.52-.13-.15-.28-.18-.46-.18l-2.22-.05c-.13,0-.2.05-.2.2v.36c0,2.37,0,4.38.13,5.45.08.74.23,1.3.99,1.4.38.05.94.1,1.25.1.2,0,.31.08.31.2,0,.18-.18.25-.51.25-1.48,0-3.36-.08-3.75-.08-.48,0-2.09.08-3.11.08-.33,0-.51-.08-.51-.25,0-.13.1-.2.41-.2.38,0,.69-.05.92-.1.51-.1.64-.66.74-1.4.13-1.07.13-3.08.13-5.43v-4.48ZM278.67,204.08c0,.28.05.38.23.46.54.18,1.3.25,1.94.25,1.02,0,1.35-.1,1.81-.43.76-.56,1.5-1.73,1.5-3.82,0-3.62-2.39-4.66-3.9-4.66-.64,0-1.1.02-1.35.1-.18.05-.23.15-.23.36v7.75Z"/>
    <path class="cls-5" d="M295.91,202.07c0-3.87,0-4.59-.05-5.4-.05-.87-.25-1.28-1.1-1.45-.2-.05-.64-.08-.99-.08-.28,0-.43-.05-.43-.23s.18-.23.56-.23c.69,0,1.43.03,2.06.03.66.03,1.25.05,1.61.05.82,0,5.89,0,6.37-.02.48-.05.89-.1,1.1-.15.13-.02.28-.1.41-.1s.15.1.15.23c0,.18-.13.48-.2,1.66-.03.25-.08,1.37-.13,1.68-.03.13-.08.28-.25.28s-.23-.13-.23-.36c0-.18-.03-.61-.15-.92-.18-.46-.43-.76-1.71-.92-.43-.05-3.11-.1-3.62-.1-.13,0-.18.08-.18.25v6.45c0,.18.03.28.18.28.56,0,3.49,0,4.08-.05.61-.05.99-.13,1.22-.38.18-.2.28-.33.41-.33.1,0,.18.05.18.2s-.1.56-.2,1.86c-.03.51-.1,1.53-.1,1.71,0,.2,0,.48-.23.48-.18,0-.23-.1-.23-.23-.03-.25-.03-.59-.1-.92-.13-.51-.48-.89-1.43-.99-.48-.05-3.01-.08-3.62-.08-.13,0-.15.1-.15.25v2.01c0,.87-.03,3.21,0,3.95.05,1.76.46,2.14,3.06,2.14.66,0,1.73,0,2.39-.31s.97-.84,1.15-1.89c.05-.28.1-.38.28-.38.2,0,.2.2.2.46,0,.59-.2,2.32-.33,2.83-.18.66-.41.66-1.38.66-1.91,0-3.31-.05-4.41-.08-1.1-.05-1.89-.08-2.65-.08-.28,0-.84,0-1.45.03-.59,0-1.25.05-1.76.05-.33,0-.51-.08-.51-.25,0-.13.1-.2.41-.2.38,0,.69-.05.92-.1.51-.1.64-.66.74-1.4.13-1.07.13-3.08.13-5.43v-4.48Z"/>
    <path class="cls-5" d="M311.63,213.63c-.41-.18-.48-.31-.48-.87,0-1.4.1-2.93.13-3.34.03-.38.1-.66.31-.66.23,0,.25.23.25.43,0,.33.1.87.23,1.3.56,1.89,2.06,2.57,3.64,2.57,2.29,0,3.41-1.55,3.41-2.91,0-1.25-.38-2.42-2.5-4.08l-1.17-.92c-2.8-2.19-3.77-3.97-3.77-6.04,0-2.8,2.34-4.81,5.89-4.81,1.66,0,2.73.25,3.39.43.23.05.36.13.36.31,0,.33-.1,1.07-.1,3.06,0,.56-.08.76-.28.76-.18,0-.25-.15-.25-.46,0-.23-.13-1.02-.66-1.68-.38-.48-1.12-1.25-2.78-1.25-1.89,0-3.03,1.1-3.03,2.62,0,1.17.59,2.06,2.7,3.67l.71.53c3.08,2.32,4.18,4.08,4.18,6.5,0,1.48-.56,3.24-2.39,4.43-1.27.82-2.7,1.05-4.05,1.05-1.48,0-2.62-.18-3.72-.66Z"/>
    <path class="cls-5" d="M326.09,204.31c0-4.36,2.88-9.99,10.52-9.99,6.34,0,10.29,3.69,10.29,9.53s-4.08,10.45-10.55,10.45c-7.31,0-10.27-5.48-10.27-9.99ZM343.34,204.79c0-5.71-3.29-9.25-7.47-9.25-2.93,0-6.27,1.63-6.27,7.97,0,5.3,2.93,9.5,7.82,9.5,1.78,0,5.91-.87,5.91-8.23Z"/>
    <path class="cls-5" d="M353.25,202.07c0-3.87,0-4.59-.05-5.4-.05-.87-.25-1.28-1.1-1.45-.2-.05-.64-.08-.99-.08-.28,0-.43-.05-.43-.23s.18-.23.56-.23c1.35,0,2.96.08,3.49.08.87,0,2.8-.08,3.59-.08,1.61,0,3.31.15,4.69,1.1.71.48,1.73,1.78,1.73,3.49,0,1.89-.79,3.62-3.36,5.71,2.27,2.85,4.03,5.12,5.53,6.7,1.43,1.48,2.47,1.66,2.85,1.73.28.05.51.08.71.08s.31.08.31.2c0,.2-.18.25-.48.25h-2.42c-1.43,0-2.06-.13-2.73-.48-1.1-.59-2.06-1.78-3.49-3.74-1.02-1.4-2.19-3.13-2.52-3.52-.13-.15-.28-.18-.46-.18l-2.22-.05c-.13,0-.2.05-.2.2v.36c0,2.37,0,4.38.13,5.45.08.74.23,1.3.99,1.4.38.05.94.1,1.25.1.2,0,.31.08.31.2,0,.18-.18.25-.51.25-1.48,0-3.36-.08-3.75-.08-.48,0-2.09.08-3.11.08-.33,0-.51-.08-.51-.25,0-.13.1-.2.41-.2.38,0,.69-.05.92-.1.51-.1.64-.66.74-1.4.13-1.07.13-3.08.13-5.43v-4.48ZM356.25,204.08c0,.28.05.38.23.46.54.18,1.3.25,1.94.25,1.02,0,1.35-.1,1.81-.43.76-.56,1.5-1.73,1.5-3.82,0-3.62-2.39-4.66-3.9-4.66-.64,0-1.1.02-1.35.1-.18.05-.23.15-.23.36v7.75Z"/>
    <path class="cls-5" d="M375.92,196.1l-3.8.1c-1.48.05-2.09.18-2.47.74-.25.38-.38.69-.43.89s-.13.31-.28.31c-.18,0-.23-.13-.23-.41,0-.41.48-2.73.54-2.93.08-.33.15-.48.31-.48.2,0,.46.25,1.1.31.74.08,1.71.13,2.55.13h10.09c.82,0,1.38-.08,1.76-.13.38-.08.59-.13.69-.13.18,0,.2.15.2.54,0,.53-.08,2.29-.08,2.96-.03.25-.08.41-.23.41-.2,0-.25-.13-.28-.51l-.03-.28c-.05-.66-.74-1.38-3.01-1.43l-3.21-.08v10.45c0,2.34,0,4.36.13,5.45.08.71.23,1.28.99,1.38.36.05.92.1,1.3.1.28,0,.41.08.41.2,0,.18-.2.25-.48.25-1.68,0-3.29-.08-4-.08-.59,0-2.19.08-3.21.08-.33,0-.51-.08-.51-.25,0-.13.1-.2.41-.2.38,0,.69-.05.92-.1.51-.1.66-.66.74-1.4.13-1.07.13-3.08.13-5.43v-10.45Z"/>
    <path class="cls-5" d="M390.23,213.63c-.41-.18-.48-.31-.48-.87,0-1.4.1-2.93.13-3.34.03-.38.1-.66.31-.66.23,0,.25.23.25.43,0,.33.1.87.23,1.3.56,1.89,2.06,2.57,3.64,2.57,2.29,0,3.41-1.55,3.41-2.91,0-1.25-.38-2.42-2.5-4.08l-1.17-.92c-2.8-2.19-3.77-3.97-3.77-6.04,0-2.8,2.34-4.81,5.89-4.81,1.66,0,2.73.25,3.39.43.23.05.36.13.36.31,0,.33-.1,1.07-.1,3.06,0,.56-.08.76-.28.76-.18,0-.25-.15-.25-.46,0-.23-.13-1.02-.66-1.68-.38-.48-1.12-1.25-2.78-1.25-1.89,0-3.03,1.1-3.03,2.62,0,1.17.59,2.06,2.7,3.67l.71.53c3.08,2.32,4.18,4.08,4.18,6.5,0,1.48-.56,3.24-2.39,4.43-1.27.82-2.7,1.05-4.05,1.05-1.48,0-2.62-.18-3.72-.66Z"/>
  </g>
  <g>
    <g>
      <path class="cls-5" d="M756.48,159.78c-3.99,0-7.4,3.13-7.4,7.4s3.41,7.26,7.4,7.26,7.4-3.13,7.4-7.26h0c0-4.27-3.42-7.4-7.4-7.4M763.88,167.18h0s0,0,0,0h0s0,0,0,0Z"/>
      <path class="cls-5" d="M967.94,101.37h-18.28v.43c0,.12.02,1.2.78,1.39.85.29,3.3,2.15,4.79,5.99.65,1.67.93,6.72,1.05,9.67v17.11c0,8.25,0,13.52-7.54,13.66h-52.12l.11-31.32c0-1.62.17-3.23.56-4.8,1.64-6.62,4.36-10.24,5.71-10.69.76-.19.78-1.26.78-1.39v-.43l-17.61-.02v.03c-20.49,1.18-39.16,8.97-39.16,31.69,0,13.66,12.24,22.2,21.78,22.2h16.68c-.19,19.07-6.14,31.97-21.8,31l.37.74c19.11,1.22,32.58-9.55,32.58-32.7v.97h40.73s0,0,0,0h13.81c12.1,0,16.83-6.55,16.84-18.5v-17.91h-.06v-17.1ZM885.56,149.62h-13.64c-15.97-.51-18.83-9.92-18.83-18.32,0-19.74,15.2-24.7,33.04-26.04l-.57,44.36Z"/>
    </g>
    <path class="cls-5" d="M795.11,137.58c-.25-24.41-16.32-35.54-36.68-35.54,0,0-12.49.05-18.21,3.16-.45.24-1.22.49-1.7.66-1.23.44-3.29,1.28-3.29,1.28l.06.19c.02.06.19.53.55.5.74,0,2.83,1.52,4.71,4.94l.96-1.47c5.02-6.55,15.79-6.09,15.79-6.09,15.83,0,26.16,9.38,28.48,30.75.23,2.13.73,4.22,1.42,6.25.87,2.55,2.06,5.69,3.04,6.94l-172.22.47h-4.55c-5.98-.43-7.49-4.41-7.49-11.96v-1.46l-.02-67.31h-17.54v.43c0,.14.03,1.2.79,1.38.85.29,3.3,2.15,4.79,5.99,1.06,2.74,1.2,20.85,1.2,20.85l.15,38.65v.89c0,13.52,5.17,17.79,17.26,17.79h5.41l191.17.15s-13.95-7.97-14.08-17.45Z"/>
    <path class="cls-5" d="M818.03,68.85v.43c0,.14.03,1.2.79,1.38.85.29,4.34,1.9,4.79,5.99.14,1.29.93,78.22.93,78.22h10.83v-86.03h-17.33Z"/>
  </g>
</svg>