<?xml version="1.0" encoding="utf-8"?>
<!-- Generator: Adobe Illustrator 28.0.0, SVG Export Plug-In . SVG Version: 6.00 Build 0)  -->
<svg version="1.1" id="Layer_1" xmlns="http://www.w3.org/2000/svg" xmlns:xlink="http://www.w3.org/1999/xlink" x="0px" y="0px"
	 viewBox="0 0 998.2 566.9" style="enable-background:new 0 0 998.2 566.9;" xml:space="preserve">
<style type="text/css">
	.st0{fill:#FFFFFF;}
	.st1{clip-path:url(#SVGID_00000003787604770182165400000015884557341824262056_);fill:#FFFFFF;}
	.st2{clip-path:url(#SVGID_00000106125642609782098830000006340442234791702912_);fill:#FFFFFF;}
	.st3{clip-path:url(#SVGID_00000182487151114758607340000011758723997912510133_);fill:#FFFFFF;}
</style>
<g>
	<g>
		<g>
			<g>
				<g>
					<path class="st0" d="M561.7,192.5c0,0.2,0,2.1,1.4,2.4c3.5,1.2,12.2,8.8,12.2,33.2v50.5c0,34.7-23.2,52.9-46.1,52.9
						c-30.5,0-44.4-27.4-44.4-52.9v-86.8h-20.9v86.8c0,43.2,28.1,62.6,55.8,62.6c15.4,0,30.5-5.9,41.5-16.1
						c12.5-11.6,19-27.7,19-46.5v-86.8h-18.4V192.5z"/>
					<path class="st0" d="M889,191.8L813.3,341h22v-0.7c0-0.2,0-2.1-1.4-2.4c-1.5-0.5-3.5-3.9-3.5-10.1c0-4.5,1.1-12.2,6.5-22.9
						l11.6-22.9c0.5,0,1,0.1,1.5,0.1h66.2c6.3,12.4,31.5,58.9,31.5,58.9h23.3l-77.4-149.3H889z M850.9,277.3l31.4-62
						c0,0,16.5,32.5,31.4,62H850.9z"/>
				</g>
				<path class="st0" d="M746.4,341l-77.4-149.3h-4.5L588.8,341h22v-0.7c0-0.2,0-2.1-1.4-2.4c-1.5-0.5-3.5-3.9-3.5-10.1
					c0-4.5,1.1-12.2,6.5-22.9l11.6-22.9c0.5,0,1,0.1,1.5,0.1h66.2c6.3,12.4,31.5,58.9,31.5,58.9H746.4z M626.5,277.3l31.4-62
					c0,0,16.5,32.5,31.4,62H626.5z"/>
				<path class="st0" d="M747.4,364c32.5,0,51.7-22.7,51.7-58.5l0.2-113.6h-31.5v0.7c0,0.2,0,2.1,1.4,2.4c1.3,0.4,3.2,2.5,5.2,6.1
					c3,5.4,4.3,13,4.3,19.2v86.5c0,17.1-2.6,30.4-7.8,39.5c-5.7,9.9-14.5,15-26.3,15h0c-0.9,0-1.8,0-2.7-0.1l-1.3-0.1l1.4,2.8l0.4,0
					C744.1,363.9,745.8,364,747.4,364L747.4,364z"/>
				<path class="st0" d="M435,191.8h-17.5h-84.9h-8.5h-8.9l-2,6.1l-4.8,14.6h1c0.3,0,1.8-0.1,2.2-1.1c0.2-0.1,0.5-0.6,0.9-1.1
					c0.2-0.2,0.7-1,0.7-1c1.7-2.2,4.5-5.2,10.9-7.7c0,0,7.9-2.4,8.5-2.5v0c6.5-1.5,15.9-2.4,29.9-2.4h3.3v144.7h20.7V196.6h3.1
					c12.3,0,21.3,1,28,2.4c14.2,3,18,8.2,20.2,11.2c0.4,0.5,0.7,1,0.9,1.1c0.4,1.1,1.9,1.1,2.2,1.1h1L435,191.8z"/>
			</g>
			<g>
				<defs>
					<path id="SVGID_1_" d="M386.1,142.2c-1.2-1.2-1.9-2.7-1.9-4.4c0-1.9,1-2.8,3.1-2.8c1.2,0,2.6,0.4,4,1.2c1,0.6,2.1,1.6,3.1,2.8
						c-0.8,2.5-2.3,4.4-4.4,5.6C388.7,144.2,387.3,143.4,386.1,142.2 M382,130.6c-1.5,1.5-2.2,3.4-2.2,5.9c0,4.2,1.9,8.1,5.6,11.8
						c-3.9,2.3-9,4.4-15.3,6.2l3.4,1.9c0.6,0.4,1.7,0.6,3.1,0.6c2.3,0,4.7-0.6,7.2-1.9c1.7-0.8,3.9-2.3,6.8-4.4
						c1.2,0.4,2.2,0.6,2.8,0.6c0.6,0.2,2,0.3,4,0.3l2.8-5.6h-3.1c-1,0-1.9-0.1-2.5-0.3c1-1.7,1.7-2.9,1.9-3.7
						c0.2-0.8,0.3-2.1,0.3-3.7c0-1.7-0.2-2.9-0.6-3.7c-0.8-1.7-1.6-2.7-2.2-3.1c-0.6-0.8-1.8-1.7-3.4-2.5c-1.2-0.6-2.6-0.9-4-0.9
						C384.8,128.2,383.3,129,382,130.6"/>
				</defs>
				<use xlink:href="#SVGID_1_"  style="overflow:visible;fill:#FFFFFF;"/>
				<clipPath id="SVGID_00000041997824770596051520000016641688719312542632_">
					<use xlink:href="#SVGID_1_"  style="overflow:visible;"/>
				</clipPath>
				
					<rect x="370.2" y="128.2" style="clip-path:url(#SVGID_00000041997824770596051520000016641688719312542632_);fill:#FFFFFF;" width="30.2" height="28.9"/>
			</g>
			<g>
				<defs>
					<path id="SVGID_00000129899444119002275150000001612050903487983799_" d="M783.7,139.4c-6.2,3.1-10.6,5.4-13.1,6.8
						c-0.2,0.4-0.5,1.2-0.9,2.5c-0.4,1.7-0.6,2.8-0.6,3.4l14.6-7.2c7.1-3.1,11.7-5,14-5.6l2.2-6.2
						C795.1,134.6,789.7,136.7,783.7,139.4"/>
				</defs>
				<use xlink:href="#SVGID_00000129899444119002275150000001612050903487983799_"  style="overflow:visible;fill:#FFFFFF;"/>
				<clipPath id="SVGID_00000078734619821833683120000012519358211495072695_">
					<use xlink:href="#SVGID_00000129899444119002275150000001612050903487983799_"  style="overflow:visible;"/>
				</clipPath>
				
					<rect x="769.1" y="133.1" style="clip-path:url(#SVGID_00000078734619821833683120000012519358211495072695_);fill:#FFFFFF;" width="30.8" height="19"/>
			</g>
			<g>
				<defs>
					<path id="SVGID_00000118355480639745474600000008403699220110938020_" d="M521.1,139.4c-6.2,3.1-10.6,5.4-13.1,6.8
						c-0.2,0.4-0.5,1.2-0.9,2.5c-0.4,1.7-0.6,2.8-0.6,3.4l14.6-7.2c7.1-3.1,11.7-5,14-5.6l2.2-6.2
						C532.5,134.6,527.1,136.7,521.1,139.4"/>
				</defs>
				<use xlink:href="#SVGID_00000118355480639745474600000008403699220110938020_"  style="overflow:visible;fill:#FFFFFF;"/>
				<clipPath id="SVGID_00000165944487404914847020000017472327085673903256_">
					<use xlink:href="#SVGID_00000118355480639745474600000008403699220110938020_"  style="overflow:visible;"/>
				</clipPath>
				
					<rect x="506.5" y="133.1" style="clip-path:url(#SVGID_00000165944487404914847020000017472327085673903256_);fill:#FFFFFF;" width="30.8" height="19"/>
			</g>
		</g>
	</g>
	<g>
		<polygon class="st0" points="201.3,371.8 206.3,382.5 206.4,382.4 201.4,371.7 		"/>
		<path class="st0" d="M201.8,383.7C201.8,383.7,201.8,383.7,201.8,383.7l-4.6-10l0,0L201.8,383.7z"/>
		<path class="st0" d="M245.2,238.9l10-4.7c0,0,0,0-0.1,0L245.2,238.9L245.2,238.9z"/>
		<path class="st0" d="M111.2,192.4l-3.7-8.1c0,0,0,0.1-0.1,0.1L111.2,192.4L111.2,192.4z"/>
		<polygon class="st0" points="111.6,182.1 111.6,182.1 115.4,190.5 115.4,190.5 		"/>
		<polygon class="st0" points="54.4,327.8 54.4,327.9 64.2,323.3 64.2,323.3 		"/>
		<polygon class="st0" points="258,238.1 258,238 247.2,243.1 247.2,243.1 		"/>
		<path class="st0" d="M66.2,327.5l-9.1,4.3c0,0,0,0,0.1,0L66.2,327.5L66.2,327.5z"/>
		<path class="st0" d="M119.6,199.7l8,17.8l-4.3,1.9l-8-17.8L119.6,199.7z"/>
		<path class="st0" d="M247.3,279.4c6.4-10.4,15.9-28.8,18.2-36.4c1.5-5,3.4-9.7,5.7-13.8c-5.7-0.6-11.5-2.2-17.4-4.7
			c-11-4.8-22-7.1-33.5-7.1c-1.5,0-3.1,0.1-4.8,0.2c-0.1-2-0.3-4.4-0.5-6.7c-0.4-4.9-1.2-9.8-2.5-14.5c-2.1-7.3-4.5-13.4-7.5-19.2
			c-2.5-4.6-4.4-9.3-5.8-13.8c-4.4,3.6-9.7,6.6-15.6,9c-12,4.8-22.2,11.7-30.9,21c-9.9-6.3-28.5-16.1-36.5-18.7
			c-5-1.6-9.6-3.6-13.7-6c-0.7,5.7-2.4,11.5-5,17.3c-5.5,12.1-8,24.5-7.6,37.6c-8.4,0.8-15.8,2.7-15.9,2.7
			c-9.7,2.5-17.2,5.3-24.3,9.1c-4.6,2.5-9.2,4.5-13.7,5.9c3.7,4.4,6.7,9.6,9.1,15.5c4.7,11.6,11.4,21.3,20.3,29.7
			c-6,9.8-16.1,28.7-18.6,36.8c-1.5,5-3.4,9.7-5.7,13.8c5.7,0.6,11.5,2.2,17.4,4.7c11,4.8,22,7.1,33.5,7.1c1.4,0,2.8-0.1,4.2-0.1
			c0.6,5.7,1.6,12.7,1.6,12.7c2.5,11.1,5.5,19.5,9.7,27.2c2.5,4.6,4.4,9.2,5.8,13.8c4.4-3.6,9.7-6.6,15.6-9
			c12-4.8,22.2-11.8,30.7-21.1c10.7,6.6,30.8,16.8,38.3,19.2c5,1.6,9.6,3.6,13.7,6c0.7-5.7,2.4-11.5,5-17.3
			c5.7-12.4,8.2-25.1,7.6-38.6c7.6-0.9,14-2.5,14.1-2.6c9.6-2.5,17.3-5.4,24.2-9.2c4.6-2.5,9.2-4.5,13.7-6
			c-3.7-4.4-6.8-9.6-9.2-15.5C262.5,297.1,255.9,287.6,247.3,279.4z M260.1,321.3c-8.1,4.9-16.5,8.5-25,10.7
			c-0.3,0.1-7.7,2.2-16.5,2.5c-0.7,0-1.4,0-2.1,0c-3.9,0-8.5-0.3-11.6-0.6c-4.6-0.4-8.8-1.4-12.6-2.9c-2.3-0.9-4.5-1.9-6.5-3.1
			c-1.8-1-3.7-2.2-5.4-3.4c-3.2-2.3-6-4.9-8.6-7.8c0.6,3.8,0.8,7.7,0.5,11.6c-0.2,2.2-0.4,4.3-0.8,6.4c-1.3,6.6-3.8,13.1-7.4,19.1
			c-9,14.9-24.5,26.9-43.9,33.7l-2.7,1l-1.5-2.5c-4.8-8.2-8.3-16.6-10.5-25.1l0.2,0.3c-0.7-1.7-1.9-13-1.9-19.7
			c0-3.9,0.4-7.7,0.8-10.2c0.4-2.7,0.6-4,0.8-4.6l0,0c1.2-4.8,3-9.4,5.2-13.6c1-1.8,2.1-3.7,3.4-5.4c2.3-3.2,4.8-6.1,7.7-8.6
			c-2.7,0.4-5.4,0.7-8.2,0.7c-1.1,0-2.2,0-3.4-0.1c-2.2-0.1-4.3-0.4-6.4-0.8c-6.6-1.3-13.1-3.7-19.2-7.3c-15-8.9-27-24.4-34-43.6
			l-1-2.7l2.5-1.5c8.1-4.9,16.5-8.5,25-10.6c0.3-0.1,7.7-2.2,16.5-2.5c0.6,0,1.2,0,1.8,0c4,0,8.6,0.4,11.8,0.7
			c4.6,0.4,8.8,1.4,12.6,2.9c2.3,0.9,4.5,1.9,6.5,3.1c1.8,1,3.7,2.2,5.4,3.5c3.2,2.3,6,4.9,8.6,7.8c-0.6-3.8-0.7-7.7-0.4-11.6
			c0.2-2.2,0.5-4.3,0.9-6.4c1.3-6.6,3.9-13.1,7.5-19.1c9-14.9,24.7-26.8,44-33.5l2.7-0.9l1.4,2.5c1.8,3,3.4,6.1,4.8,9.1
			c3.6,7.9,5.8,16.5,6.5,25.6c0.2,3.2,0.4,5.5,0.3,6.9c0,2.4-0.5,7.4-0.8,11.1c-0.7,7.3-2.7,14-5.8,19.9l-0.1,0.1
			c-1,1.8-2.1,3.7-3.4,5.5c-2.2,3.2-4.8,6.1-7.7,8.7c2.7-0.5,5.4-0.7,8.2-0.7h0.2c1.1,0,2.1,0,3.2,0.1c2.2,0.1,4.3,0.4,6.4,0.8
			c6.6,1.2,13.1,3.7,19.2,7.2c15,8.8,27.1,24.3,34.2,43.5l1,2.7L260.1,321.3z M214.6,237c0-0.1,0.6-6.6,0.9-11.6c0.4,0,0.9,0,1.3,0
			c0.2,0,0.5,0,0.7,0c12.3,0,25.3,3.1,37.7,9c0,0,0,0,0.1,0l-10,4.7l-2.1,1l2,4.2l2.1-1L258,238l0,0.1l-0.1,0.5
			c-2.2,8.6-10.8,26-15.6,34.5c-0.2,0.4-0.5,0.8-0.7,1.2c-2.1-1.7-4.3-3.3-6.6-4.9c-7.4-5-15.5-8.4-23.9-10.1l-1.8-0.4l-1.4-3
			l0.8-1.6C211.4,248.9,213.4,243,214.6,237z M107.5,184.3l3.7,8.1l1,2.1l4.2-1.9l-1-2.1l-3.8-8.4l0,0l0.2,0
			c8.2,2.3,26.1,11.1,34.9,16.2c0.4,0.2,0.8,0.5,1.2,0.7c-1.2,1.6-2.4,3.2-3.6,4.9c-5,7.2-8.4,15-10.3,23.2l-5.7,2.6
			c-4.6-2.4-9.5-4.2-14.6-5.5c-1.5-0.4-3.1-0.6-4.9-0.8c-2.5-0.2-6.3-0.5-10.5-0.5c-0.2,0-0.4,0-0.6,0c0-0.5,0-0.9,0-1.4
			c0.2-12,3.5-24.5,9.9-37.2C107.5,184.4,107.5,184.4,107.5,184.3z M97.4,328.4c0,0.1-1.1,7.8-1.4,12.4c-0.3,0-0.7,0-1,0
			c-0.1,0-0.2,0-0.3,0c-12.2,0-25.2-3.2-37.5-9c0,0,0,0-0.1,0l9.1-4.3l2.1-1l-2-4.2l-2.1,1l-9.8,4.6l0-0.1l0.1-0.4
			c2.1-8.2,11-26,16-34.9c0.2-0.4,0.5-0.8,0.7-1.2c1.9,1.5,3.9,3,5.9,4.4c7.4,5,15.4,8.4,23.8,10.2l0.4,0.1l2.1,4.6l-0.2,0.3
			C100.6,316.4,98.6,322.3,97.4,328.4z M206.3,382.5l-5-10.7l-1-2.1l-4.2,2l1,2.1l4.7,10c0,0,0,0,0,0c-8.4-2.6-26.8-11.5-36-16.6
			c-0.4-0.2-0.8-0.5-1.2-0.7c1.2-1.6,2.4-3.2,3.6-4.9c5-7.4,8.5-15.4,10.4-23.8l0.2-0.8l4.1-1.9l0.8,0.4c4.8,2.5,9.9,4.4,15.2,5.7
			c1.5,0.4,3.1,0.6,4.9,0.7c2.4,0.2,6,0.4,10.1,0.4c0.9,0,1.9,0,2.8,0c0,0.5,0,0.9,0,1.4c-0.2,12.6-3.6,25.8-10,38.5L206.3,382.5
			L206.3,382.5z"/>
		
			<rect x="218.4" y="247.1" transform="matrix(0.9055 -0.4244 0.4244 0.9055 -84.2809 120.4111)" class="st0" width="19.5" height="4.7"/>
		
			<rect x="119.1" y="199.9" transform="matrix(0.9117 -0.411 0.411 0.9117 -75.4209 68.4154)" class="st0" width="4.7" height="19.5"/>
		
			<rect x="73.4" y="314.6" transform="matrix(0.9055 -0.4244 0.4244 0.9055 -126.6435 65.2604)" class="st0" width="19.5" height="4.7"/>
		
			<rect x="188.5" y="345" transform="matrix(0.9058 -0.4237 0.4237 0.9058 -132.3357 114.2935)" class="st0" width="4.7" height="19.5"/>
		<path class="st0" d="M156.1,275.1c-4.3,0-7.7,3.5-7.7,7.7c0,4.3,3.5,7.7,7.7,7.7c4.3,0,7.7-3.5,7.7-7.7
			C163.9,278.6,160.4,275.1,156.1,275.1z"/>
	</g>
	<g>
		<path class="st0" d="M429.3,437.6c-0.4,0-1,0-1.5-0.1c-0.7-0.2-1.8-0.7-3.1-3.9c-2.3-5.4-7.9-19.8-8.8-21.8
			c-0.4-0.8-0.6-1.1-0.9-1.1c-0.4,0-0.6,0.4-1,1.4l-8.9,22.2c-0.7,1.8-1.4,3-3,3.2c-0.3,0-0.8,0.1-1.1,0.1c-0.3,0-0.4,0.1-0.4,0.3
			c0,0.3,0.2,0.4,0.7,0.4c1.8,0,3.8-0.1,4.2-0.1c1.1,0,2.6,0.1,3.8,0.1c0.4,0,0.6-0.1,0.6-0.4c0-0.2-0.1-0.3-0.5-0.3h-0.5
			c-1.1,0-1.4-0.5-1.4-1.1c0-0.4,0.2-1.3,0.5-2.2l1.9-5.1c0.1-0.2,0.1-0.3,0.3-0.3h7.9c0.2,0,0.3,0.1,0.4,0.2l2.8,7.5
			c0.2,0.4-0.1,0.7-0.3,0.8c-0.4,0-0.5,0.1-0.5,0.3c0,0.3,0.4,0.3,1.1,0.3c2.8,0.1,5.4,0.1,6.7,0.1c1.3,0,1.6-0.1,1.6-0.4
			C429.7,437.7,429.5,437.6,429.3,437.6z M417.3,427.3h-6.5c-0.1,0-0.2-0.1-0.1-0.2l3.3-8.7c0-0.1,0.1-0.3,0.2-0.3
			c0.1,0,0.1,0.2,0.2,0.3l3.2,8.8C417.5,427.2,417.5,427.3,417.3,427.3z"/>
		<path class="st0" d="M445.8,411.5c-2.1,0-4.4,0.1-5.5,0.1c-1,0-3.2-0.1-5.1-0.1c-0.5,0-0.8,0.1-0.8,0.3c0,0.3,0.2,0.3,0.6,0.3
			c0.5,0,1.1,0,1.4,0.1c1.2,0.2,1.5,0.8,1.5,2c0.1,1.1,0.1,2.1,0.1,7.5v6.2c0,3.3,0,6.1-0.2,7.5c-0.1,1-0.3,1.8-1,2
			c-0.3,0.1-0.7,0.1-1.3,0.1c-0.4,0-0.6,0.1-0.6,0.3c0,0.3,0.2,0.4,0.7,0.4c0.7,0,1.6-0.1,2.4-0.1c0.9,0,1.6,0,2,0
			c0.9,0,2.1,0.1,3.5,0.2c1.3,0.1,2.8,0.2,4.1,0.2c6.6,0,10.2-2.5,11.9-4.2c2-2,3.9-5.4,3.9-9.9c0-4.2-1.7-7.2-3.4-9
			C456.1,411.5,450.2,411.5,445.8,411.5z M455.7,434.4c-2.1,1.8-4.5,2.5-8.1,2.5c-2.8,0-4.2-0.7-4.6-1.4c-0.3-0.4-0.4-1.8-0.4-2.7
			c0-0.7-0.1-3.4-0.1-7.2v-4.5c0-2.8,0-5.9,0-7.1c0-0.4,0.1-0.6,0.4-0.7c0.3-0.1,1.6-0.3,2.3-0.3c2.8,0,6.8,0.4,10.1,3.5
			c1.5,1.5,3.4,4.4,3.4,8.9C458.7,429.2,458,432.4,455.7,434.4z"/>
		<path class="st0" d="M496.9,411.5c-1.1,0-2.7,0.1-3.3,0.1c-0.5,0-1.9-0.1-3.7-0.1c-0.7,0-1,0.1-1,0.4c0,0.2,0.3,0.3,0.6,0.3
			c0.5,0,1,0,1.4,0.2c0.3,0.1,0.5,0.4,0.5,0.7c0,0.3-0.1,0.8-0.3,1.3c-0.8,2.3-5.5,13.7-7,17.6h-0.1l-6.1-16.1
			c-0.5-1.3-0.8-2.3-0.8-2.7c0-0.3,0.1-0.6,0.4-0.7c0.3-0.2,0.8-0.3,1.4-0.3c0.3,0,0.5-0.1,0.5-0.3c0-0.2-0.4-0.3-0.8-0.3
			c-1.8,0-3.5,0.1-4.4,0.1c-1.2,0-3.3-0.1-5.1-0.1c-0.5,0-0.9,0-0.9,0.3c0,0.2,0.1,0.3,0.4,0.3c0.3,0,0.9,0,1.4,0.1
			c1.3,0.4,1.9,0.7,2.7,2.7l8.9,21.6c0.7,1.7,0.9,2.2,1.3,2.2c0.5,0,0.7-0.6,1.6-2.6c0.8-1.8,2.4-5.6,4.7-10.8
			c1.9-4.4,2.9-6.3,4.3-9.6c1-2.3,1.5-2.9,1.9-3.2c0.6-0.4,1.4-0.4,1.7-0.4s0.6-0.1,0.6-0.3C497.7,411.6,497.4,411.5,496.9,411.5z"
			/>
		<path class="st0" d="M520.1,432.9c-0.2,0-0.3,0.1-0.4,0.5c-0.2,1.5-0.7,2.2-1.6,2.6c-0.9,0.4-2.4,0.4-3.3,0.4
			c-3.6,0-4.2-0.5-4.3-3c0-1,0-4.3,0-5.5v-2.8c0-0.2,0-0.4,0.2-0.4c0.9,0,4.4,0,5,0.1c1.3,0.1,1.8,0.7,2,1.4
			c0.1,0.5,0.1,0.9,0.1,1.3c0,0.2,0.1,0.3,0.3,0.3c0.3,0,0.3-0.4,0.3-0.7c0-0.2,0.1-1.7,0.1-2.4c0.1-1.8,0.3-2.4,0.3-2.6
			c0-0.2-0.1-0.3-0.2-0.3c-0.2,0-0.3,0.2-0.6,0.5c-0.3,0.4-0.9,0.5-1.7,0.5c-0.8,0.1-4.9,0.1-5.7,0.1c-0.2,0-0.2-0.1-0.2-0.4v-9
			c0-0.2,0.1-0.4,0.2-0.4c0.7,0,4.4,0.1,5,0.1c1.8,0.2,2.1,0.6,2.4,1.3c0.2,0.4,0.2,1,0.2,1.3c0,0.3,0.1,0.5,0.3,0.5
			s0.3-0.2,0.4-0.4c0.1-0.4,0.1-2,0.2-2.3c0.1-1.6,0.3-2.1,0.3-2.3c0-0.2,0-0.3-0.2-0.3c-0.2,0-0.4,0.1-0.6,0.1
			c-0.3,0.1-0.9,0.1-1.5,0.2c-0.7,0-7.7,0-8.9,0c-0.5,0-1.3,0-2.2-0.1c-0.9,0-1.9,0-2.9,0c-0.5,0-0.8,0.1-0.8,0.3
			c0,0.3,0.2,0.3,0.6,0.3c0.5,0,1.1,0,1.4,0.1c1.2,0.2,1.5,0.8,1.5,2c0.1,1.1,0.1,2.1,0.1,7.5v6.2c0,3.3,0,6.1-0.2,7.5
			c-0.1,1-0.3,1.8-1,2c-0.3,0.1-0.7,0.1-1.3,0.1c-0.4,0-0.6,0.1-0.6,0.3c0,0.3,0.2,0.4,0.7,0.4c0.7,0,1.6-0.1,2.4-0.1
			c0.9,0,1.6,0,2,0c1.1,0,2.2,0,3.7,0.1c1.5,0,3.5,0.1,6.1,0.1c1.3,0,1.7,0,1.9-0.9c0.2-0.7,0.5-3.1,0.5-3.9
			C520.4,433.2,520.4,432.9,520.1,432.9z"/>
		<path class="st0" d="M557.9,411.5c-1.7,0-3.1,0.1-3.5,0.1c-0.7,0-2.4-0.1-4.3-0.1c-0.5,0-0.9,0-0.9,0.3c0,0.2,0.1,0.3,0.6,0.3
			c0.5,0,1.3,0,1.9,0.2c0.9,0.4,1.2,1,1.2,3.2l0.4,15.9H553c-0.6-0.6-5.4-5.7-7.8-8.1c-5.2-5.1-10.6-10.9-11-11.4
			c-0.6-0.6-0.9-1.1-1.3-1.1c-0.4,0-0.5,0.5-0.5,1.2l-0.3,21c0,3.1-0.2,4.1-1.1,4.4c-0.5,0.1-1.1,0.2-1.6,0.2
			c-0.4,0-0.6,0.1-0.6,0.3c0,0.3,0.3,0.4,0.8,0.4c1.8,0,3.5-0.1,3.8-0.1c0.7,0,2.1,0.1,4.4,0.1c0.5,0,0.8-0.1,0.8-0.4
			c0-0.2-0.2-0.3-0.6-0.3c-0.6,0-1.2,0-1.8-0.3c-0.7-0.2-1.2-1.2-1.2-3.9l-0.4-14.9h0.1c0.6,0.7,4.6,5.1,8.4,8.9
			c3.7,3.6,8.2,8.3,10.4,10.4c0.4,0.4,0.8,0.8,1.2,0.8c0.3,0,0.5-0.3,0.5-1.1l0.4-22.4c0-2,0.3-2.7,1.3-3c0.4-0.1,0.7-0.1,1.1-0.1
			c0.4,0,0.6-0.1,0.6-0.3C558.7,411.5,558.4,411.5,557.9,411.5z"/>
		<path class="st0" d="M589.6,411.3c-0.1,0-0.4,0.1-1,0.2c-0.5,0.1-1.3,0.2-2.4,0.2h-14c-1.2,0-2.5-0.1-3.5-0.2
			c-0.9-0.1-1.2-0.4-1.5-0.4c-0.2,0-0.3,0.2-0.4,0.7c-0.1,0.3-0.7,3.5-0.7,4.1c0,0.4,0.1,0.6,0.3,0.6c0.2,0,0.3-0.1,0.4-0.4
			c0.1-0.3,0.2-0.7,0.6-1.2c0.5-0.8,1.4-1,3.4-1l5.3-0.1V428c0,3.3,0,6.1-0.2,7.5c-0.1,1-0.3,1.8-1,2c-0.3,0.1-0.7,0.1-1.3,0.1
			c-0.4,0-0.6,0.1-0.6,0.3c0,0.3,0.2,0.4,0.7,0.4c1.4,0,3.6-0.1,4.5-0.1c1,0,3.2,0.1,5.6,0.1c0.4,0,0.7-0.1,0.7-0.4
			c0-0.2-0.2-0.3-0.6-0.3c-0.5,0-1.3-0.1-1.8-0.1c-1.1-0.1-1.3-0.9-1.4-1.9c-0.2-1.5-0.2-4.3-0.2-7.6v-14.5l4.5,0.1
			c3.2,0.1,4.1,1.1,4.2,2l0,0.4c0,0.5,0.1,0.7,0.4,0.7c0.2,0,0.3-0.2,0.3-0.6c0-0.9,0.1-3.4,0.1-4.1
			C589.8,411.5,589.8,411.3,589.6,411.3z"/>
		<path class="st0" d="M623.5,411.5c-1.4,0-3.6,0.1-4,0.1c0,0-2.3-0.1-4.1-0.1c-0.5,0-0.7,0.1-0.7,0.3c0,0.3,0.2,0.3,0.6,0.3
			c0.4,0,1,0,1.3,0.1c1.2,0.2,1.5,0.8,1.5,2c0.1,1.1,0.1,2.1,0.1,7.5v4.4c0,3.6-0.1,6.8-2.1,8.8c-1.4,1.4-3.3,1.9-4.9,1.9
			c-1.2,0-2.8-0.1-4.4-1.5c-1.7-1.4-2.8-3.6-2.8-8.7v-5c0-5.4,0-6.4,0.1-7.5c0.1-1.2,0.4-1.8,1.3-2c0.4-0.1,0.6-0.1,1-0.1
			c0.4,0,0.6-0.1,0.6-0.3c0-0.2-0.2-0.3-0.8-0.3c-1.3,0-3.5,0.1-4.4,0.1c-1.1,0-3.3-0.1-5.2-0.1c-0.5,0-0.8,0.1-0.8,0.3
			c0,0.3,0.2,0.3,0.6,0.3c0.5,0,1.1,0,1.4,0.1c1.2,0.2,1.5,0.8,1.5,2c0.1,1.1,0.1,2.1,0.1,7.5v5.2c0,5.1,1.3,7.8,3.2,9.4
			c2.6,2.3,6,2.4,7.9,2.4c2.3,0,4.9-0.4,7.4-2.5c3-2.6,3.4-6.7,3.4-10.7v-3.8c0-5.4,0-6.4,0.1-7.5c0.1-1.2,0.4-1.8,1.3-2
			c0.4-0.1,0.6-0.1,1-0.1c0.4,0,0.6-0.1,0.6-0.3C624.2,411.6,624,411.5,623.5,411.5z"/>
		<path class="st0" d="M659.7,437.6c-0.3,0-0.6,0-1-0.1c-0.5-0.1-2-0.4-4-2.4c-2.1-2.2-4.5-5.3-7.7-9.3c3.6-2.9,4.7-5.3,4.7-7.9
			c0-2.4-1.4-4.2-2.4-4.9c-1.9-1.3-4.3-1.5-6.5-1.5c-1.1,0-3.8,0.1-5,0.1c-0.7,0-3-0.1-4.9-0.1c-0.5,0-0.8,0.1-0.8,0.3
			c0,0.3,0.2,0.3,0.6,0.3c0.5,0,1.1,0,1.4,0.1c1.2,0.2,1.5,0.8,1.5,2c0.1,1.1,0.1,2.1,0.1,7.5v6.2c0,3.3,0,6.1-0.2,7.5
			c-0.1,1-0.3,1.8-1,2c-0.3,0.1-0.7,0.1-1.3,0.1c-0.4,0-0.6,0.1-0.6,0.3c0,0.3,0.2,0.4,0.7,0.4c1.4,0,3.6-0.1,4.3-0.1
			c0.5,0,3.2,0.1,5.2,0.1c0.5,0,0.7-0.1,0.7-0.4c0-0.2-0.1-0.3-0.4-0.3c-0.4,0-1.2-0.1-1.7-0.1c-1.1-0.1-1.3-0.9-1.4-2
			c-0.2-1.5-0.2-4.3-0.2-7.6v-0.5c0-0.2,0.1-0.3,0.3-0.3l3.1,0.1c0.2,0,0.5,0,0.6,0.2c0.5,0.5,2.1,2.9,3.5,4.9
			c2,2.7,3.3,4.4,4.9,5.2c0.9,0.5,1.8,0.7,3.8,0.7h3.4c0.4,0,0.7-0.1,0.7-0.4C660.1,437.7,660,437.6,659.7,437.6z M645.5,425
			c-0.6,0.5-1.1,0.6-2.5,0.6c-0.9,0-1.9-0.1-2.7-0.4c-0.2-0.1-0.3-0.2-0.3-0.6v-10.8c0-0.3,0.1-0.4,0.3-0.5c0.4-0.1,1-0.1,1.9-0.1
			c2.1,0,5.4,1.5,5.4,6.5C647.6,422.6,646.5,424.2,645.5,425z"/>
		<path class="st0" d="M681.1,432.9c-0.2,0-0.3,0.1-0.4,0.5c-0.2,1.5-0.7,2.2-1.6,2.6c-0.9,0.4-2.4,0.4-3.3,0.4
			c-3.6,0-4.2-0.5-4.3-3c0-1,0-4.3,0-5.5v-2.8c0-0.2,0-0.4,0.2-0.4c0.9,0,4.4,0,5,0.1c1.3,0.1,1.8,0.7,2,1.4
			c0.1,0.5,0.1,0.9,0.1,1.3c0,0.2,0.1,0.3,0.3,0.3c0.3,0,0.3-0.4,0.3-0.7c0-0.2,0.1-1.7,0.1-2.4c0.1-1.8,0.3-2.4,0.3-2.6
			c0-0.2-0.1-0.3-0.2-0.3c-0.2,0-0.3,0.2-0.6,0.5c-0.3,0.4-0.9,0.5-1.7,0.5c-0.8,0.1-4.9,0.1-5.7,0.1c-0.2,0-0.2-0.1-0.2-0.4v-9
			c0-0.2,0.1-0.4,0.2-0.4c0.7,0,4.4,0.1,5,0.1c1.8,0.2,2.1,0.6,2.4,1.3c0.2,0.4,0.2,1,0.2,1.3c0,0.3,0.1,0.5,0.3,0.5
			s0.3-0.2,0.4-0.4c0.1-0.4,0.1-2,0.2-2.3c0.1-1.6,0.3-2.1,0.3-2.3c0-0.2,0-0.3-0.2-0.3c-0.2,0-0.4,0.1-0.6,0.1
			c-0.3,0.1-0.9,0.1-1.5,0.2c-0.7,0-7.7,0-8.9,0c-0.5,0-1.3,0-2.2-0.1c-0.9,0-1.9,0-2.9,0c-0.5,0-0.8,0.1-0.8,0.3
			c0,0.3,0.2,0.3,0.6,0.3c0.5,0,1.1,0,1.4,0.1c1.2,0.2,1.5,0.8,1.5,2c0.1,1.1,0.1,2.1,0.1,7.5v6.2c0,3.3,0,6.1-0.2,7.5
			c-0.1,1-0.3,1.8-1,2c-0.3,0.1-0.7,0.1-1.3,0.1c-0.4,0-0.6,0.1-0.6,0.3c0,0.3,0.2,0.4,0.7,0.4c0.7,0,1.6-0.1,2.4-0.1
			c0.9,0,1.6,0,2,0c1.1,0,2.2,0,3.7,0.1c1.5,0,3.5,0.1,6.1,0.1c1.3,0,1.7,0,1.9-0.9c0.2-0.7,0.5-3.1,0.5-3.9
			C681.4,433.2,681.4,432.9,681.1,432.9z"/>
		<path class="st0" d="M733.3,437.6c-0.3,0-0.6,0-1-0.1c-0.5-0.1-2-0.4-4-2.4c-2.1-2.2-4.5-5.3-7.7-9.3c3.6-2.9,4.7-5.3,4.7-7.9
			c0-2.4-1.4-4.2-2.4-4.9c-1.9-1.3-4.3-1.5-6.5-1.5c-1.1,0-3.8,0.1-5,0.1c-0.7,0-3-0.1-4.9-0.1c-0.5,0-0.8,0.1-0.8,0.3
			c0,0.3,0.2,0.3,0.6,0.3c0.5,0,1.1,0,1.4,0.1c1.2,0.2,1.5,0.8,1.5,2c0.1,1.1,0.1,2.1,0.1,7.5v6.2c0,3.3,0,6.1-0.2,7.5
			c-0.1,1-0.3,1.8-1,2c-0.3,0.1-0.7,0.1-1.3,0.1c-0.4,0-0.6,0.1-0.6,0.3c0,0.3,0.2,0.4,0.7,0.4c1.4,0,3.6-0.1,4.3-0.1
			c0.5,0,3.2,0.1,5.2,0.1c0.5,0,0.7-0.1,0.7-0.4c0-0.2-0.1-0.3-0.4-0.3c-0.4,0-1.2-0.1-1.7-0.1c-1.1-0.1-1.3-0.9-1.4-2
			c-0.2-1.5-0.2-4.3-0.2-7.6v-0.5c0-0.2,0.1-0.3,0.3-0.3l3.1,0.1c0.2,0,0.5,0,0.6,0.2c0.5,0.5,2.1,2.9,3.5,4.9
			c2,2.7,3.3,4.4,4.9,5.2c0.9,0.5,1.8,0.7,3.8,0.7h3.4c0.4,0,0.7-0.1,0.7-0.4C733.7,437.7,733.6,437.6,733.3,437.6z M719.1,425
			c-0.6,0.5-1.1,0.6-2.5,0.6c-0.9,0-1.9-0.1-2.7-0.4c-0.2-0.1-0.3-0.2-0.3-0.6v-10.8c0-0.3,0.1-0.4,0.3-0.5c0.4-0.1,1-0.1,1.9-0.1
			c2.1,0,5.4,1.5,5.4,6.5C721.1,422.6,720.1,424.2,719.1,425z"/>
		<path class="st0" d="M754.7,432.9c-0.2,0-0.3,0.1-0.4,0.5c-0.2,1.5-0.7,2.2-1.6,2.6c-0.9,0.4-2.4,0.4-3.3,0.4
			c-3.6,0-4.2-0.5-4.3-3c0-1,0-4.3,0-5.5v-2.8c0-0.2,0-0.4,0.2-0.4c0.9,0,4.4,0,5,0.1c1.3,0.1,1.8,0.7,2,1.4
			c0.1,0.5,0.1,0.9,0.1,1.3c0,0.2,0.1,0.3,0.3,0.3c0.3,0,0.3-0.4,0.3-0.7c0-0.2,0.1-1.7,0.1-2.4c0.1-1.8,0.3-2.4,0.3-2.6
			c0-0.2-0.1-0.3-0.2-0.3c-0.2,0-0.3,0.2-0.6,0.5c-0.3,0.4-0.9,0.5-1.7,0.5c-0.8,0.1-4.9,0.1-5.7,0.1c-0.2,0-0.2-0.1-0.2-0.4v-9
			c0-0.2,0.1-0.4,0.2-0.4c0.7,0,4.4,0.1,5,0.1c1.8,0.2,2.1,0.6,2.4,1.3c0.2,0.4,0.2,1,0.2,1.3c0,0.3,0.1,0.5,0.3,0.5
			c0.2,0,0.3-0.2,0.4-0.4c0.1-0.4,0.1-2,0.2-2.3c0.1-1.6,0.3-2.1,0.3-2.3c0-0.2,0-0.3-0.2-0.3c-0.2,0-0.4,0.1-0.6,0.1
			c-0.3,0.1-0.9,0.1-1.5,0.2c-0.7,0-7.7,0-8.9,0c-0.5,0-1.3,0-2.2-0.1c-0.9,0-1.9,0-2.9,0c-0.5,0-0.8,0.1-0.8,0.3
			c0,0.3,0.2,0.3,0.6,0.3c0.5,0,1.1,0,1.4,0.1c1.2,0.2,1.5,0.8,1.5,2c0.1,1.1,0.1,2.1,0.1,7.5v6.2c0,3.3,0,6.1-0.2,7.5
			c-0.1,1-0.3,1.8-1,2c-0.3,0.1-0.7,0.1-1.3,0.1c-0.4,0-0.6,0.1-0.6,0.3c0,0.3,0.2,0.4,0.7,0.4c0.7,0,1.6-0.1,2.4-0.1
			c0.9,0,1.6,0,2,0c1.1,0,2.2,0,3.7,0.1c1.5,0,3.5,0.1,6.1,0.1c1.3,0,1.7,0,1.9-0.9c0.2-0.7,0.5-3.1,0.5-3.9
			C755,433.2,755,432.9,754.7,432.9z"/>
		<path class="st0" d="M774.1,422.1l-1-0.7c-2.9-2.2-3.8-3.5-3.8-5.1c0-2.1,1.6-3.6,4.2-3.6c2.3,0,3.3,1.1,3.9,1.7
			c0.7,0.9,0.9,2,0.9,2.3c0,0.4,0.1,0.6,0.4,0.6c0.3,0,0.4-0.3,0.4-1.1c0-2.8,0.1-3.8,0.1-4.2c0-0.2-0.2-0.4-0.5-0.4
			c-0.9-0.2-2.4-0.6-4.7-0.6c-4.9,0-8.2,2.8-8.2,6.7c0,2.9,1.3,5.3,5.2,8.4l1.6,1.3c2.9,2.3,3.5,3.9,3.5,5.7c0,1.9-1.6,4-4.7,4
			c-2.2,0-4.3-1-5.1-3.6c-0.2-0.6-0.3-1.3-0.3-1.8c0-0.3,0-0.6-0.4-0.6c-0.3,0-0.4,0.4-0.4,0.9c0,0.6-0.2,2.7-0.2,4.6
			c0,0.8,0.1,1,0.7,1.2c1.5,0.7,3.1,0.9,5.2,0.9c1.9,0,3.9-0.3,5.6-1.5c2.6-1.7,3.3-4.1,3.3-6.2
			C779.9,427.8,778.4,425.3,774.1,422.1z"/>
		<path class="st0" d="M803.7,411c-10.6,0-14.6,7.8-14.6,13.9c0,6.3,4.1,13.9,14.3,13.9c9,0,14.7-6.4,14.7-14.5
			C818,416.1,812.5,411,803.7,411z M804.8,437c-6.8,0-10.9-5.8-10.9-13.2c0-8.8,4.6-11.1,8.7-11.1c5.8,0,10.4,4.9,10.4,12.9
			C813,435.8,807.3,437,804.8,437z"/>
		<path class="st0" d="M854,437.6c-0.3,0-0.6,0-1-0.1c-0.5-0.1-2-0.4-4-2.4c-2.1-2.2-4.5-5.3-7.7-9.3c3.6-2.9,4.7-5.3,4.7-7.9
			c0-2.4-1.4-4.2-2.4-4.9c-1.9-1.3-4.3-1.5-6.5-1.5c-1.1,0-3.8,0.1-5,0.1c-0.7,0-3-0.1-4.9-0.1c-0.5,0-0.8,0.1-0.8,0.3
			c0,0.3,0.2,0.3,0.6,0.3c0.5,0,1.1,0,1.4,0.1c1.2,0.2,1.5,0.8,1.5,2c0.1,1.1,0.1,2.1,0.1,7.5v6.2c0,3.3,0,6.1-0.2,7.5
			c-0.1,1-0.3,1.8-1,2c-0.3,0.1-0.7,0.1-1.3,0.1c-0.4,0-0.6,0.1-0.6,0.3c0,0.3,0.2,0.4,0.7,0.4c1.4,0,3.6-0.1,4.3-0.1
			c0.5,0,3.2,0.1,5.2,0.1c0.5,0,0.7-0.1,0.7-0.4c0-0.2-0.1-0.3-0.4-0.3c-0.4,0-1.2-0.1-1.7-0.1c-1.1-0.1-1.3-0.9-1.4-2
			c-0.2-1.5-0.2-4.3-0.2-7.6v-0.5c0-0.2,0.1-0.3,0.3-0.3l3.1,0.1c0.2,0,0.5,0,0.6,0.2c0.5,0.5,2.1,2.9,3.5,4.9
			c2,2.7,3.3,4.4,4.9,5.2c0.9,0.5,1.8,0.7,3.8,0.7h3.4c0.4,0,0.7-0.1,0.7-0.4C854.4,437.7,854.2,437.6,854,437.6z M839.7,425
			c-0.6,0.5-1.1,0.6-2.5,0.6c-0.9,0-1.9-0.1-2.7-0.4c-0.2-0.1-0.3-0.2-0.3-0.6v-10.8c0-0.3,0.1-0.4,0.3-0.5c0.4-0.1,1-0.1,1.9-0.1
			c2.1,0,5.4,1.5,5.4,6.5C841.8,422.6,840.8,424.2,839.7,425z"/>
		<path class="st0" d="M878.4,411.3c-0.1,0-0.4,0.1-1,0.2c-0.5,0.1-1.3,0.2-2.4,0.2h-14c-1.2,0-2.5-0.1-3.5-0.2
			c-0.9-0.1-1.2-0.4-1.5-0.4c-0.2,0-0.3,0.2-0.4,0.7c-0.1,0.3-0.7,3.5-0.7,4.1c0,0.4,0.1,0.6,0.3,0.6c0.2,0,0.3-0.1,0.4-0.4
			c0.1-0.3,0.2-0.7,0.6-1.2c0.5-0.8,1.4-1,3.4-1l5.3-0.1V428c0,3.3,0,6.1-0.2,7.5c-0.1,1-0.3,1.8-1,2c-0.3,0.1-0.7,0.1-1.3,0.1
			c-0.4,0-0.6,0.1-0.6,0.3c0,0.3,0.2,0.4,0.7,0.4c1.4,0,3.6-0.1,4.5-0.1c1,0,3.2,0.1,5.6,0.1c0.4,0,0.7-0.1,0.7-0.4
			c0-0.2-0.2-0.3-0.6-0.3c-0.5,0-1.3-0.1-1.8-0.1c-1.1-0.1-1.3-0.9-1.4-1.9c-0.2-1.5-0.2-4.3-0.2-7.6v-14.5l4.5,0.1
			c3.2,0.1,4.1,1.1,4.2,2l0,0.4c0,0.5,0.1,0.7,0.4,0.7c0.2,0,0.3-0.2,0.3-0.6c0-0.9,0.1-3.4,0.1-4.1
			C878.6,411.5,878.6,411.3,878.4,411.3z"/>
	</g>
</g>
<g>
	<path class="st0" d="M566.7,472L566.7,472l-3.3-9.3v-0.3l-0.3,0.3l-3.6,8.9v0.3L566.7,472z M558.8,474c-0.3,0-0.3,0-0.3,0.3l-2,4.6
		c-0.3,1-0.7,1.7-0.7,2.3s0.3,1,1.3,1h0.7c0.3,0,0.7,0.3,0.7,0.3c0,0.3-0.3,0.3-0.7,0.3c-1.3,0-3-0.3-4-0.3c-0.3,0-2.3,0-4.3,0
		c-0.3,0-0.7,0-0.7-0.3c0-0.3,0-0.3,0.3-0.3s0.7,0,1,0c1.7-0.3,2.3-1.3,3-3l9.9-22.2c0.3-1,0.7-1.3,1-1.3c0.7,0,0.7,0.3,1,1
		c1,2,6.6,16.6,8.9,21.9c1.3,3.3,2.3,3.6,3,4c0.7,0,1,0,1.3,0c0.3,0,0.7,0,0.3,0.3c0,0.3-0.3,0.3-1.7,0.3c-1.3,0-4,0-7-0.3
		c-0.7,0-1,0-1-0.3c0-0.3,0-0.3,0.3-0.3c0.3,0,0.7-0.3,0.3-0.7L567,474c0-0.3-0.3-0.3-0.3-0.3L558.8,474z"/>
	<path class="st0" d="M588.6,473c0,4.6,0,7,0.7,7.6s2,0.7,5,0.7c2,0,3.3,0,4.3-1c0.3-0.3,1-1.3,1-2c0-0.3,0-0.7,0.3-0.7
		s0.3,0.3,0.3,0.7s-0.3,3-0.7,4c-0.3,0.7-0.3,1-2.3,1c-2.7,0-4.6,0-6.6-0.3c-2,0-3.3,0-5,0c-0.3,0-1.3,0-2,0c-1,0-1.7,0-2.7,0
		c-0.3,0-0.7,0-0.7-0.3c0-0.3,0-0.3,0.7-0.3c0.7,0,1,0,1.3,0c0.7,0,1-0.7,1-2c0.3-1.7,0.3-4.3,0.3-7.6v-6.3c0-5.3,0-6.3,0-7.6
		s-0.3-1.7-1.7-2c-0.3,0-0.7,0-1.3,0c-0.3,0-0.7,0-0.7-0.3s0.3-0.3,0.7-0.3c1.7,0,4,0,5,0s4,0,5.3,0c0.7,0,0.7,0,0.7,0.3
		s-0.3,0.3-0.7,0.3c-0.3,0-1,0-1.3,0c-1,0-1.3,0.7-1.3,2c0,1,0,2-0.3,7.6L588.6,473z"/>
	<path class="st0" d="M628.7,473L628.7,473l-3.3-9.3v-0.3l-0.3,0.3l-3.6,8.9v0.3H628.7z M620.7,475c-0.3,0-0.3,0-0.3,0.3l-2,4.6
		c-0.3,1-0.7,1.7-0.7,2.3s0.3,1,1.3,1h0.7c0.3,0,0.7,0.3,0.7,0.3c0,0.3-0.3,0.3-0.7,0.3c-1.3,0-3-0.3-4-0.3c-0.3,0-2.3,0-4.3,0
		c-0.3,0-0.7,0-0.7-0.3s0-0.3,0.3-0.3c0.3,0,0.7,0,1,0c1.7-0.3,2.3-1.3,3-3l9.9-22.2c0.3-1,0.7-1.3,1-1.3c0.7,0,0.7,0.3,1,1
		c1,2,6.6,16.6,8.9,21.9c1.3,3.3,2.3,3.6,3,4c0.7,0,1,0,1.3,0c0.3,0,0.7,0,0.3,0.3c0,0.3-0.3,0.3-1.7,0.3c-1.3,0-4,0-7-0.3
		c-0.7,0-1,0-1-0.3s0-0.3,0.3-0.3s0.7-0.3,0.3-0.7L629,475c0-0.3-0.3-0.3-0.3-0.3L620.7,475z"/>
	<path class="st0" d="M664.8,469.4C664.8,469.4,664.8,469,664.8,469.4l0.3-1c0-5.3,0-6.6,0-8s-0.3-1.7-1.7-2c-0.3,0-1,0-1.3,0
		s-0.7,0-0.7-0.3s0.3-0.3,0.7-0.3c2,0,4.6,0,5.6,0.3c1,0,3.3,0,4.6,0c0.7,0,0.7,0,0.7,0.3s-0.3,0.3-0.7,0.3s-0.7,0-1,0
		c-1,0-1.3,0.7-1.3,2c0,1,0,2-0.3,7.6v6.3c0,3.3,0,6,0,7.6c0,1,0.3,1.7,1.3,2c0.7,0,1.3,0,2,0c0.3,0,0.7,0.3,0.7,0.3
		c0,0.3-0.3,0.3-0.7,0.3c-2.3,0-4.6-0.3-6-0.3c-1,0-3.3,0-5,0c-0.7,0-0.7,0-0.7-0.3c0,0,0.3-0.3,0.7-0.3c0.7,0,1,0,1.3,0
		c0.7,0,1-0.7,1-2c0.3-1.7,0.3-4.3,0.3-7.6v-2.7c0,0,0-0.3-0.3-0.3l-13.9-0.3c0,0-0.3,0-0.3,0.3v2.7c0,3.3,0,6,0,7.6
		c0,1,0.3,1.7,1.3,2c0.7,0,1.3,0,2,0c0.3,0,0.7,0.3,0.7,0.3c0,0.3-0.3,0.3-0.7,0.3c-2.3,0-5-0.3-6-0.3s-3.3,0-4.6,0
		c-0.3,0-0.7,0-0.7-0.3s0-0.3,0.7-0.3s1,0,1.3,0c0.7,0,1-0.7,1-2c0.3-1.7,0.3-4.3,0.3-7.6v-6.3c0-5.3,0-6.3,0-7.6
		c0-1.3-0.3-1.7-1.7-2c-0.3,0-1,0-1.3,0c-0.3,0-0.7,0-0.7-0.3c0-0.3,0.3-0.3,0.7-0.3c2,0,4.3,0,5.3,0s3.3,0,5,0c0.7,0,0.7,0,0.7,0.3
		c0,0.3-0.3,0.3-0.7,0.3s-0.7,0-1,0c-1,0-1.3,0.7-1.3,2c0,1,0,2.3-0.3,8v0.7c0,0.3,0,0.3,0.3,0.3L664.8,469.4z"/>
	<path class="st0" d="M679.7,484.3c-0.7-0.3-0.7-0.3-0.7-1.3c0-2,0.3-4,0.3-4.6s0.3-1,0.3-1c0.3,0,0.3,0.3,0.3,0.7s0,1.3,0.3,2
		c0.7,2.7,3.6,3.6,5.6,3.6c3.3,0,5-2,5.3-4.3c0-1.7-0.3-3-3.6-5l-2-1.3c-4.3-2.7-5.6-5-5.6-8.3c0-4.3,4.3-7,9.3-7
		c2.3,0,4.3,0.3,5.3,0.7c0.3,0,0.7,0.3,0.3,0.3c0,0.3,0,1.3-0.3,4.3c0,0.7-0.3,1-0.3,1c-0.3,0-0.3-0.3-0.3-0.7c0-0.3,0-1.3-1-2.3
		c-0.7-0.7-1.7-1.7-4-1.7c-2.7,0-5,1.3-5,3.6c0,1.7,0.7,3,4,4.6l1.3,1c4.6,2.7,6.3,5.6,6.3,8.6c0,2.7-1,4.6-3.6,6.6
		c-1.7,1.3-4.3,1.3-6.3,1.3C683.4,485.3,681.1,484.9,679.7,484.3"/>
	<path class="st0" d="M713.9,474.3L713.9,474.3l-3.3-9.3v-0.3l-0.3,0.3l-3.6,8.9v0.3L713.9,474.3z M705.9,476.3
		c-0.3,0-0.3,0-0.3,0.3l-2,4.6c-0.3,1-0.7,1.7-0.7,2.3s0.3,1,1.3,1h0.7c0.3,0,0.7,0.3,0.7,0.3c0,0.3-0.3,0.3-0.7,0.3
		c-1.3,0-3-0.3-4-0.3c-0.3,0-2.3,0-4.3,0c-0.3,0-0.7,0-0.7-0.3c0-0.3,0-0.3,0.3-0.3s0.7,0,1,0c1.7-0.3,2.3-1.3,3-3l9.9-22.2
		c0.3-1,0.7-1.3,1-1.3c0.7,0,0.7,0.3,1,1c1,2,6.6,16.6,8.9,21.9c1.3,3.3,2.3,3.6,3,4c0.7,0,1,0,1.3,0s0.7,0,0.3,0.3
		c0,0.3-0.3,0.3-1.7,0.3s-4,0-7-0.3c-0.7,0-1,0-1-0.3c0-0.3,0-0.3,0.3-0.3c0.3,0,0.7-0.3,0.3-0.7l-2.7-7.3c0-0.3-0.3-0.3-0.3-0.3
		L705.9,476.3z"/>
</g>
</svg>
