<?xml version="1.0" encoding="UTF-8"?><svg id="Layer_2" xmlns="http://www.w3.org/2000/svg" viewBox="0 0 499.61 495.78"><defs><style>.cls-1{fill:#5bb947;stroke-width:0px;}</style></defs><g id="Layer_1-2"><path class="cls-1" d="m201.55,361.31l7.96-5.02,2.79,8.97c3.51,11.25,8.55,22.13,14.99,32.36,3.87-4.18,7.37-8.56,10.43-13.07-4.88-8.52-8.67-17.45-11.28-26.57-1.18-4.14-2.15-8.51-2.86-12.98-1.27-8.01-1.62-16.07-1.04-24.05-4.74,6.45-10.25,12.36-16.43,17.64-3.48,2.97-7.05,5.67-10.62,8.04-11.7,7.77-24.86,13.47-39.1,16.94-10.81,2.63-22.23,3.97-33.94,3.97-26.05,0-53.72-6.68-80.01-19.32l-5.35-2.57,1.5-5.72c4.8-18.34,11.78-35.28,20.76-50.4-4.13-3.27-8.18-6.76-12.09-10.42-11.94,19.04-19.59,35.09-24.7,51.76-3.2,10.42-7.16,20.04-11.82,28.64,11.83,1.23,23.95,4.5,36.09,9.75,22.9,9.9,45.67,14.71,69.61,14.71,11.21,0,22.92-1.1,34.81-3.26,18.25-3.33,35.17-9.86,50.27-19.4Z"/><path class="cls-1" d="m201.07,142.4l-8.34-4.38c-10.46-5.48-21.75-9.62-33.57-12.32.24,5.7.87,11.26,1.9,16.6,9.5,2.59,18.53,6.22,26.83,10.82,3.8,2.11,7.57,4.52,11.22,7.16,6.58,4.76,12.55,10.21,17.81,16.27-1.23-7.91-1.54-15.97-.91-24.05.35-4.5.96-8.93,1.8-13.17,2.75-13.72,8-27.02,15.62-39.54,18.75-30.79,51.22-55.46,91.45-69.48l5.61-1.95,2.99,5.1c9.62,16.34,16.7,33.24,21.09,50.27,5.26-.6,10.6-.99,15.94-1.16-5.06-21.86-11.04-38.6-19.26-54-5.13-9.6-9.15-19.21-11.97-28.59-9.23,7.47-20.12,13.7-32.44,18.55-33.83,13.33-60.63,34.76-81.95,65.53-10.54,15.22-17.86,31.75-21.76,49.15l-2.06,9.17Z"/><path class="cls-1" d="m298.06,134.48l-7.96,5.02-2.8-8.97c-3.5-11.25-8.54-22.13-14.99-32.36-3.88,4.2-7.38,8.58-10.43,13.07,4.88,8.53,8.67,17.46,11.28,26.56,1.18,4.12,2.14,8.49,2.86,12.98,1.28,8.01,1.62,16.06,1.04,24.04,4.75-6.45,10.25-12.36,16.43-17.64,3.45-2.95,7.03-5.65,10.62-8.04,11.69-7.77,24.85-13.47,39.1-16.94,10.81-2.63,22.23-3.97,33.94-3.97,26.05,0,53.72,6.68,80.01,19.32l5.35,2.57-1.5,5.72c-4.8,18.35-11.78,35.29-20.76,50.4,4.12,3.26,8.17,6.75,12.08,10.42,11.94-19.04,19.59-35.09,24.7-51.76,3.19-10.41,7.16-20.03,11.82-28.64-11.83-1.23-23.95-4.5-36.09-9.75-22.9-9.9-45.67-14.71-69.61-14.71-11.21,0-22.93,1.1-34.82,3.26-18.25,3.33-35.16,9.86-50.26,19.4Z"/><path class="cls-1" d="m480.65,302.5c-13.74-33.58-35.54-60.06-66.63-80.96-15.39-10.35-32.05-17.46-49.53-21.16l-9.23-1.95,4.3-8.36c5.39-10.48,9.42-21.77,11.99-33.58-5.72.3-11.29.99-16.62,2.07-2.5,9.49-6.05,18.52-10.58,26.86-2.08,3.82-4.45,7.61-7.06,11.26-4.7,6.62-10.1,12.62-16.12,17.92,5.63-.93,11.35-1.4,17.09-1.4,2.28,0,4.64.08,7.03.23,4.52.3,8.97.86,13.23,1.66,13.8,2.59,27.2,7.68,39.83,15.14,31.09,18.35,56.2,50.44,70.7,90.39l2.01,5.57-5.08,3.04c-16.28,9.76-33.16,17.01-50.2,21.56.66,5.2,1.1,10.52,1.33,15.87,21.9-5.29,38.62-11.44,53.96-19.8,9.59-5.22,19.18-9.33,28.55-12.23-7.6-9.12-13.97-19.91-18.97-32.13Z"/><path class="cls-1" d="m403.67,269.91c-4.13-3.95-8.46-7.52-12.9-10.65-8.64,4.69-17.68,8.3-26.88,10.73-4.19,1.1-8.59,1.97-13.07,2.59-4.8.67-9.7,1.01-14.55,1.01-3.2,0-6.4-.15-9.59-.44,6.38,4.85,12.2,10.45,17.37,16.71,2.87,3.47,5.51,7.08,7.86,10.74,7.56,11.8,13.02,25.02,16.22,39.3,7.89,35.15,1.63,75.37-17.64,113.25l-2.69,5.28-5.71-1.61c-18.27-5.13-35.13-12.41-50.15-21.67-3.34,4.03-6.92,8-10.69,11.84,18.88,12.27,34.83,20.21,51.43,25.62,10.39,3.39,19.96,7.54,28.5,12.35,1.46-11.76,4.99-23.78,10.49-35.78,15.13-32.97,19.55-66.94,13.52-103.84-2.98-18.26-9.2-35.23-18.47-50.46l-4.89-8.03,9.05-2.61c11.36-3.27,22.37-8.08,32.76-14.3Z"/><path class="cls-1" d="m298.54,353.38l8.34,4.38c10.46,5.48,21.74,9.62,33.57,12.32-.24-5.69-.87-11.26-1.9-16.6-9.5-2.59-18.53-6.22-26.84-10.83-3.83-2.13-7.6-4.54-11.22-7.16-6.59-4.76-12.55-10.21-17.8-16.26,1.22,7.9,1.53,15.96.91,24.05-.35,4.49-.95,8.92-1.8,13.16-2.76,13.73-8.01,27.03-15.62,39.54-18.75,30.79-51.23,55.46-91.45,69.48l-5.6,1.95-3-5.1c-9.62-16.35-16.71-33.25-21.09-50.27-5.25.6-10.59.99-15.94,1.16,5.07,21.87,11.05,38.61,19.27,54,5.13,9.6,9.15,19.2,11.97,28.59,9.23-7.47,20.13-13.7,32.44-18.55,33.82-13.33,60.63-34.76,81.94-65.53,10.54-15.22,17.86-31.75,21.76-49.15l2.06-9.17Z"/><path class="cls-1" d="m85.6,274.24c15.38,10.34,32.04,17.46,49.54,21.16l9.22,1.95-4.29,8.36c-5.39,10.49-9.42,21.77-11.99,33.58,5.72-.3,11.3-.99,16.62-2.07,2.49-9.49,6.05-18.52,10.57-26.86,2.06-3.79,4.44-7.58,7.06-11.26,4.7-6.61,10.1-12.61,16.12-17.92-5.63.93-11.34,1.4-17.09,1.4-2.3,0-4.66-.08-7.02-.24-4.52-.3-8.97-.85-13.23-1.65-13.81-2.6-27.21-7.69-39.83-15.14-31.09-18.35-56.2-50.45-70.69-90.39l-2.01-5.56,5.08-3.04c16.28-9.76,33.16-17.01,50.2-21.57-.66-5.21-1.11-10.53-1.34-15.87-21.88,5.29-38.61,11.43-53.96,19.79-9.59,5.22-19.18,9.33-28.55,12.24,7.59,9.12,13.96,19.91,18.96,32.13,13.74,33.57,35.54,60.05,66.64,80.96Z"/><path class="cls-1" d="m95.94,225.87c4.13,3.94,8.45,7.51,12.9,10.65,8.64-4.69,17.67-8.3,26.88-10.72,4.2-1.1,8.6-1.97,13.06-2.59,4.82-.67,9.71-1.01,14.55-1.01,3.2,0,6.4.15,9.59.44-6.37-4.85-12.19-10.45-17.37-16.71-2.87-3.48-5.52-7.09-7.86-10.74-7.56-11.8-13.02-25.02-16.22-39.3-7.89-35.16-1.63-75.38,17.64-113.25l2.68-5.28,5.71,1.61c18.29,5.14,35.15,12.43,50.15,21.68,3.34-4.04,6.93-8.01,10.69-11.84-18.88-12.27-34.83-20.21-51.43-25.62-10.38-3.39-19.96-7.54-28.5-12.35-1.46,11.76-4.99,23.78-10.49,35.78-15.13,32.97-19.55,66.94-13.53,103.84,2.98,18.25,9.19,35.23,18.47,50.46l4.9,8.03-9.06,2.61c-11.36,3.27-22.37,8.08-32.76,14.3Z"/><path class="cls-1" d="m249.81,231.82c-8.86,0-16.07,7.21-16.07,16.08s7.21,16.07,16.07,16.07,16.07-7.21,16.07-16.07-7.21-16.08-16.07-16.08Z"/></g></svg>