<?xml version="1.0" encoding="utf-8"?>
<!-- Generator: Adobe Illustrator 28.0.0, SVG Export Plug-In . SVG Version: 6.00 Build 0)  -->
<svg version="1.1" id="Layer_1" xmlns="http://www.w3.org/2000/svg" xmlns:xlink="http://www.w3.org/1999/xlink" x="0px" y="0px"
	 viewBox="0 0 929.2 332.6" style="enable-background:new 0 0 929.2 332.6;" xml:space="preserve">
<style type="text/css">
	.st0{fill:#58595B;}
	.st1{fill:#51C0AC;}
	.st2{fill:#FFFFFF;}
</style>
<g>
	<g>
		<path class="st2" d="M535.4,161.3v-78h-16.5V84c0,0.2,0,1.9,1.2,2.1c3.1,1,10.9,7.9,10.9,29.8v45.4c0,31.2-20.9,47.5-41.5,47.5
			c-27.5,0-40-24.6-40-47.5v-78h-18.8v78c0,38.9,25.2,56.3,50.2,56.3c13.8,0,27.4-5.3,37.3-14.5
			C529.5,192.8,535.4,178.3,535.4,161.3z"/>
		<path class="st2" d="M813.1,83.3l-68.1,134.2h19.8v-0.7c0-0.2,0-1.9-1.2-2.2c-1.3-0.4-3.2-3.5-3.2-9c0-4.1,1-11,5.8-20.6
			l10.4-20.6c0.4,0,0.9,0.1,1.3,0.1h59.5c5.7,11.1,28.3,53,28.3,53h20.9L817.2,83.3H813.1z M778.9,160.2l28.2-55.8
			c0,0,14.8,29.2,28.3,55.8H778.9z"/>
		<path class="st2" d="M574.9,164.5c0.4,0,0.9,0.1,1.3,0.1h59.5c5.7,11.1,28.3,53,28.3,53H685L615.4,83.3h-4l-68.1,134.2h19.8v-0.7
			c0-0.2,0-1.9-1.2-2.2c-1.3-0.4-3.2-3.5-3.2-9c0-4.1,1-11,5.8-20.6L574.9,164.5z M605.3,104.4c0,0,14.8,29.2,28.3,55.8h-56.5
			L605.3,104.4z"/>
		<path class="st2" d="M732.3,185.5l0.2-102.1h-28.3v0.7c0,0.2,0,1.9,1.2,2.1c1.1,0.4,2.9,2.2,4.7,5.4c2.7,4.8,3.9,11.7,3.9,17.2
			v77.7c0,15.4-2.4,27.3-7,35.5c-5.1,8.9-13,13.5-23.6,13.5h0c-0.8,0-1.6,0-2.5-0.1l-1.2-0.1l1.3,2.5l0.4,0c1.5,0.1,3,0.1,4.5,0.1h0
			C715.1,238.2,732.3,217.8,732.3,185.5z"/>
		<path class="st2" d="M389.3,83.3h-76.4h-7.7h-8l-1.8,5.4l-4.3,13.2h0.9c0.3,0,1.6,0,2-1c0.2-0.1,0.5-0.5,0.8-1
			c0.1-0.2,0.6-0.9,0.6-0.9c1.6-2,4.1-4.7,9.8-7c0,0,7.1-2.1,7.7-2.3v0c5.9-1.3,14.3-2.1,26.9-2.1h2.9v130.1h18.6V87.7h2.7
			c11.1,0,19.2,0.9,25.2,2.1c12.7,2.7,16.2,7.4,18.2,10.1c0.3,0.5,0.6,0.9,0.8,1c0.3,1,1.7,1,2,1h0.9L405,83.3H389.3z"/>
	</g>
	<path class="st2" d="M349,51.6c0.6,0.4,1.5,0.6,2.8,0.6c2.1,0,4.2-0.6,6.4-1.7c1.5-0.7,3.5-2.1,6.2-3.9c1.1,0.4,2,0.6,2.5,0.6
		c0.6,0.2,1.8,0.3,3.6,0.3l2.5-5h-2.8c-0.9,0-1.7-0.1-2.2-0.3c0.9-1.5,1.5-2.6,1.7-3.4c0.2-0.7,0.3-1.9,0.3-3.4
		c0-1.5-0.2-2.6-0.6-3.4c-0.7-1.5-1.4-2.4-2-2.8c-0.6-0.7-1.6-1.5-3.1-2.2c-1.1-0.6-2.3-0.8-3.6-0.8c-1.7,0-3.1,0.7-4.2,2.2
		c-1.3,1.3-2,3.1-2,5.3c0,3.7,1.7,7.3,5,10.6c-3.5,2.1-8.1,3.9-13.7,5.6L349,51.6z M358.5,34.8c0-1.7,0.9-2.5,2.8-2.5
		c1.1,0,2.3,0.4,3.6,1.1c0.9,0.6,1.9,1.4,2.8,2.5c-0.7,2.2-2.1,3.9-3.9,5c-1.3-0.4-2.5-1.1-3.6-2.2C359,37.6,358.5,36.3,358.5,34.8z
		"/>
	<path class="st2" d="M729.1,36.2l2-5.6c-4.3,1.3-9.1,3.2-14.6,5.6c-5.6,2.8-9.5,4.8-11.8,6.2c-0.2,0.4-0.5,1.1-0.8,2.2
		c-0.4,1.5-0.6,2.5-0.6,3.1l13.2-6.4C722.9,38.4,727.1,36.8,729.1,36.2z"/>
	<path class="st2" d="M493.1,36.2l2-5.6c-4.3,1.3-9.1,3.2-14.6,5.6c-5.6,2.8-9.5,4.8-11.8,6.2c-0.2,0.4-0.5,1.1-0.8,2.2
		c-0.4,1.5-0.6,2.5-0.6,3.1l13.2-6.4C486.8,38.4,491,36.8,493.1,36.2z"/>
	<g>
		<path class="st2" d="M463.8,291.2c0-4.8,0-5.7-0.1-6.8c-0.1-1.1-0.3-1.6-1.4-1.8c-0.3-0.1-0.8-0.1-1.2-0.1c-0.3,0-0.5-0.1-0.5-0.3
			c0-0.2,0.2-0.3,0.7-0.3c0.9,0,1.8,0,2.6,0c0.8,0,1.6,0.1,2,0.1c1,0,7.4,0,8,0c0.6-0.1,1.1-0.1,1.4-0.2c0.2,0,0.4-0.1,0.5-0.1
			c0.2,0,0.2,0.1,0.2,0.3c0,0.2-0.2,0.6-0.3,2.1c0,0.3-0.1,1.7-0.2,2.1c0,0.2-0.1,0.4-0.3,0.4s-0.3-0.2-0.3-0.4c0-0.2,0-0.8-0.2-1.1
			c-0.2-0.6-0.5-1-2.1-1.1c-0.5-0.1-3.9-0.1-4.5-0.1c-0.2,0-0.2,0.1-0.2,0.3v8.1c0,0.2,0,0.4,0.2,0.4c0.7,0,4.4,0,5.1-0.1
			c0.8-0.1,1.2-0.2,1.5-0.5c0.2-0.3,0.4-0.4,0.5-0.4c0.1,0,0.2,0.1,0.2,0.3c0,0.2-0.1,0.7-0.3,2.3c0,0.6-0.1,1.9-0.1,2.1
			c0,0.3,0,0.6-0.3,0.6c-0.2,0-0.3-0.1-0.3-0.3c0-0.3,0-0.7-0.1-1.1c-0.2-0.6-0.6-1.1-1.8-1.2c-0.6-0.1-3.8-0.1-4.5-0.1
			c-0.2,0-0.2,0.1-0.2,0.3v2.5c0,1.1,0,4,0,4.9c0.1,2.2,0.6,2.7,3.8,2.7c0.8,0,2.2,0,3-0.4c0.8-0.4,1.2-1.1,1.4-2.4
			c0.1-0.3,0.1-0.5,0.4-0.5c0.3,0,0.3,0.3,0.3,0.6c0,0.7-0.3,2.9-0.4,3.5c-0.2,0.8-0.5,0.8-1.7,0.8c-2.4,0-4.1-0.1-5.5-0.1
			c-1.4-0.1-2.4-0.1-3.3-0.1c-0.4,0-1.1,0-1.8,0c-0.7,0-1.6,0.1-2.2,0.1c-0.4,0-0.6-0.1-0.6-0.3c0-0.2,0.1-0.3,0.5-0.3
			c0.5,0,0.9-0.1,1.1-0.1c0.6-0.1,0.8-0.8,0.9-1.8c0.2-1.3,0.2-3.9,0.2-6.8V291.2z"/>
		<path class="st2" d="M488.5,303c-3.1-2.7-3.9-6.3-3.9-9.4c0-2.2,0.7-5.9,3.7-8.7c2.3-2.1,5.3-3.4,10.1-3.4c2,0,3.2,0.1,4.6,0.3
			c1.2,0.2,2.2,0.4,3.2,0.5c0.4,0,0.5,0.2,0.5,0.4c0,0.3-0.1,0.6-0.2,1.8c-0.1,1.1,0,2.8-0.1,3.4c0,0.5-0.1,0.7-0.4,0.7
			c-0.3,0-0.3-0.3-0.3-0.7c0-1-0.4-2.1-1.2-2.9c-1.1-1.1-3.5-2-6.5-2c-2.8,0-4.6,0.7-6,2c-2.3,2.1-2.9,5.2-2.9,8.2
			c0,7.6,5.8,11.3,10,11.3c2.8,0,4.6-0.3,5.8-1.8c0.5-0.6,1-1.5,1.1-2.1c0.1-0.5,0.2-0.6,0.4-0.6c0.2,0,0.3,0.2,0.3,0.5
			c0,0.4-0.4,3.2-0.7,4.2c-0.2,0.5-0.3,0.7-0.8,0.9c-1.3,0.5-3.7,0.7-5.7,0.7C495.1,306.5,491.4,305.5,488.5,303z"/>
		<path class="st2" d="M514.2,294c0-5.4,3.6-12.5,13.2-12.5c7.9,0,12.9,4.6,12.9,11.9c0,7.3-5.1,13.1-13.2,13.1
			C517.9,306.5,514.2,299.6,514.2,294z M535.8,294.6c0-7.1-4.1-11.6-9.3-11.6c-3.7,0-7.8,2-7.8,10c0,6.6,3.7,11.9,9.8,11.9
			C530.6,304.9,535.8,303.8,535.8,294.6z"/>
		<path class="st2" d="M565,291.2c0-4.8,0-5.7-0.1-6.8c-0.1-1.1-0.3-1.6-1.4-1.8c-0.3-0.1-0.8-0.1-1.2-0.1c-0.4,0-0.5-0.1-0.5-0.3
			c0-0.2,0.2-0.3,0.7-0.3c1.7,0,3.7,0.1,4.4,0.1c1.1,0,3.5-0.1,4.5-0.1c2,0,4.1,0.2,5.9,1.4c0.9,0.6,2.2,2.2,2.2,4.4
			c0,2.4-1,4.5-4.2,7.1c2.8,3.6,5,6.4,6.9,8.4c1.8,1.8,3.1,2.1,3.6,2.2c0.4,0.1,0.6,0.1,0.9,0.1c0.3,0,0.4,0.1,0.4,0.3
			c0,0.3-0.2,0.3-0.6,0.3h-3c-1.8,0-2.6-0.2-3.4-0.6c-1.4-0.7-2.6-2.2-4.4-4.7c-1.3-1.8-2.7-3.9-3.2-4.4c-0.2-0.2-0.4-0.2-0.6-0.2
			l-2.8-0.1c-0.2,0-0.3,0.1-0.3,0.3v0.4c0,3,0,5.5,0.2,6.8c0.1,0.9,0.3,1.6,1.2,1.8c0.5,0.1,1.2,0.1,1.6,0.1c0.3,0,0.4,0.1,0.4,0.3
			c0,0.2-0.2,0.3-0.6,0.3c-1.8,0-4.2-0.1-4.7-0.1c-0.6,0-2.6,0.1-3.9,0.1c-0.4,0-0.6-0.1-0.6-0.3c0-0.2,0.1-0.3,0.5-0.3
			c0.5,0,0.9-0.1,1.1-0.1c0.6-0.1,0.8-0.8,0.9-1.8c0.2-1.3,0.2-3.9,0.2-6.8V291.2z M568.8,293.7c0,0.3,0.1,0.5,0.3,0.6
			c0.7,0.2,1.6,0.3,2.4,0.3c1.3,0,1.7-0.1,2.3-0.5c1-0.7,1.9-2.2,1.9-4.8c0-4.5-3-5.8-4.9-5.8c-0.8,0-1.4,0-1.7,0.1
			c-0.2,0.1-0.3,0.2-0.3,0.4V293.7z"/>
		<path class="st2" d="M593.2,291.2c0-4.8,0-5.7-0.1-6.8c-0.1-1.1-0.3-1.6-1.4-1.8c-0.3-0.1-0.8-0.1-1.2-0.1c-0.3,0-0.5-0.1-0.5-0.3
			c0-0.2,0.2-0.3,0.7-0.3c0.9,0,1.8,0,2.6,0c0.8,0,1.6,0.1,2,0.1c1,0,7.4,0,8,0c0.6-0.1,1.1-0.1,1.4-0.2c0.2,0,0.4-0.1,0.5-0.1
			c0.2,0,0.2,0.1,0.2,0.3c0,0.2-0.2,0.6-0.3,2.1c0,0.3-0.1,1.7-0.2,2.1c0,0.2-0.1,0.4-0.3,0.4c-0.2,0-0.3-0.2-0.3-0.4
			c0-0.2,0-0.8-0.2-1.1c-0.2-0.6-0.5-1-2.1-1.1c-0.5-0.1-3.9-0.1-4.5-0.1c-0.2,0-0.2,0.1-0.2,0.3v8.1c0,0.2,0,0.4,0.2,0.4
			c0.7,0,4.4,0,5.1-0.1c0.8-0.1,1.2-0.2,1.5-0.5c0.2-0.3,0.4-0.4,0.5-0.4c0.1,0,0.2,0.1,0.2,0.3c0,0.2-0.1,0.7-0.3,2.3
			c0,0.6-0.1,1.9-0.1,2.1c0,0.3,0,0.6-0.3,0.6c-0.2,0-0.3-0.1-0.3-0.3c0-0.3,0-0.7-0.1-1.1c-0.2-0.6-0.6-1.1-1.8-1.2
			c-0.6-0.1-3.8-0.1-4.5-0.1c-0.2,0-0.2,0.1-0.2,0.3v2.5c0,1.1,0,4,0,4.9c0.1,2.2,0.6,2.7,3.8,2.7c0.8,0,2.2,0,3-0.4
			c0.8-0.4,1.2-1.1,1.4-2.4c0.1-0.3,0.1-0.5,0.4-0.5c0.3,0,0.3,0.3,0.3,0.6c0,0.7-0.3,2.9-0.4,3.5c-0.2,0.8-0.5,0.8-1.7,0.8
			c-2.4,0-4.1-0.1-5.5-0.1c-1.4-0.1-2.4-0.1-3.3-0.1c-0.4,0-1.1,0-1.8,0c-0.7,0-1.6,0.1-2.2,0.1c-0.4,0-0.6-0.1-0.6-0.3
			c0-0.2,0.1-0.3,0.5-0.3c0.5,0,0.9-0.1,1.1-0.1c0.6-0.1,0.8-0.8,0.9-1.8c0.2-1.3,0.2-3.9,0.2-6.8V291.2z"/>
		<path class="st2" d="M615.7,305.6c-0.5-0.2-0.6-0.4-0.6-1.1c0-1.8,0.1-3.7,0.2-4.2c0-0.5,0.1-0.8,0.4-0.8c0.3,0,0.3,0.3,0.3,0.5
			c0,0.4,0.1,1.1,0.3,1.6c0.7,2.4,2.6,3.2,4.6,3.2c2.9,0,4.3-1.9,4.3-3.6c0-1.6-0.5-3-3.1-5.1l-1.5-1.1c-3.5-2.7-4.7-5-4.7-7.5
			c0-3.5,2.9-6,7.4-6c2.1,0,3.4,0.3,4.2,0.5c0.3,0.1,0.4,0.2,0.4,0.4c0,0.4-0.1,1.3-0.1,3.8c0,0.7-0.1,1-0.4,1
			c-0.2,0-0.3-0.2-0.3-0.6c0-0.3-0.2-1.3-0.8-2.1c-0.5-0.6-1.4-1.6-3.5-1.6c-2.4,0-3.8,1.4-3.8,3.3c0,1.5,0.7,2.6,3.4,4.6l0.9,0.7
			c3.9,2.9,5.2,5.1,5.2,8.1c0,1.8-0.7,4-3,5.5c-1.6,1-3.4,1.3-5.1,1.3C618.5,306.5,617.1,306.2,615.7,305.6z"/>
		<path class="st2" d="M636.7,294c0-5.4,3.6-12.5,13.2-12.5c7.9,0,12.9,4.6,12.9,11.9c0,7.3-5.1,13.1-13.2,13.1
			C640.4,306.5,636.7,299.6,636.7,294z M658.3,294.6c0-7.1-4.1-11.6-9.3-11.6c-3.7,0-7.8,2-7.8,10c0,6.6,3.7,11.9,9.8,11.9
			C653.1,304.9,658.3,303.8,658.3,294.6z"/>
		<path class="st2" d="M673.5,291.2c0-4.8,0-5.7-0.1-6.8c-0.1-1.1-0.3-1.6-1.4-1.8c-0.3-0.1-0.8-0.1-1.2-0.1c-0.4,0-0.5-0.1-0.5-0.3
			c0-0.2,0.2-0.3,0.7-0.3c1.7,0,3.7,0.1,4.4,0.1c1.1,0,3.5-0.1,4.5-0.1c2,0,4.1,0.2,5.9,1.4c0.9,0.6,2.2,2.2,2.2,4.4
			c0,2.4-1,4.5-4.2,7.1c2.8,3.6,5,6.4,6.9,8.4c1.8,1.8,3.1,2.1,3.6,2.2c0.4,0.1,0.6,0.1,0.9,0.1c0.3,0,0.4,0.1,0.4,0.3
			c0,0.3-0.2,0.3-0.6,0.3h-3c-1.8,0-2.6-0.2-3.4-0.6c-1.4-0.7-2.6-2.2-4.4-4.7c-1.3-1.8-2.7-3.9-3.2-4.4c-0.2-0.2-0.4-0.2-0.6-0.2
			l-2.8-0.1c-0.2,0-0.3,0.1-0.3,0.3v0.4c0,3,0,5.5,0.2,6.8c0.1,0.9,0.3,1.6,1.2,1.8c0.5,0.1,1.2,0.1,1.6,0.1c0.3,0,0.4,0.1,0.4,0.3
			c0,0.2-0.2,0.3-0.6,0.3c-1.8,0-4.2-0.1-4.7-0.1c-0.6,0-2.6,0.1-3.9,0.1c-0.4,0-0.6-0.1-0.6-0.3c0-0.2,0.1-0.3,0.5-0.3
			c0.5,0,0.9-0.1,1.1-0.1c0.6-0.1,0.8-0.8,0.9-1.8c0.2-1.3,0.2-3.9,0.2-6.8V291.2z M677.3,293.7c0,0.3,0.1,0.5,0.3,0.6
			c0.7,0.2,1.6,0.3,2.4,0.3c1.3,0,1.7-0.1,2.3-0.5c1-0.7,1.9-2.2,1.9-4.8c0-4.5-3-5.8-4.9-5.8c-0.8,0-1.4,0-1.7,0.1
			c-0.2,0.1-0.3,0.2-0.3,0.4V293.7z"/>
		<path class="st2" d="M704.7,283.7l-4.7,0.1c-1.8,0.1-2.6,0.2-3.1,0.9c-0.3,0.5-0.5,0.9-0.5,1.1c-0.1,0.3-0.2,0.4-0.4,0.4
			c-0.2,0-0.3-0.2-0.3-0.5c0-0.5,0.6-3.4,0.7-3.7c0.1-0.4,0.2-0.6,0.4-0.6c0.3,0,0.6,0.3,1.4,0.4c0.9,0.1,2.1,0.2,3.2,0.2h12.6
			c1,0,1.7-0.1,2.2-0.2c0.5-0.1,0.7-0.2,0.9-0.2c0.2,0,0.3,0.2,0.3,0.7c0,0.7-0.1,2.9-0.1,3.7c0,0.3-0.1,0.5-0.3,0.5
			c-0.3,0-0.3-0.2-0.4-0.6l0-0.3c-0.1-0.8-0.9-1.7-3.8-1.8l-4-0.1v13.1c0,2.9,0,5.4,0.2,6.8c0.1,0.9,0.3,1.6,1.2,1.7
			c0.4,0.1,1.1,0.1,1.6,0.1c0.4,0,0.5,0.1,0.5,0.3c0,0.2-0.3,0.3-0.6,0.3c-2.1,0-4.1-0.1-5-0.1c-0.7,0-2.7,0.1-4,0.1
			c-0.4,0-0.6-0.1-0.6-0.3c0-0.2,0.1-0.3,0.5-0.3c0.5,0,0.9-0.1,1.1-0.1c0.6-0.1,0.8-0.8,0.9-1.8c0.2-1.3,0.2-3.9,0.2-6.8V283.7z"/>
	</g>
	<g>
		<path class="st2" d="M207.7,105.2L207.7,105.2c-2.9,0-6,0.2-9.8,0.7c0.2,2.5,0,4.5-0.3,6.9c2.6-0.3,5.1-0.5,7.5-0.5
			c11.2,0,23.2,2.9,34.5,8.4l2.3,1.1l-0.7,2.5c-2.1,7.9-5.1,15.3-8.9,21.8c1.8,1.4,3.5,2.9,5.2,4.5c5.1-8.2,8.4-15.2,10.6-22.4
			c1.4-4.5,3.1-8.7,5.1-12.4c-5.1-0.5-10.3-2-15.6-4.2C227.8,107.3,218,105.2,207.7,105.2L207.7,105.2z"/>
		<path class="st2" d="M98,117.3c-1.4-13.6,1.6-28.1,8.7-42.1l1.2-2.3l2.5,0.7c7.9,2.2,15.2,5.4,21.6,9.4c1.4-1.7,3-3.5,4.6-5.1
			c-8.1-5.3-15-8.7-22.2-11.1c-4.5-1.5-8.6-3.3-12.3-5.3c-0.6,5.1-2.1,10.3-4.5,15.5c-5.9,12.8-8,25.9-6.4,40.1
			C93.9,117.1,96.3,117.2,98,117.3z"/>
		<path class="st2" d="M102.7,215.4L102.7,215.4c-2.6,0.3-5.1,0.5-7.5,0.5c-11.2,0-23.2-2.9-34.5-8.4l-2.3-1.1l0.6-2.5
			c2.1-7.9,5.1-15.3,9-21.8c-1.8-1.4-3.5-2.9-5.2-4.5c-5.1,8.2-8.4,15.2-10.6,22.4c-1.4,4.5-3.1,8.7-5.1,12.4
			c5.1,0.5,10.3,2,15.6,4.2c9.9,4.3,19.7,6.4,30,6.4c2.9,0,6.1-0.2,10-0.7C102.5,220.7,102.5,218.4,102.7,215.4z"/>
		<path class="st2" d="M202.3,210.5c1.4,13.7-1.5,28.3-8.7,42.4l-1.2,2.3l-2.5-0.7c-7.9-2.2-15.2-5.4-21.6-9.4
			c-1.4,1.7-3,3.5-4.6,5.1c8.1,5.3,15,8.7,22.2,11.1c4.5,1.5,8.6,3.3,12.3,5.3c0.6-5.1,2.1-10.3,4.5-15.5c6-13,8-26.4,6.3-40.9
			C207.1,210.3,204.8,210.4,202.3,210.5z"/>
		<path class="st2" d="M129.1,118.4l-3.6-1.9c-4.5-2.4-9.4-4.2-14.5-5.3c0.1,2.5,0.4,4.9,0.8,7.2c4.1,1.1,8,2.7,11.6,4.7
			c1.6,0.9,3.3,2,4.8,3.1c2.8,2.1,5.4,4.4,7.7,7c-0.5-3.4-0.7-6.9-0.4-10.4c0.1-2,0.4-3.9,0.8-5.7c1.2-5.9,3.5-11.7,6.7-17.1
			c8.1-13.3,22.1-24,39.5-30.1L185,69l1.3,2.2c4.1,7.1,7.2,14.4,9.1,21.7c2.3-0.3,4.6-0.4,6.9-0.5c-2.2-9.5-4.8-16.7-8.3-23.4
			c-2.2-4.2-3.9-8.3-5.2-12.4h0c-4,3.2-8.7,5.9-14,8c-14.6,5.8-26.1,15-35.3,28.4c-4.5,6.6-7.7,13.7-9.4,21.3L129.1,118.4z"/>
		<path class="st2" d="M221,152.7c-6.6-4.5-13.8-7.6-21.4-9.2l-4-0.8l1.9-3.6c2.3-4.5,4.1-9.4,5.2-14.5h0c-2.5,0.1-4.9,0.4-7.2,0.9
			c-1.1,4.1-2.6,8-4.6,11.6c-0.9,1.7-1.9,3.3-3,4.9c-2,2.9-4.3,5.4-6.9,7.7c2.4-0.4,4.9-0.6,7.3-0.6c1,0,2,0,3,0.1
			c2,0.1,3.9,0.4,5.7,0.7c6,1.1,11.7,3.3,17.2,6.6c13.4,7.9,24.2,21.8,30.5,39.1l0.9,2.4l-2.2,1.3c-7,4.2-14.3,7.4-21.6,9.3
			c0.3,2.2,0.5,4.5,0.6,6.9c9.4-2.3,16.7-4.9,23.3-8.6c4.1-2.3,8.3-4,12.3-5.3c-3.3-3.9-6-8.6-8.2-13.9
			C243.8,173.2,234.4,161.7,221,152.7z"/>
		<path class="st2" d="M171.2,209.7l3.6,1.9c4.5,2.4,9.4,4.2,14.5,5.3c-0.1-2.5-0.4-4.9-0.8-7.2c-4.1-1.1-8-2.7-11.6-4.7
			c-1.6-0.9-3.3-2-4.8-3.1c-2.8-2.1-5.4-4.4-7.7-7c0.5,3.4,0.7,6.9,0.4,10.4c-0.1,1.9-0.4,3.9-0.8,5.7c-1.2,5.9-3.5,11.7-6.7,17.1
			c-8.1,13.3-22.1,24-39.5,30.1l-2.4,0.8l-1.3-2.2c-4.1-7.1-7.2-14.4-9.1-21.8c-2.3,0.3-4.6,0.4-6.9,0.5c2.2,9.5,4.8,16.7,8.3,23.4
			c2.2,4.1,3.9,8.2,5.1,12.3h0.2c4-3.2,8.6-5.8,13.9-7.9c14.6-5.8,26.1-15,35.3-28.4c4.5-6.6,7.7-13.7,9.4-21.3L171.2,209.7z"/>
		<path class="st2" d="M79.3,175.5c6.6,4.5,13.8,7.6,21.4,9.2l4,0.8l-1.9,3.6c-2.3,4.5-4.1,9.4-5.2,14.5c2.5-0.1,4.9-0.4,7.2-0.9
			c1.1-4.1,2.6-8,4.6-11.6c0.9-1.6,1.9-3.3,3-4.9c2-2.9,4.3-5.4,6.9-7.7v0v0c-2.4,0.4-4.9,0.6-7.3,0.6c-1,0-2,0-3-0.1
			c-2-0.1-3.9-0.4-5.7-0.7c-6-1.1-11.7-3.3-17.2-6.6c-13.4-7.9-24.2-21.8-30.5-39.1l-0.9-2.4l2.2-1.3c7-4.2,14.3-7.4,21.6-9.3
			c-0.3-2.2-0.5-4.6-0.6-6.9c-9.4,2.3-16.6,4.9-23.3,8.6c-4.1,2.3-8.3,4-12.3,5.3c3.3,3.9,6,8.6,8.2,13.9
			C56.5,154.9,65.9,166.4,79.3,175.5z"/>
		<polygon class="st2" points="119.4,178.5 119.4,178.5 119.4,178.5 119.4,178.5 119.4,178.5 		"/>
		<polygon class="st2" points="117.3,150.1 117.3,150.1 117.3,150.1 		"/>
		<polygon class="st2" points="117.3,150.1 117.3,150.1 83.6,138.2 82.2,142.2 115.9,154.1 		"/>
		
			<rect x="201.1" y="164.6" transform="matrix(0.3321 -0.9433 0.9433 0.3321 -36.3492 313.5299)" class="st2" width="4.2" height="35.7"/>
		
			<rect x="114" y="214.6" transform="matrix(0.3318 -0.9433 0.9433 0.3318 -116.3064 269.1187)" class="st2" width="35.7" height="4.2"/>
		
			<rect x="149.9" y="115.7" transform="matrix(0.3623 -0.9321 0.9321 0.3623 -2.8499 231.5027)" class="st2" width="35.7" height="4.2"/>
		<path class="st2" d="M149.6,156.4c-3.8,0-6.9,3.1-6.9,7c0,3.8,3.1,7,6.9,7c3.8,0,6.9-3.1,6.9-7
			C156.6,159.5,153.5,156.4,149.6,156.4z"/>
	</g>
</g>
</svg>
