<?xml version="1.0" encoding="utf-8"?>
<!-- Generator: Adobe Illustrator 28.0.0, SVG Export Plug-In . SVG Version: 6.00 Build 0)  -->
<svg version="1.1" id="Layer_1" xmlns="http://www.w3.org/2000/svg" xmlns:xlink="http://www.w3.org/1999/xlink" x="0px" y="0px"
	 viewBox="0 0 287.6 112.3" style="enable-background:new 0 0 287.6 112.3;" xml:space="preserve">
<style type="text/css">
	.st0{clip-path:url(#SVGID_00000048461114648814802530000003665292987868882579_);fill:#FFFFFF;}
</style>
<g>
	<defs>
		<rect id="SVGID_1_" y="0" width="287.6" height="112.3"/>
	</defs>
	<clipPath id="SVGID_00000078759790569173901950000002786646851340595090_">
		<use xlink:href="#SVGID_1_"  style="overflow:visible;"/>
	</clipPath>
	<path style="clip-path:url(#SVGID_00000078759790569173901950000002786646851340595090_);fill:#FFFFFF;" d="M161.7,19.8
		c0,0.1,0,0.6,0.4,0.7c1.1,0.4,3.7,2.7,3.7,10.2v15.5c0,10.7-7.1,16.3-14.2,16.3c-9.4,0-13.7-8.4-13.7-16.3V19.6h-6.4v26.7
		c0,13.3,8.6,19.3,17.2,19.3c4.7,0,9.4-1.8,12.8-5c3.8-3.6,5.9-8.5,5.9-14.3V19.6h-5.7V19.8z"/>
	<path style="clip-path:url(#SVGID_00000078759790569173901950000002786646851340595090_);fill:#FFFFFF;" d="M250.7,45.9l9.7-19.1
		c0,0,5.1,10,9.7,19.1H250.7z M262.4,19.6l-23.3,45.9h6.8v-0.2c0-0.1,0-0.6-0.4-0.7c-0.4-0.1-1.1-1.2-1.1-3.1c0-1.4,0.3-3.8,2-7
		l3.6-7c0.1,0,0.3,0,0.4,0h20.4c1.9,3.8,9.7,18.1,9.7,18.1h7.2l-23.8-45.9H262.4z"/>
	<path style="clip-path:url(#SVGID_00000078759790569173901950000002786646851340595090_);fill:#FFFFFF;" d="M181.6,45.9l9.7-19.1
		c0,0,5.1,10,9.7,19.1H181.6z M218.5,65.5l-23.8-45.9h-1.4L170,65.5h6.8v-0.2c0-0.1,0-0.6-0.4-0.7c-0.4-0.2-1.1-1.2-1.1-3.1
		c0-1.4,0.3-3.8,2-7l3.6-7c0.1,0,0.3,0,0.4,0h20.4c1.9,3.8,9.7,18.1,9.7,18.1H218.5z"/>
	<path style="clip-path:url(#SVGID_00000078759790569173901950000002786646851340595090_);fill:#FFFFFF;" d="M218.8,72.6
		c10,0,15.9-7,15.9-18l0.1-34.9h-9.7v0.2c0,0.1,0,0.6,0.4,0.7c0.4,0.1,1,0.8,1.6,1.9c0.9,1.7,1.3,4,1.3,5.9v26.6
		c0,5.3-0.8,9.3-2.4,12.1c-1.7,3.1-4.5,4.6-8.1,4.6h0c-0.3,0-0.6,0-0.8,0l-0.4,0l0.4,0.9l0.1,0C217.8,72.5,218.3,72.6,218.8,72.6
		L218.8,72.6z"/>
	<path style="clip-path:url(#SVGID_00000078759790569173901950000002786646851340595090_);fill:#FFFFFF;" d="M122.7,19.6h-5.4H91.2
		h-2.6h-2.7l-0.6,1.9l-1.5,4.5H84c0.1,0,0.6,0,0.7-0.4c0.1,0,0.2-0.2,0.3-0.3c0-0.1,0.2-0.3,0.2-0.3c0.5-0.7,1.4-1.6,3.4-2.4
		c0,0,2.4-0.7,2.6-0.8v0c2-0.4,4.9-0.7,9.2-0.7h1v44.5h6.4V21.1h0.9c3.8,0,6.6,0.3,8.6,0.7c4.4,0.9,5.5,2.5,6.2,3.5
		c0.1,0.2,0.2,0.3,0.3,0.3c0.1,0.3,0.6,0.4,0.7,0.4h0.3L122.7,19.6z"/>
	<path style="clip-path:url(#SVGID_00000078759790569173901950000002786646851340595090_);fill:#FFFFFF;" d="M106.4,0.8
		c-0.4,0.4-0.7,1.1-0.7,1.8c0,1.3,0.6,2.5,1.7,3.6c-1.2,0.7-2.8,1.3-4.7,1.9l1.1,0.6c0.2,0.1,0.5,0.2,1,0.2c0.7,0,1.4-0.2,2.2-0.6
		c0.5-0.3,1.2-0.7,2.1-1.3c0.4,0.1,0.7,0.2,0.9,0.2c0.2,0.1,0.6,0.1,1.2,0.1l0.9-1.7h-1c-0.3,0-0.6,0-0.8-0.1
		c0.3-0.5,0.5-0.9,0.6-1.1c0.1-0.3,0.1-0.6,0.1-1.1c0-0.5-0.1-0.9-0.2-1.1c-0.3-0.5-0.5-0.8-0.7-1c-0.2-0.3-0.5-0.5-1.1-0.8
		c-0.4-0.2-0.8-0.3-1.2-0.3C107.3,0,106.8,0.3,106.4,0.8 M107.7,4.3c-0.4-0.4-0.6-0.8-0.6-1.3c0-0.6,0.3-0.9,1-0.9
		c0.4,0,0.8,0.1,1.2,0.4c0.3,0.2,0.6,0.5,1,0.9c-0.3,0.8-0.7,1.3-1.3,1.7C108.5,4.9,108,4.7,107.7,4.3"/>
	<path style="clip-path:url(#SVGID_00000078759790569173901950000002786646851340595090_);fill:#FFFFFF;" d="M230,3.4
		c-1.9,1-3.3,1.7-4,2.1c-0.1,0.1-0.2,0.4-0.3,0.8c-0.1,0.5-0.2,0.9-0.2,1.1l4.5-2.2c2.2-1,3.6-1.5,4.3-1.7l0.7-1.9
		C233.5,2,231.9,2.6,230,3.4"/>
	<path style="clip-path:url(#SVGID_00000078759790569173901950000002786646851340595090_);fill:#FFFFFF;" d="M149.2,3.4
		c-1.9,1-3.3,1.7-4,2.1c-0.1,0.1-0.2,0.4-0.3,0.8c-0.1,0.5-0.2,0.9-0.2,1.1l4.5-2.2c2.2-1,3.6-1.5,4.3-1.7l0.7-1.9
		C152.7,2,151.1,2.6,149.2,3.4"/>
	<path style="clip-path:url(#SVGID_00000078759790569173901950000002786646851340595090_);fill:#FFFFFF;" d="M29.8,64.5l1.2-0.7
		l0.4,1.3c0.5,1.7,1.3,3.3,2.2,4.8c0.6-0.6,1.1-1.3,1.5-1.9c-0.7-1.3-1.3-2.6-1.7-3.9c-0.2-0.6-0.3-1.3-0.4-1.9
		c-0.2-1.2-0.2-2.4-0.2-3.6c-0.7,1-1.5,1.8-2.4,2.6c-0.5,0.4-1,0.8-1.6,1.2c-1.7,1.1-3.7,2-5.8,2.5c-1.6,0.4-3.3,0.6-5,0.6
		c-3.9,0-8-1-11.8-2.9l-0.8-0.4l0.2-0.8c0.7-2.7,1.7-5.2,3.1-7.5c-0.6-0.5-1.2-1-1.8-1.5c-1.8,2.8-2.9,5.2-3.7,7.7
		c-0.5,1.5-1.1,3-1.7,4.2c1.8,0.2,3.5,0.7,5.3,1.4c3.4,1.5,6.8,2.2,10.3,2.2c1.7,0,3.4-0.2,5.2-0.5C25.1,66.9,27.6,65.9,29.8,64.5"
		/>
	<path style="clip-path:url(#SVGID_00000078759790569173901950000002786646851340595090_);fill:#FFFFFF;" d="M29.8,32.1l-1.2-0.6
		c-1.5-0.8-3.2-1.4-5-1.8c0,0.8,0.1,1.7,0.3,2.5c1.4,0.4,2.7,0.9,4,1.6c0.6,0.3,1.1,0.7,1.7,1.1c1,0.7,1.9,1.5,2.6,2.4
		c-0.2-1.2-0.2-2.4-0.1-3.6c0.1-0.7,0.1-1.3,0.3-1.9c0.4-2,1.2-4,2.3-5.9c2.8-4.6,7.6-8.2,13.5-10.3l0.8-0.3l0.4,0.8
		c1.4,2.4,2.5,4.9,3.1,7.4c0.8-0.1,1.6-0.1,2.4-0.2c-0.7-3.2-1.6-5.7-2.9-8c-0.8-1.4-1.4-2.8-1.8-4.2c-1.4,1.1-3,2-4.8,2.7
		c-5,2-9,5.1-12.1,9.7c-1.6,2.3-2.6,4.7-3.2,7.3L29.8,32.1z"/>
	<path style="clip-path:url(#SVGID_00000078759790569173901950000002786646851340595090_);fill:#FFFFFF;" d="M44.1,30.9l-1.2,0.7
		l-0.4-1.3c-0.5-1.7-1.3-3.3-2.2-4.8c-0.6,0.6-1.1,1.3-1.5,1.9c0.7,1.3,1.3,2.6,1.7,3.9c0.2,0.6,0.3,1.3,0.4,1.9
		c0.2,1.2,0.2,2.4,0.2,3.6c0.7-1,1.5-1.8,2.4-2.6c0.5-0.4,1-0.8,1.6-1.2c1.7-1.2,3.7-2,5.8-2.5c1.6-0.4,3.3-0.6,5-0.6
		c3.9,0,8,1,11.8,2.9l0.8,0.4l-0.2,0.8c-0.7,2.7-1.7,5.2-3.1,7.5c0.6,0.5,1.2,1,1.8,1.5c1.8-2.8,2.9-5.2,3.7-7.7
		c0.5-1.5,1.1-3,1.8-4.2c-1.8-0.2-3.5-0.7-5.3-1.4c-3.4-1.5-6.8-2.2-10.3-2.2c-1.7,0-3.4,0.2-5.2,0.5C48.8,28.5,46.3,29.5,44.1,30.9
		"/>
	<path style="clip-path:url(#SVGID_00000078759790569173901950000002786646851340595090_);fill:#FFFFFF;" d="M71.1,55.8
		c-2-5-5.3-8.9-9.9-12c-2.3-1.5-4.7-2.6-7.3-3.1l-1.4-0.3l0.6-1.2c0.8-1.6,1.4-3.2,1.8-5c-0.8,0-1.7,0.1-2.5,0.3
		c-0.4,1.4-0.9,2.7-1.6,4c-0.3,0.6-0.7,1.1-1,1.7c-0.7,1-1.5,1.9-2.4,2.7c0.8-0.1,1.7-0.2,2.5-0.2c0.3,0,0.7,0,1,0
		c0.7,0,1.3,0.1,2,0.2c2,0.4,4,1.1,5.9,2.2c4.6,2.7,8.3,7.5,10.5,13.4l0.3,0.8L69,59.7c-2.4,1.4-4.9,2.5-7.4,3.2
		c0.1,0.8,0.2,1.6,0.2,2.3c3.2-0.8,5.7-1.7,8-2.9c1.4-0.8,2.8-1.4,4.2-1.8C72.8,59.2,71.9,57.6,71.1,55.8"/>
	<path style="clip-path:url(#SVGID_00000078759790569173901950000002786646851340595090_);fill:#FFFFFF;" d="M59.7,51
		c-0.6-0.6-1.3-1.1-1.9-1.6c-1.3,0.7-2.6,1.2-4,1.6c-0.6,0.2-1.3,0.3-1.9,0.4c-0.7,0.1-1.4,0.1-2.2,0.1c-0.5,0-0.9,0-1.4-0.1
		c0.9,0.7,1.8,1.5,2.6,2.5c0.4,0.5,0.8,1,1.2,1.6c1.1,1.7,1.9,3.7,2.4,5.8c1.2,5.2,0.2,11.2-2.6,16.8l-0.4,0.8l-0.8-0.2
		c-2.7-0.8-5.2-1.8-7.4-3.2c-0.5,0.6-1,1.2-1.6,1.8c2.8,1.8,5.2,3,7.6,3.8c1.5,0.5,3,1.1,4.2,1.8c0.2-1.7,0.7-3.5,1.6-5.3
		c2.2-4.9,2.9-9.9,2-15.4c-0.4-2.7-1.4-5.2-2.7-7.5l-0.7-1.2l1.3-0.4C56.6,52.6,58.2,51.9,59.7,51"/>
	<path style="clip-path:url(#SVGID_00000078759790569173901950000002786646851340595090_);fill:#FFFFFF;" d="M44.2,63.3l1.2,0.6
		c1.5,0.8,3.2,1.4,5,1.8c0-0.8-0.1-1.7-0.3-2.5c-1.4-0.4-2.7-0.9-4-1.6c-0.6-0.3-1.1-0.7-1.7-1.1c-1-0.7-1.9-1.5-2.6-2.4
		c0.2,1.2,0.2,2.4,0.1,3.6c-0.1,0.7-0.1,1.3-0.3,1.9c-0.4,2-1.2,4-2.3,5.9c-2.8,4.6-7.6,8.2-13.5,10.3L25,80.2l-0.4-0.8
		c-1.4-2.4-2.5-4.9-3.1-7.4c-0.8,0.1-1.6,0.1-2.4,0.2c0.8,3.2,1.6,5.7,2.9,8c0.8,1.4,1.4,2.8,1.8,4.2c1.4-1.1,3-2,4.8-2.7
		c5-2,9-5.1,12.1-9.7c1.6-2.3,2.6-4.7,3.2-7.3L44.2,63.3z"/>
	<path style="clip-path:url(#SVGID_00000078759790569173901950000002786646851340595090_);fill:#FFFFFF;" d="M12.7,51.6
		c2.3,1.5,4.7,2.6,7.3,3.1l1.4,0.3l-0.6,1.2c-0.8,1.6-1.4,3.2-1.8,5c0.8,0,1.7-0.1,2.5-0.3c0.4-1.4,0.9-2.7,1.6-4
		c0.3-0.6,0.7-1.1,1-1.7c0.7-1,1.5-1.9,2.4-2.7c-0.8,0.1-1.7,0.2-2.5,0.2c-0.3,0-0.7,0-1,0c-0.7,0-1.3-0.1-2-0.2
		c-2-0.4-4-1.1-5.9-2.2c-4.6-2.7-8.3-7.5-10.5-13.4l-0.3-0.8L5,35.7c2.4-1.4,4.9-2.5,7.4-3.2c-0.1-0.8-0.2-1.6-0.2-2.3
		c-3.2,0.8-5.7,1.7-8,2.9c-1.4,0.8-2.8,1.4-4.2,1.8c1.1,1.3,2.1,2.9,2.8,4.8C4.8,44.6,8.1,48.5,12.7,51.6"/>
	<path style="clip-path:url(#SVGID_00000078759790569173901950000002786646851340595090_);fill:#FFFFFF;" d="M14.2,44.4
		c0.6,0.6,1.3,1.1,1.9,1.6c1.3-0.7,2.6-1.2,4-1.6c0.6-0.2,1.3-0.3,1.9-0.4c0.7-0.1,1.4-0.1,2.2-0.1c0.5,0,0.9,0,1.4,0.1
		c-0.9-0.7-1.8-1.5-2.6-2.5c-0.4-0.5-0.8-1.1-1.2-1.6c-1.1-1.7-1.9-3.7-2.4-5.8c-1.2-5.2-0.2-11.2,2.6-16.8l0.4-0.8l0.8,0.2
		c2.7,0.8,5.2,1.8,7.4,3.2c0.5-0.6,1-1.2,1.6-1.8c-2.8-1.8-5.2-3-7.6-3.8c-1.5-0.5-3-1.1-4.2-1.8c-0.2,1.7-0.7,3.5-1.6,5.3
		c-2.2,4.9-2.9,9.9-2,15.4c0.4,2.7,1.4,5.2,2.7,7.5l0.7,1.2L19,42.3C17.4,42.8,15.7,43.5,14.2,44.4"/>
	<path style="clip-path:url(#SVGID_00000078759790569173901950000002786646851340595090_);fill:#FFFFFF;" d="M37,45.3
		c-1.3,0-2.4,1.1-2.4,2.4c0,1.3,1.1,2.4,2.4,2.4c1.3,0,2.4-1.1,2.4-2.4C39.3,46.4,38.3,45.3,37,45.3"/>
	<path style="clip-path:url(#SVGID_00000078759790569173901950000002786646851340595090_);fill:#FFFFFF;" d="M101.3,90.2
		c0-1.7,0-2,0-2.3c0-0.4-0.1-0.5-0.5-0.6c-0.1,0-0.3,0-0.4,0c-0.1,0-0.2,0-0.2-0.1c0-0.1,0.1-0.1,0.2-0.1c0.6,0,1.3,0,1.6,0
		c0.4,0,1.1,0,1.6,0c1.4,0,1.9,0.5,2,0.6c0.2,0.2,0.5,0.7,0.5,1.3c0,1.5-1.1,2.6-2.7,2.6c-0.1,0-0.2,0-0.2,0c-0.1,0-0.1,0-0.1-0.1
		c0-0.1,0.1-0.1,0.3-0.1c0.6,0,1.5-0.7,1.5-1.8c0-0.4,0-1.1-0.6-1.6c-0.4-0.4-0.8-0.4-1.1-0.4c-0.2,0-0.3,0-0.4,0
		c-0.1,0-0.1,0.1-0.1,0.2v4.4c0,1,0,1.9,0.1,2.3c0,0.3,0.1,0.5,0.4,0.6c0.2,0,0.4,0,0.6,0c0.1,0,0.2,0,0.2,0.1
		c0,0.1-0.1,0.1-0.2,0.1c-0.7,0-1.4,0-1.7,0c-0.3,0-0.9,0-1.4,0c-0.1,0-0.2,0-0.2-0.1c0-0.1,0-0.1,0.2-0.1c0.2,0,0.3,0,0.4,0
		c0.2,0,0.3-0.3,0.3-0.6c0.1-0.5,0.1-1.3,0.1-2.3V90.2z"/>
	<path style="clip-path:url(#SVGID_00000078759790569173901950000002786646851340595090_);fill:#FFFFFF;" d="M111.1,91.1
		c0,0.1,0,0.2,0.1,0.2c0.2,0.1,0.6,0.1,0.8,0.1c0.4,0,0.6,0,0.8-0.2c0.3-0.2,0.6-0.7,0.6-1.6c0-1.5-1-2-1.7-2c-0.3,0-0.5,0-0.6,0
		c-0.1,0-0.1,0.1-0.1,0.2V91.1z M109.8,90.2c0-1.7,0-2,0-2.3c0-0.4-0.1-0.5-0.5-0.6c-0.1,0-0.3,0-0.4,0c-0.1,0-0.2,0-0.2-0.1
		c0-0.1,0.1-0.1,0.2-0.1c0.6,0,1.3,0,1.5,0c0.4,0,1.2,0,1.5,0c0.7,0,1.4,0.1,2,0.5c0.3,0.2,0.7,0.8,0.7,1.5c0,0.8-0.3,1.5-1.4,2.4
		c1,1.2,1.7,2.2,2.4,2.9c0.6,0.6,1.1,0.7,1.2,0.7c0.1,0,0.2,0,0.3,0c0.1,0,0.1,0,0.1,0.1c0,0.1-0.1,0.1-0.2,0.1h-1
		c-0.6,0-0.9-0.1-1.2-0.2c-0.5-0.3-0.9-0.8-1.5-1.6c-0.4-0.6-0.9-1.3-1.1-1.5c-0.1-0.1-0.1-0.1-0.2-0.1l-0.9,0c-0.1,0-0.1,0-0.1,0.1
		v0.2c0,1,0,1.9,0.1,2.3c0,0.3,0.1,0.6,0.4,0.6c0.2,0,0.4,0,0.5,0c0.1,0,0.1,0,0.1,0.1c0,0.1-0.1,0.1-0.2,0.1c-0.6,0-1.4,0-1.6,0
		c-0.2,0-0.9,0-1.3,0c-0.1,0-0.2,0-0.2-0.1c0-0.1,0-0.1,0.2-0.1c0.2,0,0.3,0,0.4,0c0.2,0,0.3-0.3,0.3-0.6c0.1-0.5,0.1-1.3,0.1-2.3
		V90.2z"/>
	<path style="clip-path:url(#SVGID_00000078759790569173901950000002786646851340595090_);fill:#FFFFFF;" d="M119.5,90.2
		c0-1.7,0-2,0-2.3c0-0.4-0.1-0.5-0.5-0.6c-0.1,0-0.3,0-0.4,0c-0.1,0-0.2,0-0.2-0.1c0-0.1,0.1-0.1,0.2-0.1c0.3,0,0.6,0,0.9,0
		c0.3,0,0.5,0,0.7,0c0.3,0,2.5,0,2.7,0c0.2,0,0.4,0,0.5-0.1c0.1,0,0.1,0,0.2,0c0.1,0,0.1,0,0.1,0.1c0,0.1-0.1,0.2-0.1,0.7
		c0,0.1,0,0.6-0.1,0.7c0,0.1,0,0.1-0.1,0.1c-0.1,0-0.1-0.1-0.1-0.2c0-0.1,0-0.3-0.1-0.4c-0.1-0.2-0.2-0.3-0.7-0.4
		c-0.2,0-1.3,0-1.5,0c-0.1,0-0.1,0-0.1,0.1v2.8c0,0.1,0,0.1,0.1,0.1c0.2,0,1.5,0,1.7,0c0.3,0,0.4-0.1,0.5-0.2
		c0.1-0.1,0.1-0.1,0.2-0.1c0,0,0.1,0,0.1,0.1c0,0.1,0,0.2-0.1,0.8c0,0.2,0,0.7,0,0.7c0,0.1,0,0.2-0.1,0.2c-0.1,0-0.1,0-0.1-0.1
		c0-0.1,0-0.3,0-0.4c-0.1-0.2-0.2-0.4-0.6-0.4c-0.2,0-1.3,0-1.5,0c-0.1,0-0.1,0-0.1,0.1v0.9c0,0.4,0,1.4,0,1.7
		c0,0.8,0.2,0.9,1.3,0.9c0.3,0,0.7,0,1-0.1c0.3-0.1,0.4-0.4,0.5-0.8c0-0.1,0-0.2,0.1-0.2c0.1,0,0.1,0.1,0.1,0.2c0,0.3-0.1,1-0.1,1.2
		c-0.1,0.3-0.2,0.3-0.6,0.3c-0.8,0-1.4,0-1.9,0c-0.5,0-0.8,0-1.1,0c-0.1,0-0.4,0-0.6,0c-0.3,0-0.5,0-0.8,0c-0.1,0-0.2,0-0.2-0.1
		c0-0.1,0-0.1,0.2-0.1c0.2,0,0.3,0,0.4,0c0.2,0,0.3-0.3,0.3-0.6c0.1-0.5,0.1-1.3,0.1-2.3V90.2z"/>
	<path style="clip-path:url(#SVGID_00000078759790569173901950000002786646851340595090_);fill:#FFFFFF;" d="M128.2,87.1
		c0-0.2,0.1-0.3,0.2-0.3c0.1,0,0.2,0.1,0.3,0.3l3,6.1l3-6.2c0.1-0.2,0.1-0.3,0.2-0.3c0.1,0,0.2,0.1,0.2,0.3l1,6.7
		c0.1,0.7,0.2,1,0.5,1.1c0.3,0.1,0.5,0.1,0.7,0.1c0.1,0,0.2,0,0.2,0.1c0,0.1-0.1,0.1-0.3,0.1c-0.3,0-1.8,0-2.2-0.1
		c-0.3,0-0.3-0.1-0.3-0.1c0-0.1,0-0.1,0.1-0.1c0.1,0,0.1-0.2,0.1-0.5l-0.7-4.8h0l-2.4,4.9c-0.2,0.5-0.3,0.6-0.4,0.6
		c-0.1,0-0.2-0.2-0.4-0.5c-0.3-0.5-1.1-2.2-1.3-2.5c-0.1-0.2-0.8-1.6-1.1-2.4h0l-0.6,4.3c0,0.2,0,0.3,0,0.5c0,0.2,0.1,0.3,0.3,0.3
		c0.2,0,0.3,0.1,0.5,0.1c0.1,0,0.2,0,0.2,0.1c0,0.1-0.1,0.1-0.3,0.1c-0.5,0-0.9,0-1.1,0c-0.2,0-0.7,0-1.1,0c-0.1,0-0.2,0-0.2-0.1
		c0-0.1,0.1-0.1,0.2-0.1c0.1,0,0.2,0,0.3,0c0.3-0.1,0.4-0.5,0.4-0.9L128.2,87.1z"/>
	<path style="clip-path:url(#SVGID_00000078759790569173901950000002786646851340595090_);fill:#FFFFFF;" d="M140.6,90.2
		c0-1.7,0-2,0-2.3c0-0.4-0.1-0.6-0.4-0.6c-0.1,0-0.3,0-0.4,0c-0.1,0-0.2,0-0.2-0.1c0-0.1,0.1-0.1,0.3-0.1c0.4,0,1.1,0,1.4,0
		c0.3,0,0.9,0,1.3,0c0.1,0,0.2,0,0.2,0.1c0,0.1-0.1,0.1-0.2,0.1c-0.1,0-0.2,0-0.3,0c-0.3,0.1-0.4,0.2-0.4,0.6c0,0.3,0,0.7,0,2.3v1.9
		c0,1.1,0,1.9,0,2.4c0,0.3,0.1,0.5,0.4,0.5c0.2,0,0.4,0,0.6,0c0.1,0,0.2,0,0.2,0.1c0,0.1-0.1,0.1-0.2,0.1c-0.7,0-1.4,0-1.7,0
		c-0.3,0-0.9,0-1.4,0c-0.1,0-0.2,0-0.2-0.1c0-0.1,0-0.1,0.2-0.1c0.2,0,0.3,0,0.4,0c0.2,0,0.3-0.2,0.3-0.5c0.1-0.5,0.1-1.3,0.1-2.4
		V90.2z"/>
	<path style="clip-path:url(#SVGID_00000078759790569173901950000002786646851340595090_);fill:#FFFFFF;" d="M146.4,90.2
		c0-1.7,0-2,0-2.3c0-0.4-0.1-0.5-0.5-0.6c-0.1,0-0.3,0-0.4,0c-0.1,0-0.2,0-0.2-0.1c0-0.1,0.1-0.1,0.2-0.1c0.6,0,1.3,0,1.6,0
		c0.3,0,0.9,0,1.3,0c0.2,0,0.2,0,0.2,0.1c0,0.1-0.1,0.1-0.2,0.1c-0.1,0-0.2,0-0.3,0c-0.3,0.1-0.4,0.2-0.4,0.6c0,0.3,0,0.7,0,2.3v1.5
		c0,1.6,0.3,2.2,0.9,2.7c0.5,0.4,1,0.4,1.4,0.4c0.5,0,1.1-0.2,1.5-0.6c0.6-0.6,0.6-1.6,0.6-2.7v-1.4c0-1.7,0-2,0-2.3
		c0-0.4-0.1-0.5-0.5-0.6c-0.1,0-0.3,0-0.4,0s-0.2,0-0.2-0.1c0-0.1,0.1-0.1,0.2-0.1c0.6,0,1.2,0,1.3,0c0.1,0,0.8,0,1.2,0
		c0.2,0,0.2,0,0.2,0.1c0,0.1-0.1,0.1-0.2,0.1c-0.1,0-0.2,0-0.3,0c-0.3,0.1-0.4,0.2-0.4,0.6c0,0.3,0,0.7,0,2.3v1.2
		c0,1.2-0.1,2.5-1,3.3c-0.8,0.7-1.6,0.8-2.3,0.8c-0.6,0-1.6,0-2.4-0.8c-0.6-0.5-1-1.3-1-2.9V90.2z"/>
	<path style="clip-path:url(#SVGID_00000078759790569173901950000002786646851340595090_);fill:#FFFFFF;" d="M157.8,87.1
		c0-0.2,0.1-0.3,0.2-0.3c0.1,0,0.2,0.1,0.3,0.3l3,6.1l3-6.2c0.1-0.2,0.1-0.3,0.2-0.3c0.1,0,0.2,0.1,0.2,0.3l1,6.7
		c0.1,0.7,0.2,1,0.5,1.1c0.3,0.1,0.5,0.1,0.7,0.1c0.1,0,0.2,0,0.2,0.1c0,0.1-0.1,0.1-0.3,0.1c-0.3,0-1.8,0-2.2-0.1
		c-0.3,0-0.3-0.1-0.3-0.1c0-0.1,0-0.1,0.1-0.1c0.1,0,0.1-0.2,0.1-0.5l-0.7-4.8h0l-2.4,4.9c-0.2,0.5-0.3,0.6-0.4,0.6
		c-0.1,0-0.2-0.2-0.4-0.5c-0.3-0.5-1.1-2.2-1.3-2.5c-0.1-0.2-0.8-1.6-1.1-2.4h0l-0.6,4.3c0,0.2,0,0.3,0,0.5c0,0.2,0.1,0.3,0.3,0.3
		c0.2,0,0.3,0.1,0.5,0.1c0.1,0,0.2,0,0.2,0.1c0,0.1-0.1,0.1-0.3,0.1c-0.5,0-0.9,0-1.1,0c-0.2,0-0.7,0-1.1,0c-0.1,0-0.2,0-0.2-0.1
		c0-0.1,0.1-0.1,0.2-0.1c0.1,0,0.2,0,0.3,0c0.3-0.1,0.4-0.5,0.4-0.9L157.8,87.1z"/>
	<path style="clip-path:url(#SVGID_00000078759790569173901950000002786646851340595090_);fill:#FFFFFF;" d="M176.3,92.1
		c0,1,0,1.9,0.1,2.3c0,0.3,0.1,0.6,0.4,0.6c0.2,0,0.4,0,0.5,0c0.1,0,0.2,0,0.2,0.1c0,0.1-0.1,0.1-0.2,0.1c-0.7,0-1.4,0-1.7,0
		c-0.3,0-1,0-1.4,0c-0.2,0-0.2,0-0.2-0.1c0-0.1,0-0.1,0.2-0.1c0.2,0,0.3,0,0.4,0c0.2,0,0.3-0.3,0.3-0.6c0.1-0.5,0.1-1.3,0.1-2.3
		v-1.9c0-1.7,0-2,0-2.3c0-0.4-0.1-0.5-0.5-0.6c-0.1,0-0.3,0-0.4,0c-0.1,0-0.2,0-0.2-0.1c0-0.1,0.1-0.1,0.3-0.1c0.3,0,0.6,0,0.9,0
		c0.3,0,0.5,0,0.7,0c0.4,0,2.6,0,2.9,0c0.2,0,0.3,0,0.4,0c0.1,0,0.1-0.1,0.2-0.1c0,0,0.1,0,0.1,0.1c0,0.1-0.1,0.2-0.1,0.5
		c0,0.1,0,0.8-0.1,0.9c0,0.1,0,0.2-0.1,0.2c-0.1,0-0.1-0.1-0.1-0.2c0-0.1,0-0.3-0.1-0.4c-0.1-0.2-0.3-0.3-0.7-0.3l-1.7,0
		c-0.1,0-0.1,0-0.1,0.2v2.7c0,0.1,0,0.1,0.1,0.1l1.4,0c0.2,0,0.3,0,0.5,0c0.2,0,0.4-0.1,0.5-0.2c0.1-0.1,0.1-0.1,0.1-0.1
		c0,0,0.1,0,0.1,0.1c0,0.1-0.1,0.3-0.1,0.7c0,0.2,0,0.7,0,0.8c0,0.1,0,0.2-0.1,0.2c-0.1,0-0.1-0.1-0.1-0.2c0-0.1,0-0.2-0.1-0.3
		c-0.1-0.2-0.2-0.3-0.6-0.4c-0.3,0-1.4,0-1.6,0c-0.1,0-0.1,0-0.1,0.1V92.1z"/>
	<path style="clip-path:url(#SVGID_00000078759790569173901950000002786646851340595090_);fill:#FFFFFF;" d="M185.6,91.9
		C185.6,91.9,185.6,91.9,185.6,91.9l-0.9-2.8c0,0,0-0.1-0.1-0.1c0,0-0.1,0.1-0.1,0.1l-1,2.7c0,0,0,0.1,0,0.1H185.6z M183.3,92.4
		C183.3,92.4,183.3,92.5,183.3,92.4l-0.7,1.6c-0.1,0.3-0.2,0.5-0.2,0.7c0,0.2,0.1,0.3,0.4,0.3h0.2c0.1,0,0.2,0,0.2,0.1
		c0,0.1-0.1,0.1-0.2,0.1c-0.3,0-0.8,0-1.2,0c-0.1,0-0.7,0-1.3,0c-0.1,0-0.2,0-0.2-0.1c0-0.1,0-0.1,0.1-0.1c0.1,0,0.3,0,0.3,0
		c0.5-0.1,0.7-0.4,0.9-1l2.7-6.8c0.1-0.3,0.2-0.4,0.3-0.4c0.1,0,0.2,0.1,0.3,0.3c0.3,0.6,2,5,2.7,6.7c0.4,1,0.7,1.1,1,1.2
		c0.2,0,0.3,0,0.5,0c0.1,0,0.1,0,0.1,0.1c0,0.1-0.1,0.1-0.5,0.1c-0.4,0-1.2,0-2.1,0c-0.2,0-0.3,0-0.3-0.1c0-0.1,0-0.1,0.2-0.1
		c0.1,0,0.2-0.1,0.1-0.3l-0.9-2.3c0-0.1-0.1-0.1-0.1-0.1H183.3z"/>
	<path style="clip-path:url(#SVGID_00000078759790569173901950000002786646851340595090_);fill:#FFFFFF;" d="M193.2,91.1
		c0,0.1,0,0.2,0.1,0.2c0.2,0.1,0.6,0.1,0.8,0.1c0.4,0,0.6,0,0.8-0.2c0.3-0.2,0.6-0.7,0.6-1.6c0-1.5-1-2-1.7-2c-0.3,0-0.5,0-0.6,0
		c-0.1,0-0.1,0.1-0.1,0.2V91.1z M191.9,90.2c0-1.7,0-2,0-2.3c0-0.4-0.1-0.5-0.5-0.6c-0.1,0-0.3,0-0.4,0c-0.1,0-0.2,0-0.2-0.1
		c0-0.1,0.1-0.1,0.2-0.1c0.6,0,1.3,0,1.5,0c0.4,0,1.2,0,1.5,0c0.7,0,1.4,0.1,2,0.5c0.3,0.2,0.7,0.8,0.7,1.5c0,0.8-0.3,1.5-1.4,2.4
		c1,1.2,1.7,2.2,2.4,2.9c0.6,0.6,1.1,0.7,1.2,0.7c0.1,0,0.2,0,0.3,0c0.1,0,0.1,0,0.1,0.1c0,0.1-0.1,0.1-0.2,0.1h-1
		c-0.6,0-0.9-0.1-1.2-0.2c-0.5-0.3-0.9-0.8-1.5-1.6c-0.4-0.6-0.9-1.3-1.1-1.5c-0.1-0.1-0.1-0.1-0.2-0.1l-0.9,0c-0.1,0-0.1,0-0.1,0.1
		v0.2c0,1,0,1.9,0.1,2.3c0,0.3,0.1,0.6,0.4,0.6c0.2,0,0.4,0,0.5,0c0.1,0,0.1,0,0.1,0.1c0,0.1-0.1,0.1-0.2,0.1c-0.6,0-1.4,0-1.6,0
		c-0.2,0-0.9,0-1.3,0c-0.1,0-0.2,0-0.2-0.1c0-0.1,0-0.1,0.2-0.1c0.2,0,0.3,0,0.4,0c0.2,0,0.3-0.3,0.3-0.6c0.1-0.5,0.1-1.3,0.1-2.3
		V90.2z"/>
	<path style="clip-path:url(#SVGID_00000078759790569173901950000002786646851340595090_);fill:#FFFFFF;" d="M202,87.1
		c0-0.2,0.1-0.3,0.2-0.3c0.1,0,0.2,0.1,0.3,0.3l3,6.1l3-6.2c0.1-0.2,0.1-0.3,0.2-0.3c0.1,0,0.2,0.1,0.2,0.3l1,6.7
		c0.1,0.7,0.2,1,0.5,1.1c0.3,0.1,0.5,0.1,0.7,0.1c0.1,0,0.2,0,0.2,0.1c0,0.1-0.1,0.1-0.3,0.1c-0.3,0-1.8,0-2.2-0.1
		c-0.3,0-0.3-0.1-0.3-0.1c0-0.1,0-0.1,0.1-0.1c0.1,0,0.1-0.2,0.1-0.5l-0.7-4.8h0l-2.4,4.9c-0.2,0.5-0.3,0.6-0.4,0.6
		c-0.1,0-0.2-0.2-0.4-0.5c-0.3-0.5-1.1-2.2-1.3-2.5c-0.1-0.2-0.8-1.6-1.1-2.4h0l-0.6,4.3c0,0.2,0,0.3,0,0.5c0,0.2,0.1,0.3,0.3,0.3
		c0.2,0,0.3,0.1,0.5,0.1c0.1,0,0.2,0,0.2,0.1c0,0.1-0.1,0.1-0.3,0.1c-0.5,0-0.9,0-1.1,0c-0.2,0-0.7,0-1.1,0c-0.1,0-0.2,0-0.2-0.1
		c0-0.1,0.1-0.1,0.2-0.1c0.1,0,0.2,0,0.3,0c0.3-0.1,0.4-0.5,0.4-0.9L202,87.1z"/>
	<path style="clip-path:url(#SVGID_00000078759790569173901950000002786646851340595090_);fill:#FFFFFF;" d="M220.3,91.1
		c0,0.1,0,0.2,0.1,0.2c0.2,0.1,0.6,0.1,0.8,0.1c0.4,0,0.6,0,0.8-0.2c0.3-0.2,0.6-0.7,0.6-1.6c0-1.5-1-2-1.7-2c-0.3,0-0.5,0-0.6,0
		c-0.1,0-0.1,0.1-0.1,0.2V91.1z M219.1,90.2c0-1.7,0-2,0-2.3c0-0.4-0.1-0.5-0.5-0.6c-0.1,0-0.3,0-0.4,0c-0.1,0-0.2,0-0.2-0.1
		c0-0.1,0.1-0.1,0.2-0.1c0.6,0,1.3,0,1.5,0c0.4,0,1.2,0,1.5,0c0.7,0,1.4,0.1,2,0.5c0.3,0.2,0.7,0.8,0.7,1.5c0,0.8-0.3,1.5-1.4,2.4
		c1,1.2,1.7,2.2,2.4,2.9c0.6,0.6,1.1,0.7,1.2,0.7c0.1,0,0.2,0,0.3,0c0.1,0,0.1,0,0.1,0.1c0,0.1-0.1,0.1-0.2,0.1h-1
		c-0.6,0-0.9-0.1-1.2-0.2c-0.5-0.3-0.9-0.8-1.5-1.6c-0.4-0.6-0.9-1.3-1.1-1.5c-0.1-0.1-0.1-0.1-0.2-0.1l-0.9,0c-0.1,0-0.1,0-0.1,0.1
		v0.2c0,1,0,1.9,0.1,2.3c0,0.3,0.1,0.6,0.4,0.6c0.2,0,0.4,0,0.5,0c0.1,0,0.1,0,0.1,0.1c0,0.1-0.1,0.1-0.2,0.1c-0.6,0-1.4,0-1.6,0
		c-0.2,0-0.9,0-1.3,0c-0.1,0-0.2,0-0.2-0.1c0-0.1,0-0.1,0.2-0.1c0.2,0,0.3,0,0.4,0c0.2,0,0.3-0.3,0.3-0.6c0.1-0.5,0.1-1.3,0.1-2.3
		V90.2z"/>
	<path style="clip-path:url(#SVGID_00000078759790569173901950000002786646851340595090_);fill:#FFFFFF;" d="M228.7,90.2
		c0-1.7,0-2,0-2.3c0-0.4-0.1-0.5-0.5-0.6c-0.1,0-0.3,0-0.4,0c-0.1,0-0.2,0-0.2-0.1c0-0.1,0.1-0.1,0.2-0.1c0.3,0,0.6,0,0.9,0
		c0.3,0,0.5,0,0.7,0c0.3,0,2.5,0,2.7,0c0.2,0,0.4,0,0.5-0.1c0.1,0,0.1,0,0.2,0c0.1,0,0.1,0,0.1,0.1c0,0.1-0.1,0.2-0.1,0.7
		c0,0.1,0,0.6-0.1,0.7c0,0.1,0,0.1-0.1,0.1c-0.1,0-0.1-0.1-0.1-0.2c0-0.1,0-0.3-0.1-0.4c-0.1-0.2-0.2-0.3-0.7-0.4
		c-0.2,0-1.3,0-1.5,0c-0.1,0-0.1,0-0.1,0.1v2.8c0,0.1,0,0.1,0.1,0.1c0.2,0,1.5,0,1.7,0c0.3,0,0.4-0.1,0.5-0.2
		c0.1-0.1,0.1-0.1,0.2-0.1c0,0,0.1,0,0.1,0.1c0,0.1,0,0.2-0.1,0.8c0,0.2,0,0.7,0,0.7c0,0.1,0,0.2-0.1,0.2c-0.1,0-0.1,0-0.1-0.1
		c0-0.1,0-0.3,0-0.4c-0.1-0.2-0.2-0.4-0.6-0.4c-0.2,0-1.3,0-1.5,0c-0.1,0-0.1,0-0.1,0.1v0.9c0,0.4,0,1.4,0,1.7
		c0,0.8,0.2,0.9,1.3,0.9c0.3,0,0.7,0,1-0.1c0.3-0.1,0.4-0.4,0.5-0.8c0-0.1,0-0.2,0.1-0.2c0.1,0,0.1,0.1,0.1,0.2c0,0.3-0.1,1-0.1,1.2
		c-0.1,0.3-0.2,0.3-0.6,0.3c-0.8,0-1.4,0-1.9,0c-0.5,0-0.8,0-1.1,0c-0.1,0-0.4,0-0.6,0c-0.3,0-0.5,0-0.8,0c-0.1,0-0.2,0-0.2-0.1
		c0-0.1,0-0.1,0.2-0.1c0.2,0,0.3,0,0.4,0c0.2,0,0.3-0.3,0.3-0.6c0.1-0.5,0.1-1.3,0.1-2.3V90.2z"/>
	<path style="clip-path:url(#SVGID_00000078759790569173901950000002786646851340595090_);fill:#FFFFFF;" d="M236.4,95.2
		c-0.2-0.1-0.2-0.1-0.2-0.4c0-0.6,0-1.3,0.1-1.4c0-0.2,0-0.3,0.1-0.3c0.1,0,0.1,0.1,0.1,0.2c0,0.1,0,0.4,0.1,0.6
		c0.2,0.8,0.9,1.1,1.6,1.1c1,0,1.5-0.7,1.5-1.2c0-0.5-0.2-1-1.1-1.7l-0.5-0.4c-1.2-0.9-1.6-1.7-1.6-2.6c0-1.2,1-2.1,2.5-2.1
		c0.7,0,1.2,0.1,1.5,0.2c0.1,0,0.2,0.1,0.2,0.1c0,0.1,0,0.5,0,1.3c0,0.2,0,0.3-0.1,0.3c-0.1,0-0.1-0.1-0.1-0.2
		c0-0.1-0.1-0.4-0.3-0.7c-0.2-0.2-0.5-0.5-1.2-0.5c-0.8,0-1.3,0.5-1.3,1.1c0,0.5,0.2,0.9,1.2,1.6l0.3,0.2c1.3,1,1.8,1.7,1.8,2.8
		c0,0.6-0.2,1.4-1,1.9c-0.5,0.3-1.2,0.4-1.7,0.4C237.4,95.4,236.9,95.4,236.4,95.2"/>
	<path style="clip-path:url(#SVGID_00000078759790569173901950000002786646851340595090_);fill:#FFFFFF;" d="M251,91.4
		c0-2.4-1.4-4-3.2-4c-1.3,0-2.7,0.7-2.7,3.4c0,2.3,1.3,4.1,3.3,4.1C249.2,94.9,251,94.5,251,91.4 M243.6,91.2c0-1.9,1.2-4.3,4.5-4.3
		c2.7,0,4.4,1.6,4.4,4.1c0,2.5-1.7,4.5-4.5,4.5C244.9,95.4,243.6,93.1,243.6,91.2"/>
	<path style="clip-path:url(#SVGID_00000078759790569173901950000002786646851340595090_);fill:#FFFFFF;" d="M257.5,91.1
		c0,0.1,0,0.2,0.1,0.2c0.2,0.1,0.6,0.1,0.8,0.1c0.4,0,0.6,0,0.8-0.2c0.3-0.2,0.6-0.7,0.6-1.6c0-1.5-1-2-1.7-2c-0.3,0-0.5,0-0.6,0
		c-0.1,0-0.1,0.1-0.1,0.2V91.1z M256.2,90.2c0-1.7,0-2,0-2.3c0-0.4-0.1-0.5-0.5-0.6c-0.1,0-0.3,0-0.4,0c-0.1,0-0.2,0-0.2-0.1
		c0-0.1,0.1-0.1,0.2-0.1c0.6,0,1.3,0,1.5,0c0.4,0,1.2,0,1.5,0c0.7,0,1.4,0.1,2,0.5c0.3,0.2,0.7,0.8,0.7,1.5c0,0.8-0.3,1.5-1.4,2.4
		c1,1.2,1.7,2.2,2.4,2.9c0.6,0.6,1.1,0.7,1.2,0.7c0.1,0,0.2,0,0.3,0c0.1,0,0.1,0,0.1,0.1c0,0.1-0.1,0.1-0.2,0.1h-1
		c-0.6,0-0.9-0.1-1.2-0.2c-0.5-0.3-0.9-0.8-1.5-1.6c-0.4-0.6-0.9-1.3-1.1-1.5c-0.1-0.1-0.1-0.1-0.2-0.1l-0.9,0c-0.1,0-0.1,0-0.1,0.1
		v0.2c0,1,0,1.9,0.1,2.3c0,0.3,0.1,0.6,0.4,0.6c0.2,0,0.4,0,0.5,0c0.1,0,0.1,0,0.1,0.1c0,0.1-0.1,0.1-0.2,0.1c-0.6,0-1.4,0-1.6,0
		c-0.2,0-0.9,0-1.3,0c-0.1,0-0.2,0-0.2-0.1c0-0.1,0-0.1,0.2-0.1c0.2,0,0.3,0,0.4,0c0.2,0,0.3-0.3,0.3-0.6c0.1-0.5,0.1-1.3,0.1-2.3
		V90.2z"/>
	<path style="clip-path:url(#SVGID_00000078759790569173901950000002786646851340595090_);fill:#FFFFFF;" d="M266.9,87.7l-1.6,0
		c-0.6,0-0.9,0.1-1.1,0.3c-0.1,0.2-0.2,0.3-0.2,0.4c0,0.1-0.1,0.1-0.1,0.1c-0.1,0-0.1-0.1-0.1-0.2c0-0.2,0.2-1.2,0.2-1.3
		c0-0.1,0.1-0.2,0.1-0.2c0.1,0,0.2,0.1,0.5,0.1c0.3,0,0.7,0.1,1.1,0.1h4.3c0.3,0,0.6,0,0.8-0.1c0.2,0,0.2-0.1,0.3-0.1
		c0.1,0,0.1,0.1,0.1,0.2c0,0.2,0,1,0,1.3c0,0.1,0,0.2-0.1,0.2c-0.1,0-0.1-0.1-0.1-0.2l0-0.1c0-0.3-0.3-0.6-1.3-0.6l-1.4,0v4.5
		c0,1,0,1.9,0.1,2.3c0,0.3,0.1,0.5,0.4,0.6c0.2,0,0.4,0,0.6,0c0.1,0,0.2,0,0.2,0.1c0,0.1-0.1,0.1-0.2,0.1c-0.7,0-1.4,0-1.7,0
		c-0.3,0-0.9,0-1.4,0c-0.1,0-0.2,0-0.2-0.1c0-0.1,0-0.1,0.2-0.1c0.2,0,0.3,0,0.4,0c0.2,0,0.3-0.3,0.3-0.6c0.1-0.5,0.1-1.3,0.1-2.3
		V87.7z"/>
	<path style="clip-path:url(#SVGID_00000078759790569173901950000002786646851340595090_);fill:#FFFFFF;" d="M164.2,108.2
		C164.2,108.2,164.2,108.2,164.2,108.2l-1-2.8c0,0,0-0.1,0-0.1c0,0-0.1,0.1-0.1,0.1l-1.1,2.7c0,0,0,0.1,0,0.1L164.2,108.2z
		 M161.8,108.8c-0.1,0-0.1,0-0.1,0.1l-0.6,1.4c-0.1,0.3-0.2,0.5-0.2,0.7c0,0.2,0.1,0.3,0.4,0.3l0.2,0c0.1,0,0.2,0.1,0.2,0.1
		c0,0.1-0.1,0.1-0.2,0.1c-0.4,0-0.9-0.1-1.2-0.1c-0.1,0-0.7,0-1.3,0c-0.1,0-0.2,0-0.2-0.1c0-0.1,0-0.1,0.1-0.1c0.1,0,0.2,0,0.3,0
		c0.5-0.1,0.7-0.4,0.9-0.9l3-6.7c0.1-0.3,0.2-0.4,0.3-0.4c0.2,0,0.2,0.1,0.3,0.3c0.3,0.6,2,5,2.7,6.6c0.4,1,0.7,1.1,0.9,1.2
		c0.2,0,0.3,0,0.4,0c0.1,0,0.2,0,0.1,0.1c0,0.1-0.1,0.1-0.5,0.1c-0.4,0-1.2,0-2.1-0.1c-0.2,0-0.3,0-0.3-0.1c0-0.1,0-0.1,0.1-0.1
		c0.1,0,0.2-0.1,0.1-0.2l-0.8-2.2c0-0.1-0.1-0.1-0.1-0.1L161.8,108.8z"/>
	<path style="clip-path:url(#SVGID_00000078759790569173901950000002786646851340595090_);fill:#FFFFFF;" d="M170.8,108.5
		c0,1.4,0,2.1,0.2,2.3c0.2,0.2,0.6,0.2,1.5,0.2c0.6,0,1,0,1.3-0.3c0.1-0.1,0.3-0.4,0.3-0.6c0-0.1,0-0.2,0.1-0.2
		c0.1,0,0.1,0.1,0.1,0.2c0,0.1-0.1,0.9-0.2,1.2c-0.1,0.2-0.1,0.3-0.7,0.3c-0.8,0-1.4,0-2-0.1c-0.6,0-1,0-1.5,0c-0.1,0-0.4,0-0.6,0
		c-0.3,0-0.5,0-0.8,0c-0.1,0-0.2,0-0.2-0.1c0-0.1,0-0.1,0.2-0.1c0.2,0,0.3,0,0.4,0c0.2,0,0.3-0.2,0.3-0.6c0.1-0.5,0.1-1.3,0.1-2.3
		l0-1.9c0-1.6,0-1.9,0-2.3c0-0.4-0.1-0.5-0.5-0.6c-0.1,0-0.2,0-0.4,0c-0.1,0-0.2,0-0.2-0.1c0-0.1,0.1-0.1,0.2-0.1c0.5,0,1.2,0,1.5,0
		c0.3,0,1.2,0,1.6,0c0.2,0,0.2,0,0.2,0.1c0,0.1-0.1,0.1-0.2,0.1c-0.1,0-0.3,0-0.4,0c-0.3,0-0.4,0.2-0.4,0.6c0,0.3,0,0.6-0.1,2.3
		L170.8,108.5z"/>
	<path style="clip-path:url(#SVGID_00000078759790569173901950000002786646851340595090_);fill:#FFFFFF;" d="M182.9,108.5
		C182.9,108.5,182.9,108.5,182.9,108.5l-1-2.8c0,0,0-0.1,0-0.1c0,0-0.1,0.1-0.1,0.1l-1.1,2.7c0,0,0,0.1,0,0.1L182.9,108.5z
		 M180.5,109.1c-0.1,0-0.1,0-0.1,0.1l-0.6,1.4c-0.1,0.3-0.2,0.5-0.2,0.7c0,0.2,0.1,0.3,0.4,0.3l0.2,0c0.1,0,0.2,0.1,0.2,0.1
		c0,0.1-0.1,0.1-0.2,0.1c-0.4,0-0.9-0.1-1.2-0.1c-0.1,0-0.7,0-1.3,0c-0.1,0-0.2,0-0.2-0.1c0-0.1,0-0.1,0.1-0.1c0.1,0,0.2,0,0.3,0
		c0.5-0.1,0.7-0.4,0.9-0.9l3-6.7c0.1-0.3,0.2-0.4,0.3-0.4c0.2,0,0.2,0.1,0.3,0.3c0.3,0.6,2,5,2.7,6.6c0.4,1,0.7,1.1,0.9,1.2
		c0.2,0,0.3,0,0.4,0c0.1,0,0.2,0,0.1,0.1c0,0.1-0.1,0.1-0.5,0.1c-0.4,0-1.2,0-2.1-0.1c-0.2,0-0.3,0-0.3-0.1c0-0.1,0-0.1,0.1-0.1
		c0.1,0,0.2-0.1,0.1-0.2l-0.8-2.2c0-0.1-0.1-0.1-0.1-0.1L180.5,109.1z"/>
	<path style="clip-path:url(#SVGID_00000078759790569173901950000002786646851340595090_);fill:#FFFFFF;" d="M193.8,107.4
		C193.8,107.4,193.8,107.3,193.8,107.4l0.1-0.3c0-1.6,0-2,0-2.4c0-0.4-0.1-0.5-0.5-0.6c-0.1,0-0.3,0-0.4,0c-0.1,0-0.2,0-0.2-0.1
		c0-0.1,0.1-0.1,0.2-0.1c0.6,0,1.4,0,1.7,0.1c0.3,0,1,0,1.4,0c0.2,0,0.2,0,0.2,0.1c0,0.1-0.1,0.1-0.2,0.1c-0.1,0-0.2,0-0.3,0
		c-0.3,0-0.4,0.2-0.4,0.6c0,0.3,0,0.6-0.1,2.3l0,1.9c0,1,0,1.8,0,2.3c0,0.3,0.1,0.5,0.4,0.6c0.2,0,0.4,0,0.6,0
		c0.1,0,0.2,0.1,0.2,0.1c0,0.1-0.1,0.1-0.2,0.1c-0.7,0-1.4-0.1-1.8-0.1c-0.3,0-1,0-1.5,0c-0.2,0-0.2,0-0.2-0.1c0,0,0.1-0.1,0.2-0.1
		c0.2,0,0.3,0,0.4,0c0.2,0,0.3-0.2,0.3-0.6c0.1-0.5,0.1-1.3,0.1-2.3l0-0.8c0,0,0-0.1-0.1-0.1l-4.2-0.1c0,0-0.1,0-0.1,0.1l0,0.8
		c0,1,0,1.8,0,2.3c0,0.3,0.1,0.5,0.4,0.6c0.2,0,0.4,0,0.6,0c0.1,0,0.2,0.1,0.2,0.1c0,0.1-0.1,0.1-0.2,0.1c-0.7,0-1.5-0.1-1.8-0.1
		c-0.3,0-1,0-1.4,0c-0.1,0-0.2,0-0.2-0.1c0-0.1,0-0.1,0.2-0.1c0.2,0,0.3,0,0.4,0c0.2,0,0.3-0.2,0.3-0.6c0.1-0.5,0.1-1.3,0.1-2.3
		l0-1.9c0-1.6,0-1.9,0-2.3c0-0.4-0.1-0.5-0.5-0.6c-0.1,0-0.3,0-0.4,0c-0.1,0-0.2,0-0.2-0.1c0-0.1,0.1-0.1,0.2-0.1c0.6,0,1.3,0,1.6,0
		c0.3,0,1,0,1.5,0c0.2,0,0.2,0,0.2,0.1c0,0.1-0.1,0.1-0.2,0.1c-0.1,0-0.2,0-0.3,0c-0.3,0-0.4,0.2-0.4,0.6c0,0.3,0,0.7-0.1,2.4l0,0.2
		c0,0.1,0,0.1,0.1,0.1L193.8,107.4z"/>
	<path style="clip-path:url(#SVGID_00000078759790569173901950000002786646851340595090_);fill:#FFFFFF;" d="M198.3,111.9
		c-0.2-0.1-0.2-0.1-0.2-0.4c0-0.6,0.1-1.2,0.1-1.4c0-0.2,0.1-0.3,0.1-0.3c0.1,0,0.1,0.1,0.1,0.2c0,0.1,0,0.4,0.1,0.6
		c0.2,0.8,1.1,1.1,1.7,1.1c1,0,1.5-0.6,1.6-1.3c0-0.5-0.1-0.9-1.1-1.5l-0.6-0.4c-1.3-0.8-1.7-1.5-1.7-2.5c0-1.3,1.3-2.1,2.8-2.1
		c0.7,0,1.3,0.1,1.6,0.2c0.1,0,0.2,0.1,0.1,0.1c0,0.1,0,0.4-0.1,1.3c0,0.2-0.1,0.3-0.1,0.3c-0.1,0-0.1-0.1-0.1-0.2
		c0-0.1,0-0.4-0.3-0.7c-0.2-0.2-0.5-0.5-1.2-0.5c-0.8,0-1.5,0.4-1.5,1.1c0,0.5,0.2,0.9,1.2,1.4l0.4,0.3c1.4,0.8,1.9,1.7,1.9,2.6
		c0,0.8-0.3,1.4-1.1,2c-0.5,0.4-1.3,0.4-1.9,0.4C199.4,112.2,198.7,112.1,198.3,111.9"/>
	<path style="clip-path:url(#SVGID_00000078759790569173901950000002786646851340595090_);fill:#FFFFFF;" d="M208.6,108.9
		C208.6,108.9,208.6,108.9,208.6,108.9l-1-2.8c0,0,0-0.1,0-0.1c0,0-0.1,0.1-0.1,0.1l-1.1,2.7c0,0,0,0.1,0,0.1L208.6,108.9z
		 M206.2,109.5c-0.1,0-0.1,0-0.1,0.1l-0.6,1.4c-0.1,0.3-0.2,0.5-0.2,0.7c0,0.2,0.1,0.3,0.4,0.3l0.2,0c0.1,0,0.2,0.1,0.2,0.1
		c0,0.1-0.1,0.1-0.2,0.1c-0.4,0-0.9-0.1-1.2-0.1c-0.1,0-0.7,0-1.3,0c-0.1,0-0.2,0-0.2-0.1c0-0.1,0-0.1,0.1-0.1c0.1,0,0.2,0,0.3,0
		c0.5-0.1,0.7-0.4,0.9-0.9l3-6.7c0.1-0.3,0.2-0.4,0.3-0.4c0.2,0,0.2,0.1,0.3,0.3c0.3,0.6,2,5,2.7,6.6c0.4,1,0.7,1.1,0.9,1.2
		c0.2,0,0.3,0,0.4,0c0.1,0,0.2,0,0.1,0.1c0,0.1-0.1,0.1-0.5,0.1c-0.4,0-1.2,0-2.1-0.1c-0.2,0-0.3,0-0.3-0.1c0-0.1,0-0.1,0.1-0.1
		c0.1,0,0.2-0.1,0.1-0.2l-0.8-2.2c0-0.1-0.1-0.1-0.1-0.1L206.2,109.5z"/>
</g>
</svg>
