<?xml version="1.0" encoding="UTF-8"?>
<svg id="Layer_1" data-name="Layer 1" xmlns="http://www.w3.org/2000/svg" version="1.1" xmlns:xlink="http://www.w3.org/1999/xlink" viewBox="0 0 548.22 218.95">
  <defs>
    <style>
      .cls-1, .cls-2 {
        fill: #e1c085;
      }

      .cls-3 {
        clip-path: url(#clippath-2);
      }

      .cls-4 {
        clip-path: url(#clippath-1);
      }

      .cls-5 {
        clip-path: url(#clippath);
      }

      .cls-2 {
        stroke-width: 0px;
      }
    </style>
    <clipPath id="clippath">
      <path class="cls-2" d="M212.73,35.75c-.65-.65-.97-1.41-.97-2.28,0-.98.54-1.46,1.63-1.46.65,0,1.35.22,2.11.65.54.32,1.08.81,1.63,1.46-.43,1.3-1.19,2.28-2.28,2.93-.76-.21-1.46-.65-2.12-1.3M210.61,29.73c-.76.76-1.14,1.79-1.14,3.09,0,2.17.97,4.23,2.93,6.18-2.06,1.2-4.72,2.28-7.97,3.25l1.79.97c.33.22.87.33,1.63.33,1.19,0,2.44-.33,3.74-.98.87-.43,2.06-1.19,3.58-2.28.65.22,1.14.32,1.46.32.33.11,1.03.16,2.12.16l1.46-2.93h-1.63c-.54,0-.98-.05-1.3-.16.54-.87.87-1.52.98-1.95.11-.43.16-1.08.16-1.95s-.11-1.52-.33-1.95c-.44-.87-.81-1.41-1.14-1.63-.33-.43-.92-.87-1.79-1.3-.65-.32-1.36-.49-2.11-.49-.98,0-1.79.43-2.44,1.3"/>
    </clipPath>
    <clipPath id="clippath-1">
      <path class="cls-2" d="M420.52,34.29c-3.25,1.63-5.53,2.82-6.83,3.58-.11.21-.27.65-.49,1.3-.22.87-.32,1.46-.32,1.79l7.65-3.74c3.69-1.63,6.12-2.6,7.32-2.93l1.14-3.25c-2.5.76-5.31,1.84-8.46,3.25"/>
    </clipPath>
    <clipPath id="clippath-2">
      <path class="cls-2" d="M283.29,34.29c-3.25,1.63-5.53,2.82-6.83,3.58-.11.21-.27.65-.49,1.3-.22.87-.33,1.46-.33,1.79l7.64-3.74c3.69-1.63,6.13-2.6,7.32-2.93l1.14-3.25c-2.5.76-5.32,1.84-8.46,3.25"/>
    </clipPath>
  </defs>
  <g>
    <g>
      <g>
        <path class="cls-2" d="M304.49,62.05c0,.11.02,1.08.71,1.25,1.81.61,6.35,4.6,6.35,17.35v26.37c0,18.14-12.13,27.63-24.1,27.63-15.96,0-23.22-14.32-23.22-27.63v-45.35h-10.92v45.35c0,22.6,14.66,32.71,29.18,32.71,8.02,0,15.92-3.06,21.67-8.41,6.51-6.05,9.94-14.45,9.94-24.31v-45.35h-9.6v.39Z"/>
        <path class="cls-2" d="M475.54,61.66l-39.56,78h11.5v-.39c0-.11-.02-1.08-.71-1.25-.76-.25-1.83-2.05-1.83-5.26,0-2.37.59-6.38,3.38-11.96l6.05-11.95c.25.01.5.03.76.03h34.61c3.29,6.48,16.43,30.78,16.43,30.78h12.16l-40.44-78h-2.35ZM455.63,106.35l16.39-32.4s8.6,16.99,16.42,32.4h-32.81Z"/>
      </g>
      <path class="cls-2" d="M401.04,139.67l-40.44-78h-2.35l-39.56,78h11.5v-.39c0-.11-.02-1.08-.71-1.25-.76-.25-1.83-2.05-1.83-5.26,0-2.37.59-6.38,3.38-11.96l6.05-11.95c.25.01.5.03.76.03h34.61c3.29,6.48,16.44,30.78,16.44,30.78h12.16ZM338.34,106.35l16.39-32.4s8.6,16.99,16.42,32.4h-32.81Z"/>
      <path class="cls-2" d="M401.56,151.67c17,0,27-11.84,27-30.58l.12-59.36h-16.46v.39c0,.11.02,1.08.71,1.25.66.22,1.68,1.29,2.71,3.17,1.54,2.81,2.25,6.82,2.25,10.02v45.18c0,8.93-1.37,15.87-4.07,20.62-2.96,5.2-7.57,7.83-13.72,7.83h0c-.46,0-.94-.02-1.43-.05l-.67-.04.73,1.47h.22c.88.07,1.75.1,2.61.1h0Z"/>
      <path class="cls-2" d="M238.3,61.66h-62.64l-1.04,3.17-2.52,7.65h.54c.16,0,.95-.03,1.14-.6.09-.06.27-.3.47-.57.08-.11.38-.5.38-.5.9-1.17,2.38-2.73,5.71-4.05,0,0,4.11-1.24,4.47-1.31h0c3.42-.77,8.31-1.25,15.61-1.25h1.71v75.59h10.82v-75.59h1.6c6.42,0,11.14.5,14.65,1.25,7.4,1.58,9.4,4.3,10.55,5.86.2.27.38.51.47.57.19.57.98.6,1.14.6h.54l-3.57-10.82Z"/>
    </g>
    <g>
      <path class="cls-1" d="M212.73,35.75c-.65-.65-.97-1.41-.97-2.28,0-.98.54-1.46,1.63-1.46.65,0,1.35.22,2.11.65.54.32,1.08.81,1.63,1.46-.43,1.3-1.19,2.28-2.28,2.93-.76-.21-1.46-.65-2.12-1.3M210.61,29.73c-.76.76-1.14,1.79-1.14,3.09,0,2.17.97,4.23,2.93,6.18-2.06,1.2-4.72,2.28-7.97,3.25l1.79.97c.33.22.87.33,1.63.33,1.19,0,2.44-.33,3.74-.98.87-.43,2.06-1.19,3.58-2.28.65.22,1.14.32,1.46.32.33.11,1.03.16,2.12.16l1.46-2.93h-1.63c-.54,0-.98-.05-1.3-.16.54-.87.87-1.52.98-1.95.11-.43.16-1.08.16-1.95s-.11-1.52-.33-1.95c-.44-.87-.81-1.41-1.14-1.63-.33-.43-.92-.87-1.79-1.3-.65-.32-1.36-.49-2.11-.49-.98,0-1.79.43-2.44,1.3"/>
      <g class="cls-5">
        <rect class="cls-2" x="204.43" y="28.43" width="15.78" height="15.13"/>
      </g>
    </g>
    <g>
      <path class="cls-1" d="M420.52,34.29c-3.25,1.63-5.53,2.82-6.83,3.58-.11.21-.27.65-.49,1.3-.22.87-.32,1.46-.32,1.79l7.65-3.74c3.69-1.63,6.12-2.6,7.32-2.93l1.14-3.25c-2.5.76-5.31,1.84-8.46,3.25"/>
      <g class="cls-4">
        <rect class="cls-2" x="412.88" y="31.03" width="16.1" height="9.92"/>
      </g>
    </g>
    <g>
      <path class="cls-1" d="M283.29,34.29c-3.25,1.63-5.53,2.82-6.83,3.58-.11.21-.27.65-.49,1.3-.22.87-.33,1.46-.33,1.79l7.64-3.74c3.69-1.63,6.13-2.6,7.32-2.93l1.14-3.25c-2.5.76-5.32,1.84-8.46,3.25"/>
      <g class="cls-3">
        <rect class="cls-2" x="275.64" y="31.03" width="16.1" height="9.92"/>
      </g>
    </g>
  </g>
  <g>
    <g>
      <path class="cls-2" d="M80.55,137.96l2-1.26.7,2.25c.88,2.83,2.15,5.56,3.77,8.13.97-1.05,1.85-2.15,2.62-3.28-1.23-2.14-2.18-4.39-2.84-6.68-.3-1.04-.54-2.14-.72-3.26-.32-2.01-.41-4.04-.26-6.04-1.19,1.62-2.58,3.11-4.13,4.43-.87.75-1.77,1.43-2.67,2.02-2.94,1.95-6.25,3.39-9.83,4.26-2.72.66-5.59,1-8.53,1-6.55,0-13.5-1.68-20.11-4.86l-1.34-.65.38-1.44c1.21-4.61,2.96-8.87,5.22-12.67-1.04-.82-2.06-1.7-3.04-2.62-3,4.79-4.92,8.82-6.21,13.01-.8,2.62-1.8,5.04-2.97,7.2,2.97.31,6.02,1.13,9.07,2.45,5.76,2.49,11.48,3.7,17.5,3.7,2.82,0,5.76-.28,8.75-.82,4.59-.84,8.84-2.48,12.63-4.88Z"/>
      <g>
        <path class="cls-2" d="M80.43,82.94l-2.1-1.1c-2.63-1.38-5.47-2.42-8.44-3.1.06,1.43.22,2.83.48,4.17,2.39.65,4.66,1.56,6.74,2.72.95.53,1.9,1.14,2.82,1.8,1.65,1.2,3.15,2.57,4.48,4.09-.31-1.99-.39-4.01-.23-6.05.09-1.13.24-2.24.45-3.31.69-3.45,2.01-6.79,3.93-9.94,4.71-7.74,12.87-13.94,22.98-17.46l1.41-.49.75,1.28c2.42,4.11,4.2,8.35,5.3,12.63,1.32-.15,2.67-.25,4.01-.29-1.27-5.49-2.78-9.7-4.84-13.57-1.29-2.41-2.3-4.83-3.01-7.19-2.32,1.88-5.06,3.44-8.15,4.66-8.5,3.35-15.24,8.74-20.6,16.47-2.65,3.83-4.49,7.98-5.47,12.35l-.52,2.3Z"/>
        <path class="cls-2" d="M104.81,80.95l-2,1.26-.7-2.25c-.88-2.83-2.15-5.56-3.77-8.13-.98,1.06-1.85,2.16-2.62,3.28,1.23,2.14,2.18,4.39,2.84,6.68.3,1.04.54,2.13.72,3.26.32,2.01.41,4.04.26,6.04,1.19-1.62,2.58-3.11,4.13-4.43.87-.74,1.77-1.42,2.67-2.02,2.94-1.95,6.25-3.39,9.83-4.26,2.72-.66,5.59-1,8.53-1,6.55,0,13.5,1.68,20.11,4.86l1.34.65-.38,1.44c-1.21,4.61-2.96,8.87-5.22,12.67,1.04.82,2.05,1.7,3.04,2.62,3-4.78,4.92-8.82,6.21-13.01.8-2.62,1.8-5.03,2.97-7.2-2.97-.31-6.02-1.13-9.07-2.45-5.76-2.49-11.48-3.7-17.5-3.7-2.82,0-5.76.28-8.75.82-4.59.84-8.84,2.48-12.63,4.88Z"/>
        <path class="cls-2" d="M150.7,123.18c-3.45-8.44-8.93-15.09-16.75-20.35-3.87-2.6-8.06-4.39-12.45-5.32l-2.32-.49,1.08-2.1c1.35-2.64,2.37-5.47,3.01-8.44-1.44.07-2.84.25-4.18.52-.63,2.39-1.52,4.66-2.66,6.75-.52.96-1.12,1.91-1.77,2.83-1.18,1.66-2.54,3.17-4.05,4.5,1.42-.23,2.85-.35,4.29-.35.57,0,1.17.02,1.77.06,1.14.08,2.26.22,3.32.42,3.47.65,6.84,1.93,10.01,3.81,7.81,4.61,14.13,12.68,17.77,22.72l.51,1.4-1.28.76c-4.09,2.45-8.34,4.27-12.62,5.42.16,1.31.28,2.64.33,3.99,5.5-1.33,9.71-2.87,13.56-4.98,2.41-1.31,4.82-2.34,7.18-3.07-1.91-2.29-3.51-5.01-4.77-8.07Z"/>
        <path class="cls-2" d="M131.35,114.99c-1.04-.99-2.13-1.89-3.24-2.68-2.17,1.18-4.44,2.09-6.75,2.7-1.05.28-2.16.5-3.29.65-1.21.17-2.44.25-3.66.25-.8,0-1.61-.04-2.41-.11,1.6,1.22,3.07,2.63,4.37,4.2.72.87,1.38,1.78,1.97,2.7,1.9,2.97,3.27,6.29,4.08,9.88,1.98,8.83.41,18.94-4.43,28.46l-.67,1.33-1.43-.4c-4.59-1.29-8.83-3.12-12.6-5.45-.84,1.01-1.74,2.01-2.69,2.98,4.74,3.09,8.75,5.08,12.93,6.44,2.61.85,5.02,1.9,7.16,3.1.37-2.96,1.25-5.98,2.64-8.99,3.8-8.29,4.91-16.82,3.4-26.1-.75-4.59-2.31-8.86-4.64-12.68l-1.23-2.02,2.28-.66c2.86-.82,5.62-2.03,8.24-3.59Z"/>
        <path class="cls-2" d="M104.93,135.97l2.1,1.1c2.63,1.38,5.47,2.42,8.44,3.1-.06-1.43-.22-2.83-.48-4.17-2.39-.65-4.66-1.56-6.75-2.72-.96-.54-1.91-1.14-2.82-1.8-1.66-1.2-3.15-2.57-4.47-4.09.31,1.99.38,4.01.23,6.04-.09,1.13-.24,2.24-.45,3.31-.69,3.45-2.01,6.79-3.93,9.94-4.71,7.74-12.88,13.94-22.99,17.46l-1.41.49-.75-1.28c-2.42-4.11-4.2-8.36-5.3-12.63-1.32.15-2.66.25-4.01.29,1.28,5.5,2.78,9.7,4.84,13.57,1.29,2.41,2.3,4.82,3.01,7.19,2.32-1.88,5.06-3.44,8.15-4.66,8.5-3.35,15.24-8.74,20.6-16.47,2.65-3.83,4.49-7.98,5.47-12.35l.52-2.31Z"/>
        <path class="cls-2" d="M51.41,116.08c3.87,2.6,8.05,4.39,12.45,5.32l2.32.49-1.08,2.1c-1.35,2.64-2.37,5.47-3.01,8.44,1.44-.07,2.84-.25,4.18-.52.63-2.39,1.52-4.66,2.66-6.75.52-.95,1.12-1.91,1.77-2.83,1.18-1.66,2.54-3.17,4.05-4.5-1.41.23-2.85.35-4.29.35-.58,0-1.17-.02-1.77-.06-1.14-.07-2.25-.21-3.33-.42-3.47-.65-6.84-1.93-10.01-3.81-7.81-4.61-14.12-12.68-17.77-22.72l-.51-1.4,1.28-.76c4.09-2.45,8.33-4.27,12.62-5.42-.17-1.31-.28-2.65-.34-3.99-5.5,1.33-9.7,2.87-13.56,4.97-2.41,1.31-4.82,2.34-7.17,3.08,1.91,2.29,3.51,5,4.77,8.07,3.45,8.44,8.93,15.09,16.75,20.35Z"/>
        <path class="cls-2" d="M54.01,103.92c1.04.99,2.12,1.89,3.24,2.68,2.17-1.18,4.44-2.09,6.76-2.7,1.06-.28,2.16-.5,3.28-.65,1.21-.17,2.44-.25,3.66-.25.8,0,1.61.04,2.41.11-1.6-1.22-3.06-2.63-4.37-4.2-.72-.87-1.39-1.78-1.98-2.7-1.9-2.97-3.27-6.29-4.08-9.88-1.98-8.84-.41-18.95,4.43-28.46l.67-1.33,1.43.4c4.6,1.29,8.84,3.12,12.6,5.45.84-1.01,1.74-2.01,2.69-2.98-4.74-3.08-8.75-5.08-12.93-6.44-2.61-.85-5.02-1.9-7.16-3.1-.37,2.96-1.25,5.98-2.64,8.99-3.8,8.29-4.91,16.82-3.4,26.1.75,4.59,2.31,8.85,4.64,12.68l1.23,2.02-2.28.66c-2.85.82-5.62,2.03-8.23,3.59Z"/>
      </g>
    </g>
    <path class="cls-2" d="M92.68,105.41c-2.23,0-4.04,1.81-4.04,4.04s1.81,4.04,4.04,4.04,4.04-1.81,4.04-4.04-1.81-4.04-4.04-4.04Z"/>
  </g>
  <g>
    <path class="cls-2" d="M201.9,181.63c0-2.81,0-3.33-.04-3.92-.04-.63-.19-.93-.8-1.06-.15-.04-.46-.06-.72-.06-.2,0-.31-.04-.31-.17s.13-.17.41-.17c.98,0,2.15.06,2.67.06.76,0,1.83-.06,2.68-.06,2.31,0,3.15.78,3.44,1.06.41.39.93,1.22.93,2.2,0,2.63-1.92,4.48-4.55,4.48-.09,0-.3,0-.39-.02-.09-.02-.22-.04-.22-.17,0-.15.13-.2.52-.2,1.04,0,2.48-1.17,2.48-3.05,0-.61-.06-1.85-1.09-2.78-.67-.61-1.42-.72-1.85-.72-.28,0-.56.02-.72.07-.09.04-.15.15-.15.35v7.4c0,1.7,0,3.17.09,3.96.06.52.17.93.72,1,.26.04.67.07.94.07.2,0,.3.06.3.15,0,.13-.15.19-.35.19-1.22,0-2.39-.06-2.87-.06-.43,0-1.59.06-2.33.06-.24,0-.37-.06-.37-.19,0-.09.07-.15.3-.15.28,0,.5-.04.67-.07.37-.07.46-.48.54-1.02.09-.78.09-2.24.09-3.94v-3.26Z"/>
    <path class="cls-2" d="M216.43,181.63c0-2.81,0-3.33-.04-3.92-.04-.63-.19-.93-.8-1.06-.15-.04-.46-.06-.72-.06-.2,0-.31-.04-.31-.17s.13-.17.41-.17c.98,0,2.15.06,2.54.06.63,0,2.04-.06,2.61-.06,1.17,0,2.41.11,3.41.8.52.35,1.26,1.3,1.26,2.54,0,1.37-.57,2.63-2.44,4.15,1.65,2.07,2.92,3.72,4.02,4.87,1.04,1.07,1.8,1.2,2.07,1.26.2.04.37.06.52.06s.22.06.22.15c0,.15-.13.19-.35.19h-1.76c-1.04,0-1.5-.09-1.98-.35-.8-.43-1.5-1.3-2.54-2.72-.74-1.02-1.59-2.28-1.83-2.55-.09-.11-.2-.13-.33-.13l-1.61-.04c-.09,0-.15.04-.15.15v.26c0,1.72,0,3.18.09,3.96.06.54.17.94.72,1.02.28.04.69.07.91.07.15,0,.22.06.22.15,0,.13-.13.19-.37.19-1.07,0-2.44-.06-2.72-.06-.35,0-1.52.06-2.26.06-.24,0-.37-.06-.37-.19,0-.09.07-.15.3-.15.28,0,.5-.04.67-.07.37-.07.46-.48.54-1.02.09-.78.09-2.24.09-3.94v-3.26ZM218.61,183.09c0,.2.04.28.17.33.39.13.94.19,1.41.19.74,0,.98-.07,1.31-.32.56-.41,1.09-1.26,1.09-2.78,0-2.63-1.74-3.39-2.83-3.39-.46,0-.8.02-.98.07-.13.04-.17.11-.17.26v5.63Z"/>
    <path class="cls-2" d="M232.81,181.63c0-2.81,0-3.33-.04-3.92-.04-.63-.19-.93-.8-1.06-.15-.04-.46-.06-.72-.06-.2,0-.31-.04-.31-.17s.13-.17.41-.17c.5,0,1.04.02,1.5.02.48.02.91.04,1.17.04.59,0,4.28,0,4.63-.02.35-.04.65-.07.8-.11.09-.02.2-.07.3-.07s.11.07.11.17c0,.13-.09.35-.15,1.2-.02.19-.06,1-.09,1.22-.02.09-.06.2-.19.2s-.17-.09-.17-.26c0-.13-.02-.44-.11-.67-.13-.33-.31-.56-1.24-.67-.31-.04-2.26-.07-2.63-.07-.09,0-.13.06-.13.18v4.68c0,.13.02.2.13.2.41,0,2.54,0,2.96-.04.44-.04.72-.09.89-.28.13-.15.2-.24.3-.24.07,0,.13.04.13.15s-.07.41-.15,1.35c-.02.37-.07,1.11-.07,1.24,0,.15,0,.35-.17.35-.13,0-.17-.07-.17-.17-.02-.19-.02-.43-.07-.67-.09-.37-.35-.65-1.04-.72-.35-.04-2.18-.05-2.63-.05-.09,0-.11.07-.11.18v1.46c0,.63-.02,2.33,0,2.87.04,1.28.33,1.55,2.22,1.55.48,0,1.26,0,1.74-.22.48-.22.7-.61.83-1.37.04-.2.07-.28.2-.28.15,0,.15.15.15.33,0,.43-.15,1.68-.24,2.05-.13.48-.3.48-1,.48-1.39,0-2.41-.04-3.2-.06-.8-.04-1.37-.06-1.92-.06-.2,0-.61,0-1.06.02-.43,0-.91.04-1.28.04-.24,0-.37-.06-.37-.19,0-.09.07-.15.3-.15.28,0,.5-.04.67-.07.37-.07.46-.48.54-1.02.09-.78.09-2.24.09-3.94v-3.26Z"/>
    <path class="cls-2" d="M247.6,176.34c.06-.31.17-.48.31-.48s.26.09.5.57l5.05,10.44,5.03-10.57c.15-.3.24-.44.41-.44s.28.19.33.57l1.68,11.44c.17,1.17.35,1.7.91,1.87.54.17.91.19,1.15.19.17,0,.3.02.3.13,0,.15-.22.2-.48.2-.46,0-3.02-.06-3.76-.11-.43-.04-.54-.09-.54-.2,0-.09.07-.15.2-.2.11-.04.17-.28.09-.8l-1.11-8.14h-.07l-4.03,8.4c-.43.87-.52,1.04-.69,1.04s-.35-.37-.65-.93c-.44-.85-1.91-3.68-2.13-4.2-.17-.39-1.28-2.72-1.92-4.11h-.07l-.96,7.37c-.04.33-.06.57-.06.87,0,.35.24.52.56.59.33.07.59.09.78.09.15,0,.28.04.28.13,0,.17-.17.2-.44.2-.78,0-1.61-.06-1.94-.06-.35,0-1.24.06-1.83.06-.19,0-.33-.04-.33-.2,0-.09.11-.13.3-.13.15,0,.28,0,.56-.06.52-.11.67-.83.76-1.46l1.83-12.07Z"/>
    <path class="cls-2" d="M268.63,181.63c0-2.81,0-3.33-.04-3.92-.04-.63-.22-.94-.63-1.04-.2-.06-.44-.07-.67-.07-.19,0-.3-.04-.3-.18,0-.11.15-.15.44-.15.7,0,1.87.06,2.41.06.46,0,1.56-.06,2.26-.06.24,0,.39.04.39.15,0,.15-.11.18-.3.18s-.33.02-.56.06c-.5.09-.65.41-.68,1.06-.04.59-.04,1.11-.04,3.92v3.26c0,1.8,0,3.26.07,4.05.06.5.19.83.74.91.26.04.67.07.94.07.2,0,.3.06.3.15,0,.13-.15.19-.35.19-1.22,0-2.39-.06-2.89-.06-.43,0-1.59.06-2.33.06-.24,0-.37-.06-.37-.19,0-.09.07-.15.3-.15.28,0,.5-.04.67-.07.37-.07.48-.39.54-.93.09-.78.09-2.24.09-4.04v-3.26Z"/>
    <path class="cls-2" d="M278.61,181.63c0-2.81,0-3.33-.04-3.92-.04-.63-.19-.93-.8-1.06-.15-.04-.46-.06-.72-.06-.2,0-.31-.04-.31-.17s.13-.17.41-.17c.98,0,2.15.06,2.7.06.44,0,1.61-.06,2.28-.06.28,0,.41.04.41.17s-.11.17-.3.17c-.2,0-.31.02-.54.06-.5.09-.65.41-.69,1.06-.04.59-.04,1.11-.04,3.92v2.59c0,2.68.54,3.81,1.44,4.55.83.68,1.68.76,2.31.76.81,0,1.81-.26,2.55-1,1.02-1.02,1.07-2.68,1.07-4.59v-2.31c0-2.81,0-3.33-.04-3.92-.04-.63-.19-.93-.8-1.06-.15-.04-.46-.06-.67-.06s-.31-.04-.31-.17.13-.17.39-.17c.94,0,2.11.06,2.13.06.22,0,1.39-.06,2.11-.06.26,0,.39.04.39.17s-.11.17-.33.17c-.2,0-.31.02-.54.06-.5.09-.65.41-.68,1.06-.04.59-.04,1.11-.04,3.92v1.98c0,2.05-.2,4.24-1.76,5.57-1.31,1.13-2.65,1.33-3.85,1.33-.98,0-2.76-.06-4.11-1.28-.94-.85-1.65-2.22-1.65-4.9v-2.7Z"/>
    <path class="cls-2" d="M297.97,176.34c.06-.31.17-.48.31-.48s.26.09.5.57l5.05,10.44,5.03-10.57c.15-.3.24-.44.41-.44s.28.19.33.57l1.68,11.44c.17,1.17.35,1.7.91,1.87.54.17.91.19,1.15.19.17,0,.3.02.3.13,0,.15-.22.2-.48.2-.46,0-3.02-.06-3.76-.11-.43-.04-.54-.09-.54-.2,0-.09.07-.15.2-.2.11-.04.17-.28.09-.8l-1.11-8.14h-.07l-4.03,8.4c-.43.87-.52,1.04-.69,1.04s-.35-.37-.65-.93c-.44-.85-1.91-3.68-2.13-4.2-.17-.39-1.28-2.72-1.92-4.11h-.07l-.96,7.37c-.04.33-.06.57-.06.87,0,.35.24.52.56.59.33.07.59.09.78.09.15,0,.28.04.28.13,0,.17-.17.2-.44.2-.78,0-1.61-.06-1.94-.06-.35,0-1.24.06-1.83.06-.19,0-.33-.04-.33-.2,0-.09.11-.13.3-.13.15,0,.28,0,.56-.06.52-.11.67-.83.76-1.46l1.83-12.07Z"/>
    <path class="cls-2" d="M329.29,184.89c0,1.78,0,3.17.09,3.94.06.54.17.94.72,1.02.26.04.67.07.93.07.24,0,.31.06.31.15,0,.13-.13.19-.41.19-1.17,0-2.33-.06-2.81-.06s-1.65.06-2.35.06c-.26,0-.39-.04-.39-.19,0-.09.07-.15.28-.15.28,0,.5-.04.67-.07.37-.07.46-.48.54-1.02.09-.78.09-2.17.09-3.94v-3.26c0-2.81,0-3.33-.04-3.92-.04-.63-.19-.93-.8-1.06-.15-.04-.46-.06-.72-.06-.19,0-.31-.04-.31-.15,0-.15.15-.19.43-.19.48,0,1.02.02,1.5.02.48.02.91.04,1.17.04.7,0,4.46,0,4.89-.02.35-.02.57-.02.76-.07.11-.04.2-.11.3-.11.07,0,.13.07.13.17,0,.13-.09.35-.15.83-.02.19-.06,1.28-.09,1.5-.02.15-.06.26-.19.26s-.17-.09-.19-.3c0-.15,0-.44-.11-.7-.13-.26-.52-.54-1.22-.55l-2.85-.06c-.11,0-.17.06-.17.26v4.63c0,.11.02.17.13.17l2.37-.02c.31,0,.57,0,.83-.02.35-.02.61-.09.8-.33.09-.11.13-.19.24-.19.07,0,.11.06.11.17s-.09.57-.15,1.15c-.04.37-.07,1.22-.07,1.35,0,.17,0,.35-.19.35-.11,0-.15-.13-.15-.26s-.04-.35-.11-.57c-.09-.26-.37-.59-.94-.67-.46-.06-2.42-.06-2.74-.06-.09,0-.13.04-.13.17v1.5Z"/>
    <path class="cls-2" d="M341.25,185.43c-.09,0-.13.04-.17.15l-1,2.65c-.19.46-.28.91-.28,1.13,0,.33.17.57.74.57h.28c.22,0,.28.04.28.15,0,.15-.11.19-.31.19-.59,0-1.39-.06-1.96-.06-.2,0-1.22.06-2.18.06-.24,0-.35-.04-.35-.19,0-.11.07-.15.22-.15.17,0,.43-.02.57-.04.85-.11,1.2-.74,1.57-1.67l4.65-11.62c.22-.54.33-.74.52-.74.17,0,.28.17.46.59.44,1.02,3.41,8.57,4.59,11.38.7,1.67,1.24,1.92,1.63,2.02.28.06.56.07.78.07.15,0,.24.02.24.15,0,.15-.17.19-.85.19s-2.02,0-3.5-.04c-.33-.02-.56-.02-.56-.15,0-.11.07-.15.26-.17.13-.04.26-.2.17-.43l-1.48-3.92c-.04-.09-.09-.13-.19-.13h-4.13ZM345.03,184.5c.09,0,.11-.05.09-.11l-1.67-4.57c-.02-.07-.04-.17-.09-.17s-.09.09-.11.17l-1.7,4.55c-.02.07,0,.13.07.13h3.41Z"/>
    <path class="cls-2" d="M355.88,181.63c0-2.81,0-3.33-.04-3.92-.04-.63-.19-.93-.8-1.06-.15-.04-.46-.06-.72-.06-.2,0-.31-.04-.31-.17s.13-.17.41-.17c.98,0,2.15.06,2.54.06.63,0,2.04-.06,2.61-.06,1.17,0,2.41.11,3.41.8.52.35,1.26,1.3,1.26,2.54,0,1.37-.57,2.63-2.44,4.15,1.65,2.07,2.92,3.72,4.02,4.87,1.04,1.07,1.8,1.2,2.07,1.26.2.04.37.06.52.06s.22.06.22.15c0,.15-.13.19-.35.19h-1.76c-1.04,0-1.5-.09-1.98-.35-.8-.43-1.5-1.3-2.54-2.72-.74-1.02-1.59-2.28-1.83-2.55-.09-.11-.2-.13-.33-.13l-1.61-.04c-.09,0-.15.04-.15.15v.26c0,1.72,0,3.18.09,3.96.06.54.17.94.72,1.02.28.04.69.07.91.07.15,0,.22.06.22.15,0,.13-.13.19-.37.19-1.07,0-2.44-.06-2.72-.06-.35,0-1.52.06-2.26.06-.24,0-.37-.06-.37-.19,0-.09.07-.15.3-.15.28,0,.5-.04.67-.07.37-.07.46-.48.54-1.02.09-.78.09-2.24.09-3.94v-3.26ZM358.06,183.09c0,.2.04.28.17.33.39.13.94.19,1.41.19.74,0,.98-.07,1.31-.32.56-.41,1.09-1.26,1.09-2.78,0-2.63-1.74-3.39-2.83-3.39-.46,0-.8.02-.98.07-.13.04-.17.11-.17.26v5.63Z"/>
    <path class="cls-2" d="M372.94,176.34c.06-.31.17-.48.31-.48s.26.09.5.57l5.05,10.44,5.03-10.57c.15-.3.24-.44.41-.44s.28.19.33.57l1.68,11.44c.17,1.17.35,1.7.91,1.87.54.17.91.19,1.15.19.17,0,.3.02.3.13,0,.15-.22.2-.48.2-.46,0-3.02-.06-3.76-.11-.43-.04-.54-.09-.54-.2,0-.09.07-.15.2-.2.11-.04.17-.28.09-.8l-1.11-8.14h-.07l-4.03,8.4c-.43.87-.52,1.04-.69,1.04s-.35-.37-.65-.93c-.44-.85-1.91-3.68-2.13-4.2-.17-.39-1.28-2.72-1.92-4.11h-.07l-.96,7.37c-.04.33-.06.57-.06.87,0,.35.24.52.56.59.33.07.59.09.78.09.15,0,.28.04.28.13,0,.17-.17.2-.44.2-.78,0-1.61-.06-1.94-.06-.35,0-1.24.06-1.83.06-.19,0-.33-.04-.33-.2,0-.09.11-.13.3-.13.15,0,.28,0,.56-.06.52-.11.67-.83.76-1.46l1.83-12.07Z"/>
    <path class="cls-2" d="M401.93,181.63c0-2.81,0-3.33-.04-3.92-.04-.63-.19-.93-.8-1.06-.15-.04-.46-.06-.72-.06-.2,0-.31-.04-.31-.17s.13-.17.41-.17c.98,0,2.15.06,2.54.06.63,0,2.04-.06,2.61-.06,1.17,0,2.41.11,3.41.8.52.35,1.26,1.3,1.26,2.54,0,1.37-.57,2.63-2.44,4.15,1.65,2.07,2.92,3.72,4.02,4.87,1.04,1.07,1.8,1.2,2.07,1.26.2.04.37.06.52.06s.22.06.22.15c0,.15-.13.19-.35.19h-1.76c-1.04,0-1.5-.09-1.98-.35-.8-.43-1.5-1.3-2.54-2.72-.74-1.02-1.59-2.28-1.83-2.55-.09-.11-.2-.13-.33-.13l-1.61-.04c-.09,0-.15.04-.15.15v.26c0,1.72,0,3.18.09,3.96.06.54.17.94.72,1.02.28.04.69.07.91.07.15,0,.22.06.22.15,0,.13-.13.19-.37.19-1.07,0-2.44-.06-2.72-.06-.35,0-1.52.06-2.26.06-.24,0-.37-.06-.37-.19,0-.09.07-.15.3-.15.28,0,.5-.04.67-.07.37-.07.46-.48.54-1.02.09-.78.09-2.24.09-3.94v-3.26ZM404.12,183.09c0,.2.04.28.17.33.39.13.94.19,1.41.19.74,0,.98-.07,1.31-.32.56-.41,1.09-1.26,1.09-2.78,0-2.63-1.74-3.39-2.83-3.39-.46,0-.8.02-.98.07-.13.04-.17.11-.17.26v5.63Z"/>
    <path class="cls-2" d="M418.31,181.63c0-2.81,0-3.33-.04-3.92-.04-.63-.19-.93-.8-1.06-.15-.04-.46-.06-.72-.06-.2,0-.31-.04-.31-.17s.13-.17.41-.17c.5,0,1.04.02,1.5.02.48.02.91.04,1.17.04.59,0,4.28,0,4.63-.02.35-.04.65-.07.8-.11.09-.02.2-.07.3-.07s.11.07.11.17c0,.13-.09.35-.15,1.2-.02.19-.06,1-.09,1.22-.02.09-.06.2-.19.2s-.17-.09-.17-.26c0-.13-.02-.44-.11-.67-.13-.33-.31-.56-1.24-.67-.31-.04-2.26-.07-2.63-.07-.09,0-.13.06-.13.18v4.68c0,.13.02.2.13.2.41,0,2.54,0,2.96-.04.44-.04.72-.09.89-.28.13-.15.2-.24.3-.24.07,0,.13.04.13.15s-.07.41-.15,1.35c-.02.37-.07,1.11-.07,1.24,0,.15,0,.35-.17.35-.13,0-.17-.07-.17-.17-.02-.19-.02-.43-.07-.67-.09-.37-.35-.65-1.04-.72-.35-.04-2.18-.05-2.63-.05-.09,0-.11.07-.11.18v1.46c0,.63-.02,2.33,0,2.87.04,1.28.33,1.55,2.22,1.55.48,0,1.26,0,1.74-.22.48-.22.7-.61.83-1.37.04-.2.07-.28.2-.28.15,0,.15.15.15.33,0,.43-.15,1.68-.24,2.05-.13.48-.3.48-1,.48-1.39,0-2.41-.04-3.2-.06-.8-.04-1.37-.06-1.92-.06-.2,0-.61,0-1.06.02-.43,0-.91.04-1.28.04-.24,0-.37-.06-.37-.19,0-.09.07-.15.3-.15.28,0,.5-.04.67-.07.37-.07.46-.48.54-1.02.09-.78.09-2.24.09-3.94v-3.26Z"/>
    <path class="cls-2" d="M431.4,190.03c-.3-.13-.35-.22-.35-.63,0-1.02.07-2.13.09-2.42.02-.28.07-.48.22-.48.17,0,.19.17.19.32,0,.24.07.63.17.94.41,1.37,1.5,1.87,2.65,1.87,1.67,0,2.48-1.13,2.48-2.11,0-.91-.28-1.76-1.81-2.96l-.85-.67c-2.04-1.59-2.74-2.89-2.74-4.39,0-2.04,1.7-3.5,4.28-3.5,1.2,0,1.98.18,2.46.31.17.04.26.09.26.22,0,.24-.07.78-.07,2.22,0,.41-.06.56-.2.56-.13,0-.19-.11-.19-.33,0-.17-.09-.74-.48-1.22-.28-.35-.81-.91-2.02-.91-1.37,0-2.2.8-2.2,1.91,0,.85.43,1.5,1.96,2.67l.52.39c2.24,1.68,3.04,2.96,3.04,4.72,0,1.07-.41,2.35-1.74,3.22-.93.59-1.96.76-2.94.76-1.07,0-1.91-.13-2.7-.48Z"/>
    <path class="cls-2" d="M443.58,183.26c0-3.17,2.09-7.26,7.64-7.26,4.61,0,7.48,2.68,7.48,6.92s-2.96,7.59-7.66,7.59c-5.31,0-7.46-3.98-7.46-7.25ZM456.11,183.61c0-4.15-2.39-6.72-5.42-6.72-2.13,0-4.55,1.18-4.55,5.79,0,3.85,2.13,6.9,5.68,6.9,1.3,0,4.29-.63,4.29-5.98Z"/>
    <path class="cls-2" d="M464.98,181.63c0-2.81,0-3.33-.04-3.92-.04-.63-.19-.93-.8-1.06-.15-.04-.46-.06-.72-.06-.2,0-.31-.04-.31-.17s.13-.17.41-.17c.98,0,2.15.06,2.54.06.63,0,2.04-.06,2.61-.06,1.17,0,2.41.11,3.41.8.52.35,1.26,1.3,1.26,2.54,0,1.37-.57,2.63-2.44,4.15,1.65,2.07,2.92,3.72,4.02,4.87,1.04,1.07,1.8,1.2,2.07,1.26.2.04.37.06.52.06s.22.06.22.15c0,.15-.13.19-.35.19h-1.76c-1.04,0-1.5-.09-1.98-.35-.8-.43-1.5-1.3-2.54-2.72-.74-1.02-1.59-2.28-1.83-2.55-.09-.11-.2-.13-.33-.13l-1.61-.04c-.09,0-.15.04-.15.15v.26c0,1.72,0,3.18.09,3.96.06.54.17.94.72,1.02.28.04.69.07.91.07.15,0,.22.06.22.15,0,.13-.13.19-.37.19-1.07,0-2.44-.06-2.72-.06-.35,0-1.52.06-2.26.06-.24,0-.37-.06-.37-.19,0-.09.07-.15.3-.15.28,0,.5-.04.67-.07.37-.07.46-.48.54-1.02.09-.78.09-2.24.09-3.94v-3.26ZM467.17,183.09c0,.2.04.28.17.33.39.13.94.19,1.41.19.74,0,.98-.07,1.31-.32.56-.41,1.09-1.26,1.09-2.78,0-2.63-1.74-3.39-2.83-3.39-.46,0-.8.02-.98.07-.13.04-.17.11-.17.26v5.63Z"/>
    <path class="cls-2" d="M483.12,177.3l-2.76.07c-1.07.04-1.52.13-1.8.54-.19.28-.28.5-.31.65-.04.15-.09.22-.2.22-.13,0-.17-.09-.17-.3,0-.3.35-1.98.39-2.13.06-.24.11-.35.22-.35.15,0,.33.18.8.22.54.06,1.24.09,1.85.09h7.33c.59,0,1-.06,1.28-.09.28-.05.43-.09.5-.09.13,0,.15.11.15.39,0,.39-.06,1.67-.06,2.15-.02.19-.06.3-.17.3-.15,0-.19-.09-.2-.37l-.02-.2c-.04-.48-.54-1-2.18-1.04l-2.33-.06v7.59c0,1.7,0,3.17.09,3.96.06.52.17.93.72,1,.26.04.67.07.94.07.2,0,.3.06.3.15,0,.13-.15.19-.35.19-1.22,0-2.39-.06-2.91-.06-.43,0-1.59.06-2.33.06-.24,0-.37-.06-.37-.19,0-.09.07-.15.3-.15.28,0,.5-.04.67-.07.37-.07.48-.48.54-1.02.09-.78.09-2.24.09-3.94v-7.59Z"/>
  </g>
</svg>